0
SECTION
2
HEADER
9
$ACADVER
1
AC1006
0
ENDSEC
0
SECTION
2
TABLES
0
TABLE
2
LAYER
70
1
0
LAYER
70
0
62
1
6
CONTINUOUS
2
L46D0
0
ENDTAB
0
ENDSEC
0
SECTION
2
BLOCKS
0
ENDSEC
0
SECTION
2
ENTITIES
0
HATCH
8
L46D0
70
1
91
1
92
3
72
0
73
1
93
12
10
3950
20
2440
10
3950
20
2690
10
3940
20
2690
10
3940
20
2700
10
3930
20
2700
10
3930
20
2710
10
3940
20
2710
10
3940
20
2770
10
3950
20
2770
10
3950
20
3430
10
3960
20
3430
10
3960
20
2440
0
HATCH
8
L46D0
70
1
91
1
92
3
72
0
73
1
93
8
10
3950
20
3970
10
3950
20
4010
10
3940
20
4010
10
3940
20
4030
10
3950
20
4030
10
3950
20
4060
10
3960
20
4060
10
3960
20
3970
0
HATCH
8
L46D0
70
1
91
1
92
3
72
0
73
1
93
80
10
0
20
0
10
0
20
10
10
-10
20
10
10
-10
20
90
10
0
20
90
10
0
20
350
10
40
20
350
10
40
20
370
10
220
20
370
10
220
20
380
10
790
20
380
10
790
20
390
10
930
20
390
10
930
20
400
10
1000
20
400
10
1000
20
410
10
1020
20
410
10
1020
20
420
10
1030
20
420
10
1030
20
440
10
1040
20
440
10
1040
20
450
10
1050
20
450
10
1050
20
457.8
10
1420
20
457.8
10
1420
20
450
10
1530
20
450
10
1530
20
457.8
10
1604
20
457.8
10
1604
20
460
10
2090
20
460
10
2090
20
470
10
2150
20
470
10
2150
20
480
10
2180
20
480
10
2180
20
490
10
2210
20
490
10
2210
20
500
10
2230
20
500
10
2230
20
510
10
2250
20
510
10
2250
20
520
10
2260
20
520
10
2260
20
530
10
2270
20
530
10
2270
20
550
10
2280
20
550
10
2280
20
570
10
2290
20
570
10
2290
20
590
10
2300
20
590
10
2300
20
620
10
2310
20
620
10
2310
20
660
10
2320
20
660
10
2320
20
80
10
1940
20
80
10
1940
20
90
10
1750
20
90
10
1750
20
80
10
1730
20
80
10
1730
20
90
10
1650
20
90
10
1650
20
80
10
1490
20
80
10
1490
20
70
10
1420
20
70
10
1420
20
60
10
1400
20
60
10
1400
20
50
10
1390
20
50
10
1390
20
40
10
1370
20
40
10
1370
20
30
10
1350
20
30
10
1350
20
20
10
1320
20
20
10
1320
20
10
10
1280
20
10
10
1280
20
0
0
HATCH
8
L46D0
70
1
91
1
92
3
72
0
73
1
93
84
10
2310
20
7430
10
2310
20
7450
10
2300
20
7450
10
2300
20
7460
10
2290
20
7460
10
2290
20
7470
10
2260
20
7470
10
2260
20
7480
10
2250
20
7480
10
2250
20
7500
10
2240
20
7500
10
2240
20
7510
10
2210
20
7510
10
2210
20
7520
10
2100
20
7520
10
2100
20
7530
10
1710
20
7530
10
1710
20
7540
10
1700
20
7540
10
1700
20
7530
10
1680
20
7530
10
1680
20
7540
10
1640
20
7540
10
1640
20
7530
10
1450
20
7530
10
1450
20
7526
10
1100
20
7526
10
1100
20
7530
10
1090
20
7530
10
1090
20
7540
10
1080
20
7540
10
1080
20
7550
10
1060
20
7550
10
1060
20
7560
10
1030
20
7560
10
1030
20
7570
10
60
20
7570
10
60
20
7580
10
40
20
7580
10
40
20
7930
10
50
20
7930
10
50
20
7940
10
270
20
7940
10
270
20
7950
10
500
20
7950
10
500
20
7940
10
510
20
7940
10
510
20
7950
10
560
20
7950
10
560
20
7940
10
1030
20
7940
10
1030
20
7942.85
10
1420
20
7942.85
10
1420
20
7940
10
1440
20
7940
10
1440
20
7920
10
1450
20
7920
10
1450
20
7910
10
1480
20
7910
10
1480
20
7900
10
1870
20
7900
10
1870
20
7890
10
1970
20
7890
10
1970
20
7900
10
2120
20
7900
10
2120
20
7910
10
2170
20
7910
10
2170
20
7920
10
2210
20
7920
10
2210
20
7930
10
2230
20
7930
10
2230
20
7940
10
2270
20
7940
10
2270
20
7950
10
2280
20
7950
10
2280
20
7960
10
2290
20
7960
10
2290
20
7970
10
2300
20
7970
10
2300
20
7980
10
2310
20
7980
10
2310
20
7990
10
2320
20
7990
10
2320
20
7430
0
HATCH
8
L46D0
70
1
91
1
92
3
72
0
73
1
93
36
10
2320
20
80
10
2320
20
700
10
2330
20
700
10
2330
20
740
10
2340
20
740
10
2340
20
770
10
2350
20
770
10
2350
20
780
10
2360
20
780
10
2360
20
790
10
2390
20
790
10
2390
20
800
10
2560
20
800
10
2560
20
810
10
2580
20
810
10
2580
20
800
10
2590
20
800
10
2590
20
810
10
3450
20
810
10
3450
20
820
10
3600
20
820
10
3600
20
810
10
3620
20
810
10
3620
20
820
10
3630
20
820
10
3630
20
810
10
3640
20
810
10
3640
20
820
10
3820
20
820
10
3820
20
810
10
3840
20
810
10
3840
20
820
10
3940
20
820
10
3940
20
810
10
3970
20
810
10
3970
20
80
0
HATCH
8
L46D0
70
1
91
1
92
3
72
0
73
1
93
28
10
2380
20
7220
10
2380
20
7230
10
2370
20
7230
10
2370
20
7250
10
2360
20
7250
10
2360
20
7310
10
2350
20
7310
10
2350
20
7360
10
2340
20
7360
10
2340
20
7380
10
2330
20
7380
10
2330
20
7410
10
2320
20
7410
10
2320
20
8000
10
2330
20
8000
10
2330
20
8020
10
2340
20
8020
10
2340
20
8050
10
2350
20
8050
10
2350
20
8100
10
2360
20
8100
10
2360
20
8110
10
2370
20
8110
10
2370
20
8120
10
2380
20
8120
10
2380
20
8130
10
2390
20
8130
10
2390
20
7220
0
HATCH
8
L46D0
70
1
91
1
92
3
72
0
73
1
93
110
10
3970
20
90
10
3970
20
810
10
4000
20
810
10
4000
20
820
10
4030
20
820
10
4030
20
810
10
4270
20
810
10
4270
20
820
10
4360
20
820
10
4360
20
830
10
4420
20
830
10
4420
20
840
10
4450
20
840
10
4450
20
850
10
4460
20
850
10
4460
20
860
10
4480
20
860
10
4480
20
870
10
4500
20
870
10
4500
20
880
10
4520
20
880
10
4520
20
890
10
4550
20
890
10
4550
20
900
10
4560
20
900
10
4560
20
910
10
4570
20
910
10
4570
20
920
10
4580
20
920
10
4580
20
930
10
4600
20
930
10
4600
20
940
10
4610
20
940
10
4610
20
960
10
4620
20
960
10
4620
20
970
10
4630
20
970
10
4630
20
990
10
4650
20
990
10
4650
20
1000
10
4670
20
1000
10
4670
20
1010
10
4680
20
1010
10
4680
20
460
10
4660
20
460
10
4660
20
450
10
4650
20
450
10
4650
20
440
10
4630
20
440
10
4630
20
430
10
4620
20
430
10
4620
20
420
10
4610
20
420
10
4610
20
410
10
4600
20
410
10
4600
20
400
10
4580
20
400
10
4580
20
390
10
4560
20
390
10
4560
20
380
10
4550
20
380
10
4550
20
360
10
4540
20
360
10
4540
20
350
10
4530
20
350
10
4530
20
340
10
4520
20
340
10
4520
20
330
10
4500
20
330
10
4500
20
320
10
4490
20
320
10
4490
20
300
10
4470
20
300
10
4470
20
290
10
4450
20
290
10
4450
20
280
10
4440
20
280
10
4440
20
270
10
4420
20
270
10
4420
20
260
10
4410
20
260
10
4410
20
250
10
4400
20
250
10
4400
20
240
10
4380
20
240
10
4380
20
220
10
4370
20
220
10
4370
20
210
10
4360
20
210
10
4360
20
200
10
4330
20
200
10
4330
20
190
10
4310
20
190
10
4310
20
180
10
4300
20
180
10
4300
20
170
10
4290
20
170
10
4290
20
150
10
4280
20
150
10
4280
20
140
10
4250
20
140
10
4250
20
130
10
4230
20
130
10
4230
20
120
10
4220
20
120
10
4220
20
110
10
4210
20
110
10
4210
20
100
10
4190
20
100
10
4190
20
90
0
HATCH
8
L46D0
70
1
91
1
92
3
72
0
73
1
93
64
10
2530
20
7190
10
2530
20
7200
10
2410
20
7200
10
2410
20
7210
10
2390
20
7210
10
2390
20
8140
10
2410
20
8140
10
2410
20
8150
10
2600
20
8150
10
2600
20
8160
10
2670
20
8160
10
2670
20
8150
10
2690
20
8150
10
2690
20
8160
10
2720
20
8160
10
2720
20
8150
10
2750
20
8150
10
2750
20
8160
10
3010
20
8160
10
3010
20
8150
10
3040
20
8150
10
3040
20
8160
10
3060
20
8160
10
3060
20
8150
10
3080
20
8150
10
3080
20
8160
10
3150
20
8160
10
3150
20
8150
10
3240
20
8150
10
3240
20
8160
10
3310
20
8160
10
3310
20
7360
10
3290
20
7360
10
3290
20
7350
10
3280
20
7350
10
3280
20
7340
10
3260
20
7340
10
3260
20
7330
10
3250
20
7330
10
3250
20
7320
10
3240
20
7320
10
3240
20
7310
10
3220
20
7310
10
3220
20
7300
10
3210
20
7300
10
3210
20
7280
10
3200
20
7280
10
3200
20
7270
10
3180
20
7270
10
3180
20
7260
10
3170
20
7260
10
3170
20
7250
10
3140
20
7250
10
3140
20
7240
10
3130
20
7240
10
3130
20
7230
10
3110
20
7230
10
3110
20
7220
10
3090
20
7220
10
3090
20
7210
10
3070
20
7210
10
3070
20
7200
10
2930
20
7200
10
2930
20
7190
0
HATCH
8
L46D0
70
1
91
1
92
3
72
0
73
1
93
106
10
4300
20
7300
10
4300
20
7310
10
4290
20
7310
10
4290
20
7320
10
4280
20
7320
10
4280
20
7340
10
4270
20
7340
10
4270
20
7350
10
4260
20
7350
10
4260
20
7360
10
4250
20
7360
10
4250
20
7370
10
4240
20
7370
10
4240
20
7380
10
4220
20
7380
10
4220
20
7390
10
4210
20
7390
10
4210
20
7410
10
4180
20
7410
10
4180
20
7420
10
4170
20
7420
10
4170
20
7430
10
4160
20
7430
10
4160
20
7440
10
4150
20
7440
10
4150
20
7450
10
4140
20
7450
10
4140
20
7460
10
4120
20
7460
10
4120
20
7470
10
4080
20
7470
10
4080
20
7480
10
4060
20
7480
10
4060
20
7500
10
4040
20
7500
10
4040
20
7510
10
4010
20
7510
10
4010
20
7520
10
3880
20
7520
10
3880
20
7530
10
3720
20
7530
10
3720
20
7520
10
3550
20
7520
10
3550
20
7510
10
3520
20
7510
10
3520
20
7500
10
3500
20
7500
10
3500
20
7480
10
3480
20
7480
10
3480
20
7470
10
3450
20
7470
10
3450
20
7460
10
3420
20
7460
10
3420
20
7450
10
3410
20
7450
10
3410
20
7440
10
3400
20
7440
10
3400
20
7430
10
3390
20
7430
10
3390
20
7420
10
3380
20
7420
10
3380
20
7410
10
3350
20
7410
10
3350
20
7400
10
3340
20
7400
10
3340
20
7380
10
3320
20
7380
10
3320
20
7370
10
3310
20
7370
10
3310
20
8150
10
3330
20
8150
10
3330
20
8160
10
3340
20
8160
10
3340
20
8150
10
3430
20
8150
10
3430
20
8160
10
3460
20
8160
10
3460
20
8150
10
3500
20
8150
10
3500
20
8160
10
3580
20
8160
10
3580
20
8150
10
3610
20
8150
10
3610
20
8160
10
3650
20
8160
10
3650
20
8150
10
3680
20
8150
10
3680
20
8160
10
3750
20
8160
10
3750
20
8150
10
3780
20
8150
10
3780
20
8160
10
3790
20
8160
10
3790
20
8150
10
3810
20
8150
10
3810
20
8160
10
3830
20
8160
10
3830
20
8150
10
4260
20
8150
10
4260
20
8140
10
4280
20
8140
10
4280
20
8130
10
4290
20
8130
10
4290
20
8120
10
4310
20
8120
10
4310
20
7300
0
HATCH
8
L46D0
70
1
91
1
92
3
72
0
73
1
93
34
10
4030
20
2200
10
4030
20
2210
10
3990
20
2210
10
3990
20
2230
10
3980
20
2230
10
3980
20
2250
10
3970
20
2250
10
3970
20
6920
10
3980
20
6920
10
3980
20
6990
10
3990
20
6990
10
3990
20
7010
10
4000
20
7010
10
4000
20
7030
10
4010
20
7030
10
4010
20
7040
10
4040
20
7040
10
4040
20
7050
10
4070
20
7050
10
4070
20
7060
10
4140
20
7060
10
4140
20
7070
10
4230
20
7070
10
4230
20
7080
10
4250
20
7080
10
4250
20
7100
10
4270
20
7100
10
4270
20
7110
10
4290
20
7110
10
4290
20
7130
10
4300
20
7130
10
4300
20
7140
10
4310
20
7140
10
4310
20
2200
0
HATCH
8
L46D0
70
1
91
1
92
3
72
0
73
1
93
70
10
4660
20
2180
10
4660
20
2190
10
4630
20
2190
10
4630
20
2200
10
4310
20
2200
10
4310
20
7150
10
4320
20
7150
10
4320
20
7210
10
4330
20
7210
10
4330
20
7230
10
4320
20
7230
10
4320
20
7270
10
4310
20
7270
10
4310
20
8110
10
4320
20
8110
10
4320
20
8100
10
4350
20
8100
10
4350
20
8090
10
4360
20
8090
10
4360
20
8070
10
4370
20
8070
10
4370
20
8060
10
4380
20
8060
10
4380
20
8050
10
4390
20
8050
10
4390
20
8040
10
4410
20
8040
10
4410
20
8030
10
4420
20
8030
10
4420
20
8020
10
4430
20
8020
10
4430
20
8010
10
4440
20
8010
10
4440
20
8000
10
4450
20
8000
10
4450
20
7990
10
4480
20
7990
10
4480
20
7980
10
4490
20
7980
10
4490
20
7970
10
4500
20
7970
10
4500
20
7960
10
4510
20
7960
10
4510
20
7950
10
4520
20
7950
10
4520
20
7940
10
4540
20
7940
10
4540
20
7930
10
4550
20
7930
10
4550
20
7920
10
4560
20
7920
10
4560
20
7910
10
4570
20
7910
10
4570
20
7900
10
4580
20
7900
10
4580
20
7890
10
4610
20
7890
10
4610
20
7870
10
4620
20
7870
10
4620
20
7860
10
4630
20
7860
10
4630
20
7850
10
4640
20
7850
10
4640
20
7840
10
4650
20
7840
10
4650
20
7830
10
4670
20
7830
10
4670
20
7820
10
4680
20
7820
10
4680
20
2180
0
HATCH
8
L46D0
70
1
91
1
92
3
72
0
73
1
93
22
10
4680
20
470
10
4680
20
1020
10
4690
20
1020
10
4690
20
1030
10
4700
20
1030
10
4700
20
1040
10
4710
20
1040
10
4710
20
1050
10
4720
20
1050
10
4720
20
1070
10
4730
20
1070
10
4730
20
1090
10
4740
20
1090
10
4740
20
1100
10
4750
20
1100
10
4750
20
510
10
4730
20
510
10
4730
20
500
10
4720
20
500
10
4720
20
490
10
4690
20
490
10
4690
20
470
0
HATCH
8
L46D0
70
1
91
1
92
3
72
0
73
1
93
22
10
4740
20
2110
10
4740
20
2130
10
4730
20
2130
10
4730
20
2150
10
4710
20
2150
10
4710
20
2160
10
4700
20
2160
10
4700
20
2170
10
4680
20
2170
10
4680
20
7810
10
4690
20
7810
10
4690
20
7800
10
4700
20
7800
10
4700
20
7790
10
4710
20
7790
10
4710
20
7780
10
4730
20
7780
10
4730
20
7760
10
4740
20
7760
10
4740
20
7740
10
4750
20
7740
10
4750
20
2110
0
HATCH
8
L46D0
70
1
91
1
92
3
72
0
73
1
93
180
10
4750
20
530
10
4750
20
1120
10
4760
20
1120
10
4760
20
1190
10
4770
20
1190
10
4770
20
1660
10
4780
20
1660
10
4780
20
2000
10
4770
20
2000
10
4770
20
2050
10
4760
20
2050
10
4760
20
2090
10
4750
20
2090
10
4750
20
7730
10
4760
20
7730
10
4760
20
7700
10
4770
20
7700
10
4770
20
7250
10
4780
20
7250
10
4780
20
7180
10
4790
20
7180
10
4790
20
7150
10
4810
20
7150
10
4810
20
7130
10
4820
20
7130
10
4820
20
7120
10
4830
20
7120
10
4830
20
7110
10
4840
20
7110
10
4840
20
7100
10
4870
20
7100
10
4870
20
7080
10
4890
20
7080
10
4890
20
7070
10
5070
20
7070
10
5070
20
7060
10
5120
20
7060
10
5120
20
7070
10
5410
20
7070
10
5410
20
7072.1
10
5460
20
7072.1
10
5460
20
7070
10
5590
20
7070
10
5590
20
7072.1
10
5640
20
7072.1
10
5640
20
7070
10
5800
20
7070
10
5800
20
7060
10
5830
20
7060
10
5830
20
7070
10
5850
20
7070
10
5850
20
7060
10
5880
20
7060
10
5880
20
7070
10
5910
20
7070
10
5910
20
7060
10
6000
20
7060
10
6000
20
7050
10
6020
20
7050
10
6020
20
7040
10
6050
20
7040
10
6050
20
7030
10
6060
20
7030
10
6060
20
6990
10
6070
20
6990
10
6070
20
6970
10
6080
20
6970
10
6080
20
2660
10
6070
20
2660
10
6070
20
2320
10
6060
20
2320
10
6060
20
2270
10
6050
20
2270
10
6050
20
2250
10
6040
20
2250
10
6040
20
2230
10
6030
20
2230
10
6030
20
2220
10
6020
20
2220
10
6020
20
2210
10
5990
20
2210
10
5990
20
2200
10
5360
20
2200
10
5360
20
2190
10
5320
20
2190
10
5320
20
2180
10
5310
20
2180
10
5310
20
2170
10
5290
20
2170
10
5290
20
2160
10
5280
20
2160
10
5280
20
2150
10
5260
20
2150
10
5260
20
2130
10
5250
20
2130
10
5250
20
2110
10
5240
20
2110
10
5240
20
2100
10
5230
20
2100
10
5230
20
2060
10
5220
20
2060
10
5220
20
2010
10
5210
20
2010
10
5210
20
1640
10
5220
20
1640
10
5220
20
1630
10
5210
20
1630
10
5210
20
1570
10
5220
20
1570
10
5220
20
1500
10
5210
20
1500
10
5210
20
1010
10
5200
20
1010
10
5200
20
960
10
5190
20
960
10
5190
20
930
10
5180
20
930
10
5180
20
900
10
5170
20
900
10
5170
20
890
10
5160
20
890
10
5160
20
880
10
5150
20
880
10
5150
20
870
10
5140
20
870
10
5140
20
850
10
5130
20
850
10
5130
20
840
10
5120
20
840
10
5120
20
830
10
5100
20
830
10
5100
20
810
10
5090
20
810
10
5090
20
800
10
5070
20
800
10
5070
20
790
10
5060
20
790
10
5060
20
780
10
5040
20
780
10
5040
20
770
10
5030
20
770
10
5030
20
750
10
5020
20
750
10
5020
20
740
10
5010
20
740
10
5010
20
730
10
5000
20
730
10
5000
20
720
10
4980
20
720
10
4980
20
710
10
4970
20
710
10
4970
20
700
10
4960
20
700
10
4960
20
690
10
4940
20
690
10
4940
20
680
10
4930
20
680
10
4930
20
670
10
4910
20
670
10
4910
20
660
10
4900
20
660
10
4900
20
640
10
4890
20
640
10
4890
20
630
10
4880
20
630
10
4880
20
620
10
4850
20
620
10
4850
20
610
10
4840
20
610
10
4840
20
600
10
4820
20
600
10
4820
20
590
10
4810
20
590
10
4810
20
580
10
4800
20
580
10
4800
20
570
10
4780
20
570
10
4780
20
550
10
4770
20
550
10
4770
20
530
0
HATCH
8
L46D0
70
1
91
1
92
3
72
0
73
1
93
132
10
2520
20
4790
10
2520
20
4800
10
2410
20
4800
10
2410
20
4810
10
2390
20
4810
10
2390
20
4820
10
2380
20
4820
10
2380
20
4830
10
2370
20
4830
10
2370
20
4840
10
2360
20
4840
10
2360
20
4860
10
2350
20
4860
10
2350
20
4890
10
2340
20
4890
10
2340
20
4940
10
2330
20
4940
10
2330
20
4950
10
2320
20
4950
10
2320
20
4970
10
2310
20
4970
10
2310
20
4990
10
2290
20
4990
10
2290
20
5010
10
2280
20
5010
10
2280
20
5020
10
2270
20
5020
10
2270
20
5030
10
2250
20
5030
10
2250
20
5040
10
2170
20
5040
10
2170
20
5050
10
2130
20
5050
10
2130
20
5060
10
1553.05
20
5060
10
1553.05
20
5061.85
10
890.7
20
5061.85
10
890.7
20
5060
10
570
20
5060
10
570
20
5050
10
390
20
5050
10
390
20
5040
10
360
20
5040
10
360
20
5050
10
60
20
5050
10
60
20
5060
10
50
20
5060
10
50
20
5070
10
40
20
5070
10
40
20
5410
10
50
20
5410
10
50
20
5420
10
60
20
5420
10
60
20
5430
10
100
20
5430
10
100
20
5440
10
410
20
5440
10
410
20
5450
10
440
20
5450
10
440
20
5440
10
1010
20
5440
10
1010
20
5446.3
10
1470
20
5446.3
10
1470
20
5440
10
1840
20
5440
10
1840
20
5430
10
1960
20
5430
10
1960
20
5440
10
2080
20
5440
10
2080
20
5450
10
2170
20
5450
10
2170
20
5460
10
2250
20
5460
10
2250
20
5470
10
2270
20
5470
10
2270
20
5490
10
2290
20
5490
10
2290
20
5520
10
2310
20
5520
10
2310
20
5530
10
2320
20
5530
10
2320
20
5550
10
2330
20
5550
10
2330
20
5570
10
2340
20
5570
10
2340
20
5590
10
2350
20
5590
10
2350
20
5620
10
2360
20
5620
10
2360
20
5650
10
2370
20
5650
10
2370
20
5660
10
2390
20
5660
10
2390
20
5670
10
2450
20
5670
10
2450
20
5680
10
2530
20
5680
10
2530
20
5690
10
2550
20
5690
10
2550
20
5680
10
2580
20
5680
10
2580
20
5690
10
3220
20
5690
10
3220
20
5680
10
3340
20
5680
10
3340
20
5670
10
3380
20
5670
10
3380
20
5660
10
3390
20
5660
10
3390
20
5650
10
3400
20
5650
10
3400
20
5590
10
3410
20
5590
10
3410
20
5240
10
3420
20
5240
10
3420
20
5210
10
3430
20
5210
10
3430
20
5200
10
3420
20
5200
10
3420
20
5170
10
3410
20
5170
10
3410
20
4960
10
3400
20
4960
10
3400
20
4850
10
3390
20
4850
10
3390
20
4830
10
3370
20
4830
10
3370
20
4810
10
3350
20
4810
10
3350
20
4800
10
3250
20
4800
10
3250
20
4790
0
HATCH
8
L46D0
70
1
91
1
92
3
72
0
73
1
93
172
10
2490
20
5960
10
2490
20
5970
10
2430
20
5970
10
2430
20
5980
10
2390
20
5980
10
2390
20
5990
10
2370
20
5990
10
2370
20
6000
10
2360
20
6000
10
2360
20
6050
10
2350
20
6050
10
2350
20
6110
10
2340
20
6110
10
2340
20
6150
10
2330
20
6150
10
2330
20
6180
10
2320
20
6180
10
2320
20
6200
10
2310
20
6200
10
2310
20
6210
10
2300
20
6210
10
2300
20
6220
10
2290
20
6220
10
2290
20
6240
10
2280
20
6240
10
2280
20
6250
10
2260
20
6250
10
2260
20
6260
10
2220
20
6260
10
2220
20
6270
10
2190
20
6270
10
2190
20
6280
10
2160
20
6280
10
2160
20
6290
10
2070
20
6290
10
2070
20
6310
10
2050
20
6310
10
2050
20
6300
10
2040
20
6300
10
2040
20
6290
10
2030
20
6290
10
2030
20
6310
10
2020
20
6310
10
2020
20
6290
10
2000
20
6290
10
2000
20
6310
10
1520
20
6310
10
1520
20
6298.55
10
1510
20
6298.55
10
1510
20
6310
10
1490
20
6310
10
1490
20
6300
10
1480
20
6300
10
1480
20
6298.55
10
1060
20
6298.55
10
1060
20
6310
10
940
20
6310
10
940
20
6320
10
890
20
6320
10
890
20
6310
10
750
20
6310
10
750
20
6320
10
740
20
6320
10
740
20
6310
10
70
20
6310
10
70
20
6320
10
60
20
6320
10
60
20
6340
10
50
20
6340
10
50
20
6470
10
60
20
6470
10
60
20
6480
10
50
20
6480
10
50
20
6500
10
60
20
6500
10
60
20
6520
10
50
20
6520
10
50
20
6550
10
60
20
6550
10
60
20
6570
10
50
20
6570
10
50
20
6660
10
60
20
6660
10
60
20
6670
10
210
20
6670
10
210
20
6680
10
610
20
6680
10
610
20
6670
10
640
20
6670
10
640
20
6680
10
710
20
6680
10
710
20
6670
10
850
20
6670
10
850
20
6680
10
870
20
6680
10
870
20
6670
10
950
20
6670
10
950
20
6680
10
1040
20
6680
10
1040
20
6683
10
1440
20
6683
10
1440
20
6680
10
1450
20
6680
10
1450
20
6670
10
3070
20
6670
10
3070
20
6660
10
3090
20
6660
10
3090
20
6650
10
3100
20
6650
10
3100
20
6640
10
3120
20
6640
10
3120
20
6630
10
3130
20
6630
10
3130
20
6620
10
3150
20
6620
10
3150
20
6610
10
3160
20
6610
10
3160
20
6600
10
3170
20
6600
10
3170
20
6590
10
3180
20
6590
10
3180
20
6580
10
3190
20
6580
10
3190
20
6570
10
3230
20
6570
10
3230
20
6560
10
3240
20
6560
10
3240
20
6550
10
3250
20
6550
10
3250
20
6540
10
3260
20
6540
10
3260
20
6530
10
3270
20
6530
10
3270
20
6520
10
3290
20
6520
10
3290
20
6510
10
3300
20
6510
10
3300
20
6490
10
3310
20
6490
10
3310
20
6480
10
3320
20
6480
10
3320
20
6470
10
3330
20
6470
10
3330
20
6460
10
3350
20
6460
10
3350
20
6450
10
3360
20
6450
10
3360
20
6440
10
3370
20
6440
10
3370
20
6430
10
3380
20
6430
10
3380
20
6410
10
3390
20
6410
10
3390
20
6390
10
3400
20
6390
10
3400
20
6330
10
3410
20
6330
10
3410
20
6090
10
3420
20
6090
10
3420
20
6060
10
3410
20
6060
10
3410
20
6050
10
3400
20
6050
10
3400
20
6030
10
3390
20
6030
10
3390
20
5990
10
3370
20
5990
10
3370
20
5980
10
3340
20
5980
10
3340
20
5970
10
3260
20
5970
10
3260
20
5960
0
HATCH
8
L46D0
70
1
91
1
92
3
72
0
73
1
93
144
10
2510
20
3580
10
2510
20
3590
10
2420
20
3590
10
2420
20
3600
10
2390
20
3600
10
2390
20
3610
10
2370
20
3610
10
2370
20
3620
10
2360
20
3620
10
2360
20
3630
10
2350
20
3630
10
2350
20
3660
10
2340
20
3660
10
2340
20
3680
10
2330
20
3680
10
2330
20
3710
10
2320
20
3710
10
2320
20
3720
10
2310
20
3720
10
2310
20
3740
10
2300
20
3740
10
2300
20
3750
10
2290
20
3750
10
2290
20
3770
10
2280
20
3770
10
2280
20
3780
10
2260
20
3780
10
2260
20
3790
10
2240
20
3790
10
2240
20
3800
10
2230
20
3800
10
2230
20
3810
10
2210
20
3810
10
2210
20
3820
10
2170
20
3820
10
2170
20
3830
10
1450
20
3830
10
1450
20
3820
10
1440
20
3820
10
1440
20
3810
10
1420
20
3810
10
1420
20
3806.65
10
1040
20
3806.65
10
1040
20
3810
10
570
20
3810
10
570
20
3800
10
60
20
3800
10
60
20
3810
10
50
20
3810
10
50
20
3830
10
40
20
3830
10
40
20
3980
10
50
20
3980
10
50
20
4140
10
40
20
4140
10
40
20
4150
10
50
20
4150
10
50
20
4160
10
70
20
4160
10
70
20
4170
10
100
20
4170
10
100
20
4180
10
440
20
4180
10
440
20
4190
10
530
20
4190
10
530
20
4180
10
940
20
4180
10
940
20
4190
10
1020
20
4190
10
1020
20
4200
10
1060
20
4200
10
1060
20
4204.95
10
1450
20
4204.95
10
1450
20
4200
10
2110
20
4200
10
2110
20
4210
10
2160
20
4210
10
2160
20
4220
10
2200
20
4220
10
2200
20
4230
10
2230
20
4230
10
2230
20
4240
10
2260
20
4240
10
2260
20
4250
10
2280
20
4250
10
2280
20
4260
10
2290
20
4260
10
2290
20
4270
10
2300
20
4270
10
2300
20
4290
10
2310
20
4290
10
2310
20
4300
10
2320
20
4300
10
2320
20
4330
10
2330
20
4330
10
2330
20
4350
10
2340
20
4350
10
2340
20
4370
10
2350
20
4370
10
2350
20
4410
10
2360
20
4410
10
2360
20
4440
10
2380
20
4440
10
2380
20
4450
10
2390
20
4450
10
2390
20
4460
10
2440
20
4460
10
2440
20
4470
10
2540
20
4470
10
2540
20
4480
10
3260
20
4480
10
3260
20
4470
10
3330
20
4470
10
3330
20
4460
10
3380
20
4460
10
3380
20
4440
10
3390
20
4440
10
3390
20
4410
10
3400
20
4410
10
3400
20
4230
10
3410
20
4230
10
3410
20
4000
10
3420
20
4000
10
3420
20
3970
10
3410
20
3970
10
3410
20
3940
10
3400
20
3940
10
3400
20
3910
10
3410
20
3910
10
3410
20
3850
10
3400
20
3850
10
3400
20
3660
10
3390
20
3660
10
3390
20
3630
10
3380
20
3630
10
3380
20
3620
10
3370
20
3620
10
3370
20
3610
10
3360
20
3610
10
3360
20
3600
10
3340
20
3600
10
3340
20
3590
10
3250
20
3590
10
3250
20
3580
0
HATCH
8
L46D0
70
1
91
1
92
3
72
0
73
1
93
190
10
70
20
2520
10
70
20
2530
10
50
20
2530
10
50
20
2550
10
40
20
2550
10
40
20
2570
10
30
20
2570
10
30
20
2620
10
40
20
2620
10
40
20
2890
10
50
20
2890
10
50
20
2900
10
60
20
2900
10
60
20
2910
10
220
20
2910
10
220
20
2920
10
1010
20
2920
10
1010
20
2940
10
1050
20
2940
10
1050
20
2950
10
1060
20
2950
10
1060
20
2960
10
1070
20
2960
10
1070
20
2963.65
10
1440
20
2963.65
10
1440
20
2960
10
2070
20
2960
10
2070
20
2970
10
2140
20
2970
10
2140
20
2980
10
2180
20
2980
10
2180
20
2990
10
2230
20
2990
10
2230
20
3000
10
2240
20
3000
10
2240
20
3010
10
2260
20
3010
10
2260
20
3020
10
2270
20
3020
10
2270
20
3030
10
2290
20
3030
10
2290
20
3040
10
2300
20
3040
10
2300
20
3060
10
2310
20
3060
10
2310
20
3080
10
2320
20
3080
10
2320
20
3090
10
2330
20
3090
10
2330
20
3150
10
2340
20
3150
10
2340
20
3220
10
2350
20
3220
10
2350
20
3250
10
2360
20
3250
10
2360
20
3270
10
2370
20
3270
10
2370
20
3280
10
2390
20
3280
10
2390
20
3290
10
2410
20
3290
10
2410
20
3300
10
2680
20
3300
10
2680
20
3310
10
3130
20
3310
10
3130
20
3300
10
3150
20
3300
10
3150
20
3310
10
3200
20
3310
10
3200
20
3300
10
3340
20
3300
10
3340
20
3290
10
3360
20
3290
10
3360
20
3280
10
3370
20
3280
10
3370
20
3260
10
3380
20
3260
10
3380
20
3250
10
3390
20
3250
10
3390
20
3080
10
3400
20
3080
10
3400
20
3070
10
3390
20
3070
10
3390
20
3050
10
3400
20
3050
10
3400
20
3030
10
3390
20
3030
10
3390
20
2890
10
3380
20
2890
10
3380
20
2860
10
3370
20
2860
10
3370
20
2840
10
3360
20
2840
10
3360
20
2830
10
3340
20
2830
10
3340
20
2820
10
3330
20
2820
10
3330
20
2810
10
3320
20
2810
10
3320
20
2800
10
3310
20
2800
10
3310
20
2790
10
3300
20
2790
10
3300
20
2780
10
3280
20
2780
10
3280
20
2770
10
3270
20
2770
10
3270
20
2760
10
3260
20
2760
10
3260
20
2750
10
3250
20
2750
10
3250
20
2730
10
3240
20
2730
10
3240
20
2720
10
3210
20
2720
10
3210
20
2710
10
3200
20
2710
10
3200
20
2700
10
3190
20
2700
10
3190
20
2690
10
3180
20
2690
10
3180
20
2680
10
3170
20
2680
10
3170
20
2670
10
3150
20
2670
10
3150
20
2660
10
3140
20
2660
10
3140
20
2650
10
3130
20
2650
10
3130
20
2640
10
3120
20
2640
10
3120
20
2630
10
3110
20
2630
10
3110
20
2620
10
3060
20
2620
10
3060
20
2610
10
3030
20
2610
10
3030
20
2600
10
3000
20
2600
10
3000
20
2590
10
2850
20
2590
10
2850
20
2580
10
2800
20
2580
10
2800
20
2590
10
2720
20
2590
10
2720
20
2580
10
2680
20
2580
10
2680
20
2590
10
2650
20
2590
10
2650
20
2580
10
2620
20
2580
10
2620
20
2590
10
2570
20
2590
10
2570
20
2580
10
2560
20
2580
10
2560
20
2590
10
2520
20
2590
10
2520
20
2580
10
2510
20
2580
10
2510
20
2590
10
2490
20
2590
10
2490
20
2580
10
2470
20
2580
10
2470
20
2590
10
2250
20
2590
10
2250
20
2580
10
2220
20
2580
10
2220
20
2590
10
1500
20
2590
10
1500
20
2580
10
1450
20
2580
10
1450
20
2570
10
1420
20
2570
10
1420
20
2560
10
1400
20
2560
10
1400
20
2550
10
1370
20
2550
10
1370
20
2546.75
10
1020
20
2546.75
10
1020
20
2550
10
620
20
2550
10
620
20
2540
10
610
20
2540
10
610
20
2530
10
370
20
2530
10
370
20
2520
10
340
20
2520
10
340
20
2530
10
90
20
2530
10
90
20
2520
0
HATCH
8
L46D0
70
1
91
1
92
3
72
0
73
1
93
170
10
30
20
1260
10
30
20
1270
10
20
20
1270
10
20
20
1630
10
30
20
1630
10
30
20
1640
10
190
20
1640
10
190
20
1650
10
430
20
1650
10
430
20
1660
10
440
20
1660
10
440
20
1650
10
490
20
1650
10
490
20
1660
10
510
20
1660
10
510
20
1650
10
570
20
1650
10
570
20
1660
10
590
20
1660
10
590
20
1650
10
770
20
1650
10
770
20
1660
10
970
20
1660
10
970
20
1670
10
1030
20
1670
10
1030
20
1680
10
1040
20
1680
10
1040
20
1700
10
1050
20
1700
10
1050
20
1708.4
10
1511.35
20
1708.4
10
1511.35
20
1710
10
2090
20
1710
10
2090
20
1720
10
2180
20
1720
10
2180
20
1730
10
2210
20
1730
10
2210
20
1740
10
2220
20
1740
10
2220
20
1760
10
2230
20
1760
10
2230
20
1770
10
2250
20
1770
10
2250
20
1780
10
2270
20
1780
10
2270
20
1790
10
2280
20
1790
10
2280
20
1810
10
2290
20
1810
10
2290
20
1820
10
2300
20
1820
10
2300
20
1840
10
2310
20
1840
10
2310
20
1870
10
2320
20
1870
10
2320
20
1920
10
2330
20
1920
10
2330
20
2060
10
2340
20
2060
10
2340
20
2090
10
2350
20
2090
10
2350
20
2110
10
2370
20
2110
10
2370
20
2120
10
2390
20
2120
10
2390
20
2130
10
2440
20
2130
10
2440
20
2150
10
3290
20
2150
10
3290
20
2130
10
3330
20
2130
10
3330
20
2120
10
3360
20
2120
10
3360
20
2110
10
3380
20
2110
10
3380
20
1990
10
3390
20
1990
10
3390
20
1720
10
3380
20
1720
10
3380
20
1650
10
3370
20
1650
10
3370
20
1620
10
3360
20
1620
10
3360
20
1610
10
3350
20
1610
10
3350
20
1600
10
3340
20
1600
10
3340
20
1580
10
3330
20
1580
10
3330
20
1570
10
3320
20
1570
10
3320
20
1560
10
3310
20
1560
10
3310
20
1540
10
3300
20
1540
10
3300
20
1530
10
3290
20
1530
10
3290
20
1520
10
3280
20
1520
10
3280
20
1510
10
3250
20
1510
10
3250
20
1500
10
3240
20
1500
10
3240
20
1490
10
3230
20
1490
10
3230
20
1480
10
3220
20
1480
10
3220
20
1470
10
3210
20
1470
10
3210
20
1460
10
3190
20
1460
10
3190
20
1450
10
3180
20
1450
10
3180
20
1440
10
3170
20
1440
10
3170
20
1430
10
3160
20
1430
10
3160
20
1420
10
3150
20
1420
10
3150
20
1410
10
3120
20
1410
10
3120
20
1400
10
3100
20
1400
10
3100
20
1390
10
3090
20
1390
10
3090
20
1380
10
3080
20
1380
10
3080
20
1370
10
3060
20
1370
10
3060
20
1360
10
3010
20
1360
10
3010
20
1340
10
2950
20
1340
10
2950
20
1330
10
1850
20
1330
10
1850
20
1340
10
1830
20
1340
10
1830
20
1330
10
1790
20
1330
10
1790
20
1340
10
1780
20
1340
10
1780
20
1330
10
1740
20
1330
10
1740
20
1340
10
1730
20
1340
10
1730
20
1330
10
1520
20
1330
10
1520
20
1320
10
1430
20
1320
10
1430
20
1310
10
1420
20
1310
10
1420
20
1300
10
1370
20
1300
10
1370
20
1290
10
1350
20
1290
10
1350
20
1282.3
10
872.15
20
1282.3
10
872.15
20
1280
10
670
20
1280
10
670
20
1270
10
390
20
1270
10
390
20
1260
10
230
20
1260
10
230
20
1270
10
180
20
1270
10
180
20
1260
10
140
20
1260
10
140
20
1270
10
80
20
1270
10
80
20
1260
0
HATCH
8
L46D0
70
1
91
1
92
3
72
0
73
1
93
62
10
11410
20
0
10
11410
20
10
10
11400
20
10
10
11400
20
20
10
11390
20
20
10
11390
20
30
10
11380
20
30
10
11380
20
40
10
11310
20
40
10
11310
20
50
10
11140
20
50
10
11140
20
60
10
10860
20
60
10
10860
20
50
10
10460
20
50
10
10460
20
540
10
10470
20
540
10
10470
20
520
10
10480
20
520
10
10480
20
510
10
10490
20
510
10
10490
20
500
10
10500
20
500
10
10500
20
490
10
10530
20
490
10
10530
20
480
10
10550
20
480
10
10550
20
470
10
10570
20
470
10
10570
20
460
10
10660
20
460
10
10660
20
450
10
10780
20
450
10
10780
20
440
10
11060
20
440
10
11060
20
430
10
11730
20
430
10
11730
20
420
10
11740
20
420
10
11740
20
410
10
11760
20
410
10
11760
20
400
10
11780
20
400
10
11780
20
390
10
11790
20
390
10
11790
20
380
10
11810
20
380
10
11810
20
370
10
11840
20
370
10
11840
20
350
10
12090
20
350
10
12090
20
340
10
12610
20
340
10
12610
20
330
10
12760
20
330
10
12760
20
320
10
12780
20
320
10
12780
20
300
10
12790
20
300
10
12790
20
250
10
12780
20
250
10
12780
20
0
0
HATCH
8
L46D0
70
1
91
1
92
3
72
0
73
1
93
100
10
10460
20
7400
10
10460
20
8020
10
10470
20
8020
10
10470
20
7990
10
10490
20
7990
10
10490
20
7980
10
10500
20
7980
10
10500
20
7970
10
10510
20
7970
10
10510
20
7960
10
10520
20
7960
10
10520
20
7950
10
10530
20
7950
10
10530
20
7940
10
10560
20
7940
10
10560
20
7930
10
10580
20
7930
10
10580
20
7920
10
10610
20
7920
10
10610
20
7910
10
10700
20
7910
10
10700
20
7900
10
10810
20
7900
10
10810
20
7890
10
11260
20
7890
10
11260
20
7900
10
11270
20
7900
10
11270
20
7890
10
11310
20
7890
10
11310
20
7900
10
11380
20
7900
10
11380
20
7910
10
11390
20
7910
10
11390
20
7920
10
11400
20
7920
10
11400
20
7930
10
11410
20
7930
10
11410
20
7940
10
11430
20
7940
10
11430
20
7942.85
10
11770
20
7942.85
10
11770
20
7940
10
12660
20
7940
10
12660
20
7930
10
12680
20
7930
10
12680
20
7940
10
12700
20
7940
10
12700
20
7930
10
12760
20
7930
10
12760
20
7920
10
12770
20
7920
10
12770
20
7900
10
12780
20
7900
10
12780
20
7580
10
12770
20
7580
10
12770
20
7570
10
12750
20
7570
10
12750
20
7560
10
12440
20
7560
10
12440
20
7550
10
12420
20
7550
10
12420
20
7560
10
12240
20
7560
10
12240
20
7570
10
11890
20
7570
10
11890
20
7560
10
11800
20
7560
10
11800
20
7550
10
11780
20
7550
10
11780
20
7540
10
11760
20
7540
10
11760
20
7530
10
11750
20
7530
10
11750
20
7526
10
11360
20
7526
10
11360
20
7530
10
11050
20
7530
10
11050
20
7520
10
11010
20
7520
10
11010
20
7530
10
10890
20
7530
10
10890
20
7520
10
10620
20
7520
10
10620
20
7510
10
10570
20
7510
10
10570
20
7500
10
10560
20
7500
10
10560
20
7480
10
10540
20
7480
10
10540
20
7470
10
10510
20
7470
10
10510
20
7460
10
10500
20
7460
10
10500
20
7450
10
10490
20
7450
10
10490
20
7440
10
10480
20
7440
10
10480
20
7420
10
10470
20
7420
10
10470
20
7400
0
HATCH
8
L46D0
70
1
91
1
92
3
72
0
73
1
93
168
10
7980
20
530
10
7980
20
540
10
7970
20
540
10
7970
20
550
10
7960
20
550
10
7960
20
570
10
7940
20
570
10
7940
20
580
10
7930
20
580
10
7930
20
590
10
7920
20
590
10
7920
20
600
10
7900
20
600
10
7900
20
610
10
7890
20
610
10
7890
20
620
10
7870
20
620
10
7870
20
630
10
7860
20
630
10
7860
20
640
10
7850
20
640
10
7850
20
650
10
7840
20
650
10
7840
20
660
10
7830
20
660
10
7830
20
670
10
7810
20
670
10
7810
20
680
10
7800
20
680
10
7800
20
690
10
7780
20
690
10
7780
20
710
10
7770
20
710
10
7770
20
720
10
7740
20
720
10
7740
20
730
10
7730
20
730
10
7730
20
740
10
7720
20
740
10
7720
20
750
10
7710
20
750
10
7710
20
780
10
7690
20
780
10
7690
20
790
10
7680
20
790
10
7680
20
800
10
7660
20
800
10
7660
20
810
10
7650
20
810
10
7650
20
820
10
7640
20
820
10
7640
20
830
10
7630
20
830
10
7630
20
840
10
7620
20
840
10
7620
20
850
10
7610
20
850
10
7610
20
870
10
7600
20
870
10
7600
20
880
10
7590
20
880
10
7590
20
890
10
7580
20
890
10
7580
20
900
10
7570
20
900
10
7570
20
930
10
7560
20
930
10
7560
20
970
10
7550
20
970
10
7550
20
1020
10
7540
20
1020
10
7540
20
1590
10
7550
20
1590
10
7550
20
1600
10
7540
20
1600
10
7540
20
1670
10
7550
20
1670
10
7550
20
2010
10
7540
20
2010
10
7540
20
2070
10
7530
20
2070
10
7530
20
2090
10
7520
20
2090
10
7520
20
2110
10
7510
20
2110
10
7510
20
2120
10
7500
20
2120
10
7500
20
2150
10
7480
20
2150
10
7480
20
2160
10
7470
20
2160
10
7470
20
2170
10
7450
20
2170
10
7450
20
2180
10
7430
20
2180
10
7430
20
2190
10
7410
20
2190
10
7410
20
2200
10
6820
20
2200
10
6820
20
2210
10
6740
20
2210
10
6740
20
2220
10
6730
20
2220
10
6730
20
2230
10
6720
20
2230
10
6720
20
2250
10
6710
20
2250
10
6710
20
2280
10
6700
20
2280
10
6700
20
6600
10
6710
20
6600
10
6710
20
6610
10
6700
20
6610
10
6700
20
6710
10
6710
20
6710
10
6710
20
6760
10
6700
20
6760
10
6700
20
6780
10
6710
20
6780
10
6710
20
6950
10
6720
20
6950
10
6720
20
7000
10
6730
20
7000
10
6730
20
7030
10
6740
20
7030
10
6740
20
7040
10
6770
20
7040
10
6770
20
7050
10
6780
20
7050
10
6780
20
7060
10
6840
20
7060
10
6840
20
7070
10
7230
20
7070
10
7230
20
7076.7
10
7300
20
7076.7
10
7300
20
7070
10
7370
20
7070
10
7370
20
7076.7
10
7440
20
7076.7
10
7440
20
7070
10
7900
20
7070
10
7900
20
7080
10
7920
20
7080
10
7920
20
7100
10
7950
20
7100
10
7950
20
7110
10
7970
20
7110
10
7970
20
7130
10
7980
20
7130
10
7980
20
7150
10
7990
20
7150
10
7990
20
1980
10
7980
20
1980
10
7980
20
1970
10
7990
20
1970
10
7990
20
1940
10
7980
20
1940
10
7980
20
1620
10
7990
20
1620
10
7990
20
1480
10
7980
20
1480
10
7980
20
1460
10
7990
20
1460
10
7990
20
1440
10
7980
20
1440
10
7980
20
1210
10
7990
20
1210
10
7990
20
530
0
HATCH
8
L46D0
70
1
91
1
92
3
72
0
73
1
93
186
10
10090
20
50
10
10090
20
60
10
9570
20
60
10
9570
20
70
10
9530
20
70
10
9530
20
60
10
9490
20
60
10
9490
20
70
10
9470
20
70
10
9470
20
60
10
9450
20
60
10
9450
20
70
10
9430
20
70
10
9430
20
60
10
9370
20
60
10
9370
20
70
10
8740
20
70
10
8740
20
80
10
8620
20
80
10
8620
20
90
10
8540
20
90
10
8540
20
100
10
8520
20
100
10
8520
20
110
10
8500
20
110
10
8500
20
120
10
8490
20
120
10
8490
20
130
10
8480
20
130
10
8480
20
140
10
8450
20
140
10
8450
20
160
10
8440
20
160
10
8440
20
170
10
8430
20
170
10
8430
20
180
10
8420
20
180
10
8420
20
190
10
8410
20
190
10
8410
20
200
10
8380
20
200
10
8380
20
210
10
8370
20
210
10
8370
20
220
10
8360
20
220
10
8360
20
230
10
8350
20
230
10
8350
20
240
10
8340
20
240
10
8340
20
250
10
8320
20
250
10
8320
20
260
10
8310
20
260
10
8310
20
270
10
8300
20
270
10
8300
20
280
10
8290
20
280
10
8290
20
290
10
8270
20
290
10
8270
20
300
10
8250
20
300
10
8250
20
310
10
8240
20
310
10
8240
20
320
10
8230
20
320
10
8230
20
330
10
8220
20
330
10
8220
20
340
10
8210
20
340
10
8210
20
350
10
8200
20
350
10
8200
20
360
10
8190
20
360
10
8190
20
370
10
8180
20
370
10
8180
20
380
10
8170
20
380
10
8170
20
390
10
8160
20
390
10
8160
20
400
10
8150
20
400
10
8150
20
410
10
8120
20
410
10
8120
20
420
10
8110
20
420
10
8110
20
440
10
8090
20
440
10
8090
20
460
10
8060
20
460
10
8060
20
480
10
8050
20
480
10
8050
20
490
10
8030
20
490
10
8030
20
500
10
8020
20
500
10
8020
20
510
10
8000
20
510
10
8000
20
520
10
7990
20
520
10
7990
20
1140
10
8000
20
1140
10
8000
20
1110
10
8010
20
1110
10
8010
20
1090
10
8020
20
1090
10
8020
20
1070
10
8030
20
1070
10
8030
20
1050
10
8040
20
1050
10
8040
20
1040
10
8050
20
1040
10
8050
20
1030
10
8060
20
1030
10
8060
20
1020
10
8070
20
1020
10
8070
20
1010
10
8080
20
1010
10
8080
20
1000
10
8090
20
1000
10
8090
20
990
10
8110
20
990
10
8110
20
980
10
8120
20
980
10
8120
20
970
10
8130
20
970
10
8130
20
960
10
8140
20
960
10
8140
20
940
10
8150
20
940
10
8150
20
930
10
8170
20
930
10
8170
20
920
10
8180
20
920
10
8180
20
910
10
8190
20
910
10
8190
20
900
10
8200
20
900
10
8200
20
890
10
8220
20
890
10
8220
20
880
10
8240
20
880
10
8240
20
870
10
8260
20
870
10
8260
20
860
10
8280
20
860
10
8280
20
850
10
8290
20
850
10
8290
20
840
10
8310
20
840
10
8310
20
830
10
8370
20
830
10
8370
20
820
10
8410
20
820
10
8410
20
810
10
9140
20
810
10
9140
20
800
10
9150
20
800
10
9150
20
810
10
9180
20
810
10
9180
20
800
10
9230
20
800
10
9230
20
810
10
9270
20
810
10
9270
20
800
10
9310
20
800
10
9310
20
810
10
9380
20
810
10
9380
20
800
10
10230
20
800
10
10230
20
790
10
10330
20
790
10
10330
20
780
10
10390
20
780
10
10390
20
770
10
10400
20
770
10
10400
20
750
10
10410
20
750
10
10410
20
720
10
10420
20
720
10
10420
20
680
10
10430
20
680
10
10430
20
50
10
10190
20
50
10
10190
20
60
10
10120
20
60
10
10120
20
50
0
HATCH
8
L46D0
70
1
91
1
92
3
72
0
73
1
93
8
10
10430
20
50
10
10430
20
620
10
10440
20
620
10
10440
20
590
10
10450
20
590
10
10450
20
570
10
10460
20
570
10
10460
20
50
0
HATCH
8
L46D0
70
1
91
1
92
3
72
0
73
1
93
10
10
10430
20
7280
10
10430
20
8100
10
10450
20
8100
10
10450
20
8040
10
10460
20
8040
10
10460
20
7380
10
10450
20
7380
10
10450
20
7340
10
10440
20
7340
10
10440
20
7280
0
HATCH
8
L46D0
70
1
91
1
92
3
72
0
73
1
93
172
10
7990
20
2050
10
7990
20
7160
10
8000
20
7160
10
8000
20
7180
10
8010
20
7180
10
8010
20
7230
10
8020
20
7230
10
8020
20
7650
10
8030
20
7650
10
8030
20
7730
10
8040
20
7730
10
8040
20
7740
10
8050
20
7740
10
8050
20
7760
10
8060
20
7760
10
8060
20
7780
10
8090
20
7780
10
8090
20
7790
10
8100
20
7790
10
8100
20
7800
10
8110
20
7800
10
8110
20
7810
10
8120
20
7810
10
8120
20
7820
10
8130
20
7820
10
8130
20
7830
10
8140
20
7830
10
8140
20
7840
10
8160
20
7840
10
8160
20
7860
10
8170
20
7860
10
8170
20
7870
10
8180
20
7870
10
8180
20
7890
10
8210
20
7890
10
8210
20
7900
10
8230
20
7900
10
8230
20
7920
10
8240
20
7920
10
8240
20
7930
10
8250
20
7930
10
8250
20
7940
10
8270
20
7940
10
8270
20
7950
10
8280
20
7950
10
8280
20
7960
10
8290
20
7960
10
8290
20
7970
10
8300
20
7970
10
8300
20
7980
10
8310
20
7980
10
8310
20
7990
10
8340
20
7990
10
8340
20
8000
10
8350
20
8000
10
8350
20
8010
10
8360
20
8010
10
8360
20
8020
10
8370
20
8020
10
8370
20
8030
10
8380
20
8030
10
8380
20
8040
10
8400
20
8040
10
8400
20
8050
10
8410
20
8050
10
8410
20
8060
10
8420
20
8060
10
8420
20
8070
10
8430
20
8070
10
8430
20
8080
10
8440
20
8080
10
8440
20
8100
10
8470
20
8100
10
8470
20
8110
10
8490
20
8110
10
8490
20
8120
10
8500
20
8120
10
8500
20
8130
10
8520
20
8130
10
8520
20
8140
10
8530
20
8140
10
8530
20
8150
10
8660
20
8150
10
8660
20
8160
10
8780
20
8160
10
8780
20
7510
10
8740
20
7510
10
8740
20
7500
10
8730
20
7500
10
8730
20
7480
10
8710
20
7480
10
8710
20
7470
10
8680
20
7470
10
8680
20
7460
10
8650
20
7460
10
8650
20
7450
10
8640
20
7450
10
8640
20
7440
10
8630
20
7440
10
8630
20
7430
10
8620
20
7430
10
8620
20
7420
10
8610
20
7420
10
8610
20
7410
10
8590
20
7410
10
8590
20
7400
10
8580
20
7400
10
8580
20
7390
10
8570
20
7390
10
8570
20
7380
10
8550
20
7380
10
8550
20
7370
10
8540
20
7370
10
8540
20
7360
10
8530
20
7360
10
8530
20
7350
10
8520
20
7350
10
8520
20
7340
10
8510
20
7340
10
8510
20
7320
10
8500
20
7320
10
8500
20
7310
10
8490
20
7310
10
8490
20
7280
10
8480
20
7280
10
8480
20
7260
10
8470
20
7260
10
8470
20
7160
10
8480
20
7160
10
8480
20
7140
10
8490
20
7140
10
8490
20
7130
10
8500
20
7130
10
8500
20
7120
10
8510
20
7120
10
8510
20
7110
10
8520
20
7110
10
8520
20
7100
10
8540
20
7100
10
8540
20
7080
10
8570
20
7080
10
8570
20
7070
10
8640
20
7070
10
8640
20
7060
10
8720
20
7060
10
8720
20
7050
10
8750
20
7050
10
8750
20
7040
10
8780
20
7040
10
8780
20
2220
10
8770
20
2220
10
8770
20
2210
10
8750
20
2210
10
8750
20
2200
10
8150
20
2200
10
8150
20
2190
10
8110
20
2190
10
8110
20
2180
10
8090
20
2180
10
8090
20
2170
10
8070
20
2170
10
8070
20
2160
10
8060
20
2160
10
8060
20
2150
10
8030
20
2150
10
8030
20
2120
10
8020
20
2120
10
8020
20
2110
10
8010
20
2110
10
8010
20
2090
10
8000
20
2090
10
8000
20
2050
0
HATCH
8
L46D0
70
1
91
1
92
3
72
0
73
1
93
16
10
8780
20
2240
10
8780
20
7030
10
8790
20
7030
10
8790
20
7010
10
8800
20
7010
10
8800
20
6980
10
8810
20
6980
10
8810
20
6880
10
8820
20
6880
10
8820
20
2670
10
8810
20
2670
10
8810
20
2360
10
8800
20
2360
10
8800
20
2280
10
8790
20
2280
10
8790
20
2240
0
HATCH
8
L46D0
70
1
91
1
92
3
72
0
73
1
93
86
10
9820
20
7190
10
9820
20
7200
10
9710
20
7200
10
9710
20
7210
10
9690
20
7210
10
9690
20
7220
10
9670
20
7220
10
9670
20
7230
10
9660
20
7230
10
9660
20
7240
10
9640
20
7240
10
9640
20
7250
10
9620
20
7250
10
9620
20
7260
10
9610
20
7260
10
9610
20
7270
10
9590
20
7270
10
9590
20
7280
10
9580
20
7280
10
9580
20
7300
10
9570
20
7300
10
9570
20
7310
10
9540
20
7310
10
9540
20
7320
10
9530
20
7320
10
9530
20
7340
10
9510
20
7340
10
9510
20
7350
10
9500
20
7350
10
9500
20
7360
10
9480
20
7360
10
9480
20
7370
10
9470
20
7370
10
9470
20
7380
10
9460
20
7380
10
9460
20
7390
10
9450
20
7390
10
9450
20
7400
10
9440
20
7400
10
9440
20
7410
10
9410
20
7410
10
9410
20
7420
10
9400
20
7420
10
9400
20
7430
10
9390
20
7430
10
9390
20
7440
10
9380
20
7440
10
9380
20
7450
10
9370
20
7450
10
9370
20
7460
10
9340
20
7460
10
9340
20
7470
10
9310
20
7470
10
9310
20
7480
10
9290
20
7480
10
9290
20
7500
10
9270
20
7500
10
9270
20
7510
10
9240
20
7510
10
9240
20
7520
10
9100
20
7520
10
9100
20
7530
10
8880
20
7530
10
8880
20
7520
10
8780
20
7520
10
8780
20
8150
10
8810
20
8150
10
8810
20
8160
10
8910
20
8160
10
8910
20
8150
10
8930
20
8150
10
8930
20
8160
10
9970
20
8160
10
9970
20
8150
10
10380
20
8150
10
10380
20
8140
10
10410
20
8140
10
10410
20
8130
10
10420
20
8130
10
10420
20
7220
10
10410
20
7220
10
10410
20
7210
10
10390
20
7210
10
10390
20
7200
10
10320
20
7200
10
10320
20
7190
0
HATCH
8
L46D0
70
1
91
1
92
3
72
0
73
1
93
129
10
5300
20
7363.9
10
5300
20
7370
10
5290
20
7370
10
5290
20
7380
10
5270
20
7380
10
5270
20
7420
10
5260
20
7420
10
5260
20
7610
10
5250
20
7610
10
5250
20
7670
10
5240
20
7670
10
5240
20
7710
10
5230
20
7710
10
5230
20
7730
10
5210
20
7730
10
5210
20
7760
10
5200
20
7760
10
5200
20
7770
10
5190
20
7770
10
5190
20
7780
10
5170
20
7780
10
5170
20
7800
10
5160
20
7800
10
5160
20
7810
10
5150
20
7810
10
5150
20
7820
10
5140
20
7820
10
5140
20
7840
10
5130
20
7840
10
5130
20
7890
10
5120
20
7890
10
5120
20
7900
10
5110
20
7900
10
5110
20
7950
10
5100
20
7950
10
5100
20
7980
10
5090
20
7980
10
5090
20
8000
10
5080
20
8000
10
5080
20
8020
10
5070
20
8020
10
5070
20
8030
10
5060
20
8030
10
5060
20
8040
10
5050
20
8040
10
5050
20
8050
10
5040
20
8050
10
5040
20
8060
10
5030
20
8060
10
5030
20
8070
10
5020
20
8070
10
5020
20
8090
10
5010
20
8090
10
5010
20
8100
10
4970
20
8100
10
4970
20
8110
10
4960
20
8110
10
4960
20
8120
10
4950
20
8120
10
4950
20
8130
10
4940
20
8130
10
4940
20
8140
10
4920
20
8140
10
4920
20
8680
10
4950
20
8680
10
4950
20
8670
10
4940
20
8670
10
4940
20
8660
10
4960
20
8660
10
4960
20
8650
10
4970
20
8650
10
4970
20
8640
10
4990
20
8640
10
4990
20
8630
10
5000
20
8630
10
5000
20
8620
10
5020
20
8620
10
5020
20
8610
10
5040
20
8610
10
5040
20
8600
10
5050
20
8600
10
5050
20
8590
10
5080
20
8590
10
5080
20
8580
10
5090
20
8580
10
5090
20
8570
10
5120
20
8570
10
5120
20
8560
10
5130
20
8560
10
5130
20
8550
10
5150
20
8550
10
5150
20
8540
10
5160
20
8540
10
5160
20
8530
10
5170
20
8530
10
5170
20
8520
10
5200
20
8520
10
5200
20
8510
10
5210
20
8510
10
5210
20
8500
10
5250
20
8500
10
5250
20
8490
10
5260
20
8490
10
5260
20
8470
10
5270
20
8470
10
5270
20
8460
10
5310
20
8460
10
5310
20
8450
10
5330
20
8450
10
5330
20
8440
10
5350
20
8440
10
5350
20
8430
10
5380
20
8430
10
5380
20
8420
10
5440
20
8420
10
5440
20
8410
10
5631.85
20
8410
10
5686.45
20
8355.4
10
5686.45
20
7470
10
5680
20
7470
10
5680
20
7440
10
5670
20
7440
10
5670
20
7410
10
5660
20
7410
10
5660
20
7390
10
5650
20
7390
10
5650
20
7370
10
5640
20
7370
10
5640
20
7363.9
0
HATCH
8
L46D0
70
1
91
1
92
3
72
0
73
1
93
74
10
4890
20
8150
10
4890
20
8160
10
4880
20
8160
10
4880
20
8170
10
4870
20
8170
10
4870
20
8180
10
4850
20
8180
10
4850
20
8190
10
4830
20
8190
10
4830
20
8200
10
4800
20
8200
10
4800
20
8210
10
4790
20
8210
10
4790
20
8220
10
4770
20
8220
10
4770
20
8230
10
4760
20
8230
10
4760
20
8240
10
4750
20
8240
10
4750
20
8250
10
4720
20
8250
10
4720
20
8260
10
4710
20
8260
10
4710
20
8270
10
4690
20
8270
10
4690
20
8290
10
4680
20
8290
10
4680
20
8300
10
4660
20
8300
10
4660
20
8310
10
4630
20
8310
10
4630
20
8320
10
4620
20
8320
10
4620
20
8330
10
4600
20
8330
10
4600
20
8880
10
4610
20
8880
10
4610
20
8860
10
4630
20
8860
10
4630
20
8850
10
4640
20
8850
10
4640
20
8840
10
4650
20
8840
10
4650
20
8830
10
4680
20
8830
10
4680
20
8820
10
4690
20
8820
10
4690
20
8810
10
4700
20
8810
10
4700
20
8800
10
4720
20
8800
10
4720
20
8790
10
4750
20
8790
10
4750
20
8780
10
4770
20
8780
10
4770
20
8770
10
4780
20
8770
10
4780
20
8760
10
4800
20
8760
10
4800
20
8750
10
4810
20
8750
10
4810
20
8740
10
4820
20
8740
10
4820
20
8730
10
4850
20
8730
10
4850
20
8720
10
4860
20
8720
10
4860
20
8710
10
4880
20
8710
10
4880
20
8700
10
4900
20
8700
10
4900
20
8690
10
4920
20
8690
10
4920
20
8150
0
HATCH
8
L46D0
70
1
91
1
92
3
72
0
73
1
93
194
10
3110
20
8410
10
3110
20
8420
10
2560
20
8420
10
2560
20
8430
10
2430
20
8430
10
2430
20
8440
10
2400
20
8440
10
2400
20
8450
10
2380
20
8450
10
2380
20
8460
10
2360
20
8460
10
2360
20
8500
10
2350
20
8500
10
2350
20
8560
10
2340
20
8560
10
2340
20
8590
10
2330
20
8590
10
2330
20
8630
10
2320
20
8630
10
2320
20
8650
10
2310
20
8650
10
2310
20
8680
10
2300
20
8680
10
2300
20
8690
10
2290
20
8690
10
2290
20
8700
10
2280
20
8700
10
2280
20
8710
10
2270
20
8710
10
2270
20
8720
10
2260
20
8720
10
2260
20
8730
10
2220
20
8730
10
2220
20
8740
10
2190
20
8740
10
2190
20
8750
10
2170
20
8750
10
2170
20
8760
10
2090
20
8760
10
2090
20
8770
10
1562.3
20
8770
10
1562.3
20
8771.95
10
1100
20
8771.95
10
1100
20
8780
10
1070
20
8780
10
1070
20
8790
10
1050
20
8790
10
1050
20
8800
10
1030
20
8800
10
1030
20
8810
10
1000
20
8810
10
1000
20
8820
10
870
20
8820
10
870
20
8830
10
600
20
8830
10
600
20
8820
10
180
20
8820
10
180
20
8830
10
30
20
8830
10
30
20
9190
10
40
20
9190
10
40
20
9200
10
1070
20
9200
10
1070
20
9202.75
10
1290
20
9202.75
10
1290
20
9200
10
1400
20
9200
10
1400
20
9190
10
1410
20
9190
10
1410
20
9180
10
1420
20
9180
10
1420
20
9160
10
1430
20
9160
10
1430
20
9150
10
1470
20
9150
10
1470
20
9140
10
1620
20
9140
10
1620
20
9130
10
1630
20
9130
10
1630
20
9140
10
1650
20
9140
10
1650
20
9130
10
1680
20
9130
10
1680
20
9140
10
1700
20
9140
10
1700
20
9130
10
1710
20
9130
10
1710
20
9140
10
1760
20
9140
10
1760
20
9130
10
1790
20
9130
10
1790
20
9140
10
1800
20
9140
10
1800
20
9130
10
1950
20
9130
10
1950
20
9140
10
2290
20
9140
10
2290
20
9150
10
2300
20
9150
10
2300
20
9140
10
2550
20
9140
10
2550
20
9150
10
2570
20
9150
10
2570
20
9140
10
2600
20
9140
10
2600
20
9150
10
2620
20
9150
10
2620
20
9140
10
2630
20
9140
10
2630
20
9150
10
2910
20
9150
10
2910
20
9140
10
2930
20
9140
10
2930
20
9150
10
2990
20
9150
10
2990
20
9140
10
3000
20
9140
10
3000
20
9150
10
3030
20
9150
10
3030
20
9140
10
3070
20
9140
10
3070
20
9150
10
3160
20
9150
10
3160
20
9140
10
3190
20
9140
10
3190
20
9150
10
3200
20
9150
10
3200
20
9140
10
3220
20
9140
10
3220
20
9150
10
3240
20
9150
10
3240
20
9140
10
3280
20
9140
10
3280
20
9150
10
3320
20
9150
10
3320
20
9140
10
3340
20
9140
10
3340
20
9150
10
3370
20
9150
10
3370
20
9140
10
3390
20
9140
10
3390
20
9150
10
3400
20
9150
10
3400
20
9140
10
3420
20
9140
10
3420
20
9150
10
3460
20
9150
10
3460
20
9140
10
3470
20
9140
10
3470
20
9150
10
3650
20
9150
10
3650
20
9140
10
3680
20
9140
10
3680
20
9150
10
3730
20
9150
10
3730
20
9140
10
3800
20
9140
10
3800
20
9150
10
3830
20
9150
10
3830
20
9140
10
4080
20
9140
10
4080
20
9130
10
4130
20
9130
10
4130
20
9120
10
4160
20
9120
10
4160
20
9110
10
4180
20
9110
10
4180
20
9100
10
4240
20
9100
10
4240
20
9090
10
4260
20
9090
10
4260
20
9080
10
4270
20
9080
10
4270
20
9060
10
4280
20
9060
10
4280
20
9050
10
4300
20
9050
10
4300
20
9040
10
4330
20
9040
10
4330
20
9030
10
4340
20
9030
10
4340
20
9020
10
4360
20
9020
10
4360
20
8420
10
3320
20
8420
10
3320
20
8410
10
3300
20
8410
10
3300
20
8420
10
3220
20
8420
10
3220
20
8410
10
3170
20
8410
10
3170
20
8420
10
3130
20
8420
10
3130
20
8410
0
HATCH
8
L46D0
70
1
91
1
92
3
72
0
73
1
93
42
10
4590
20
8340
10
4590
20
8350
10
4570
20
8350
10
4570
20
8360
10
4550
20
8360
10
4550
20
8370
10
4530
20
8370
10
4530
20
8380
10
4520
20
8380
10
4520
20
8390
10
4480
20
8390
10
4480
20
8400
10
4460
20
8400
10
4460
20
8410
10
4360
20
8410
10
4360
20
9010
10
4370
20
9010
10
4370
20
9000
10
4380
20
9000
10
4380
20
8990
10
4430
20
8990
10
4430
20
8980
10
4440
20
8980
10
4440
20
8970
10
4450
20
8970
10
4450
20
8960
10
4470
20
8960
10
4470
20
8950
10
4480
20
8950
10
4480
20
8940
10
4510
20
8940
10
4510
20
8930
10
4520
20
8930
10
4520
20
8920
10
4540
20
8920
10
4540
20
8910
10
4550
20
8910
10
4550
20
8900
10
4570
20
8900
10
4570
20
8890
10
4600
20
8890
10
4600
20
8340
0
HATCH
8
L46D0
70
1
91
1
92
3
72
0
73
1
93
171
10
7250
20
7359.25
10
7250
20
7360
10
7210
20
7360
10
7210
20
7370
10
7170
20
7370
10
7170
20
7380
10
7140
20
7380
10
7140
20
7400
10
7130
20
7400
10
7130
20
7420
10
7120
20
7420
10
7120
20
7460
10
7110
20
7460
10
7110
20
7480
10
7100
20
7480
10
7100
20
7520
10
7099.2
20
7520
10
7099.2
20
8277.15
10
7232.05
20
8410
10
7320
20
8410
10
7320
20
8420
10
7400
20
8420
10
7400
20
8430
10
7430
20
8430
10
7430
20
8440
10
7460
20
8440
10
7460
20
8450
10
7490
20
8450
10
7490
20
8460
10
7520
20
8460
10
7520
20
8470
10
7530
20
8470
10
7530
20
8490
10
7550
20
8490
10
7550
20
8500
10
7570
20
8500
10
7570
20
8510
10
7590
20
8510
10
7590
20
8520
10
7620
20
8520
10
7620
20
8530
10
7630
20
8530
10
7630
20
8540
10
7650
20
8540
10
7650
20
8550
10
7660
20
8550
10
7660
20
8560
10
7670
20
8560
10
7670
20
8570
10
7700
20
8570
10
7700
20
8580
10
7710
20
8580
10
7710
20
8590
10
7740
20
8590
10
7740
20
8600
10
7750
20
8600
10
7750
20
8610
10
7770
20
8610
10
7770
20
8620
10
7790
20
8620
10
7790
20
8630
10
7800
20
8630
10
7800
20
8640
10
7820
20
8640
10
7820
20
8650
10
7830
20
8650
10
7830
20
8660
10
7850
20
8660
10
7850
20
8680
10
7870
20
8680
10
7870
20
8690
10
7890
20
8690
10
7890
20
8700
10
7920
20
8700
10
7920
20
8710
10
7930
20
8710
10
7930
20
8720
10
7940
20
8720
10
7940
20
8730
10
7970
20
8730
10
7970
20
8740
10
7980
20
8740
10
7980
20
8750
10
8000
20
8750
10
8000
20
8760
10
8010
20
8760
10
8010
20
8210
10
8000
20
8210
10
8000
20
8200
10
7970
20
8200
10
7970
20
8190
10
7940
20
8190
10
7940
20
8180
10
7930
20
8180
10
7930
20
8170
10
7910
20
8170
10
7910
20
8160
10
7900
20
8160
10
7900
20
8150
10
7870
20
8150
10
7870
20
8140
10
7860
20
8140
10
7860
20
8130
10
7850
20
8130
10
7850
20
8120
10
7840
20
8120
10
7840
20
8110
10
7820
20
8110
10
7820
20
8100
10
7790
20
8100
10
7790
20
8090
10
7770
20
8090
10
7770
20
8080
10
7780
20
8080
10
7780
20
8070
10
7760
20
8070
10
7760
20
8050
10
7750
20
8050
10
7750
20
8040
10
7730
20
8040
10
7730
20
8030
10
7720
20
8030
10
7720
20
8000
10
7710
20
8000
10
7710
20
7990
10
7700
20
7990
10
7700
20
7970
10
7690
20
7970
10
7690
20
7940
10
7680
20
7940
10
7680
20
7890
10
7670
20
7890
10
7670
20
7860
10
7660
20
7860
10
7660
20
7840
10
7650
20
7840
10
7650
20
7820
10
7640
20
7820
10
7640
20
7810
10
7630
20
7810
10
7630
20
7790
10
7620
20
7790
10
7620
20
7780
10
7600
20
7780
10
7600
20
7770
10
7590
20
7770
10
7590
20
7750
10
7580
20
7750
10
7580
20
7740
10
7570
20
7740
10
7570
20
7720
10
7560
20
7720
10
7560
20
7700
10
7550
20
7700
10
7550
20
7650
10
7540
20
7650
10
7540
20
7520
10
7530
20
7520
10
7530
20
7410
10
7520
20
7410
10
7520
20
7380
10
7500
20
7380
10
7500
20
7370
10
7470
20
7370
10
7470
20
7360
10
7420
20
7360
10
7420
20
7359.25
10
7390
20
7359.25
10
7390
20
7360
10
7280
20
7360
10
7280
20
7359.25
0
HATCH
8
L46D0
70
1
91
1
92
3
72
0
73
1
93
58
10
8010
20
8220
10
8010
20
8770
10
8020
20
8770
10
8020
20
8780
10
8050
20
8780
10
8050
20
8790
10
8070
20
8790
10
8070
20
8800
10
8090
20
8800
10
8090
20
8810
10
8100
20
8810
10
8100
20
8820
10
8120
20
8820
10
8120
20
8830
10
8140
20
8830
10
8140
20
8840
10
8150
20
8840
10
8150
20
8850
10
8170
20
8850
10
8170
20
8860
10
8180
20
8860
10
8180
20
8880
10
8200
20
8880
10
8200
20
8890
10
8220
20
8890
10
8220
20
8900
10
8250
20
8900
10
8250
20
8910
10
8260
20
8910
10
8260
20
8370
10
8250
20
8370
10
8250
20
8360
10
8220
20
8360
10
8220
20
8350
10
8210
20
8350
10
8210
20
8340
10
8200
20
8340
10
8200
20
8330
10
8180
20
8330
10
8180
20
8320
10
8170
20
8320
10
8170
20
8310
10
8140
20
8310
10
8140
20
8300
10
8110
20
8300
10
8110
20
8290
10
8100
20
8290
10
8100
20
8270
10
8090
20
8270
10
8090
20
8260
10
8070
20
8260
10
8070
20
8250
10
8050
20
8250
10
8050
20
8240
10
8030
20
8240
10
8030
20
8230
10
8020
20
8230
10
8020
20
8220
0
HATCH
8
L46D0
70
1
91
1
92
3
72
0
73
1
93
88
10
8260
20
8380
10
8260
20
8920
10
8280
20
8920
10
8280
20
8930
10
8290
20
8930
10
8290
20
8940
10
8320
20
8940
10
8320
20
8950
10
8330
20
8950
10
8330
20
8960
10
8340
20
8960
10
8340
20
8970
10
8350
20
8970
10
8350
20
8980
10
8370
20
8980
10
8370
20
8990
10
8410
20
8990
10
8410
20
9000
10
8420
20
9000
10
8420
20
9010
10
8440
20
9010
10
8440
20
9020
10
8450
20
9020
10
8450
20
9030
10
8460
20
9030
10
8460
20
9040
10
8490
20
9040
10
8490
20
9050
10
8510
20
9050
10
8510
20
9060
10
8520
20
9060
10
8520
20
9080
10
8530
20
9080
10
8530
20
9090
10
8550
20
9090
10
8550
20
9100
10
8610
20
9100
10
8610
20
9110
10
8640
20
9110
10
8640
20
9120
10
8670
20
9120
10
8670
20
9130
10
8710
20
9130
10
8710
20
9140
10
8770
20
9140
10
8770
20
9150
10
9590
20
9150
10
9590
20
9140
10
9600
20
9140
10
9600
20
9150
10
9870
20
9150
10
9870
20
9140
10
9950
20
9140
10
9950
20
9150
10
10100
20
9150
10
10100
20
8420
10
10090
20
8420
10
10090
20
8410
10
10080
20
8410
10
10080
20
8420
10
9950
20
8420
10
9950
20
8410
10
9900
20
8410
10
9900
20
8420
10
9820
20
8420
10
9820
20
8410
10
9690
20
8410
10
9690
20
8420
10
9630
20
8420
10
9630
20
8410
10
9550
20
8410
10
9550
20
8420
10
9500
20
8420
10
9500
20
8410
10
9490
20
8410
10
9490
20
8420
10
8990
20
8420
10
8990
20
8410
10
8950
20
8410
10
8950
20
8420
10
8410
20
8420
10
8410
20
8410
10
8340
20
8410
10
8340
20
8400
10
8320
20
8400
10
8320
20
8390
10
8280
20
8390
10
8280
20
8380
0
HATCH
8
L46D0
70
1
91
1
92
3
72
0
73
1
93
114
10
10100
20
8410
10
10100
20
9140
10
10120
20
9140
10
10120
20
9150
10
10200
20
9150
10
10200
20
9140
10
10260
20
9140
10
10260
20
9150
10
10280
20
9150
10
10280
20
9140
10
10310
20
9140
10
10310
20
9150
10
10320
20
9150
10
10320
20
9140
10
10340
20
9140
10
10340
20
9150
10
10410
20
9150
10
10410
20
9140
10
10480
20
9140
10
10480
20
9150
10
10500
20
9150
10
10500
20
9140
10
10870
20
9140
10
10870
20
9130
10
11280
20
9130
10
11280
20
9140
10
11380
20
9140
10
11380
20
9150
10
11410
20
9150
10
11410
20
9160
10
11420
20
9160
10
11420
20
9170
10
11430
20
9170
10
11430
20
9180
10
11450
20
9180
10
11450
20
9190
10
11470
20
9190
10
11470
20
9193.45
10
11810
20
9193.45
10
11810
20
9190
10
12160
20
9190
10
12160
20
9200
10
12770
20
9200
10
12770
20
9190
10
12780
20
9190
10
12780
20
9180
10
12790
20
9180
10
12790
20
8830
10
12780
20
8830
10
12780
20
8820
10
12760
20
8820
10
12760
20
8810
10
12520
20
8810
10
12520
20
8800
10
12510
20
8800
10
12510
20
8810
10
12470
20
8810
10
12470
20
8800
10
12440
20
8800
10
12440
20
8810
10
12300
20
8810
10
12300
20
8820
10
11960
20
8820
10
11960
20
8810
10
11830
20
8810
10
11830
20
8800
10
11810
20
8800
10
11810
20
8790
10
11770
20
8790
10
11770
20
8780
10
11750
20
8780
10
11750
20
8771.95
10
11247.5
20
8771.95
10
11247.5
20
8770
10
10880
20
8770
10
10880
20
8760
10
10690
20
8760
10
10690
20
8750
10
10600
20
8750
10
10600
20
8740
10
10590
20
8740
10
10590
20
8730
10
10540
20
8730
10
10540
20
8720
10
10530
20
8720
10
10530
20
8700
10
10510
20
8700
10
10510
20
8690
10
10500
20
8690
10
10500
20
8680
10
10490
20
8680
10
10490
20
8660
10
10480
20
8660
10
10480
20
8630
10
10470
20
8630
10
10470
20
8610
10
10460
20
8610
10
10460
20
8560
10
10450
20
8560
10
10450
20
8500
10
10440
20
8500
10
10440
20
8470
10
10430
20
8470
10
10430
20
8460
10
10420
20
8460
10
10420
20
8450
10
10400
20
8450
10
10400
20
8440
10
10380
20
8440
10
10380
20
8430
10
10290
20
8430
10
10290
20
8420
10
10110
20
8420
10
10110
20
8410
0
HATCH
8
L46D0
70
1
91
1
92
3
72
0
73
1
93
136
10
9470
20
5960
10
9470
20
5970
10
9430
20
5970
10
9430
20
5980
10
9410
20
5980
10
9410
20
5990
10
9400
20
5990
10
9400
20
6000
10
9390
20
6000
10
9390
20
6040
10
9380
20
6040
10
9380
20
6080
10
9370
20
6080
10
9370
20
6090
10
9360
20
6090
10
9360
20
6110
10
9370
20
6110
10
9370
20
6150
10
9380
20
6150
10
9380
20
6320
10
9390
20
6320
10
9390
20
6390
10
9400
20
6390
10
9400
20
6410
10
9410
20
6410
10
9410
20
6420
10
9420
20
6420
10
9420
20
6440
10
9430
20
6440
10
9430
20
6450
10
9440
20
6450
10
9440
20
6460
10
9470
20
6460
10
9470
20
6470
10
9480
20
6470
10
9480
20
6480
10
9490
20
6480
10
9490
20
6490
10
9500
20
6490
10
9500
20
6510
10
9510
20
6510
10
9510
20
6520
10
9530
20
6520
10
9530
20
6530
10
9540
20
6530
10
9540
20
6540
10
9550
20
6540
10
9550
20
6550
10
9560
20
6550
10
9560
20
6560
10
9570
20
6560
10
9570
20
6570
10
9600
20
6570
10
9600
20
6580
10
9610
20
6580
10
9610
20
6590
10
9620
20
6590
10
9620
20
6600
10
9640
20
6600
10
9640
20
6620
10
9670
20
6620
10
9670
20
6630
10
9680
20
6630
10
9680
20
6640
10
9690
20
6640
10
9690
20
6650
10
9710
20
6650
10
9710
20
6660
10
9730
20
6660
10
9730
20
6670
10
11390
20
6670
10
11390
20
6673.75
10
11830
20
6673.75
10
11830
20
6670
10
12150
20
6670
10
12150
20
6680
10
12160
20
6680
10
12160
20
6670
10
12180
20
6670
10
12180
20
6680
10
12190
20
6680
10
12190
20
6670
10
12220
20
6670
10
12220
20
6680
10
12550
20
6680
10
12550
20
6670
10
12760
20
6670
10
12760
20
6660
10
12770
20
6660
10
12770
20
6580
10
12760
20
6580
10
12760
20
6320
10
12750
20
6320
10
12750
20
6310
10
11780
20
6310
10
11780
20
6290
10
11760
20
6290
10
11760
20
6284.65
10
11350
20
6284.65
10
11350
20
6290
10
10810
20
6290
10
10810
20
6280
10
10640
20
6280
10
10640
20
6270
10
10580
20
6270
10
10580
20
6260
10
10540
20
6260
10
10540
20
6250
10
10520
20
6250
10
10520
20
6240
10
10510
20
6240
10
10510
20
6230
10
10500
20
6230
10
10500
20
6220
10
10490
20
6220
10
10490
20
6200
10
10480
20
6200
10
10480
20
6190
10
10470
20
6190
10
10470
20
6170
10
10460
20
6170
10
10460
20
6150
10
10450
20
6150
10
10450
20
6120
10
10440
20
6120
10
10440
20
6060
10
10430
20
6060
10
10430
20
6010
10
10420
20
6010
10
10420
20
5990
10
10400
20
5990
10
10400
20
5980
10
10380
20
5980
10
10380
20
5970
10
10340
20
5970
10
10340
20
5960
0
HATCH
8
L46D0
70
1
91
1
92
3
72
0
73
1
93
176
10
11600
20
1240
10
11600
20
1250
10
11490
20
1250
10
11490
20
1260
10
11420
20
1260
10
11420
20
1270
10
11400
20
1270
10
11400
20
1280
10
11390
20
1280
10
11390
20
1290
10
11380
20
1290
10
11380
20
1300
10
11230
20
1300
10
11230
20
1310
10
11190
20
1310
10
11190
20
1300
10
11170
20
1300
10
11170
20
1310
10
10830
20
1310
10
10830
20
1300
10
10820
20
1300
10
10820
20
1310
10
10810
20
1310
10
10810
20
1300
10
10760
20
1300
10
10760
20
1310
10
10750
20
1310
10
10750
20
1300
10
10530
20
1300
10
10530
20
1310
10
9860
20
1310
10
9860
20
1320
10
9760
20
1320
10
9760
20
1330
10
9720
20
1330
10
9720
20
1340
10
9700
20
1340
10
9700
20
1360
10
9670
20
1360
10
9670
20
1370
10
9650
20
1370
10
9650
20
1380
10
9640
20
1380
10
9640
20
1390
10
9620
20
1390
10
9620
20
1410
10
9590
20
1410
10
9590
20
1420
10
9570
20
1420
10
9570
20
1430
10
9560
20
1430
10
9560
20
1450
10
9550
20
1450
10
9550
20
1460
10
9530
20
1460
10
9530
20
1470
10
9520
20
1470
10
9520
20
1480
10
9510
20
1480
10
9510
20
1490
10
9490
20
1490
10
9490
20
1510
10
9460
20
1510
10
9460
20
1520
10
9450
20
1520
10
9450
20
1530
10
9440
20
1530
10
9440
20
1540
10
9430
20
1540
10
9430
20
1570
10
9410
20
1570
10
9410
20
1590
10
9400
20
1590
10
9400
20
1610
10
9390
20
1610
10
9390
20
1620
10
9380
20
1620
10
9380
20
1690
10
9370
20
1690
10
9370
20
2020
10
9380
20
2020
10
9380
20
2080
10
9390
20
2080
10
9390
20
2090
10
9400
20
2090
10
9400
20
2110
10
9410
20
2110
10
9410
20
2130
10
9420
20
2130
10
9420
20
2150
10
9460
20
2150
10
9460
20
2130
10
9570
20
2130
10
9570
20
2140
10
9590
20
2140
10
9590
20
2130
10
9610
20
2130
10
9610
20
2150
10
10150
20
2150
10
10150
20
2140
10
10160
20
2140
10
10160
20
2130
10
10340
20
2130
10
10340
20
2120
10
10360
20
2120
10
10360
20
2110
10
10400
20
2110
10
10400
20
2090
10
10420
20
2090
10
10420
20
2050
10
10430
20
2050
10
10430
20
1890
10
10440
20
1890
10
10440
20
1860
10
10450
20
1860
10
10450
20
1820
10
10460
20
1820
10
10460
20
1810
10
10470
20
1810
10
10470
20
1790
10
10480
20
1790
10
10480
20
1780
10
10490
20
1780
10
10490
20
1770
10
10510
20
1770
10
10510
20
1760
10
10520
20
1760
10
10520
20
1740
10
10530
20
1740
10
10530
20
1730
10
10550
20
1730
10
10550
20
1720
10
10590
20
1720
10
10590
20
1710
10
10770
20
1710
10
10770
20
1700
10
11070
20
1700
10
11070
20
1690
10
11275.3
20
1690
10
11275.3
20
1689.9
10
11740
20
1689.9
10
11740
20
1680
10
11750
20
1680
10
11750
20
1670
10
11770
20
1670
10
11770
20
1660
10
11780
20
1660
10
11780
20
1650
10
11820
20
1650
10
11820
20
1640
10
11920
20
1640
10
11920
20
1630
10
12560
20
1630
10
12560
20
1620
10
12750
20
1620
10
12750
20
1610
10
12760
20
1610
10
12760
20
1370
10
12750
20
1370
10
12750
20
1260
10
12740
20
1260
10
12740
20
1250
10
12700
20
1250
10
12700
20
1240
10
12680
20
1240
10
12680
20
1250
10
12590
20
1250
10
12590
20
1240
10
12550
20
1240
10
12550
20
1250
10
11940
20
1250
10
11940
20
1260
10
11780
20
1260
10
11780
20
1250
10
11710
20
1250
10
11710
20
1240
0
HATCH
8
L46D0
70
1
91
1
92
3
72
0
73
1
93
162
10
9540
20
4780
10
9540
20
4790
10
9450
20
4790
10
9450
20
4800
10
9420
20
4800
10
9420
20
4810
10
9410
20
4810
10
9410
20
4820
10
9400
20
4820
10
9400
20
4830
10
9390
20
4830
10
9390
20
4840
10
9380
20
4840
10
9380
20
4950
10
9370
20
4950
10
9370
20
5150
10
9360
20
5150
10
9360
20
5210
10
9370
20
5210
10
9370
20
5520
10
9380
20
5520
10
9380
20
5620
10
9390
20
5620
10
9390
20
5650
10
9400
20
5650
10
9400
20
5660
10
9410
20
5660
10
9410
20
5670
10
9460
20
5670
10
9460
20
5680
10
9690
20
5680
10
9690
20
5690
10
9710
20
5690
10
9710
20
5680
10
9780
20
5680
10
9780
20
5690
10
9820
20
5690
10
9820
20
5680
10
10260
20
5680
10
10260
20
5670
10
10270
20
5670
10
10270
20
5680
10
10300
20
5680
10
10300
20
5670
10
10390
20
5670
10
10390
20
5660
10
10410
20
5660
10
10410
20
5650
10
10420
20
5650
10
10420
20
5630
10
10430
20
5630
10
10430
20
5600
10
10440
20
5600
10
10440
20
5570
10
10450
20
5570
10
10450
20
5560
10
10460
20
5560
10
10460
20
5530
10
10470
20
5530
10
10470
20
5520
10
10490
20
5520
10
10490
20
5490
10
10500
20
5490
10
10500
20
5480
10
10520
20
5480
10
10520
20
5470
10
10530
20
5470
10
10530
20
5460
10
10610
20
5460
10
10610
20
5450
10
10650
20
5450
10
10650
20
5440
10
10760
20
5440
10
10760
20
5430
10
10880
20
5430
10
10880
20
5420
10
11040
20
5420
10
11040
20
5430
10
11060
20
5430
10
11060
20
5420
10
11080
20
5420
10
11080
20
5430
10
11170
20
5430
10
11170
20
5420
10
11230
20
5420
10
11230
20
5427.8
10
11914.5
20
5427.8
10
11914.5
20
5430
10
12650
20
5430
10
12650
20
5420
10
12680
20
5420
10
12680
20
5430
10
12700
20
5430
10
12700
20
5420
10
12740
20
5420
10
12740
20
5410
10
12750
20
5410
10
12750
20
5390
10
12760
20
5390
10
12760
20
5350
10
12750
20
5350
10
12750
20
5170
10
12760
20
5170
10
12760
20
5080
10
12750
20
5080
10
12750
20
5050
10
12740
20
5050
10
12740
20
5040
10
12210
20
5040
10
12210
20
5050
10
12190
20
5050
10
12190
20
5040
10
12180
20
5040
10
12180
20
5050
10
11840
20
5050
10
11840
20
5043.35
10
11340
20
5043.35
10
11340
20
5050
10
10810
20
5050
10
10810
20
5040
10
10800
20
5040
10
10800
20
5050
10
10720
20
5050
10
10720
20
5040
10
10550
20
5040
10
10550
20
5030
10
10530
20
5030
10
10530
20
5020
10
10520
20
5020
10
10520
20
5010
10
10510
20
5010
10
10510
20
5000
10
10500
20
5000
10
10500
20
4990
10
10480
20
4990
10
10480
20
4970
10
10470
20
4970
10
10470
20
4960
10
10460
20
4960
10
10460
20
4940
10
10450
20
4940
10
10450
20
4930
10
10440
20
4930
10
10440
20
4880
10
10430
20
4880
10
10430
20
4840
10
10420
20
4840
10
10420
20
4830
10
10410
20
4830
10
10410
20
4820
10
10400
20
4820
10
10400
20
4810
10
10390
20
4810
10
10390
20
4800
10
10360
20
4800
10
10360
20
4790
10
10270
20
4790
10
10270
20
4780
10
9580
20
4780
10
9580
20
4790
10
9550
20
4790
10
9550
20
4780
0
HATCH
8
L46D0
70
1
91
1
92
3
72
0
73
1
93
142
10
12270
20
2510
10
12270
20
2520
10
12090
20
2520
10
12090
20
2530
10
12060
20
2530
10
12060
20
2520
10
12000
20
2520
10
12000
20
2530
10
11810
20
2530
10
11810
20
2528.25
10
11390
20
2528.25
10
11390
20
2530
10
11380
20
2530
10
11380
20
2550
10
11370
20
2550
10
11370
20
2560
10
11360
20
2560
10
11360
20
2570
10
9850
20
2570
10
9850
20
2580
10
9760
20
2580
10
9760
20
2590
10
9710
20
2590
10
9710
20
2600
10
9700
20
2600
10
9700
20
2610
10
9680
20
2610
10
9680
20
2620
10
9640
20
2620
10
9640
20
2630
10
9630
20
2630
10
9630
20
2650
10
9610
20
2650
10
9610
20
2660
10
9600
20
2660
10
9600
20
2670
10
9580
20
2670
10
9580
20
2680
10
9570
20
2680
10
9570
20
2690
10
9560
20
2690
10
9560
20
2700
10
9550
20
2700
10
9550
20
2710
10
9540
20
2710
10
9540
20
2720
10
9510
20
2720
10
9510
20
2730
10
9500
20
2730
10
9500
20
2750
10
9490
20
2750
10
9490
20
2760
10
9480
20
2760
10
9480
20
2770
10
9470
20
2770
10
9470
20
2780
10
9450
20
2780
10
9450
20
2790
10
9440
20
2790
10
9440
20
2800
10
9430
20
2800
10
9430
20
2810
10
9420
20
2810
10
9420
20
2830
10
9400
20
2830
10
9400
20
2850
10
9390
20
2850
10
9390
20
2870
10
9380
20
2870
10
9380
20
2910
10
9370
20
2910
10
9370
20
3180
10
9380
20
3180
10
9380
20
3250
10
9390
20
3250
10
9390
20
3270
10
9400
20
3270
10
9400
20
3280
10
9420
20
3280
10
9420
20
3290
10
9460
20
3290
10
9460
20
3300
10
10270
20
3300
10
10270
20
3290
10
10360
20
3290
10
10360
20
3280
10
10390
20
3280
10
10390
20
3270
10
10400
20
3270
10
10400
20
3260
10
10410
20
3260
10
10410
20
3250
10
10420
20
3250
10
10420
20
3230
10
10430
20
3230
10
10430
20
3120
10
10440
20
3120
10
10440
20
3090
10
10450
20
3090
10
10450
20
3070
10
10460
20
3070
10
10460
20
3040
10
10480
20
3040
10
10480
20
3030
10
10490
20
3030
10
10490
20
3020
10
10500
20
3020
10
10500
20
3010
10
10510
20
3010
10
10510
20
3000
10
10520
20
3000
10
10520
20
2990
10
10560
20
2990
10
10560
20
2980
10
10580
20
2980
10
10580
20
2970
10
10630
20
2970
10
10630
20
2960
10
10710
20
2960
10
10710
20
2950
10
10860
20
2950
10
10860
20
2940
10
11350
20
2940
10
11350
20
2945.1
10
11740
20
2945.1
10
11740
20
2940
10
11760
20
2940
10
11760
20
2920
10
11840
20
2920
10
11840
20
2910
10
12500
20
2910
10
12500
20
2900
10
12710
20
2900
10
12710
20
2890
10
12730
20
2890
10
12730
20
2880
10
12750
20
2880
10
12750
20
2550
10
12740
20
2550
10
12740
20
2520
10
12730
20
2520
10
12730
20
2510
0
HATCH
8
L46D0
70
1
91
1
92
3
72
0
73
1
93
176
10
9550
20
3570
10
9550
20
3580
10
9440
20
3580
10
9440
20
3590
10
9410
20
3590
10
9410
20
3600
10
9400
20
3600
10
9400
20
3610
10
9390
20
3610
10
9390
20
3630
10
9380
20
3630
10
9380
20
3680
10
9370
20
3680
10
9370
20
4040
10
9360
20
4040
10
9360
20
4070
10
9350
20
4070
10
9350
20
4080
10
9360
20
4080
10
9360
20
4100
10
9370
20
4100
10
9370
20
4340
10
9380
20
4340
10
9380
20
4420
10
9390
20
4420
10
9390
20
4440
10
9400
20
4440
10
9400
20
4450
10
9410
20
4450
10
9410
20
4460
10
9460
20
4460
10
9460
20
4470
10
9630
20
4470
10
9630
20
4480
10
9790
20
4480
10
9790
20
4470
10
9840
20
4470
10
9840
20
4480
10
9950
20
4480
10
9950
20
4470
10
9970
20
4470
10
9970
20
4480
10
9990
20
4480
10
9990
20
4470
10
10260
20
4470
10
10260
20
4460
10
10270
20
4460
10
10270
20
4470
10
10290
20
4470
10
10290
20
4460
10
10380
20
4460
10
10380
20
4450
10
10400
20
4450
10
10400
20
4440
10
10420
20
4440
10
10420
20
4400
10
10430
20
4400
10
10430
20
4360
10
10440
20
4360
10
10440
20
4340
10
10450
20
4340
10
10450
20
4300
10
10460
20
4300
10
10460
20
4290
10
10470
20
4290
10
10470
20
4280
10
10480
20
4280
10
10480
20
4260
10
10490
20
4260
10
10490
20
4250
10
10510
20
4250
10
10510
20
4240
10
10540
20
4240
10
10540
20
4230
10
10560
20
4230
10
10560
20
4220
10
10580
20
4220
10
10580
20
4210
10
10620
20
4210
10
10620
20
4200
10
10870
20
4200
10
10870
20
4190
10
11350
20
4190
10
11350
20
4195.7
10
11760
20
4195.7
10
11760
20
4190
10
11780
20
4190
10
11780
20
4180
10
11840
20
4180
10
11840
20
4170
10
12480
20
4170
10
12480
20
4160
10
12710
20
4160
10
12710
20
4150
10
12750
20
4150
10
12750
20
3940
10
12740
20
3940
10
12740
20
3900
10
12750
20
3900
10
12750
20
3880
10
12740
20
3880
10
12740
20
3870
10
12750
20
3870
10
12750
20
3830
10
12740
20
3830
10
12740
20
3800
10
12730
20
3800
10
12730
20
3790
10
12710
20
3790
10
12710
20
3780
10
12700
20
3780
10
12700
20
3790
10
12670
20
3790
10
12670
20
3780
10
12630
20
3780
10
12630
20
3790
10
12620
20
3790
10
12620
20
3780
10
12340
20
3780
10
12340
20
3790
10
12100
20
3790
10
12100
20
3800
10
12020
20
3800
10
12020
20
3790
10
12000
20
3790
10
12000
20
3800
10
11790
20
3800
10
11790
20
3797.35
10
11380
20
3797.35
10
11380
20
3800
10
11370
20
3800
10
11370
20
3810
10
11340
20
3810
10
11340
20
3820
10
11240
20
3820
10
11240
20
3830
10
11150
20
3830
10
11150
20
3820
10
11110
20
3820
10
11110
20
3830
10
10840
20
3830
10
10840
20
3820
10
10640
20
3820
10
10640
20
3810
10
10580
20
3810
10
10580
20
3800
10
10560
20
3800
10
10560
20
3790
10
10530
20
3790
10
10530
20
3780
10
10510
20
3780
10
10510
20
3770
10
10490
20
3770
10
10490
20
3750
10
10480
20
3750
10
10480
20
3720
10
10460
20
3720
10
10460
20
3710
10
10450
20
3710
10
10450
20
3680
10
10440
20
3680
10
10440
20
3660
10
10430
20
3660
10
10430
20
3630
10
10420
20
3630
10
10420
20
3620
10
10410
20
3620
10
10410
20
3610
10
10400
20
3610
10
10400
20
3600
10
10390
20
3600
10
10390
20
3590
10
10360
20
3590
10
10360
20
3580
10
10310
20
3580
10
10310
20
3570
0
HATCH
8
L46D0
70
1
91
1
92
3
72
0
73
1
93
4
10
6080
20
3940
10
6080
20
4000
10
6080.45
20
4000
10
6080.45
20
3940
0
HATCH
8
L46D0
70
1
91
1
92
3
72
0
73
1
93
4
10
6080
20
4200
10
6080
20
4250
10
6080.45
20
4250
10
6080.45
20
4200
0
HATCH
8
L46D0
70
1
91
1
92
3
72
0
73
1
93
4
10
6080
20
4440
10
6080
20
4510
10
6080.45
20
4510
10
6080.45
20
4440
0
HATCH
8
L46D0
70
1
91
1
92
3
72
0
73
1
93
4
10
6080
20
4690
10
6080
20
4780
10
6080.45
20
4780
10
6080.45
20
4690
0
HATCH
8
L46D0
70
1
91
1
92
3
72
0
73
1
93
4
10
6080
20
4940
10
6080
20
5020
10
6080.45
20
5020
10
6080.45
20
4940
0
HATCH
8
L46D0
70
1
91
1
92
3
72
0
73
1
93
4
10
6080
20
5170
10
6080
20
5250
10
6080.45
20
5250
10
6080.45
20
5170
0
HATCH
8
L46D0
70
1
91
1
92
3
72
0
73
1
93
4
10
6080
20
5570
10
6080
20
5600
10
6080.45
20
5600
10
6080.45
20
5570
0
HATCH
8
L46D0
70
1
91
1
92
3
72
0
73
1
93
4
10
6080
20
5650
10
6080
20
5720
10
6080.45
20
5720
10
6080.45
20
5650
0
HATCH
8
L46D0
70
1
91
1
92
3
72
0
73
1
93
4
10
6080
20
5880
10
6080
20
5930
10
6080.45
20
5930
10
6080.45
20
5880
0
HATCH
8
L46D0
70
1
91
1
92
3
72
0
73
1
93
4
10
6080
20
5940
10
6080
20
6040
10
6080.45
20
6040
10
6080.45
20
5940
0
HATCH
8
L46D0
70
1
91
1
92
3
72
0
73
1
93
4
10
6080
20
6060
10
6080
20
6130
10
6080.45
20
6130
10
6080.45
20
6060
0
HATCH
8
L46D0
70
1
91
1
92
3
72
0
73
1
93
4
10
6080
20
6180
10
6080
20
6480
10
6080.45
20
6480
10
6080.45
20
6180
0
HATCH
8
L46D0
70
1
91
1
92
3
72
0
73
1
93
4
10
6080
20
6500
10
6080
20
6600
10
6080.45
20
6600
10
6080.45
20
6500
0
HATCH
8
L46D0
70
1
91
1
92
3
72
0
73
1
93
4
10
6080
20
6620
10
6080
20
6660
10
6080.45
20
6660
10
6080.45
20
6620
0
HATCH
8
L46D0
70
1
91
1
92
3
72
0
73
1
93
4
10
6080
20
6680
10
6080
20
6720
10
6080.45
20
6720
10
6080.45
20
6680
0
HATCH
8
L46D0
70
1
91
1
92
3
72
0
73
1
93
4
10
6080
20
6730
10
6080
20
6740
10
6080.45
20
6740
10
6080.45
20
6730
0
HATCH
8
L46D0
70
1
91
1
92
3
72
0
73
1
93
4
10
6080
20
6760
10
6080
20
6810
10
6080.45
20
6810
10
6080.45
20
6760
0
HATCH
8
L46D0
70
1
91
1
92
3
72
0
73
1
93
4
10
3950
20
3460
10
3950
20
3560
10
3960
20
3560
10
3960
20
3460
0
HATCH
8
L46D0
70
1
91
1
92
3
72
0
73
1
93
4
10
3950
20
3600
10
3950
20
3630
10
3960
20
3630
10
3960
20
3600
0
HATCH
8
L46D0
70
1
91
1
92
3
72
0
73
1
93
4
10
3950
20
3640
10
3950
20
3660
10
3960
20
3660
10
3960
20
3640
0
HATCH
8
L46D0
70
1
91
1
92
3
72
0
73
1
93
4
10
3950
20
3680
10
3950
20
3710
10
3960
20
3710
10
3960
20
3680
0
HATCH
8
L46D0
70
1
91
1
92
3
72
0
73
1
93
4
10
3950
20
3920
10
3950
20
3940
10
3960
20
3940
10
3960
20
3920
0
HATCH
8
L46D0
70
1
91
1
92
3
72
0
73
1
93
4
10
3950
20
4100
10
3950
20
4110
10
3960
20
4110
10
3960
20
4100
0
HATCH
8
L46D0
70
1
91
1
92
3
72
0
73
1
93
4
10
3950
20
4950
10
3950
20
5020
10
3960
20
5020
10
3960
20
4950
0
HATCH
8
L46D0
70
1
91
1
92
3
72
0
73
1
93
4
10
3950
20
5690
10
3950
20
5700
10
3960
20
5700
10
3960
20
5690
0
HATCH
8
L46D0
70
1
91
1
92
3
72
0
73
1
93
4
10
3950
20
5710
10
3950
20
5760
10
3960
20
5760
10
3960
20
5710
0
HATCH
8
L46D0
70
1
91
1
92
3
72
0
73
1
93
4
10
3960
20
2310
10
3960
20
6600
10
3970
20
6600
10
3970
20
2310
0
HATCH
8
L46D0
70
1
91
1
92
3
72
0
73
1
93
4
10
3960
20
6640
10
3960
20
6660
10
3970
20
6660
10
3970
20
6640
0
HATCH
8
L46D0
70
1
91
1
92
3
72
0
73
1
93
4
10
3960
20
6710
10
3960
20
6720
10
3970
20
6720
10
3970
20
6710
0
HATCH
8
L46D0
70
1
91
1
92
3
72
0
73
1
93
4
10
1630
20
6290
10
1630
20
6300
10
1640
20
6300
10
1640
20
6290
0
HATCH
8
L46D0
70
1
91
1
92
3
72
0
73
1
93
4
10
8820
20
2720
10
8820
20
2780
10
8830
20
2780
10
8830
20
2720
0
HATCH
8
L46D0
70
1
91
1
92
3
72
0
73
1
93
4
10
8820
20
4050
10
8820
20
4130
10
8830
20
4130
10
8830
20
4050
0
HATCH
8
L46D0
70
1
91
1
92
3
72
0
73
1
93
4
10
8820
20
4940
10
8820
20
5020
10
8830
20
5020
10
8830
20
4940
0
HATCH
8
L46D0
70
1
91
1
92
3
72
0
73
1
93
4
10
8820
20
5370
10
8820
20
5400
10
8830
20
5400
10
8830
20
5370
0
HATCH
8
L46D0
70
1
91
1
92
3
72
0
73
1
93
4
10
8820
20
5460
10
8820
20
5520
10
8830
20
5520
10
8830
20
5460
0
HATCH
8
L46D0
70
1
91
1
92
3
72
0
73
1
93
4
10
8820
20
5650
10
8820
20
5660
10
8830
20
5660
10
8830
20
5650
0
HATCH
8
L46D0
70
1
91
1
92
3
72
0
73
1
93
4
10
8820
20
5680
10
8820
20
5780
10
8830
20
5780
10
8830
20
5680
0
HATCH
8
L46D0
70
1
91
1
92
3
72
0
73
1
93
4
10
8820
20
5840
10
8820
20
5850
10
8830
20
5850
10
8830
20
5840
0
HATCH
8
L46D0
70
1
91
1
92
3
72
0
73
1
93
4
10
8820
20
5900
10
8820
20
6310
10
8830
20
6310
10
8830
20
5900
0
HATCH
8
L46D0
70
1
91
1
92
3
72
0
73
1
93
4
10
8820
20
6320
10
8820
20
6480
10
8830
20
6480
10
8830
20
6320
0
HATCH
8
L46D0
70
1
91
1
92
3
72
0
73
1
93
4
10
8820
20
6490
10
8820
20
6540
10
8830
20
6540
10
8830
20
6490
0
HATCH
8
L46D0
70
1
91
1
92
3
72
0
73
1
93
4
10
8820
20
6570
10
8820
20
6630
10
8830
20
6630
10
8830
20
6570
0
HATCH
8
L46D0
70
1
91
1
92
3
72
0
73
1
93
4
10
6699.05
20
2410
10
6699.05
20
3670
10
6700
20
3670
10
6700
20
2410
0
HATCH
8
L46D0
70
1
91
1
92
3
72
0
73
1
93
4
10
6699.05
20
3690
10
6699.05
20
3720
10
6700
20
3720
10
6700
20
3690
0
HATCH
8
L46D0
70
1
91
1
92
3
72
0
73
1
93
4
10
6699.05
20
3800
10
6699.05
20
3810
10
6700
20
3810
10
6700
20
3800
0
HATCH
8
L46D0
70
1
91
1
92
3
72
0
73
1
93
4
10
6699.05
20
3880
10
6699.05
20
4050
10
6700
20
4050
10
6700
20
3880
0
HATCH
8
L46D0
70
1
91
1
92
3
72
0
73
1
93
4
10
6699.05
20
4120
10
6699.05
20
4170
10
6700
20
4170
10
6700
20
4120
0
HATCH
8
L46D0
70
1
91
1
92
3
72
0
73
1
93
4
10
6699.05
20
4180
10
6699.05
20
4300
10
6700
20
4300
10
6700
20
4180
0
HATCH
8
L46D0
70
1
91
1
92
3
72
0
73
1
93
4
10
6699.05
20
4450
10
6699.05
20
4540
10
6700
20
4540
10
6700
20
4450
0
HATCH
8
L46D0
70
1
91
1
92
3
72
0
73
1
93
4
10
6699.05
20
4700
10
6699.05
20
4780
10
6700
20
4780
10
6700
20
4700
0
HATCH
8
L46D0
70
1
91
1
92
3
72
0
73
1
93
4
10
6699.05
20
4950
10
6699.05
20
5010
10
6700
20
5010
10
6700
20
4950
0
HATCH
8
L46D0
70
1
91
1
92
3
72
0
73
1
93
4
10
6699.05
20
5200
10
6699.05
20
5250
10
6700
20
5250
10
6700
20
5200
0
HATCH
8
L46D0
70
1
91
1
92
3
72
0
73
1
93
4
10
10420
20
7250
10
10420
20
8120
10
10430
20
8120
10
10430
20
7250
0
ENDSEC
0
EOF
