999
dxfrw 0.6.3
  0
SECTION
  2
HEADER
  9
$ACADVER
  1
AC1021
  9
$DWGCODEPAGE
  3
ANSI_1252
  9
$INSBASE
 10
0
 20
0
 30
0
  9
$EXTMIN
 10
-2956
 20
-4436
 30
0
  9
$EXTMAX
 10
2956
 20
4436
 30
0
  9
$LIMMIN
 10
0
 20
0
  9
$LIMMAX
 10
420
 20
297
  9
$ORTHOMODE
 70
    0
  9
$REGENMODE
 70
    1
  9
$FILLMODE
 70
    1
  9
$QTEXTMODE
 70
    0
  9
$MIRRTEXT
 70
    0
  9
$LTSCALE
 40
1
  9
$ATTMODE
 70
    0
  9
$TEXTSIZE
 40
2.5
  9
$TRACEWID
 40
15.68
  9
$TEXTSTYLE
  7
STANDARD
  9
$CLAYER
  8
0
  9
$CELTYPE
  6
BYLAYER
  9
$CECOLOR
 62
  256
  9
$CELTSCALE
 40
1
  9
$DISPSILH
 70
    0
  9
$DIMSCALE
 40
2.5
  9
$DIMASZ
 40
2.5
  9
$DIMEXO
 40
0.625
  9
$DIMDLI
 40
3.75
  9
$DIMRND
 40
0
  9
$DIMDLE
 40
0
  9
$DIMEXE
 40
1.25
  9
$DIMTP
 40
0
  9
$DIMTM
 40
0
  9
$DIMTXT
 40
2.5
  9
$DIMCEN
 40
2.5
  9
$DIMTSZ
 40
0
  9
$DIMTOL
 70
    0
  9
$DIMLIM
 70
    0
  9
$DIMTIH
 70
    0
  9
$DIMTOH
 70
    0
  9
$DIMSE1
 70
    0
  9
$DIMSE2
 70
    0
  9
$DIMTAD
 70
    1
  9
$DIMZIN
 70
    8
  9
$DIMBLK
  1

  9
$DIMASO
 70
    1
  9
$DIMSHO
 70
    1
  9
$DIMPOST
  1

  9
$DIMAPOST
  1

  9
$DIMALT
 70
    0
  9
$DIMALTD
 70
    3
  9
$DIMALTF
 40
0.03937
  9
$DIMLFAC
 40
1
  9
$DIMTOFL
 70
    1
  9
$DIMTVP
 40
0
  9
$DIMTIX
 70
    0
  9
$DIMSOXD
 70
    0
  9
$DIMSAH
 70
    0
  9
$DIMBLK1
  1

  9
$DIMBLK2
  1

  9
$DIMSTYLE
  2
Standard
  9
$DIMCLRD
 70
    0
  9
$DIMCLRE
 70
    0
  9
$DIMCLRT
 70
    0
  9
$DIMTFAC
 40
1
  9
$DIMGAP
 40
0.625
  9
$DIMJUST
 70
    0
  9
$DIMSD1
 70
    0
  9
$DIMSD2
 70
    0
  9
$DIMTOLJ
 70
    0
  9
$DIMTZIN
 70
    8
  9
$DIMALTZ
 70
    0
  9
$DIMALTTZ
 70
    0
  9
$DIMUPT
 70
    0
  9
$DIMDEC
 70
    2
  9
$DIMTDEC
 70
    2
  9
$DIMALTU
 70
    2
  9
$DIMALTTD
 70
    3
  9
$DIMTXSTY
  7
STANDARD
  9
$DIMAUNIT
 70
    0
  9
$DIMADEC
 70
    0
  9
$DIMALTRND
 40
0
  9
$DIMAZIN
 70
    0
  9
$DIMDSEP
 70
   44
  9
$DIMATFIT
 70
    3
  9
$DIMFRAC
 70
    0
  9
$DIMLDRBLK
  1
STANDARD
  9
$DIMLUNIT
 70
    2
  9
$DIMLWD
 70
   -2
  9
$DIMLWE
 70
   -2
  9
$DIMTMOVE
 70
    0
  9
$DIMFXL
 40
1
  9
$DIMFXLON
 70
    0
  9
$DIMJOGANG
 40
0.7854
  9
$DIMTFILL
 70
    0
  9
$DIMTFILLCLR
 70
    0
  9
$DIMARCSYM
 70
    0
  9
$DIMLTYPE
  6

  9
$DIMLTEX1
  6

  9
$DIMLTEX2
  6

  9
$LUNITS
 70
    2
  9
$LUPREC
 70
    4
  9
$SKETCHINC
 40
1
  9
$FILLETRAD
 40
0
  9
$AUNITS
 70
    0
  9
$AUPREC
 70
    2
  9
$MENU
  1
.
  9
$ELEVATION
 40
0
  9
$PELEVATION
 40
0
  9
$THICKNESS
 40
0
  9
$LIMCHECK
 70
    0
  9
$CHAMFERA
 40
0
  9
$CHAMFERB
 40
0
  9
$CHAMFERC
 40
0
  9
$CHAMFERD
 40
0
  9
$SKPOLY
 70
    0
  9
$USRTIMER
 70
    1
  9
$ANGBASE
 50
0
  9
$ANGDIR
 70
    0
  9
$PDMODE
 70
   34
  9
$PDSIZE
 40
0
  9
$PLINEWID
 40
0
  9
$SPLFRAME
 70
    0
  9
$SPLINETYPE
 70
    2
  9
$SPLINESEGS
 70
    8
  9
$HANDSEED
  5
20000
  9
$SURFTAB1
 70
    6
  9
$SURFTAB2
 70
    6
  9
$SURFTYPE
 70
    6
  9
$SURFU
 70
    6
  9
$SURFV
 70
    6
  9
$UCSBASE
  2

  9
$UCSNAME
  2

  9
$UCSORG
 10
0
 20
0
 30
0
  9
$UCSXDIR
 10
1
 20
0
 30
0
  9
$UCSYDIR
 10
0
 20
1
 30
0
  9
$UCSORTHOREF
  2

  9
$UCSORTHOVIEW
 70
    0
  9
$UCSORGTOP
 10
0
 20
0
 30
0
  9
$UCSORGBOTTOM
 10
0
 20
0
 30
0
  9
$UCSORGLEFT
 10
0
 20
0
 30
0
  9
$UCSORGRIGHT
 10
0
 20
0
 30
0
  9
$UCSORGFRONT
 10
0
 20
0
 30
0
  9
$UCSORGBACK
 10
0
 20
0
 30
0
  9
$PUCSBASE
  2

  9
$PUCSNAME
  2

  9
$PUCSORG
 10
0
 20
0
 30
0
  9
$PUCSXDIR
 10
1
 20
0
 30
0
  9
$PUCSYDIR
 10
0
 20
1
 30
0
  9
$PUCSORTHOREF
  2

  9
$PUCSORTHOVIEW
 70
    0
  9
$PUCSORGTOP
 10
0
 20
0
 30
0
  9
$PUCSORGBOTTOM
 10
0
 20
0
 30
0
  9
$PUCSORGLEFT
 10
0
 20
0
 30
0
  9
$PUCSORGRIGHT
 10
0
 20
0
 30
0
  9
$PUCSORGFRONT
 10
0
 20
0
 30
0
  9
$PUCSORGBACK
 10
0
 20
0
 30
0
  9
$USERI1
 70
    0
  9
$USERI2
 70
    0
  9
$USERI3
 70
    0
  9
$USERI4
 70
    0
  9
$USERI5
 70
    0
  9
$USERR1
 40
0
  9
$USERR2
 40
0
  9
$USERR3
 40
0
  9
$USERR4
 40
0
  9
$USERR5
 40
0
  9
$WORLDVIEW
 70
    1
  9
$SHADEDGE
 70
    3
  9
$SHADEDIF
 70
   70
  9
$TILEMODE
 70
    1
  9
$MAXACTVP
 70
   64
  9
$PINSBASE
 10
0
 20
0
 30
0
  9
$PLIMCHECK
 70
    0
  9
$PEXTMIN
 10
0
 20
0
 30
0
  9
$PEXTMAX
 10
0
 20
0
 30
0
  9
$SNAPSTYLE
 70
    0
  9
$PLIMMIN
 10
0
 20
0
  9
$PLIMMAX
 10
215.9
 20
279.4
  9
$UNITMODE
 70
    0
  9
$VISRETAIN
 70
    1
  9
$PLINEGEN
 70
    0
  9
$PSLTSCALE
 70
    1
  9
$TREEDEPTH
 70
 3020
  9
$CMLSTYLE
  2
Standard
  9
$CMLJUST
 70
    0
  9
$CMLSCALE
 40
20
  9
$PROXYGRAPHICS
 70
    1
  9
$MEASUREMENT
 70
    1
  9
$CELWEIGHT
370
   -1
  9
$ENDCAPS
280
    0
  9
$JOINSTYLE
280
    0
  9
$LWDISPLAY
290
    0
  9
$INSUNITS
 70
    4
  9
$HYPERLINKBASE
  1

  9
$STYLESHEET
  1

  9
$XEDIT
290
    1
  9
$CEPSNTYPE
380
    0
  9
$PSTYLEMODE
290
    1
  9
$EXTNAMES
290
    1
  9
$PSVPSCALE
 40
1
  9
$OLESTARTUP
290
    0
  9
$SORTENTS
280
  127
  9
$INDEXCTL
280
    0
  9
$HIDETEXT
280
    1
  9
$XCLIPFRAME
290
    0
  9
$HALOGAP
280
    0
  9
$OBSCOLOR
 70
  257
  9
$OBSLTYPE
280
    0
  9
$INTERSECTIONDISPLAY
280
    0
  9
$INTERSECTIONCOLOR
 70
  257
  9
$DIMASSOC
280
    1
  9
$PROJECTNAME
  1

  9
$CAMERADISPLAY
290
    0
  9
$LENSLENGTH
 40
50
  9
$CAMERAHEIGHT
 40
0
  9
$STEPSPERSEC
 40
2
  9
$STEPSIZE
 40
50
  9
$3DDWFPREC
 40
2
  9
$PSOLWIDTH
 40
5
  9
$PSOLHEIGHT
 40
80
  9
$LOFTANG1
 40
1.570796326794897
  9
$LOFTANG2
 40
1.570796326794897
  9
$LOFTMAG1
 40
0
  9
$LOFTMAG2
 40
0
  9
$LOFTPARAM
 70
    7
  9
$LOFTNORMALS
280
    1
  9
$LATITUDE
 40
1
  9
$LONGITUDE
 40
1
  9
$NORTHDIRECTION
 40
0
  9
$TIMEZONE
 70
-8000
  9
$LIGHTGLYPHDISPLAY
280
    1
  9
$TILEMODELIGHTSYNCH
280
    1
  9
$SOLIDHIST
280
    1
  9
$SHOWHIST
280
    1
  9
$DWFFRAME
280
    2
  9
$DGNFRAME
280
    0
  9
$REALWORLDSCALE
290
    1
  9
$INTERFERECOLOR
 62
    1
  9
$CSHADOW
280
    0
  9
$SHADOWPLANELOCATION
 40
0
  0
ENDSEC
  0
SECTION
  2
CLASSES
  0
ENDSEC
  0
SECTION
  2
TABLES
  0
TABLE
  2
VPORT
  5
8
330
0
100
AcDbSymbolTable
 70
    1
  0
VPORT
  5
31
330
2
100
AcDbSymbolTableRecord
100
AcDbViewportTableRecord
  2
*ACTIVE
 70
    0
 10
0
 20
0
 11
1
 21
1
 12
2322.233879781421
 22
2268.904918032787
 13
0
 23
0
 14
10
 24
10
 15
10
 25
10
 16
0
 26
0
 36
1
 17
0
 27
0
 37
0
 40
9065.92349726776
 41
1.023529411764706
 42
50
 43
0
 44
0
 50
0
 51
0
 71
    0
 72
  100
 73
    1
 74
    3
 75
    0
 76
    1
 77
    0
 78
    0
281
    0
 65
    1
110
0
120
0
130
0
111
1
121
0
131
0
112
0
122
1
132
0
 79
    0
146
0
348
10020
 60
    7
 61
    5
292
1
282
    1
141
0
142
0
 63
  250
421
3358443
  0
ENDTAB
  0
TABLE
  2
LTYPE
  5
5
330
0
100
AcDbSymbolTable
 70
    4
  0
LTYPE
  5
14
330
5
100
AcDbSymbolTableRecord
100
AcDbLinetypeTableRecord
  2
ByBlock
 70
    0
  3

 72
   65
 73
    0
 40
0
  0
LTYPE
  5
15
330
5
100
AcDbSymbolTableRecord
100
AcDbLinetypeTableRecord
  2
ByLayer
 70
    0
  3

 72
   65
 73
    0
 40
0
  0
LTYPE
  5
16
330
5
100
AcDbSymbolTableRecord
100
AcDbLinetypeTableRecord
  2
Continuous
 70
    0
  3
Solid line
 72
   65
 73
    0
 40
0
  0
LTYPE
  5
32
330
5
100
AcDbSymbolTableRecord
100
AcDbLinetypeTableRecord
  2
DOT
 70
    0
  3
Dot . . . . . . . . . . . . . . . . . . . . . .
 72
   65
 73
    2
 40
6.35
 49
0
 74
    0
 49
-6.35
 74
    0
  0
LTYPE
  5
33
330
5
100
AcDbSymbolTableRecord
100
AcDbLinetypeTableRecord
  2
DOTTINY
 70
    0
  3
Dot (.15x) .....................................
 72
   65
 73
    2
 40
0.9525
 49
0
 74
    0
 49
-0.9525
 74
    0
  0
LTYPE
  5
34
330
5
100
AcDbSymbolTableRecord
100
AcDbLinetypeTableRecord
  2
DOT2
 70
    0
  3
Dot (.5x) .....................................
 72
   65
 73
    2
 40
3.175
 49
0
 74
    0
 49
-3.175
 74
    0
  0
LTYPE
  5
35
330
5
100
AcDbSymbolTableRecord
100
AcDbLinetypeTableRecord
  2
DOTX2
 70
    0
  3
Dot (2x) .  .  .  .  .  .  .  .  .  .  .  .  .
 72
   65
 73
    2
 40
12.7
 49
0
 74
    0
 49
-12.7
 74
    0
  0
LTYPE
  5
36
330
5
100
AcDbSymbolTableRecord
100
AcDbLinetypeTableRecord
  2
DASHED
 70
    0
  3
Dashed _ _ _ _ _ _ _ _ _ _ _ _ _ _ _ _ _
 72
   65
 73
    2
 40
19.05
 49
12.7
 74
    0
 49
-6.35
 74
    0
  0
LTYPE
  5
37
330
5
100
AcDbSymbolTableRecord
100
AcDbLinetypeTableRecord
  2
DASHEDTINY
 70
    0
  3
Dashed (.15x) _ _ _ _ _ _ _ _ _ _ _ _ _ _ _ _ _
 72
   65
 73
    2
 40
2.8575
 49
1.905
 74
    0
 49
-0.9525
 74
    0
  0
LTYPE
  5
38
330
5
100
AcDbSymbolTableRecord
100
AcDbLinetypeTableRecord
  2
DASHED2
 70
    0
  3
Dashed (.5x) _ _ _ _ _ _ _ _ _ _ _ _ _ _ _ _ _
 72
   65
 73
    2
 40
9.524999999999999
 49
6.35
 74
    0
 49
-3.175
 74
    0
  0
LTYPE
  5
39
330
5
100
AcDbSymbolTableRecord
100
AcDbLinetypeTableRecord
  2
DASHEDX2
 70
    0
  3
Dashed (2x) ____  ____  ____  ____  ____  ___
 72
   65
 73
    2
 40
38.09999999999999
 49
25.4
 74
    0
 49
-12.7
 74
    0
  0
LTYPE
  5
3A
330
5
100
AcDbSymbolTableRecord
100
AcDbLinetypeTableRecord
  2
DASHDOT
 70
    0
  3
Dash dot __ . __ . __ . __ . __ . __ . __ . __
 72
   65
 73
    4
 40
25.4
 49
12.7
 74
    0
 49
-6.35
 74
    0
 49
0
 74
    0
 49
-6.35
 74
    0
  0
LTYPE
  5
3B
330
5
100
AcDbSymbolTableRecord
100
AcDbLinetypeTableRecord
  2
DASHDOTTINY
 70
    0
  3
Dash dot (.15x) _._._._._._._._._._._._._._._.
 72
   65
 73
    4
 40
3.81
 49
1.905
 74
    0
 49
-0.9525
 74
    0
 49
0
 74
    0
 49
-0.9525
 74
    0
  0
LTYPE
  5
3C
330
5
100
AcDbSymbolTableRecord
100
AcDbLinetypeTableRecord
  2
DASHDOT2
 70
    0
  3
Dash dot (.5x) _._._._._._._._._._._._._._._.
 72
   65
 73
    4
 40
12.7
 49
6.35
 74
    0
 49
-3.175
 74
    0
 49
0
 74
    0
 49
-3.175
 74
    0
  0
LTYPE
  5
3D
330
5
100
AcDbSymbolTableRecord
100
AcDbLinetypeTableRecord
  2
DASHDOTX2
 70
    0
  3
Dash dot (2x) ____  .  ____  .  ____  .  ___
 72
   65
 73
    4
 40
50.8
 49
25.4
 74
    0
 49
-12.7
 74
    0
 49
0
 74
    0
 49
-12.7
 74
    0
  0
LTYPE
  5
3E
330
5
100
AcDbSymbolTableRecord
100
AcDbLinetypeTableRecord
  2
DIVIDE
 70
    0
  3
Divide ____ . . ____ . . ____ . . ____ . . ____
 72
   65
 73
    6
 40
31.75
 49
12.7
 74
    0
 49
-6.35
 74
    0
 49
0
 74
    0
 49
-6.35
 74
    0
 49
0
 74
    0
 49
-6.35
 74
    0
  0
LTYPE
  5
3F
330
5
100
AcDbSymbolTableRecord
100
AcDbLinetypeTableRecord
  2
DIVIDETINY
 70
    0
  3
Divide (.15x) __..__..__..__..__..__..__..__.._
 72
   65
 73
    6
 40
4.7625
 49
1.905
 74
    0
 49
-0.9525
 74
    0
 49
0
 74
    0
 49
-0.9525
 74
    0
 49
0
 74
    0
 49
-0.9525
 74
    0
  0
LTYPE
  5
40
330
5
100
AcDbSymbolTableRecord
100
AcDbLinetypeTableRecord
  2
DIVIDE2
 70
    0
  3
Divide (.5x) __..__..__..__..__..__..__..__.._
 72
   65
 73
    6
 40
15.875
 49
6.35
 74
    0
 49
-3.175
 74
    0
 49
0
 74
    0
 49
-3.175
 74
    0
 49
0
 74
    0
 49
-3.175
 74
    0
  0
LTYPE
  5
41
330
5
100
AcDbSymbolTableRecord
100
AcDbLinetypeTableRecord
  2
DIVIDEX2
 70
    0
  3
Divide (2x) ________  .  .  ________  .  .  _
 72
   65
 73
    6
 40
63.5
 49
25.4
 74
    0
 49
-12.7
 74
    0
 49
0
 74
    0
 49
-12.7
 74
    0
 49
0
 74
    0
 49
-12.7
 74
    0
  0
LTYPE
  5
42
330
5
100
AcDbSymbolTableRecord
100
AcDbLinetypeTableRecord
  2
BORDER
 70
    0
  3
Border __ __ . __ __ . __ __ . __ __ . __ __ .
 72
   65
 73
    6
 40
44.45
 49
12.7
 74
    0
 49
-6.35
 74
    0
 49
12.7
 74
    0
 49
-6.35
 74
    0
 49
0
 74
    0
 49
-6.35
 74
    0
  0
LTYPE
  5
43
330
5
100
AcDbSymbolTableRecord
100
AcDbLinetypeTableRecord
  2
BORDERTINY
 70
    0
  3
Border (.15x) __.__.__.__.__.__.__.__.__.__.__.
 72
   65
 73
    6
 40
6.6675
 49
1.905
 74
    0
 49
-0.9525
 74
    0
 49
1.905
 74
    0
 49
-0.9525
 74
    0
 49
0
 74
    0
 49
-0.9525
 74
    0
  0
LTYPE
  5
44
330
5
100
AcDbSymbolTableRecord
100
AcDbLinetypeTableRecord
  2
BORDER2
 70
    0
  3
Border (.5x) __.__.__.__.__.__.__.__.__.__.__.
 72
   65
 73
    6
 40
22.225
 49
6.35
 74
    0
 49
-3.175
 74
    0
 49
6.35
 74
    0
 49
-3.175
 74
    0
 49
0
 74
    0
 49
-3.175
 74
    0
  0
LTYPE
  5
45
330
5
100
AcDbSymbolTableRecord
100
AcDbLinetypeTableRecord
  2
BORDERX2
 70
    0
  3
Border (2x) ____  ____  .  ____  ____  .  ___
 72
   65
 73
    6
 40
88.89999999999999
 49
25.4
 74
    0
 49
-12.7
 74
    0
 49
25.4
 74
    0
 49
-12.7
 74
    0
 49
0
 74
    0
 49
-12.7
 74
    0
  0
LTYPE
  5
46
330
5
100
AcDbSymbolTableRecord
100
AcDbLinetypeTableRecord
  2
CENTER
 70
    0
  3
Center ____ _ ____ _ ____ _ ____ _ ____ _ ____
 72
   65
 73
    4
 40
50.8
 49
31.75
 74
    0
 49
-6.35
 74
    0
 49
6.35
 74
    0
 49
-6.35
 74
    0
  0
LTYPE
  5
47
330
5
100
AcDbSymbolTableRecord
100
AcDbLinetypeTableRecord
  2
CENTERTINY
 70
    0
  3
Center (.15x) ___ _ ___ _ ___ _ ___ _ ___ _ ___
 72
   65
 73
    4
 40
7.619999999999999
 49
4.7625
 74
    0
 49
-0.9525
 74
    0
 49
0.9525
 74
    0
 49
-0.9525
 74
    0
  0
LTYPE
  5
48
330
5
100
AcDbSymbolTableRecord
100
AcDbLinetypeTableRecord
  2
CENTER2
 70
    0
  3
Center (.5x) ___ _ ___ _ ___ _ ___ _ ___ _ ___
 72
   65
 73
    4
 40
28.575
 49
19.05
 74
    0
 49
-3.175
 74
    0
 49
3.175
 74
    0
 49
-3.175
 74
    0
  0
LTYPE
  5
49
330
5
100
AcDbSymbolTableRecord
100
AcDbLinetypeTableRecord
  2
CENTERX2
 70
    0
  3
Center (2x) ________  __  ________  __  _____
 72
   65
 73
    4
 40
101.6
 49
63.5
 74
    0
 49
-12.7
 74
    0
 49
12.7
 74
    0
 49
-12.7
 74
    0
  0
ENDTAB
  0
TABLE
  2
LAYER
  5
2
330
0
100
AcDbSymbolTable
 70
    1
  0
LAYER
  5
10
330
2
100
AcDbSymbolTableRecord
100
AcDbLayerTableRecord
  2
0
 70
    0
 62
    7
  6
CONTINUOUS
370
    0
390
F
  0
LAYER
  5
4A
330
2
100
AcDbSymbolTableRecord
100
AcDbLayerTableRecord
  2
L1D0
 70
    0
 62
    1
  6
CONTINUOUS
370
   -3
390
F
  0
ENDTAB
  0
TABLE
  2
STYLE
  5
3
330
0
100
AcDbSymbolTable
 70
    3
  0
STYLE
  5
4B
330
2
100
AcDbSymbolTableRecord
100
AcDbTextStyleTableRecord
  2
Standard
 70
    0
 40
0
 41
1
 50
0
 71
    0
 42
1
  3
txt
  4

  0
ENDTAB
  0
TABLE
  2
VIEW
  5
6
330
0
100
AcDbSymbolTable
 70
    0
  0
ENDTAB
  0
TABLE
  2
UCS
  5
7
330
0
100
AcDbSymbolTable
 70
    0
  0
ENDTAB
  0
TABLE
  2
APPID
  5
9
330
0
100
AcDbSymbolTable
 70
    1
  0
APPID
  5
12
330
9
100
AcDbSymbolTableRecord
100
AcDbRegAppTableRecord
  2
ACAD
 70
    0
  0
APPID
  5
4C
330
9
100
AcDbSymbolTableRecord
100
AcDbRegAppTableRecord
  2
LibreCad
 70
    0
  0
ENDTAB
  0
TABLE
  2
DIMSTYLE
  5
A
330
0
100
AcDbSymbolTable
 70
    1
100
AcDbDimStyleTable
 71
    1
  0
DIMSTYLE
105
4D
330
A
100
AcDbSymbolTableRecord
100
AcDbDimStyleTableRecord
  2
Standard
 70
    0
 40
1
 41
2.5
 42
0.625
 43
0.38
 44
1.25
 45
0
 46
0
 47
0
 48
0
 49
1
140
2.5
141
0.09
142
2.5
143
25.4
144
1
145
0
146
1
147
0.625
148
0
 71
    0
 72
    0
 73
    0
 74
    1
 75
    0
 76
    0
 77
    0
 78
    1
 79
    0
170
    0
171
    2
172
    0
173
    0
174
    0
175
    0
176
    0
177
    0
178
    0
179
    0
271
    2
272
    4
273
    2
274
    2
275
    0
276
    0
277
    2
278
    0
279
    0
280
    0
281
    0
282
    0
283
    1
284
    0
285
    0
286
    0
288
    0
289
    3
340
standard
341

371
   -2
372
   -2
  0
ENDTAB
  0
TABLE
  2
BLOCK_RECORD
  5
1
330
0
100
AcDbSymbolTable
 70
    2
  0
BLOCK_RECORD
  5
1F
330
1
100
AcDbSymbolTableRecord
100
AcDbBlockTableRecord
  2
*Model_Space
 70
    0
280
    1
281
    0
  0
BLOCK_RECORD
  5
1E
330
1
100
AcDbSymbolTableRecord
100
AcDbBlockTableRecord
  2
*Paper_Space
 70
    0
280
    1
281
    0
  0
BLOCK_RECORD
  5
4E
330
1
100
AcDbSymbolTableRecord
100
AcDbBlockTableRecord
  2
SOI_PAD5.png
 70
    0
280
    1
281
    0
  0
ENDTAB
  0
ENDSEC
  0
SECTION
  2
BLOCKS
  0
BLOCK
  5
20
330
1F
100
AcDbEntity
  8
0
100
AcDbBlockBegin
  2
*Model_Space
 70
    0
 10
0
 20
0
 30
0
  3
*Model_Space
  1

  0
ENDBLK
  5
21
330
1F
100
AcDbEntity
  8
0
100
AcDbBlockEnd
  0
BLOCK
  5
1C
330
1B
100
AcDbEntity
  8
0
100
AcDbBlockBegin
  2
*Paper_Space
 70
    0
 10
0
 20
0
 30
0
  3
*Paper_Space
  1

  0
ENDBLK
  5
1D
330
1F
100
AcDbEntity
  8
0
100
AcDbBlockEnd
  0
BLOCK
  5
4F
330
4E
100
AcDbEntity
  8
0
100
AcDbBlockBegin
  2
SOI_PAD5.png
 70
    0
 10
0
 20
0
  3
SOI_PAD5.png
  1

  0
ENDBLK
  5
50
330
4E
100
AcDbEntity
  8
0
100
AcDbBlockEnd
  0
ENDSEC
  0
SECTION
  2
ENTITIES
  0
INSERT
  5
51
100
AcDbEntity
  8
0
  6
ByLayer
 62
  256
370
   -1
100
AcDbBlockReference
  2
SOI_PAD5.png
 10
0
 20
0
 30
0
 41
1
 42
1
 43
0
 50
0
 70
    1
 71
    1
 44
0
 45
0
  0
LWPOLYLINE
  5
52
100
AcDbEntity
  8
L1D0
  6
ByLayer
 62
  256
370
   -1
100
AcDbPolyline
 90
   48
 70
    1
 43
0
 10
-2956
 20
-3084
 10
-2956
 20
-2548
 10
-2940
 20
-2548
 10
-2940
 20
-2556
 10
-2924
 20
-2556
 10
-2924
 20
-2564
 10
-2916
 20
-2564
 10
-2916
 20
-2580
 10
-2908
 20
-2580
 10
-2908
 20
-2596
 10
-2900
 20
-2596
 10
-2900
 20
-2612
 10
-2892
 20
-2612
 10
-2892
 20
-2628
 10
-2884
 20
-2628
 10
-2884
 20
-2636
 10
-2876
 20
-2636
 10
-2876
 20
-2652
 10
-2868
 20
-2652
 10
-2868
 20
-2660
 10
-2860
 20
-2660
 10
-2860
 20
-2668
 10
-2852
 20
-2668
 10
-2852
 20
-2684
 10
-2844
 20
-2684
 10
-2844
 20
-2900
 10
-2852
 20
-2900
 10
-2852
 20
-2964
 10
-2860
 20
-2964
 10
-2860
 20
-3004
 10
-2868
 20
-3004
 10
-2868
 20
-3012
 10
-2860
 20
-3012
 10
-2860
 20
-3028
 10
-2868
 20
-3028
 10
-2868
 20
-3036
 10
-2884
 20
-3036
 10
-2884
 20
-3044
 10
-2892
 20
-3044
 10
-2892
 20
-3052
 10
-2908
 20
-3052
 10
-2908
 20
-3060
 10
-2924
 20
-3060
 10
-2924
 20
-3068
 10
-2940
 20
-3068
 10
-2940
 20
-3076
 10
-2948
 20
-3076
 10
-2948
 20
-3084
  0
LWPOLYLINE
  5
53
100
AcDbEntity
  8
L1D0
  6
ByLayer
 62
  256
370
   -1
100
AcDbPolyline
 90
   64
 70
    1
 43
0
 10
2948
 20
-3084
 10
2948
 20
-3076
 10
2940
 20
-3076
 10
2940
 20
-3068
 10
2924
 20
-3068
 10
2924
 20
-3060
 10
2908
 20
-3060
 10
2908
 20
-3052
 10
2892
 20
-3052
 10
2892
 20
-3044
 10
2884
 20
-3044
 10
2884
 20
-3036
 10
2868
 20
-3036
 10
2868
 20
-3028
 10
2860
 20
-3028
 10
2860
 20
-3012
 10
2868
 20
-3012
 10
2868
 20
-3004
 10
2860
 20
-3004
 10
2860
 20
-2964
 10
2852
 20
-2964
 10
2852
 20
-2900
 10
2844
 20
-2900
 10
2844
 20
-2884
 10
2852
 20
-2884
 10
2852
 20
-2868
 10
2844
 20
-2868
 10
2844
 20
-2844
 10
2852
 20
-2844
 10
2852
 20
-2836
 10
2844
 20
-2836
 10
2844
 20
-2812
 10
2852
 20
-2812
 10
2852
 20
-2804
 10
2844
 20
-2804
 10
2844
 20
-2780
 10
2852
 20
-2780
 10
2852
 20
-2772
 10
2844
 20
-2772
 10
2844
 20
-2684
 10
2852
 20
-2684
 10
2852
 20
-2668
 10
2860
 20
-2668
 10
2860
 20
-2660
 10
2868
 20
-2660
 10
2868
 20
-2652
 10
2876
 20
-2652
 10
2876
 20
-2636
 10
2884
 20
-2636
 10
2884
 20
-2628
 10
2892
 20
-2628
 10
2892
 20
-2612
 10
2900
 20
-2612
 10
2900
 20
-2596
 10
2908
 20
-2596
 10
2908
 20
-2580
 10
2916
 20
-2580
 10
2916
 20
-2564
 10
2924
 20
-2564
 10
2924
 20
-2556
 10
2940
 20
-2556
 10
2940
 20
-2548
 10
2956
 20
-2548
 10
2956
 20
-3084
  0
LWPOLYLINE
  5
54
100
AcDbEntity
  8
L1D0
  6
ByLayer
 62
  256
370
   -1
100
AcDbPolyline
 90
   72
 70
    1
 43
0
 10
-2956
 20
-1908
 10
-2956
 20
-1356
 10
-2948
 20
-1356
 10
-2948
 20
-1364
 10
-2932
 20
-1364
 10
-2932
 20
-1372
 10
-2908
 20
-1372
 10
-2908
 20
-1380
 10
-2900
 20
-1380
 10
-2900
 20
-1396
 10
-2892
 20
-1396
 10
-2892
 20
-1420
 10
-2884
 20
-1420
 10
-2884
 20
-1428
 10
-2876
 20
-1428
 10
-2876
 20
-1444
 10
-2868
 20
-1444
 10
-2868
 20
-1468
 10
-2852
 20
-1468
 10
-2852
 20
-1476
 10
-2844
 20
-1476
 10
-2844
 20
-1492
 10
-2836
 20
-1492
 10
-2836
 20
-1508
 10
-2828
 20
-1508
 10
-2828
 20
-1524
 10
-2836
 20
-1524
 10
-2836
 20
-1532
 10
-2828
 20
-1532
 10
-2828
 20
-1556
 10
-2836
 20
-1556
 10
-2836
 20
-1564
 10
-2828
 20
-1564
 10
-2828
 20
-1588
 10
-2836
 20
-1588
 10
-2836
 20
-1596
 10
-2828
 20
-1596
 10
-2828
 20
-1620
 10
-2836
 20
-1620
 10
-2836
 20
-1636
 10
-2828
 20
-1636
 10
-2828
 20
-1652
 10
-2836
 20
-1652
 10
-2836
 20
-1668
 10
-2828
 20
-1668
 10
-2828
 20
-1684
 10
-2836
 20
-1684
 10
-2836
 20
-1748
 10
-2844
 20
-1748
 10
-2844
 20
-1764
 10
-2836
 20
-1764
 10
-2836
 20
-1780
 10
-2844
 20
-1780
 10
-2844
 20
-1812
 10
-2852
 20
-1812
 10
-2852
 20
-1844
 10
-2860
 20
-1844
 10
-2860
 20
-1852
 10
-2868
 20
-1852
 10
-2868
 20
-1860
 10
-2884
 20
-1860
 10
-2884
 20
-1868
 10
-2892
 20
-1868
 10
-2892
 20
-1876
 10
-2908
 20
-1876
 10
-2908
 20
-1884
 10
-2924
 20
-1884
 10
-2924
 20
-1892
 10
-2932
 20
-1892
 10
-2932
 20
-1900
 10
-2948
 20
-1900
 10
-2948
 20
-1908
  0
LWPOLYLINE
  5
55
100
AcDbEntity
  8
L1D0
  6
ByLayer
 62
  256
370
   -1
100
AcDbPolyline
 90
   72
 70
    1
 43
0
 10
2948
 20
-1908
 10
2948
 20
-1900
 10
2932
 20
-1900
 10
2932
 20
-1892
 10
2924
 20
-1892
 10
2924
 20
-1884
 10
2908
 20
-1884
 10
2908
 20
-1876
 10
2892
 20
-1876
 10
2892
 20
-1868
 10
2884
 20
-1868
 10
2884
 20
-1860
 10
2868
 20
-1860
 10
2868
 20
-1852
 10
2860
 20
-1852
 10
2860
 20
-1844
 10
2852
 20
-1844
 10
2852
 20
-1812
 10
2844
 20
-1812
 10
2844
 20
-1780
 10
2836
 20
-1780
 10
2836
 20
-1764
 10
2844
 20
-1764
 10
2844
 20
-1748
 10
2836
 20
-1748
 10
2836
 20
-1684
 10
2828
 20
-1684
 10
2828
 20
-1668
 10
2836
 20
-1668
 10
2836
 20
-1652
 10
2828
 20
-1652
 10
2828
 20
-1636
 10
2836
 20
-1636
 10
2836
 20
-1620
 10
2828
 20
-1620
 10
2828
 20
-1596
 10
2836
 20
-1596
 10
2836
 20
-1588
 10
2828
 20
-1588
 10
2828
 20
-1564
 10
2836
 20
-1564
 10
2836
 20
-1556
 10
2828
 20
-1556
 10
2828
 20
-1532
 10
2836
 20
-1532
 10
2836
 20
-1524
 10
2828
 20
-1524
 10
2828
 20
-1508
 10
2836
 20
-1508
 10
2836
 20
-1492
 10
2844
 20
-1492
 10
2844
 20
-1476
 10
2852
 20
-1476
 10
2852
 20
-1468
 10
2868
 20
-1468
 10
2868
 20
-1444
 10
2876
 20
-1444
 10
2876
 20
-1428
 10
2884
 20
-1428
 10
2884
 20
-1420
 10
2892
 20
-1420
 10
2892
 20
-1396
 10
2900
 20
-1396
 10
2900
 20
-1380
 10
2908
 20
-1380
 10
2908
 20
-1372
 10
2932
 20
-1372
 10
2932
 20
-1364
 10
2948
 20
-1364
 10
2948
 20
-1356
 10
2956
 20
-1356
 10
2956
 20
-1908
  0
LWPOLYLINE
  5
56
100
AcDbEntity
  8
L1D0
  6
ByLayer
 62
  256
370
   -1
100
AcDbPolyline
 90
   74
 70
    1
 43
0
 10
-2956
 20
-716
 10
-2956
 20
-164
 10
-2948
 20
-164
 10
-2948
 20
-172
 10
-2932
 20
-172
 10
-2932
 20
-180
 10
-2908
 20
-180
 10
-2908
 20
-188
 10
-2900
 20
-188
 10
-2900
 20
-204
 10
-2892
 20
-204
 10
-2892
 20
-228
 10
-2884
 20
-228
 10
-2884
 20
-236
 10
-2876
 20
-236
 10
-2876
 20
-252
 10
-2868
 20
-252
 10
-2868
 20
-260
 10
-2860
 20
-260
 10
-2860
 20
-276
 10
-2852
 20
-276
 10
-2852
 20
-284
 10
-2844
 20
-284
 10
-2844
 20
-300
 10
-2836
 20
-300
 10
-2836
 20
-316
 10
-2828
 20
-316
 10
-2828
 20
-332
 10
-2836
 20
-332
 10
-2836
 20
-340
 10
-2828
 20
-340
 10
-2828
 20
-364
 10
-2836
 20
-364
 10
-2836
 20
-372
 10
-2828
 20
-372
 10
-2828
 20
-396
 10
-2836
 20
-396
 10
-2836
 20
-404
 10
-2828
 20
-404
 10
-2828
 20
-428
 10
-2836
 20
-428
 10
-2836
 20
-444
 10
-2828
 20
-444
 10
-2828
 20
-460
 10
-2836
 20
-460
 10
-2836
 20
-476
 10
-2828
 20
-476
 10
-2828
 20
-492
 10
-2836
 20
-492
 10
-2836
 20
-556
 10
-2844
 20
-556
 10
-2844
 20
-572
 10
-2836
 20
-572
 10
-2836
 20
-588
 10
-2844
 20
-588
 10
-2844
 20
-620
 10
-2852
 20
-620
 10
-2852
 20
-652
 10
-2860
 20
-652
 10
-2860
 20
-660
 10
-2868
 20
-660
 10
-2868
 20
-668
 10
-2876
 20
-668
 10
-2876
 20
-676
 10
-2892
 20
-676
 10
-2892
 20
-684
 10
-2908
 20
-684
 10
-2908
 20
-692
 10
-2924
 20
-692
 10
-2924
 20
-700
 10
-2932
 20
-700
 10
-2932
 20
-708
 10
-2940
 20
-708
 10
-2940
 20
-716
  0
LWPOLYLINE
  5
57
100
AcDbEntity
  8
L1D0
  6
ByLayer
 62
  256
370
   -1
100
AcDbPolyline
 90
   74
 70
    1
 43
0
 10
2940
 20
-716
 10
2940
 20
-708
 10
2932
 20
-708
 10
2932
 20
-700
 10
2924
 20
-700
 10
2924
 20
-692
 10
2908
 20
-692
 10
2908
 20
-684
 10
2892
 20
-684
 10
2892
 20
-676
 10
2876
 20
-676
 10
2876
 20
-668
 10
2868
 20
-668
 10
2868
 20
-660
 10
2860
 20
-660
 10
2860
 20
-652
 10
2852
 20
-652
 10
2852
 20
-620
 10
2844
 20
-620
 10
2844
 20
-588
 10
2836
 20
-588
 10
2836
 20
-572
 10
2844
 20
-572
 10
2844
 20
-556
 10
2836
 20
-556
 10
2836
 20
-492
 10
2828
 20
-492
 10
2828
 20
-476
 10
2836
 20
-476
 10
2836
 20
-460
 10
2828
 20
-460
 10
2828
 20
-444
 10
2836
 20
-444
 10
2836
 20
-428
 10
2828
 20
-428
 10
2828
 20
-404
 10
2836
 20
-404
 10
2836
 20
-396
 10
2828
 20
-396
 10
2828
 20
-372
 10
2836
 20
-372
 10
2836
 20
-364
 10
2828
 20
-364
 10
2828
 20
-340
 10
2836
 20
-340
 10
2836
 20
-332
 10
2828
 20
-332
 10
2828
 20
-316
 10
2836
 20
-316
 10
2836
 20
-300
 10
2844
 20
-300
 10
2844
 20
-284
 10
2852
 20
-284
 10
2852
 20
-276
 10
2860
 20
-276
 10
2860
 20
-260
 10
2868
 20
-260
 10
2868
 20
-252
 10
2876
 20
-252
 10
2876
 20
-236
 10
2884
 20
-236
 10
2884
 20
-228
 10
2892
 20
-228
 10
2892
 20
-204
 10
2900
 20
-204
 10
2900
 20
-188
 10
2908
 20
-188
 10
2908
 20
-180
 10
2932
 20
-180
 10
2932
 20
-172
 10
2948
 20
-172
 10
2948
 20
-164
 10
2956
 20
-164
 10
2956
 20
-716
  0
LWPOLYLINE
  5
58
100
AcDbEntity
  8
L1D0
  6
ByLayer
 62
  256
370
   -1
100
AcDbPolyline
 90
   72
 70
    1
 43
0
 10
-2956
 20
468
 10
-2956
 20
1012
 10
-2940
 20
1012
 10
-2940
 20
1004
 10
-2916
 20
1004
 10
-2916
 20
996
 10
-2908
 20
996
 10
-2908
 20
980
 10
-2900
 20
980
 10
-2900
 20
964
 10
-2892
 20
964
 10
-2892
 20
948
 10
-2884
 20
948
 10
-2884
 20
932
 10
-2876
 20
932
 10
-2876
 20
924
 10
-2868
 20
924
 10
-2868
 20
908
 10
-2860
 20
908
 10
-2860
 20
900
 10
-2852
 20
900
 10
-2852
 20
884
 10
-2844
 20
884
 10
-2844
 20
868
 10
-2836
 20
868
 10
-2836
 20
852
 10
-2844
 20
852
 10
-2844
 20
844
 10
-2836
 20
844
 10
-2836
 20
820
 10
-2844
 20
820
 10
-2844
 20
812
 10
-2836
 20
812
 10
-2836
 20
788
 10
-2844
 20
788
 10
-2844
 20
780
 10
-2836
 20
780
 10
-2836
 20
756
 10
-2844
 20
756
 10
-2844
 20
740
 10
-2836
 20
740
 10
-2836
 20
724
 10
-2844
 20
724
 10
-2844
 20
708
 10
-2836
 20
708
 10
-2836
 20
692
 10
-2844
 20
692
 10
-2844
 20
628
 10
-2852
 20
628
 10
-2852
 20
612
 10
-2844
 20
612
 10
-2844
 20
596
 10
-2852
 20
596
 10
-2852
 20
564
 10
-2860
 20
564
 10
-2860
 20
532
 10
-2868
 20
532
 10
-2868
 20
524
 10
-2876
 20
524
 10
-2876
 20
516
 10
-2884
 20
516
 10
-2884
 20
508
 10
-2900
 20
508
 10
-2900
 20
500
 10
-2916
 20
500
 10
-2916
 20
492
 10
-2932
 20
492
 10
-2932
 20
484
 10
-2940
 20
484
 10
-2940
 20
476
 10
-2948
 20
476
 10
-2948
 20
468
  0
LWPOLYLINE
  5
59
100
AcDbEntity
  8
L1D0
  6
ByLayer
 62
  256
370
   -1
100
AcDbPolyline
 90
   72
 70
    1
 43
0
 10
2948
 20
468
 10
2948
 20
476
 10
2940
 20
476
 10
2940
 20
484
 10
2932
 20
484
 10
2932
 20
492
 10
2916
 20
492
 10
2916
 20
500
 10
2900
 20
500
 10
2900
 20
508
 10
2884
 20
508
 10
2884
 20
516
 10
2876
 20
516
 10
2876
 20
524
 10
2868
 20
524
 10
2868
 20
532
 10
2860
 20
532
 10
2860
 20
564
 10
2852
 20
564
 10
2852
 20
596
 10
2844
 20
596
 10
2844
 20
612
 10
2852
 20
612
 10
2852
 20
628
 10
2844
 20
628
 10
2844
 20
692
 10
2836
 20
692
 10
2836
 20
708
 10
2844
 20
708
 10
2844
 20
724
 10
2836
 20
724
 10
2836
 20
740
 10
2844
 20
740
 10
2844
 20
756
 10
2836
 20
756
 10
2836
 20
780
 10
2844
 20
780
 10
2844
 20
788
 10
2836
 20
788
 10
2836
 20
812
 10
2844
 20
812
 10
2844
 20
820
 10
2836
 20
820
 10
2836
 20
844
 10
2844
 20
844
 10
2844
 20
852
 10
2836
 20
852
 10
2836
 20
868
 10
2844
 20
868
 10
2844
 20
884
 10
2852
 20
884
 10
2852
 20
900
 10
2860
 20
900
 10
2860
 20
908
 10
2868
 20
908
 10
2868
 20
924
 10
2876
 20
924
 10
2876
 20
932
 10
2884
 20
932
 10
2884
 20
948
 10
2892
 20
948
 10
2892
 20
964
 10
2900
 20
964
 10
2900
 20
980
 10
2908
 20
980
 10
2908
 20
996
 10
2916
 20
996
 10
2916
 20
1004
 10
2940
 20
1004
 10
2940
 20
1012
 10
2956
 20
1012
 10
2956
 20
468
  0
LWPOLYLINE
  5
5A
100
AcDbEntity
  8
L1D0
  6
ByLayer
 62
  256
370
   -1
100
AcDbPolyline
 90
   74
 70
    1
 43
0
 10
-2956
 20
1644
 10
-2956
 20
2196
 10
-2948
 20
2196
 10
-2948
 20
2188
 10
-2932
 20
2188
 10
-2932
 20
2180
 10
-2908
 20
2180
 10
-2908
 20
2172
 10
-2900
 20
2172
 10
-2900
 20
2156
 10
-2892
 20
2156
 10
-2892
 20
2132
 10
-2884
 20
2132
 10
-2884
 20
2124
 10
-2876
 20
2124
 10
-2876
 20
2108
 10
-2868
 20
2108
 10
-2868
 20
2092
 10
-2860
 20
2092
 10
-2860
 20
2084
 10
-2852
 20
2084
 10
-2852
 20
2076
 10
-2844
 20
2076
 10
-2844
 20
2060
 10
-2836
 20
2060
 10
-2836
 20
2044
 10
-2828
 20
2044
 10
-2828
 20
2028
 10
-2836
 20
2028
 10
-2836
 20
2020
 10
-2828
 20
2020
 10
-2828
 20
1996
 10
-2836
 20
1996
 10
-2836
 20
1988
 10
-2828
 20
1988
 10
-2828
 20
1964
 10
-2836
 20
1964
 10
-2836
 20
1956
 10
-2828
 20
1956
 10
-2828
 20
1932
 10
-2836
 20
1932
 10
-2836
 20
1916
 10
-2828
 20
1916
 10
-2828
 20
1900
 10
-2836
 20
1900
 10
-2836
 20
1884
 10
-2828
 20
1884
 10
-2828
 20
1868
 10
-2836
 20
1868
 10
-2836
 20
1804
 10
-2844
 20
1804
 10
-2844
 20
1788
 10
-2836
 20
1788
 10
-2836
 20
1772
 10
-2844
 20
1772
 10
-2844
 20
1740
 10
-2852
 20
1740
 10
-2852
 20
1708
 10
-2860
 20
1708
 10
-2860
 20
1700
 10
-2868
 20
1700
 10
-2868
 20
1692
 10
-2884
 20
1692
 10
-2884
 20
1684
 10
-2900
 20
1684
 10
-2900
 20
1676
 10
-2908
 20
1676
 10
-2908
 20
1668
 10
-2924
 20
1668
 10
-2924
 20
1660
 10
-2940
 20
1660
 10
-2940
 20
1652
 10
-2948
 20
1652
 10
-2948
 20
1644
  0
LWPOLYLINE
  5
5B
100
AcDbEntity
  8
L1D0
  6
ByLayer
 62
  256
370
   -1
100
AcDbPolyline
 90
   74
 70
    1
 43
0
 10
2948
 20
1644
 10
2948
 20
1652
 10
2940
 20
1652
 10
2940
 20
1660
 10
2924
 20
1660
 10
2924
 20
1668
 10
2908
 20
1668
 10
2908
 20
1676
 10
2900
 20
1676
 10
2900
 20
1684
 10
2884
 20
1684
 10
2884
 20
1692
 10
2868
 20
1692
 10
2868
 20
1700
 10
2860
 20
1700
 10
2860
 20
1708
 10
2852
 20
1708
 10
2852
 20
1740
 10
2844
 20
1740
 10
2844
 20
1772
 10
2836
 20
1772
 10
2836
 20
1788
 10
2844
 20
1788
 10
2844
 20
1804
 10
2836
 20
1804
 10
2836
 20
1868
 10
2828
 20
1868
 10
2828
 20
1884
 10
2836
 20
1884
 10
2836
 20
1900
 10
2828
 20
1900
 10
2828
 20
1916
 10
2836
 20
1916
 10
2836
 20
1932
 10
2828
 20
1932
 10
2828
 20
1956
 10
2836
 20
1956
 10
2836
 20
1964
 10
2828
 20
1964
 10
2828
 20
1988
 10
2836
 20
1988
 10
2836
 20
1996
 10
2828
 20
1996
 10
2828
 20
2020
 10
2836
 20
2020
 10
2836
 20
2028
 10
2828
 20
2028
 10
2828
 20
2044
 10
2836
 20
2044
 10
2836
 20
2060
 10
2844
 20
2060
 10
2844
 20
2076
 10
2852
 20
2076
 10
2852
 20
2084
 10
2860
 20
2084
 10
2860
 20
2092
 10
2868
 20
2092
 10
2868
 20
2108
 10
2876
 20
2108
 10
2876
 20
2124
 10
2884
 20
2124
 10
2884
 20
2132
 10
2892
 20
2132
 10
2892
 20
2156
 10
2900
 20
2156
 10
2900
 20
2172
 10
2908
 20
2172
 10
2908
 20
2180
 10
2932
 20
2180
 10
2932
 20
2188
 10
2948
 20
2188
 10
2948
 20
2196
 10
2956
 20
2196
 10
2956
 20
1644
  0
LWPOLYLINE
  5
5C
100
AcDbEntity
  8
L1D0
  6
ByLayer
 62
  256
370
   -1
100
AcDbPolyline
 90
 1130
 70
    1
 43
0
 10
-2252
 20
-4436
 10
-2252
 20
-4428
 10
-2956
 20
-4428
 10
-2956
 20
-3652
 10
-2812
 20
-3652
 10
-2812
 20
-3644
 10
-2636
 20
-3644
 10
-2636
 20
-3636
 10
-2604
 20
-3636
 10
-2604
 20
-3628
 10
-2572
 20
-3628
 10
-2572
 20
-3620
 10
-2548
 20
-3620
 10
-2548
 20
-3612
 10
-2524
 20
-3612
 10
-2524
 20
-3604
 10
-2500
 20
-3604
 10
-2500
 20
-3596
 10
-2476
 20
-3596
 10
-2476
 20
-3588
 10
-2452
 20
-3588
 10
-2452
 20
-3580
 10
-2436
 20
-3580
 10
-2436
 20
-3572
 10
-2420
 20
-3572
 10
-2420
 20
-3564
 10
-2404
 20
-3564
 10
-2404
 20
-3556
 10
-2380
 20
-3556
 10
-2380
 20
-3548
 10
-2364
 20
-3548
 10
-2364
 20
-3540
 10
-2356
 20
-3540
 10
-2356
 20
-3532
 10
-2340
 20
-3532
 10
-2340
 20
-3524
 10
-2324
 20
-3524
 10
-2324
 20
-3516
 10
-2308
 20
-3516
 10
-2308
 20
-3508
 10
-2292
 20
-3508
 10
-2292
 20
-3500
 10
-2284
 20
-3500
 10
-2284
 20
-3492
 10
-2276
 20
-3492
 10
-2276
 20
-3484
 10
-2260
 20
-3484
 10
-2260
 20
-3476
 10
-2244
 20
-3476
 10
-2244
 20
-3468
 10
-2236
 20
-3468
 10
-2236
 20
-3460
 10
-2220
 20
-3460
 10
-2220
 20
-3452
 10
-2212
 20
-3452
 10
-2212
 20
-3444
 10
-2204
 20
-3444
 10
-2204
 20
-3436
 10
-2188
 20
-3436
 10
-2188
 20
-3428
 10
-2180
 20
-3428
 10
-2180
 20
-3420
 10
-2172
 20
-3420
 10
-2172
 20
-3412
 10
-2156
 20
-3412
 10
-2156
 20
-3404
 10
-2148
 20
-3404
 10
-2148
 20
-3396
 10
-2132
 20
-3396
 10
-2132
 20
-3388
 10
-2124
 20
-3388
 10
-2124
 20
-3380
 10
-2116
 20
-3380
 10
-2116
 20
-3372
 10
-2108
 20
-3372
 10
-2108
 20
-3364
 10
-2100
 20
-3364
 10
-2100
 20
-3356
 10
-2092
 20
-3356
 10
-2092
 20
-3348
 10
-2084
 20
-3348
 10
-2084
 20
-3340
 10
-2068
 20
-3340
 10
-2068
 20
-3332
 10
-2060
 20
-3332
 10
-2060
 20
-3324
 10
-2052
 20
-3324
 10
-2052
 20
-3316
 10
-2044
 20
-3316
 10
-2044
 20
-3308
 10
-2036
 20
-3308
 10
-2036
 20
-3300
 10
-2028
 20
-3300
 10
-2028
 20
-3292
 10
-2020
 20
-3292
 10
-2020
 20
-3276
 10
-2012
 20
-3276
 10
-2012
 20
-3260
 10
-2004
 20
-3260
 10
-2004
 20
-3252
 10
-1996
 20
-3252
 10
-1996
 20
-3244
 10
-1988
 20
-3244
 10
-1988
 20
-3236
 10
-1980
 20
-3236
 10
-1980
 20
-2188
 10
-1988
 20
-2188
 10
-1988
 20
1700
 10
-1996
 20
1700
 10
-1996
 20
1772
 10
-2004
 20
1772
 10
-2004
 20
1804
 10
-2012
 20
1804
 10
-2012
 20
1820
 10
-2020
 20
1820
 10
-2020
 20
1828
 10
-2028
 20
1828
 10
-2028
 20
1844
 10
-2036
 20
1844
 10
-2036
 20
1860
 10
-2044
 20
1860
 10
-2044
 20
1900
 10
-2052
 20
1900
 10
-2052
 20
1908
 10
-2060
 20
1908
 10
-2060
 20
1916
 10
-2068
 20
1916
 10
-2068
 20
1940
 10
-2076
 20
1940
 10
-2076
 20
1956
 10
-2084
 20
1956
 10
-2084
 20
1964
 10
-2092
 20
1964
 10
-2092
 20
1980
 10
-2100
 20
1980
 10
-2100
 20
1996
 10
-2108
 20
1996
 10
-2108
 20
2012
 10
-2116
 20
2012
 10
-2116
 20
2020
 10
-2124
 20
2020
 10
-2124
 20
2036
 10
-2140
 20
2036
 10
-2140
 20
2052
 10
-2148
 20
2052
 10
-2148
 20
2060
 10
-2156
 20
2060
 10
-2156
 20
2076
 10
-2164
 20
2076
 10
-2164
 20
2092
 10
-2172
 20
2092
 10
-2172
 20
2100
 10
-2180
 20
2100
 10
-2180
 20
2116
 10
-2196
 20
2116
 10
-2196
 20
2124
 10
-2204
 20
2124
 10
-2204
 20
2140
 10
-2212
 20
2140
 10
-2212
 20
2148
 10
-2220
 20
2148
 10
-2220
 20
2164
 10
-2228
 20
2164
 10
-2228
 20
2172
 10
-2236
 20
2172
 10
-2236
 20
2188
 10
-2244
 20
2188
 10
-2244
 20
2196
 10
-2252
 20
2196
 10
-2252
 20
2212
 10
-2260
 20
2212
 10
-2260
 20
2220
 10
-2268
 20
2220
 10
-2268
 20
2236
 10
-2276
 20
2236
 10
-2276
 20
2252
 10
-2284
 20
2252
 10
-2284
 20
2268
 10
-2292
 20
2268
 10
-2292
 20
2292
 10
-2300
 20
2292
 10
-2300
 20
2308
 10
-2308
 20
2308
 10
-2308
 20
2324
 10
-2316
 20
2324
 10
-2316
 20
2340
 10
-2324
 20
2340
 10
-2324
 20
2348
 10
-2332
 20
2348
 10
-2332
 20
2364
 10
-2348
 20
2364
 10
-2348
 20
2372
 10
-2356
 20
2372
 10
-2356
 20
2388
 10
-2364
 20
2388
 10
-2364
 20
2396
 10
-2372
 20
2396
 10
-2372
 20
2412
 10
-2388
 20
2412
 10
-2388
 20
2420
 10
-2396
 20
2420
 10
-2396
 20
2436
 10
-2404
 20
2436
 10
-2404
 20
2444
 10
-2412
 20
2444
 10
-2412
 20
2452
 10
-2420
 20
2452
 10
-2420
 20
2460
 10
-2428
 20
2460
 10
-2428
 20
2468
 10
-2436
 20
2468
 10
-2436
 20
2484
 10
-2444
 20
2484
 10
-2444
 20
2492
 10
-2452
 20
2492
 10
-2452
 20
2500
 10
-2460
 20
2500
 10
-2460
 20
2516
 10
-2476
 20
2516
 10
-2476
 20
2532
 10
-2484
 20
2532
 10
-2484
 20
2540
 10
-2492
 20
2540
 10
-2492
 20
2548
 10
-2500
 20
2548
 10
-2500
 20
2564
 10
-2516
 20
2564
 10
-2516
 20
2572
 10
-2524
 20
2572
 10
-2524
 20
2588
 10
-2540
 20
2588
 10
-2540
 20
2604
 10
-2548
 20
2604
 10
-2548
 20
2612
 10
-2564
 20
2612
 10
-2564
 20
2628
 10
-2580
 20
2628
 10
-2580
 20
2636
 10
-2588
 20
2636
 10
-2588
 20
2652
 10
-2604
 20
2652
 10
-2604
 20
2660
 10
-2612
 20
2660
 10
-2612
 20
2668
 10
-2628
 20
2668
 10
-2628
 20
2676
 10
-2636
 20
2676
 10
-2636
 20
2684
 10
-2652
 20
2684
 10
-2652
 20
2692
 10
-2668
 20
2692
 10
-2668
 20
2700
 10
-2684
 20
2700
 10
-2684
 20
2708
 10
-2700
 20
2708
 10
-2700
 20
2716
 10
-2716
 20
2716
 10
-2716
 20
2724
 10
-2756
 20
2724
 10
-2756
 20
2732
 10
-2764
 20
2732
 10
-2764
 20
2740
 10
-2772
 20
2740
 10
-2772
 20
2748
 10
-2796
 20
2748
 10
-2796
 20
2756
 10
-2812
 20
2756
 10
-2812
 20
2764
 10
-2820
 20
2764
 10
-2820
 20
2772
 10
-2836
 20
2772
 10
-2836
 20
2780
 10
-2852
 20
2780
 10
-2852
 20
2788
 10
-2868
 20
2788
 10
-2868
 20
2796
 10
-2884
 20
2796
 10
-2884
 20
2804
 10
-2916
 20
2804
 10
-2916
 20
2812
 10
-2932
 20
2812
 10
-2932
 20
2820
 10
-2956
 20
2820
 10
-2956
 20
3380
 10
-2948
 20
3380
 10
-2948
 20
3372
 10
-2924
 20
3372
 10
-2924
 20
3364
 10
-2908
 20
3364
 10
-2908
 20
3356
 10
-2884
 20
3356
 10
-2884
 20
3348
 10
-2844
 20
3348
 10
-2844
 20
3340
 10
-2828
 20
3340
 10
-2828
 20
3332
 10
-2796
 20
3332
 10
-2796
 20
3324
 10
-2756
 20
3324
 10
-2756
 20
3316
 10
-2740
 20
3316
 10
-2740
 20
3308
 10
-2716
 20
3308
 10
-2716
 20
3300
 10
-2692
 20
3300
 10
-2692
 20
3292
 10
-2668
 20
3292
 10
-2668
 20
3284
 10
-2636
 20
3284
 10
-2636
 20
3276
 10
-2620
 20
3276
 10
-2620
 20
3268
 10
-2596
 20
3268
 10
-2596
 20
3260
 10
-2580
 20
3260
 10
-2580
 20
3252
 10
-2548
 20
3252
 10
-2548
 20
3244
 10
-2532
 20
3244
 10
-2532
 20
3236
 10
-2516
 20
3236
 10
-2516
 20
3228
 10
-2500
 20
3228
 10
-2500
 20
3220
 10
-2484
 20
3220
 10
-2484
 20
3212
 10
-2468
 20
3212
 10
-2468
 20
3204
 10
-2452
 20
3204
 10
-2452
 20
3196
 10
-2436
 20
3196
 10
-2436
 20
3188
 10
-2420
 20
3188
 10
-2420
 20
3180
 10
-2404
 20
3180
 10
-2404
 20
3172
 10
-2388
 20
3172
 10
-2388
 20
3164
 10
-2372
 20
3164
 10
-2372
 20
3156
 10
-2356
 20
3156
 10
-2356
 20
3148
 10
-2340
 20
3148
 10
-2340
 20
3140
 10
-2332
 20
3140
 10
-2332
 20
3132
 10
-2316
 20
3132
 10
-2316
 20
3124
 10
-2300
 20
3124
 10
-2300
 20
3116
 10
-2292
 20
3116
 10
-2292
 20
3108
 10
-2276
 20
3108
 10
-2276
 20
3100
 10
-2260
 20
3100
 10
-2260
 20
3092
 10
-2252
 20
3092
 10
-2252
 20
3084
 10
-2244
 20
3084
 10
-2244
 20
3076
 10
-2228
 20
3076
 10
-2228
 20
3068
 10
-2220
 20
3068
 10
-2220
 20
3060
 10
-2212
 20
3060
 10
-2212
 20
3052
 10
-2196
 20
3052
 10
-2196
 20
3044
 10
-2188
 20
3044
 10
-2188
 20
3036
 10
-2172
 20
3036
 10
-2172
 20
3028
 10
-2164
 20
3028
 10
-2164
 20
3020
 10
-2156
 20
3020
 10
-2156
 20
3012
 10
-2148
 20
3012
 10
-2148
 20
3004
 10
-2140
 20
3004
 10
-2140
 20
2996
 10
-2124
 20
2996
 10
-2124
 20
2988
 10
-2116
 20
2988
 10
-2116
 20
2980
 10
-2108
 20
2980
 10
-2108
 20
2972
 10
-2100
 20
2972
 10
-2100
 20
2964
 10
-2084
 20
2964
 10
-2084
 20
2956
 10
-2076
 20
2956
 10
-2076
 20
2948
 10
-2068
 20
2948
 10
-2068
 20
2940
 10
-2052
 20
2940
 10
-2052
 20
2932
 10
-2044
 20
2932
 10
-2044
 20
2924
 10
-2036
 20
2924
 10
-2036
 20
2916
 10
-2028
 20
2916
 10
-2028
 20
2908
 10
-2020
 20
2908
 10
-2020
 20
2900
 10
-2012
 20
2900
 10
-2012
 20
2892
 10
-2004
 20
2892
 10
-2004
 20
2884
 10
-1996
 20
2884
 10
-1996
 20
2876
 10
-1988
 20
2876
 10
-1988
 20
2868
 10
-1980
 20
2868
 10
-1980
 20
2860
 10
-1972
 20
2860
 10
-1972
 20
2852
 10
-1964
 20
2852
 10
-1964
 20
2836
 10
-1956
 20
2836
 10
-1956
 20
2828
 10
-1948
 20
2828
 10
-1948
 20
2820
 10
-1940
 20
2820
 10
-1940
 20
2804
 10
-1932
 20
2804
 10
-1932
 20
2788
 10
-1924
 20
2788
 10
-1924
 20
2780
 10
-1916
 20
2780
 10
-1916
 20
2764
 10
-1908
 20
2764
 10
-1908
 20
2748
 10
-1900
 20
2748
 10
-1900
 20
2740
 10
-1892
 20
2740
 10
-1892
 20
2732
 10
-1884
 20
2732
 10
-1884
 20
2724
 10
-1876
 20
2724
 10
-1876
 20
2716
 10
-1868
 20
2716
 10
-1868
 20
2700
 10
-1860
 20
2700
 10
-1860
 20
2692
 10
-1852
 20
2692
 10
-1852
 20
2676
 10
-1844
 20
2676
 10
-1844
 20
2660
 10
-1836
 20
2660
 10
-1836
 20
2628
 10
-1828
 20
2628
 10
-1828
 20
2604
 10
-1820
 20
2604
 10
-1820
 20
2572
 10
-1812
 20
2572
 10
-1812
 20
2564
 10
-1804
 20
2564
 10
-1804
 20
2548
 10
-1796
 20
2548
 10
-1796
 20
2532
 10
-1788
 20
2532
 10
-1788
 20
2524
 10
-1780
 20
2524
 10
-1780
 20
2508
 10
-1772
 20
2508
 10
-1772
 20
2492
 10
-1764
 20
2492
 10
-1764
 20
2476
 10
-1756
 20
2476
 10
-1756
 20
2468
 10
-1748
 20
2468
 10
-1748
 20
2452
 10
-1740
 20
2452
 10
-1740
 20
2436
 10
-1732
 20
2436
 10
-1732
 20
2428
 10
-1724
 20
2428
 10
-1724
 20
2412
 10
-1716
 20
2412
 10
-1716
 20
2404
 10
-1708
 20
2404
 10
-1708
 20
2388
 10
-1700
 20
2388
 10
-1700
 20
2372
 10
-1692
 20
2372
 10
-1692
 20
2364
 10
-1684
 20
2364
 10
-1684
 20
2356
 10
-1676
 20
2356
 10
-1676
 20
2340
 10
-1668
 20
2340
 10
-1668
 20
2324
 10
-1660
 20
2324
 10
-1660
 20
2316
 10
-1652
 20
2316
 10
-1652
 20
2308
 10
-1644
 20
2308
 10
-1644
 20
2292
 10
-1636
 20
2292
 10
-1636
 20
2284
 10
-1628
 20
2284
 10
-1628
 20
2268
 10
-1620
 20
2268
 10
-1620
 20
2260
 10
-1612
 20
2260
 10
-1612
 20
2252
 10
-1604
 20
2252
 10
-1604
 20
2244
 10
-1596
 20
2244
 10
-1596
 20
2228
 10
-1588
 20
2228
 10
-1588
 20
2220
 10
-1580
 20
2220
 10
-1580
 20
2204
 10
-1572
 20
2204
 10
-1572
 20
2196
 10
-1564
 20
2196
 10
-1564
 20
2188
 10
-1556
 20
2188
 10
-1556
 20
2180
 10
-1548
 20
2180
 10
-1548
 20
2164
 10
-1540
 20
2164
 10
-1540
 20
2156
 10
-1532
 20
2156
 10
-1532
 20
2148
 10
-1524
 20
2148
 10
-1524
 20
2140
 10
-1516
 20
2140
 10
-1516
 20
2132
 10
-1508
 20
2132
 10
-1508
 20
2124
 10
-1500
 20
2124
 10
-1500
 20
2116
 10
-1492
 20
2116
 10
-1492
 20
2108
 10
-1484
 20
2108
 10
-1484
 20
2100
 10
-1476
 20
2100
 10
-1476
 20
2084
 10
-1468
 20
2084
 10
-1468
 20
2076
 10
-1460
 20
2076
 10
-1460
 20
2068
 10
-1452
 20
2068
 10
-1452
 20
2060
 10
-1444
 20
2060
 10
-1444
 20
2052
 10
-1436
 20
2052
 10
-1436
 20
2044
 10
-1428
 20
2044
 10
-1428
 20
2036
 10
-1412
 20
2036
 10
-1412
 20
2028
 10
-1404
 20
2028
 10
-1404
 20
2020
 10
-1396
 20
2020
 10
-1396
 20
2012
 10
-1388
 20
2012
 10
-1388
 20
2004
 10
-1380
 20
2004
 10
-1380
 20
1996
 10
-1372
 20
1996
 10
-1372
 20
1988
 10
-1356
 20
1988
 10
-1356
 20
1980
 10
-1348
 20
1980
 10
-1348
 20
1972
 10
-1340
 20
1972
 10
-1340
 20
1964
 10
-1332
 20
1964
 10
-1332
 20
1956
 10
-1316
 20
1956
 10
-1316
 20
1948
 10
-1308
 20
1948
 10
-1308
 20
1940
 10
-1300
 20
1940
 10
-1300
 20
1932
 10
-1284
 20
1932
 10
-1284
 20
1924
 10
-1276
 20
1924
 10
-1276
 20
1916
 10
-1260
 20
1916
 10
-1260
 20
1908
 10
-1252
 20
1908
 10
-1252
 20
1900
 10
-1236
 20
1900
 10
-1236
 20
1892
 10
-1228
 20
1892
 10
-1228
 20
1884
 10
-1212
 20
1884
 10
-1212
 20
1876
 10
-1196
 20
1876
 10
-1196
 20
1868
 10
-1188
 20
1868
 10
-1188
 20
1860
 10
-1172
 20
1860
 10
-1172
 20
1852
 10
-1156
 20
1852
 10
-1156
 20
1844
 10
-1148
 20
1844
 10
-1148
 20
1836
 10
-1132
 20
1836
 10
-1132
 20
1828
 10
-1116
 20
1828
 10
-1116
 20
1820
 10
-1108
 20
1820
 10
-1108
 20
1812
 10
-1092
 20
1812
 10
-1092
 20
1804
 10
-1076
 20
1804
 10
-1076
 20
1796
 10
-1060
 20
1796
 10
-1060
 20
1788
 10
-1044
 20
1788
 10
-1044
 20
1780
 10
-1028
 20
1780
 10
-1028
 20
1772
 10
-1004
 20
1772
 10
-1004
 20
1764
 10
-988
 20
1764
 10
-988
 20
1756
 10
-972
 20
1756
 10
-972
 20
1748
 10
-956
 20
1748
 10
-956
 20
1740
 10
-940
 20
1740
 10
-940
 20
1732
 10
-916
 20
1732
 10
-916
 20
1724
 10
-892
 20
1724
 10
-892
 20
1716
 10
-876
 20
1716
 10
-876
 20
1708
 10
-852
 20
1708
 10
-852
 20
1700
 10
-828
 20
1700
 10
-828
 20
1692
 10
-756
 20
1692
 10
-756
 20
1684
 10
-700
 20
1684
 10
-700
 20
1676
 10
-676
 20
1676
 10
-676
 20
1668
 10
-652
 20
1668
 10
-652
 20
1660
 10
-628
 20
1660
 10
-628
 20
1652
 10
-604
 20
1652
 10
-604
 20
1644
 10
-596
 20
1644
 10
-596
 20
1636
 10
-580
 20
1636
 10
-580
 20
1628
 10
-564
 20
1628
 10
-564
 20
1620
 10
-548
 20
1620
 10
-548
 20
1612
 10
-540
 20
1612
 10
-540
 20
1604
 10
-532
 20
1604
 10
-532
 20
1596
 10
-516
 20
1596
 10
-516
 20
1588
 10
-508
 20
1588
 10
-508
 20
1580
 10
-500
 20
1580
 10
-500
 20
1572
 10
-492
 20
1572
 10
-492
 20
1564
 10
-484
 20
1564
 10
-484
 20
1556
 10
-476
 20
1556
 10
-476
 20
1548
 10
-468
 20
1548
 10
-468
 20
1540
 10
-460
 20
1540
 10
-460
 20
1532
 10
-452
 20
1532
 10
-452
 20
1524
 10
-444
 20
1524
 10
-444
 20
1516
 10
-436
 20
1516
 10
-436
 20
1508
 10
-428
 20
1508
 10
-428
 20
1500
 10
-420
 20
1500
 10
-420
 20
1492
 10
-412
 20
1492
 10
-412
 20
1476
 10
-404
 20
1476
 10
-404
 20
1460
 10
-396
 20
1460
 10
-396
 20
1452
 10
-388
 20
1452
 10
-388
 20
1436
 10
-380
 20
1436
 10
-380
 20
1428
 10
-372
 20
1428
 10
-372
 20
1412
 10
-364
 20
1412
 10
-364
 20
1396
 10
-356
 20
1396
 10
-356
 20
1380
 10
-348
 20
1380
 10
-348
 20
1364
 10
-340
 20
1364
 10
-340
 20
1340
 10
-332
 20
1340
 10
-332
 20
1316
 10
-324
 20
1316
 10
-324
 20
1300
 10
-316
 20
1300
 10
-316
 20
1268
 10
-308
 20
1268
 10
-308
 20
1244
 10
-300
 20
1244
 10
-300
 20
1204
 10
-292
 20
1204
 10
-292
 20
-1796
 10
-300
 20
-1796
 10
-300
 20
-1836
 10
-308
 20
-1836
 10
-308
 20
-1868
 10
-316
 20
-1868
 10
-316
 20
-1892
 10
-324
 20
-1892
 10
-324
 20
-1916
 10
-332
 20
-1916
 10
-332
 20
-1940
 10
-340
 20
-1940
 10
-340
 20
-1956
 10
-348
 20
-1956
 10
-348
 20
-1980
 10
-356
 20
-1980
 10
-356
 20
-1996
 10
-364
 20
-1996
 10
-364
 20
-2012
 10
-372
 20
-2012
 10
-372
 20
-2028
 10
-380
 20
-2028
 10
-380
 20
-2036
 10
-388
 20
-2036
 10
-388
 20
-2052
 10
-396
 20
-2052
 10
-396
 20
-2068
 10
-404
 20
-2068
 10
-404
 20
-2076
 10
-412
 20
-2076
 10
-412
 20
-2092
 10
-420
 20
-2092
 10
-420
 20
-2100
 10
-428
 20
-2100
 10
-428
 20
-2108
 10
-436
 20
-2108
 10
-436
 20
-2116
 10
-444
 20
-2116
 10
-444
 20
-2132
 10
-452
 20
-2132
 10
-452
 20
-2140
 10
-460
 20
-2140
 10
-460
 20
-2148
 10
-468
 20
-2148
 10
-468
 20
-2156
 10
-476
 20
-2156
 10
-476
 20
-2164
 10
-484
 20
-2164
 10
-484
 20
-2172
 10
-492
 20
-2172
 10
-492
 20
-2180
 10
-500
 20
-2180
 10
-500
 20
-2188
 10
-516
 20
-2188
 10
-516
 20
-2196
 10
-524
 20
-2196
 10
-524
 20
-2204
 10
-532
 20
-2204
 10
-532
 20
-2212
 10
-540
 20
-2212
 10
-540
 20
-2220
 10
-556
 20
-2220
 10
-556
 20
-2228
 10
-572
 20
-2228
 10
-572
 20
-2236
 10
-580
 20
-2236
 10
-580
 20
-2244
 10
-596
 20
-2244
 10
-596
 20
-2252
 10
-612
 20
-2252
 10
-612
 20
-2260
 10
-620
 20
-2260
 10
-620
 20
-2268
 10
-628
 20
-2268
 10
-628
 20
-2276
 10
-644
 20
-2276
 10
-644
 20
-2284
 10
-652
 20
-2284
 10
-652
 20
-2292
 10
-660
 20
-2292
 10
-660
 20
-2300
 10
-668
 20
-2300
 10
-668
 20
-2308
 10
-676
 20
-2308
 10
-676
 20
-2316
 10
-684
 20
-2316
 10
-684
 20
-2324
 10
-692
 20
-2324
 10
-692
 20
-2332
 10
-700
 20
-2332
 10
-700
 20
-2340
 10
-716
 20
-2340
 10
-716
 20
-2348
 10
-724
 20
-2348
 10
-724
 20
-2356
 10
-732
 20
-2356
 10
-732
 20
-2364
 10
-740
 20
-2364
 10
-740
 20
-2372
 10
-748
 20
-2372
 10
-748
 20
-2380
 10
-756
 20
-2380
 10
-756
 20
-2388
 10
-764
 20
-2388
 10
-764
 20
-2396
 10
-772
 20
-2396
 10
-772
 20
-2404
 10
-780
 20
-2404
 10
-780
 20
-2412
 10
-788
 20
-2412
 10
-788
 20
-2420
 10
-796
 20
-2420
 10
-796
 20
-2428
 10
-804
 20
-2428
 10
-804
 20
-2436
 10
-812
 20
-2436
 10
-812
 20
-2444
 10
-820
 20
-2444
 10
-820
 20
-2452
 10
-828
 20
-2452
 10
-828
 20
-2460
 10
-836
 20
-2460
 10
-836
 20
-2468
 10
-844
 20
-2468
 10
-844
 20
-2476
 10
-852
 20
-2476
 10
-852
 20
-2484
 10
-860
 20
-2484
 10
-860
 20
-2500
 10
-876
 20
-2500
 10
-876
 20
-2516
 10
-884
 20
-2516
 10
-884
 20
-2524
 10
-892
 20
-2524
 10
-892
 20
-2532
 10
-900
 20
-2532
 10
-900
 20
-2540
 10
-908
 20
-2540
 10
-908
 20
-2556
 10
-916
 20
-2556
 10
-916
 20
-2564
 10
-924
 20
-2564
 10
-924
 20
-2580
 10
-932
 20
-2580
 10
-932
 20
-2588
 10
-940
 20
-2588
 10
-940
 20
-2596
 10
-948
 20
-2596
 10
-948
 20
-2612
 10
-956
 20
-2612
 10
-956
 20
-2628
 10
-964
 20
-2628
 10
-964
 20
-2636
 10
-972
 20
-2636
 10
-972
 20
-2652
 10
-980
 20
-2652
 10
-980
 20
-2668
 10
-988
 20
-2668
 10
-988
 20
-2676
 10
-996
 20
-2676
 10
-996
 20
-2700
 10
-1004
 20
-2700
 10
-1004
 20
-2716
 10
-1012
 20
-2716
 10
-1012
 20
-2732
 10
-1020
 20
-2732
 10
-1020
 20
-2748
 10
-1028
 20
-2748
 10
-1028
 20
-2764
 10
-1036
 20
-2764
 10
-1036
 20
-2788
 10
-1044
 20
-2788
 10
-1044
 20
-2812
 10
-1052
 20
-2812
 10
-1052
 20
-2828
 10
-1060
 20
-2828
 10
-1060
 20
-2852
 10
-1068
 20
-2852
 10
-1068
 20
-2876
 10
-1076
 20
-2876
 10
-1076
 20
-2908
 10
-1084
 20
-2908
 10
-1084
 20
-2932
 10
-1092
 20
-2932
 10
-1092
 20
-2964
 10
-1100
 20
-2964
 10
-1100
 20
-2996
 10
-1108
 20
-2996
 10
-1108
 20
-3036
 10
-1116
 20
-3036
 10
-1116
 20
-3116
 10
-1124
 20
-3116
 10
-1124
 20
-3452
 10
-1132
 20
-3452
 10
-1132
 20
-3492
 10
-1140
 20
-3492
 10
-1140
 20
-3564
 10
-1148
 20
-3564
 10
-1148
 20
-3588
 10
-1156
 20
-3588
 10
-1156
 20
-3596
 10
-1164
 20
-3596
 10
-1164
 20
-3604
 10
-1172
 20
-3604
 10
-1172
 20
-3612
 10
-1180
 20
-3612
 10
-1180
 20
-3620
 10
-1188
 20
-3620
 10
-1188
 20
-3628
 10
-1196
 20
-3628
 10
-1196
 20
-3636
 10
-1212
 20
-3636
 10
-1212
 20
-3644
 10
-1220
 20
-3644
 10
-1220
 20
-3652
 10
-1228
 20
-3652
 10
-1228
 20
-3660
 10
-1236
 20
-3660
 10
-1236
 20
-3668
 10
-1252
 20
-3668
 10
-1252
 20
-3676
 10
-1260
 20
-3676
 10
-1260
 20
-3684
 10
-1268
 20
-3684
 10
-1268
 20
-3692
 10
-1276
 20
-3692
 10
-1276
 20
-3700
 10
-1284
 20
-3700
 10
-1284
 20
-3708
 10
-1300
 20
-3708
 10
-1300
 20
-3716
 10
-1308
 20
-3716
 10
-1308
 20
-3724
 10
-1316
 20
-3724
 10
-1316
 20
-3732
 10
-1324
 20
-3732
 10
-1324
 20
-3740
 10
-1340
 20
-3740
 10
-1340
 20
-3748
 10
-1348
 20
-3748
 10
-1348
 20
-3756
 10
-1356
 20
-3756
 10
-1356
 20
-3764
 10
-1364
 20
-3764
 10
-1364
 20
-3772
 10
-1372
 20
-3772
 10
-1372
 20
-3780
 10
-1388
 20
-3780
 10
-1388
 20
-3788
 10
-1396
 20
-3788
 10
-1396
 20
-3796
 10
-1404
 20
-3796
 10
-1404
 20
-3804
 10
-1412
 20
-3804
 10
-1412
 20
-3812
 10
-1428
 20
-3812
 10
-1428
 20
-3820
 10
-1436
 20
-3820
 10
-1436
 20
-3828
 10
-1444
 20
-3828
 10
-1444
 20
-3836
 10
-1452
 20
-3836
 10
-1452
 20
-3844
 10
-1468
 20
-3844
 10
-1468
 20
-3852
 10
-1476
 20
-3852
 10
-1476
 20
-3860
 10
-1484
 20
-3860
 10
-1484
 20
-3868
 10
-1492
 20
-3868
 10
-1492
 20
-3876
 10
-1508
 20
-3876
 10
-1508
 20
-3884
 10
-1516
 20
-3884
 10
-1516
 20
-3892
 10
-1524
 20
-3892
 10
-1524
 20
-3900
 10
-1532
 20
-3900
 10
-1532
 20
-3908
 10
-1548
 20
-3908
 10
-1548
 20
-3916
 10
-1556
 20
-3916
 10
-1556
 20
-3924
 10
-1564
 20
-3924
 10
-1564
 20
-3932
 10
-1572
 20
-3932
 10
-1572
 20
-3940
 10
-1580
 20
-3940
 10
-1580
 20
-3948
 10
-1596
 20
-3948
 10
-1596
 20
-3956
 10
-1604
 20
-3956
 10
-1604
 20
-3964
 10
-1612
 20
-3964
 10
-1612
 20
-3972
 10
-1620
 20
-3972
 10
-1620
 20
-3980
 10
-1628
 20
-3980
 10
-1628
 20
-3988
 10
-1644
 20
-3988
 10
-1644
 20
-3996
 10
-1652
 20
-3996
 10
-1652
 20
-4004
 10
-1660
 20
-4004
 10
-1660
 20
-4012
 10
-1668
 20
-4012
 10
-1668
 20
-4020
 10
-1684
 20
-4020
 10
-1684
 20
-4028
 10
-1692
 20
-4028
 10
-1692
 20
-4036
 10
-1700
 20
-4036
 10
-1700
 20
-4044
 10
-1708
 20
-4044
 10
-1708
 20
-4052
 10
-1716
 20
-4052
 10
-1716
 20
-4060
 10
-1732
 20
-4060
 10
-1732
 20
-4068
 10
-1740
 20
-4068
 10
-1740
 20
-4076
 10
-1748
 20
-4076
 10
-1748
 20
-4084
 10
-1756
 20
-4084
 10
-1756
 20
-4092
 10
-1772
 20
-4092
 10
-1772
 20
-4100
 10
-1780
 20
-4100
 10
-1780
 20
-4108
 10
-1788
 20
-4108
 10
-1788
 20
-4116
 10
-1796
 20
-4116
 10
-1796
 20
-4124
 10
-1812
 20
-4124
 10
-1812
 20
-4132
 10
-1820
 20
-4132
 10
-1820
 20
-4140
 10
-1828
 20
-4140
 10
-1828
 20
-4148
 10
-1836
 20
-4148
 10
-1836
 20
-4156
 10
-1852
 20
-4156
 10
-1852
 20
-4164
 10
-1860
 20
-4164
 10
-1860
 20
-4172
 10
-1868
 20
-4172
 10
-1868
 20
-4180
 10
-1876
 20
-4180
 10
-1876
 20
-4188
 10
-1884
 20
-4188
 10
-1884
 20
-4196
 10
-1900
 20
-4196
 10
-1900
 20
-4204
 10
-1908
 20
-4204
 10
-1908
 20
-4212
 10
-1916
 20
-4212
 10
-1916
 20
-4220
 10
-1924
 20
-4220
 10
-1924
 20
-4228
 10
-1940
 20
-4228
 10
-1940
 20
-4236
 10
-1948
 20
-4236
 10
-1948
 20
-4244
 10
-1956
 20
-4244
 10
-1956
 20
-4252
 10
-1964
 20
-4252
 10
-1964
 20
-4260
 10
-1980
 20
-4260
 10
-1980
 20
-4268
 10
-1988
 20
-4268
 10
-1988
 20
-4276
 10
-1996
 20
-4276
 10
-1996
 20
-4284
 10
-2004
 20
-4284
 10
-2004
 20
-4292
 10
-2012
 20
-4292
 10
-2012
 20
-4300
 10
-2028
 20
-4300
 10
-2028
 20
-4308
 10
-2036
 20
-4308
 10
-2036
 20
-4316
 10
-2044
 20
-4316
 10
-2044
 20
-4324
 10
-2052
 20
-4324
 10
-2052
 20
-4332
 10
-2060
 20
-4332
 10
-2060
 20
-4340
 10
-2076
 20
-4340
 10
-2076
 20
-4348
 10
-2084
 20
-4348
 10
-2084
 20
-4356
 10
-2092
 20
-4356
 10
-2092
 20
-4364
 10
-2100
 20
-4364
 10
-2100
 20
-4372
 10
-2116
 20
-4372
 10
-2116
 20
-4380
 10
-2124
 20
-4380
 10
-2124
 20
-4388
 10
-2132
 20
-4388
 10
-2132
 20
-4396
 10
-2140
 20
-4396
 10
-2140
 20
-4404
 10
-2148
 20
-4404
 10
-2148
 20
-4412
 10
-2164
 20
-4412
 10
-2164
 20
-4420
 10
-2172
 20
-4420
 10
-2172
 20
-4428
 10
-2188
 20
-4428
 10
-2188
 20
-4436
  0
LWPOLYLINE
  5
5D
100
AcDbEntity
  8
L1D0
  6
ByLayer
 62
  256
370
   -1
100
AcDbPolyline
 90
 1144
 70
    1
 43
0
 10
2180
 20
-4436
 10
2180
 20
-4428
 10
2172
 20
-4428
 10
2172
 20
-4420
 10
2164
 20
-4420
 10
2164
 20
-4412
 10
2148
 20
-4412
 10
2148
 20
-4404
 10
2140
 20
-4404
 10
2140
 20
-4396
 10
2132
 20
-4396
 10
2132
 20
-4388
 10
2124
 20
-4388
 10
2124
 20
-4380
 10
2116
 20
-4380
 10
2116
 20
-4372
 10
2100
 20
-4372
 10
2100
 20
-4364
 10
2092
 20
-4364
 10
2092
 20
-4356
 10
2084
 20
-4356
 10
2084
 20
-4348
 10
2076
 20
-4348
 10
2076
 20
-4340
 10
2060
 20
-4340
 10
2060
 20
-4332
 10
2052
 20
-4332
 10
2052
 20
-4324
 10
2044
 20
-4324
 10
2044
 20
-4316
 10
2036
 20
-4316
 10
2036
 20
-4308
 10
2028
 20
-4308
 10
2028
 20
-4300
 10
2012
 20
-4300
 10
2012
 20
-4292
 10
2004
 20
-4292
 10
2004
 20
-4284
 10
1996
 20
-4284
 10
1996
 20
-4276
 10
1988
 20
-4276
 10
1988
 20
-4268
 10
1980
 20
-4268
 10
1980
 20
-4260
 10
1964
 20
-4260
 10
1964
 20
-4252
 10
1956
 20
-4252
 10
1956
 20
-4244
 10
1948
 20
-4244
 10
1948
 20
-4236
 10
1940
 20
-4236
 10
1940
 20
-4228
 10
1924
 20
-4228
 10
1924
 20
-4220
 10
1916
 20
-4220
 10
1916
 20
-4212
 10
1908
 20
-4212
 10
1908
 20
-4204
 10
1900
 20
-4204
 10
1900
 20
-4196
 10
1884
 20
-4196
 10
1884
 20
-4188
 10
1876
 20
-4188
 10
1876
 20
-4180
 10
1868
 20
-4180
 10
1868
 20
-4172
 10
1860
 20
-4172
 10
1860
 20
-4164
 10
1852
 20
-4164
 10
1852
 20
-4156
 10
1836
 20
-4156
 10
1836
 20
-4148
 10
1828
 20
-4148
 10
1828
 20
-4140
 10
1820
 20
-4140
 10
1820
 20
-4132
 10
1812
 20
-4132
 10
1812
 20
-4124
 10
1796
 20
-4124
 10
1796
 20
-4116
 10
1788
 20
-4116
 10
1788
 20
-4108
 10
1780
 20
-4108
 10
1780
 20
-4100
 10
1772
 20
-4100
 10
1772
 20
-4092
 10
1756
 20
-4092
 10
1756
 20
-4084
 10
1748
 20
-4084
 10
1748
 20
-4076
 10
1740
 20
-4076
 10
1740
 20
-4068
 10
1732
 20
-4068
 10
1732
 20
-4060
 10
1716
 20
-4060
 10
1716
 20
-4052
 10
1708
 20
-4052
 10
1708
 20
-4044
 10
1700
 20
-4044
 10
1700
 20
-4036
 10
1692
 20
-4036
 10
1692
 20
-4028
 10
1684
 20
-4028
 10
1684
 20
-4020
 10
1668
 20
-4020
 10
1668
 20
-4012
 10
1660
 20
-4012
 10
1660
 20
-4004
 10
1652
 20
-4004
 10
1652
 20
-3996
 10
1644
 20
-3996
 10
1644
 20
-3988
 10
1628
 20
-3988
 10
1628
 20
-3980
 10
1620
 20
-3980
 10
1620
 20
-3972
 10
1612
 20
-3972
 10
1612
 20
-3964
 10
1604
 20
-3964
 10
1604
 20
-3956
 10
1596
 20
-3956
 10
1596
 20
-3948
 10
1580
 20
-3948
 10
1580
 20
-3940
 10
1572
 20
-3940
 10
1572
 20
-3932
 10
1564
 20
-3932
 10
1564
 20
-3924
 10
1556
 20
-3924
 10
1556
 20
-3916
 10
1548
 20
-3916
 10
1548
 20
-3908
 10
1532
 20
-3908
 10
1532
 20
-3900
 10
1524
 20
-3900
 10
1524
 20
-3892
 10
1516
 20
-3892
 10
1516
 20
-3884
 10
1508
 20
-3884
 10
1508
 20
-3876
 10
1492
 20
-3876
 10
1492
 20
-3868
 10
1484
 20
-3868
 10
1484
 20
-3860
 10
1476
 20
-3860
 10
1476
 20
-3852
 10
1468
 20
-3852
 10
1468
 20
-3844
 10
1452
 20
-3844
 10
1452
 20
-3836
 10
1444
 20
-3836
 10
1444
 20
-3828
 10
1436
 20
-3828
 10
1436
 20
-3820
 10
1428
 20
-3820
 10
1428
 20
-3812
 10
1412
 20
-3812
 10
1412
 20
-3804
 10
1404
 20
-3804
 10
1404
 20
-3796
 10
1396
 20
-3796
 10
1396
 20
-3788
 10
1388
 20
-3788
 10
1388
 20
-3780
 10
1372
 20
-3780
 10
1372
 20
-3772
 10
1364
 20
-3772
 10
1364
 20
-3764
 10
1356
 20
-3764
 10
1356
 20
-3756
 10
1348
 20
-3756
 10
1348
 20
-3748
 10
1332
 20
-3748
 10
1332
 20
-3740
 10
1324
 20
-3740
 10
1324
 20
-3732
 10
1316
 20
-3732
 10
1316
 20
-3724
 10
1308
 20
-3724
 10
1308
 20
-3716
 10
1300
 20
-3716
 10
1300
 20
-3708
 10
1284
 20
-3708
 10
1284
 20
-3700
 10
1276
 20
-3700
 10
1276
 20
-3692
 10
1268
 20
-3692
 10
1268
 20
-3684
 10
1260
 20
-3684
 10
1260
 20
-3676
 10
1244
 20
-3676
 10
1244
 20
-3668
 10
1236
 20
-3668
 10
1236
 20
-3660
 10
1228
 20
-3660
 10
1228
 20
-3652
 10
1220
 20
-3652
 10
1220
 20
-3644
 10
1204
 20
-3644
 10
1204
 20
-3636
 10
1196
 20
-3636
 10
1196
 20
-3628
 10
1188
 20
-3628
 10
1188
 20
-3620
 10
1180
 20
-3620
 10
1180
 20
-3612
 10
1172
 20
-3612
 10
1172
 20
-3604
 10
1164
 20
-3604
 10
1164
 20
-3596
 10
1156
 20
-3596
 10
1156
 20
-3580
 10
1148
 20
-3580
 10
1148
 20
-3556
 10
1140
 20
-3556
 10
1140
 20
-3532
 10
1148
 20
-3532
 10
1148
 20
-3508
 10
1140
 20
-3508
 10
1140
 20
-3468
 10
1132
 20
-3468
 10
1132
 20
-3428
 10
1124
 20
-3428
 10
1124
 20
-3068
 10
1116
 20
-3068
 10
1116
 20
-3020
 10
1108
 20
-3020
 10
1108
 20
-2980
 10
1100
 20
-2980
 10
1100
 20
-2956
 10
1092
 20
-2956
 10
1092
 20
-2924
 10
1084
 20
-2924
 10
1084
 20
-2900
 10
1076
 20
-2900
 10
1076
 20
-2868
 10
1068
 20
-2868
 10
1068
 20
-2844
 10
1060
 20
-2844
 10
1060
 20
-2820
 10
1052
 20
-2820
 10
1052
 20
-2804
 10
1044
 20
-2804
 10
1044
 20
-2780
 10
1036
 20
-2780
 10
1036
 20
-2764
 10
1028
 20
-2764
 10
1028
 20
-2740
 10
1020
 20
-2740
 10
1020
 20
-2732
 10
1012
 20
-2732
 10
1012
 20
-2708
 10
1004
 20
-2708
 10
1004
 20
-2692
 10
996
 20
-2692
 10
996
 20
-2676
 10
988
 20
-2676
 10
988
 20
-2660
 10
980
 20
-2660
 10
980
 20
-2652
 10
972
 20
-2652
 10
972
 20
-2636
 10
964
 20
-2636
 10
964
 20
-2620
 10
956
 20
-2620
 10
956
 20
-2612
 10
948
 20
-2612
 10
948
 20
-2596
 10
940
 20
-2596
 10
940
 20
-2588
 10
932
 20
-2588
 10
932
 20
-2580
 10
924
 20
-2580
 10
924
 20
-2564
 10
916
 20
-2564
 10
916
 20
-2556
 10
908
 20
-2556
 10
908
 20
-2540
 10
900
 20
-2540
 10
900
 20
-2532
 10
892
 20
-2532
 10
892
 20
-2524
 10
884
 20
-2524
 10
884
 20
-2516
 10
876
 20
-2516
 10
876
 20
-2508
 10
868
 20
-2508
 10
868
 20
-2500
 10
860
 20
-2500
 10
860
 20
-2492
 10
852
 20
-2492
 10
852
 20
-2476
 10
844
 20
-2476
 10
844
 20
-2468
 10
836
 20
-2468
 10
836
 20
-2460
 10
828
 20
-2460
 10
828
 20
-2452
 10
820
 20
-2452
 10
820
 20
-2444
 10
812
 20
-2444
 10
812
 20
-2436
 10
804
 20
-2436
 10
804
 20
-2428
 10
796
 20
-2428
 10
796
 20
-2420
 10
788
 20
-2420
 10
788
 20
-2412
 10
780
 20
-2412
 10
780
 20
-2404
 10
772
 20
-2404
 10
772
 20
-2396
 10
764
 20
-2396
 10
764
 20
-2388
 10
756
 20
-2388
 10
756
 20
-2380
 10
748
 20
-2380
 10
748
 20
-2372
 10
740
 20
-2372
 10
740
 20
-2364
 10
732
 20
-2364
 10
732
 20
-2356
 10
724
 20
-2356
 10
724
 20
-2348
 10
716
 20
-2348
 10
716
 20
-2340
 10
700
 20
-2340
 10
700
 20
-2332
 10
692
 20
-2332
 10
692
 20
-2324
 10
684
 20
-2324
 10
684
 20
-2316
 10
676
 20
-2316
 10
676
 20
-2308
 10
668
 20
-2308
 10
668
 20
-2300
 10
652
 20
-2300
 10
652
 20
-2292
 10
644
 20
-2292
 10
644
 20
-2284
 10
636
 20
-2284
 10
636
 20
-2276
 10
628
 20
-2276
 10
628
 20
-2268
 10
620
 20
-2268
 10
620
 20
-2260
 10
604
 20
-2260
 10
604
 20
-2252
 10
596
 20
-2252
 10
596
 20
-2244
 10
580
 20
-2244
 10
580
 20
-2236
 10
564
 20
-2236
 10
564
 20
-2228
 10
556
 20
-2228
 10
556
 20
-2220
 10
540
 20
-2220
 10
540
 20
-2212
 10
532
 20
-2212
 10
532
 20
-2204
 10
524
 20
-2204
 10
524
 20
-2196
 10
508
 20
-2196
 10
508
 20
-2188
 10
500
 20
-2188
 10
500
 20
-2180
 10
492
 20
-2180
 10
492
 20
-2172
 10
484
 20
-2172
 10
484
 20
-2164
 10
476
 20
-2164
 10
476
 20
-2156
 10
468
 20
-2156
 10
468
 20
-2148
 10
460
 20
-2148
 10
460
 20
-2140
 10
452
 20
-2140
 10
452
 20
-2132
 10
444
 20
-2132
 10
444
 20
-2116
 10
436
 20
-2116
 10
436
 20
-2108
 10
428
 20
-2108
 10
428
 20
-2100
 10
420
 20
-2100
 10
420
 20
-2092
 10
412
 20
-2092
 10
412
 20
-2076
 10
404
 20
-2076
 10
404
 20
-2060
 10
396
 20
-2060
 10
396
 20
-2052
 10
388
 20
-2052
 10
388
 20
-2036
 10
380
 20
-2036
 10
380
 20
-2028
 10
372
 20
-2028
 10
372
 20
-2004
 10
364
 20
-2004
 10
364
 20
-1988
 10
356
 20
-1988
 10
356
 20
-1972
 10
348
 20
-1972
 10
348
 20
-1956
 10
340
 20
-1956
 10
340
 20
-1940
 10
332
 20
-1940
 10
332
 20
-1908
 10
324
 20
-1908
 10
324
 20
-1884
 10
316
 20
-1884
 10
316
 20
-1860
 10
308
 20
-1860
 10
308
 20
-1820
 10
300
 20
-1820
 10
300
 20
-1764
 10
292
 20
-1764
 10
292
 20
-1564
 10
300
 20
-1564
 10
300
 20
-1548
 10
292
 20
-1548
 10
292
 20
1164
 10
300
 20
1164
 10
300
 20
1220
 10
308
 20
1220
 10
308
 20
1252
 10
316
 20
1252
 10
316
 20
1284
 10
324
 20
1284
 10
324
 20
1308
 10
332
 20
1308
 10
332
 20
1332
 10
340
 20
1332
 10
340
 20
1348
 10
348
 20
1348
 10
348
 20
1364
 10
356
 20
1364
 10
356
 20
1380
 10
364
 20
1380
 10
364
 20
1396
 10
372
 20
1396
 10
372
 20
1420
 10
380
 20
1420
 10
380
 20
1428
 10
388
 20
1428
 10
388
 20
1444
 10
396
 20
1444
 10
396
 20
1452
 10
404
 20
1452
 10
404
 20
1460
 10
412
 20
1460
 10
412
 20
1476
 10
420
 20
1476
 10
420
 20
1492
 10
428
 20
1492
 10
428
 20
1500
 10
436
 20
1500
 10
436
 20
1508
 10
444
 20
1508
 10
444
 20
1516
 10
452
 20
1516
 10
452
 20
1524
 10
460
 20
1524
 10
460
 20
1532
 10
468
 20
1532
 10
468
 20
1540
 10
476
 20
1540
 10
476
 20
1548
 10
484
 20
1548
 10
484
 20
1556
 10
492
 20
1556
 10
492
 20
1564
 10
500
 20
1564
 10
500
 20
1572
 10
508
 20
1572
 10
508
 20
1580
 10
516
 20
1580
 10
516
 20
1588
 10
532
 20
1588
 10
532
 20
1596
 10
540
 20
1596
 10
540
 20
1604
 10
548
 20
1604
 10
548
 20
1612
 10
564
 20
1612
 10
564
 20
1620
 10
580
 20
1620
 10
580
 20
1628
 10
588
 20
1628
 10
588
 20
1636
 10
604
 20
1636
 10
604
 20
1644
 10
620
 20
1644
 10
620
 20
1652
 10
644
 20
1652
 10
644
 20
1660
 10
668
 20
1660
 10
668
 20
1668
 10
692
 20
1668
 10
692
 20
1676
 10
732
 20
1676
 10
732
 20
1684
 10
820
 20
1684
 10
820
 20
1692
 10
844
 20
1692
 10
844
 20
1700
 10
868
 20
1700
 10
868
 20
1708
 10
892
 20
1708
 10
892
 20
1716
 10
908
 20
1716
 10
908
 20
1724
 10
932
 20
1724
 10
932
 20
1732
 10
956
 20
1732
 10
956
 20
1740
 10
972
 20
1740
 10
972
 20
1748
 10
988
 20
1748
 10
988
 20
1756
 10
1004
 20
1756
 10
1004
 20
1764
 10
1020
 20
1764
 10
1020
 20
1772
 10
1044
 20
1772
 10
1044
 20
1780
 10
1060
 20
1780
 10
1060
 20
1788
 10
1076
 20
1788
 10
1076
 20
1796
 10
1084
 20
1796
 10
1084
 20
1804
 10
1100
 20
1804
 10
1100
 20
1812
 10
1116
 20
1812
 10
1116
 20
1820
 10
1132
 20
1820
 10
1132
 20
1828
 10
1148
 20
1828
 10
1148
 20
1836
 10
1156
 20
1836
 10
1156
 20
1844
 10
1172
 20
1844
 10
1172
 20
1852
 10
1188
 20
1852
 10
1188
 20
1860
 10
1196
 20
1860
 10
1196
 20
1868
 10
1212
 20
1868
 10
1212
 20
1876
 10
1228
 20
1876
 10
1228
 20
1884
 10
1236
 20
1884
 10
1236
 20
1892
 10
1244
 20
1892
 10
1244
 20
1900
 10
1252
 20
1900
 10
1252
 20
1908
 10
1260
 20
1908
 10
1260
 20
1916
 10
1276
 20
1916
 10
1276
 20
1924
 10
1284
 20
1924
 10
1284
 20
1932
 10
1300
 20
1932
 10
1300
 20
1940
 10
1308
 20
1940
 10
1308
 20
1948
 10
1316
 20
1948
 10
1316
 20
1956
 10
1332
 20
1956
 10
1332
 20
1964
 10
1340
 20
1964
 10
1340
 20
1972
 10
1348
 20
1972
 10
1348
 20
1980
 10
1356
 20
1980
 10
1356
 20
1988
 10
1372
 20
1988
 10
1372
 20
1996
 10
1380
 20
1996
 10
1380
 20
2004
 10
1388
 20
2004
 10
1388
 20
2012
 10
1396
 20
2012
 10
1396
 20
2020
 10
1404
 20
2020
 10
1404
 20
2028
 10
1412
 20
2028
 10
1412
 20
2036
 10
1420
 20
2036
 10
1420
 20
2044
 10
1436
 20
2044
 10
1436
 20
2052
 10
1444
 20
2052
 10
1444
 20
2060
 10
1452
 20
2060
 10
1452
 20
2068
 10
1460
 20
2068
 10
1460
 20
2076
 10
1468
 20
2076
 10
1468
 20
2084
 10
1476
 20
2084
 10
1476
 20
2100
 10
1484
 20
2100
 10
1484
 20
2108
 10
1492
 20
2108
 10
1492
 20
2116
 10
1500
 20
2116
 10
1500
 20
2124
 10
1508
 20
2124
 10
1508
 20
2132
 10
1516
 20
2132
 10
1516
 20
2140
 10
1524
 20
2140
 10
1524
 20
2148
 10
1532
 20
2148
 10
1532
 20
2156
 10
1540
 20
2156
 10
1540
 20
2164
 10
1548
 20
2164
 10
1548
 20
2180
 10
1556
 20
2180
 10
1556
 20
2188
 10
1564
 20
2188
 10
1564
 20
2196
 10
1572
 20
2196
 10
1572
 20
2204
 10
1580
 20
2204
 10
1580
 20
2220
 10
1588
 20
2220
 10
1588
 20
2228
 10
1596
 20
2228
 10
1596
 20
2244
 10
1604
 20
2244
 10
1604
 20
2252
 10
1612
 20
2252
 10
1612
 20
2260
 10
1620
 20
2260
 10
1620
 20
2268
 10
1628
 20
2268
 10
1628
 20
2284
 10
1636
 20
2284
 10
1636
 20
2292
 10
1644
 20
2292
 10
1644
 20
2308
 10
1652
 20
2308
 10
1652
 20
2316
 10
1660
 20
2316
 10
1660
 20
2324
 10
1668
 20
2324
 10
1668
 20
2340
 10
1676
 20
2340
 10
1676
 20
2356
 10
1684
 20
2356
 10
1684
 20
2364
 10
1692
 20
2364
 10
1692
 20
2372
 10
1700
 20
2372
 10
1700
 20
2388
 10
1708
 20
2388
 10
1708
 20
2404
 10
1716
 20
2404
 10
1716
 20
2412
 10
1724
 20
2412
 10
1724
 20
2428
 10
1732
 20
2428
 10
1732
 20
2436
 10
1740
 20
2436
 10
1740
 20
2452
 10
1748
 20
2452
 10
1748
 20
2468
 10
1756
 20
2468
 10
1756
 20
2476
 10
1764
 20
2476
 10
1764
 20
2492
 10
1772
 20
2492
 10
1772
 20
2508
 10
1780
 20
2508
 10
1780
 20
2524
 10
1788
 20
2524
 10
1788
 20
2532
 10
1796
 20
2532
 10
1796
 20
2548
 10
1804
 20
2548
 10
1804
 20
2564
 10
1812
 20
2564
 10
1812
 20
2572
 10
1820
 20
2572
 10
1820
 20
2604
 10
1828
 20
2604
 10
1828
 20
2628
 10
1836
 20
2628
 10
1836
 20
2660
 10
1844
 20
2660
 10
1844
 20
2676
 10
1852
 20
2676
 10
1852
 20
2692
 10
1860
 20
2692
 10
1860
 20
2700
 10
1868
 20
2700
 10
1868
 20
2716
 10
1876
 20
2716
 10
1876
 20
2724
 10
1884
 20
2724
 10
1884
 20
2732
 10
1892
 20
2732
 10
1892
 20
2740
 10
1900
 20
2740
 10
1900
 20
2748
 10
1908
 20
2748
 10
1908
 20
2764
 10
1916
 20
2764
 10
1916
 20
2780
 10
1924
 20
2780
 10
1924
 20
2788
 10
1932
 20
2788
 10
1932
 20
2804
 10
1940
 20
2804
 10
1940
 20
2820
 10
1948
 20
2820
 10
1948
 20
2828
 10
1956
 20
2828
 10
1956
 20
2836
 10
1964
 20
2836
 10
1964
 20
2852
 10
1972
 20
2852
 10
1972
 20
2860
 10
1980
 20
2860
 10
1980
 20
2868
 10
1988
 20
2868
 10
1988
 20
2876
 10
1996
 20
2876
 10
1996
 20
2884
 10
2004
 20
2884
 10
2004
 20
2892
 10
2012
 20
2892
 10
2012
 20
2900
 10
2020
 20
2900
 10
2020
 20
2908
 10
2028
 20
2908
 10
2028
 20
2916
 10
2036
 20
2916
 10
2036
 20
2924
 10
2044
 20
2924
 10
2044
 20
2932
 10
2052
 20
2932
 10
2052
 20
2940
 10
2068
 20
2940
 10
2068
 20
2948
 10
2076
 20
2948
 10
2076
 20
2956
 10
2084
 20
2956
 10
2084
 20
2964
 10
2100
 20
2964
 10
2100
 20
2972
 10
2108
 20
2972
 10
2108
 20
2980
 10
2116
 20
2980
 10
2116
 20
2988
 10
2124
 20
2988
 10
2124
 20
2996
 10
2140
 20
2996
 10
2140
 20
3004
 10
2148
 20
3004
 10
2148
 20
3012
 10
2156
 20
3012
 10
2156
 20
3020
 10
2164
 20
3020
 10
2164
 20
3028
 10
2172
 20
3028
 10
2172
 20
3036
 10
2188
 20
3036
 10
2188
 20
3044
 10
2196
 20
3044
 10
2196
 20
3052
 10
2212
 20
3052
 10
2212
 20
3060
 10
2220
 20
3060
 10
2220
 20
3068
 10
2228
 20
3068
 10
2228
 20
3076
 10
2244
 20
3076
 10
2244
 20
3084
 10
2252
 20
3084
 10
2252
 20
3092
 10
2260
 20
3092
 10
2260
 20
3100
 10
2276
 20
3100
 10
2276
 20
3108
 10
2292
 20
3108
 10
2292
 20
3116
 10
2300
 20
3116
 10
2300
 20
3124
 10
2316
 20
3124
 10
2316
 20
3132
 10
2332
 20
3132
 10
2332
 20
3140
 10
2340
 20
3140
 10
2340
 20
3148
 10
2356
 20
3148
 10
2356
 20
3156
 10
2372
 20
3156
 10
2372
 20
3164
 10
2388
 20
3164
 10
2388
 20
3172
 10
2404
 20
3172
 10
2404
 20
3180
 10
2420
 20
3180
 10
2420
 20
3188
 10
2436
 20
3188
 10
2436
 20
3196
 10
2452
 20
3196
 10
2452
 20
3204
 10
2468
 20
3204
 10
2468
 20
3212
 10
2484
 20
3212
 10
2484
 20
3220
 10
2500
 20
3220
 10
2500
 20
3228
 10
2516
 20
3228
 10
2516
 20
3236
 10
2532
 20
3236
 10
2532
 20
3244
 10
2548
 20
3244
 10
2548
 20
3252
 10
2580
 20
3252
 10
2580
 20
3260
 10
2596
 20
3260
 10
2596
 20
3268
 10
2620
 20
3268
 10
2620
 20
3276
 10
2636
 20
3276
 10
2636
 20
3284
 10
2668
 20
3284
 10
2668
 20
3292
 10
2692
 20
3292
 10
2692
 20
3300
 10
2716
 20
3300
 10
2716
 20
3308
 10
2740
 20
3308
 10
2740
 20
3316
 10
2756
 20
3316
 10
2756
 20
3324
 10
2796
 20
3324
 10
2796
 20
3332
 10
2828
 20
3332
 10
2828
 20
3340
 10
2844
 20
3340
 10
2844
 20
3348
 10
2884
 20
3348
 10
2884
 20
3356
 10
2908
 20
3356
 10
2908
 20
3364
 10
2924
 20
3364
 10
2924
 20
3372
 10
2948
 20
3372
 10
2948
 20
3380
 10
2956
 20
3380
 10
2956
 20
2820
 10
2932
 20
2820
 10
2932
 20
2812
 10
2916
 20
2812
 10
2916
 20
2804
 10
2884
 20
2804
 10
2884
 20
2796
 10
2868
 20
2796
 10
2868
 20
2788
 10
2852
 20
2788
 10
2852
 20
2780
 10
2836
 20
2780
 10
2836
 20
2772
 10
2820
 20
2772
 10
2820
 20
2764
 10
2812
 20
2764
 10
2812
 20
2756
 10
2796
 20
2756
 10
2796
 20
2748
 10
2772
 20
2748
 10
2772
 20
2740
 10
2764
 20
2740
 10
2764
 20
2732
 10
2756
 20
2732
 10
2756
 20
2724
 10
2716
 20
2724
 10
2716
 20
2716
 10
2700
 20
2716
 10
2700
 20
2708
 10
2684
 20
2708
 10
2684
 20
2700
 10
2668
 20
2700
 10
2668
 20
2692
 10
2652
 20
2692
 10
2652
 20
2684
 10
2636
 20
2684
 10
2636
 20
2676
 10
2628
 20
2676
 10
2628
 20
2668
 10
2612
 20
2668
 10
2612
 20
2660
 10
2604
 20
2660
 10
2604
 20
2652
 10
2588
 20
2652
 10
2588
 20
2636
 10
2580
 20
2636
 10
2580
 20
2628
 10
2564
 20
2628
 10
2564
 20
2612
 10
2548
 20
2612
 10
2548
 20
2604
 10
2540
 20
2604
 10
2540
 20
2588
 10
2524
 20
2588
 10
2524
 20
2572
 10
2516
 20
2572
 10
2516
 20
2564
 10
2500
 20
2564
 10
2500
 20
2548
 10
2492
 20
2548
 10
2492
 20
2540
 10
2484
 20
2540
 10
2484
 20
2532
 10
2476
 20
2532
 10
2476
 20
2516
 10
2460
 20
2516
 10
2460
 20
2500
 10
2452
 20
2500
 10
2452
 20
2492
 10
2444
 20
2492
 10
2444
 20
2484
 10
2436
 20
2484
 10
2436
 20
2468
 10
2428
 20
2468
 10
2428
 20
2460
 10
2420
 20
2460
 10
2420
 20
2452
 10
2412
 20
2452
 10
2412
 20
2444
 10
2404
 20
2444
 10
2404
 20
2436
 10
2396
 20
2436
 10
2396
 20
2420
 10
2388
 20
2420
 10
2388
 20
2412
 10
2372
 20
2412
 10
2372
 20
2396
 10
2364
 20
2396
 10
2364
 20
2388
 10
2356
 20
2388
 10
2356
 20
2372
 10
2348
 20
2372
 10
2348
 20
2364
 10
2332
 20
2364
 10
2332
 20
2348
 10
2324
 20
2348
 10
2324
 20
2340
 10
2316
 20
2340
 10
2316
 20
2324
 10
2308
 20
2324
 10
2308
 20
2308
 10
2300
 20
2308
 10
2300
 20
2292
 10
2292
 20
2292
 10
2292
 20
2268
 10
2284
 20
2268
 10
2284
 20
2252
 10
2276
 20
2252
 10
2276
 20
2236
 10
2268
 20
2236
 10
2268
 20
2220
 10
2260
 20
2220
 10
2260
 20
2212
 10
2252
 20
2212
 10
2252
 20
2196
 10
2244
 20
2196
 10
2244
 20
2188
 10
2236
 20
2188
 10
2236
 20
2172
 10
2228
 20
2172
 10
2228
 20
2164
 10
2220
 20
2164
 10
2220
 20
2148
 10
2212
 20
2148
 10
2212
 20
2140
 10
2204
 20
2140
 10
2204
 20
2124
 10
2196
 20
2124
 10
2196
 20
2116
 10
2180
 20
2116
 10
2180
 20
2100
 10
2172
 20
2100
 10
2172
 20
2092
 10
2164
 20
2092
 10
2164
 20
2076
 10
2156
 20
2076
 10
2156
 20
2060
 10
2148
 20
2060
 10
2148
 20
2052
 10
2140
 20
2052
 10
2140
 20
2036
 10
2124
 20
2036
 10
2124
 20
2020
 10
2116
 20
2020
 10
2116
 20
2012
 10
2108
 20
2012
 10
2108
 20
1996
 10
2100
 20
1996
 10
2100
 20
1980
 10
2092
 20
1980
 10
2092
 20
1964
 10
2084
 20
1964
 10
2084
 20
1956
 10
2076
 20
1956
 10
2076
 20
1940
 10
2068
 20
1940
 10
2068
 20
1916
 10
2060
 20
1916
 10
2060
 20
1900
 10
2052
 20
1900
 10
2052
 20
1892
 10
2044
 20
1892
 10
2044
 20
1884
 10
2052
 20
1884
 10
2052
 20
1876
 10
2044
 20
1876
 10
2044
 20
1860
 10
2036
 20
1860
 10
2036
 20
1844
 10
2028
 20
1844
 10
2028
 20
1828
 10
2020
 20
1828
 10
2020
 20
1820
 10
2012
 20
1820
 10
2012
 20
1804
 10
2004
 20
1804
 10
2004
 20
1772
 10
1996
 20
1772
 10
1996
 20
1700
 10
1988
 20
1700
 10
1988
 20
-2188
 10
1980
 20
-2188
 10
1980
 20
-3236
 10
1988
 20
-3236
 10
1988
 20
-3244
 10
1996
 20
-3244
 10
1996
 20
-3252
 10
2004
 20
-3252
 10
2004
 20
-3260
 10
2012
 20
-3260
 10
2012
 20
-3276
 10
2020
 20
-3276
 10
2020
 20
-3292
 10
2028
 20
-3292
 10
2028
 20
-3300
 10
2036
 20
-3300
 10
2036
 20
-3308
 10
2044
 20
-3308
 10
2044
 20
-3316
 10
2052
 20
-3316
 10
2052
 20
-3324
 10
2060
 20
-3324
 10
2060
 20
-3332
 10
2068
 20
-3332
 10
2068
 20
-3340
 10
2084
 20
-3340
 10
2084
 20
-3348
 10
2092
 20
-3348
 10
2092
 20
-3356
 10
2100
 20
-3356
 10
2100
 20
-3364
 10
2108
 20
-3364
 10
2108
 20
-3372
 10
2116
 20
-3372
 10
2116
 20
-3380
 10
2124
 20
-3380
 10
2124
 20
-3388
 10
2132
 20
-3388
 10
2132
 20
-3396
 10
2148
 20
-3396
 10
2148
 20
-3404
 10
2156
 20
-3404
 10
2156
 20
-3412
 10
2172
 20
-3412
 10
2172
 20
-3420
 10
2180
 20
-3420
 10
2180
 20
-3428
 10
2188
 20
-3428
 10
2188
 20
-3436
 10
2204
 20
-3436
 10
2204
 20
-3444
 10
2212
 20
-3444
 10
2212
 20
-3452
 10
2220
 20
-3452
 10
2220
 20
-3460
 10
2236
 20
-3460
 10
2236
 20
-3468
 10
2244
 20
-3468
 10
2244
 20
-3476
 10
2260
 20
-3476
 10
2260
 20
-3484
 10
2276
 20
-3484
 10
2276
 20
-3492
 10
2284
 20
-3492
 10
2284
 20
-3500
 10
2292
 20
-3500
 10
2292
 20
-3508
 10
2308
 20
-3508
 10
2308
 20
-3516
 10
2324
 20
-3516
 10
2324
 20
-3524
 10
2340
 20
-3524
 10
2340
 20
-3532
 10
2356
 20
-3532
 10
2356
 20
-3540
 10
2364
 20
-3540
 10
2364
 20
-3548
 10
2380
 20
-3548
 10
2380
 20
-3556
 10
2404
 20
-3556
 10
2404
 20
-3564
 10
2420
 20
-3564
 10
2420
 20
-3572
 10
2436
 20
-3572
 10
2436
 20
-3580
 10
2452
 20
-3580
 10
2452
 20
-3588
 10
2476
 20
-3588
 10
2476
 20
-3596
 10
2500
 20
-3596
 10
2500
 20
-3604
 10
2524
 20
-3604
 10
2524
 20
-3612
 10
2548
 20
-3612
 10
2548
 20
-3620
 10
2572
 20
-3620
 10
2572
 20
-3628
 10
2604
 20
-3628
 10
2604
 20
-3636
 10
2636
 20
-3636
 10
2636
 20
-3644
 10
2812
 20
-3644
 10
2812
 20
-3652
 10
2956
 20
-3652
 10
2956
 20
-4436
  0
LWPOLYLINE
  5
5E
100
AcDbEntity
  8
L1D0
  6
ByLayer
 62
  256
370
   -1
100
AcDbPolyline
 90
  496
 70
    1
 43
0
 10
812
 20
2652
 10
812
 20
2660
 10
732
 20
2660
 10
732
 20
2668
 10
724
 20
2668
 10
724
 20
2676
 10
708
 20
2676
 10
708
 20
2684
 10
700
 20
2684
 10
700
 20
2700
 10
692
 20
2700
 10
692
 20
2708
 10
684
 20
2708
 10
684
 20
2732
 10
676
 20
2732
 10
676
 20
2772
 10
668
 20
2772
 10
668
 20
3436
 10
676
 20
3436
 10
676
 20
3460
 10
684
 20
3460
 10
684
 20
3476
 10
692
 20
3476
 10
692
 20
3492
 10
700
 20
3492
 10
700
 20
3500
 10
708
 20
3500
 10
708
 20
3516
 10
716
 20
3516
 10
716
 20
3524
 10
724
 20
3524
 10
724
 20
3532
 10
732
 20
3532
 10
732
 20
3540
 10
740
 20
3540
 10
740
 20
3556
 10
748
 20
3556
 10
748
 20
3564
 10
756
 20
3564
 10
756
 20
3572
 10
764
 20
3572
 10
764
 20
3588
 10
772
 20
3588
 10
772
 20
3596
 10
780
 20
3596
 10
780
 20
3604
 10
788
 20
3604
 10
788
 20
3612
 10
796
 20
3612
 10
796
 20
3620
 10
804
 20
3620
 10
804
 20
3636
 10
812
 20
3636
 10
812
 20
3644
 10
820
 20
3644
 10
820
 20
3652
 10
828
 20
3652
 10
828
 20
3660
 10
836
 20
3660
 10
836
 20
3668
 10
844
 20
3668
 10
844
 20
3676
 10
852
 20
3676
 10
852
 20
3684
 10
860
 20
3684
 10
860
 20
3692
 10
868
 20
3692
 10
868
 20
3700
 10
876
 20
3700
 10
876
 20
3708
 10
884
 20
3708
 10
884
 20
3716
 10
892
 20
3716
 10
892
 20
3724
 10
900
 20
3724
 10
900
 20
3732
 10
908
 20
3732
 10
908
 20
3740
 10
916
 20
3740
 10
916
 20
3748
 10
924
 20
3748
 10
924
 20
3756
 10
932
 20
3756
 10
932
 20
3764
 10
948
 20
3764
 10
948
 20
3772
 10
956
 20
3772
 10
956
 20
3780
 10
964
 20
3780
 10
964
 20
3788
 10
972
 20
3788
 10
972
 20
3796
 10
980
 20
3796
 10
980
 20
3804
 10
996
 20
3804
 10
996
 20
3812
 10
1004
 20
3812
 10
1004
 20
3820
 10
1012
 20
3820
 10
1012
 20
3828
 10
1020
 20
3828
 10
1020
 20
3836
 10
1028
 20
3836
 10
1028
 20
3844
 10
1044
 20
3844
 10
1044
 20
3852
 10
1052
 20
3852
 10
1052
 20
3860
 10
1060
 20
3860
 10
1060
 20
3868
 10
1068
 20
3868
 10
1068
 20
3876
 10
1084
 20
3876
 10
1084
 20
3884
 10
1092
 20
3884
 10
1092
 20
3892
 10
1100
 20
3892
 10
1100
 20
3900
 10
1116
 20
3900
 10
1116
 20
3908
 10
1124
 20
3908
 10
1124
 20
3916
 10
1132
 20
3916
 10
1132
 20
3924
 10
1148
 20
3924
 10
1148
 20
3932
 10
1156
 20
3932
 10
1156
 20
3940
 10
1164
 20
3940
 10
1164
 20
3948
 10
1180
 20
3948
 10
1180
 20
3956
 10
1188
 20
3956
 10
1188
 20
3964
 10
1204
 20
3964
 10
1204
 20
3972
 10
1212
 20
3972
 10
1212
 20
3980
 10
1228
 20
3980
 10
1228
 20
3988
 10
1236
 20
3988
 10
1236
 20
3996
 10
1244
 20
3996
 10
1244
 20
4004
 10
1252
 20
4004
 10
1252
 20
4012
 10
1260
 20
4012
 10
1260
 20
4020
 10
1276
 20
4020
 10
1276
 20
4028
 10
1284
 20
4028
 10
1284
 20
4036
 10
1300
 20
4036
 10
1300
 20
4044
 10
1316
 20
4044
 10
1316
 20
4052
 10
1324
 20
4052
 10
1324
 20
4060
 10
1340
 20
4060
 10
1340
 20
4068
 10
1348
 20
4068
 10
1348
 20
4076
 10
1364
 20
4076
 10
1364
 20
4084
 10
1380
 20
4084
 10
1380
 20
4092
 10
1388
 20
4092
 10
1388
 20
4100
 10
1404
 20
4100
 10
1404
 20
4108
 10
1412
 20
4108
 10
1412
 20
4116
 10
1428
 20
4116
 10
1428
 20
4124
 10
1444
 20
4124
 10
1444
 20
4132
 10
1460
 20
4132
 10
1460
 20
4140
 10
1468
 20
4140
 10
1468
 20
4148
 10
1484
 20
4148
 10
1484
 20
4156
 10
1500
 20
4156
 10
1500
 20
4164
 10
1516
 20
4164
 10
1516
 20
4172
 10
1524
 20
4172
 10
1524
 20
4180
 10
1540
 20
4180
 10
1540
 20
4188
 10
1556
 20
4188
 10
1556
 20
4196
 10
1572
 20
4196
 10
1572
 20
4204
 10
1588
 20
4204
 10
1588
 20
4212
 10
1604
 20
4212
 10
1604
 20
4220
 10
1620
 20
4220
 10
1620
 20
4228
 10
1628
 20
4228
 10
1628
 20
4236
 10
1652
 20
4236
 10
1652
 20
4244
 10
1660
 20
4244
 10
1660
 20
4252
 10
1676
 20
4252
 10
1676
 20
4260
 10
1692
 20
4260
 10
1692
 20
4268
 10
1708
 20
4268
 10
1708
 20
4276
 10
1732
 20
4276
 10
1732
 20
4284
 10
1748
 20
4284
 10
1748
 20
4292
 10
1764
 20
4292
 10
1764
 20
4300
 10
1780
 20
4300
 10
1780
 20
4308
 10
1796
 20
4308
 10
1796
 20
4316
 10
1812
 20
4316
 10
1812
 20
4324
 10
1828
 20
4324
 10
1828
 20
4332
 10
1844
 20
4332
 10
1844
 20
4340
 10
1860
 20
4340
 10
1860
 20
4348
 10
1884
 20
4348
 10
1884
 20
4356
 10
1900
 20
4356
 10
1900
 20
4364
 10
1924
 20
4364
 10
1924
 20
4372
 10
1940
 20
4372
 10
1940
 20
4380
 10
1956
 20
4380
 10
1956
 20
4388
 10
1980
 20
4388
 10
1980
 20
4396
 10
2004
 20
4396
 10
2004
 20
4404
 10
2020
 20
4404
 10
2020
 20
4412
 10
2036
 20
4412
 10
2036
 20
4420
 10
2060
 20
4420
 10
2060
 20
4428
 10
2956
 20
4428
 10
2956
 20
4004
 10
2948
 20
4004
 10
2948
 20
3996
 10
2908
 20
3996
 10
2908
 20
3988
 10
2876
 20
3988
 10
2876
 20
3980
 10
2852
 20
3980
 10
2852
 20
3972
 10
2812
 20
3972
 10
2812
 20
3964
 10
2756
 20
3964
 10
2756
 20
3956
 10
2740
 20
3956
 10
2740
 20
3948
 10
2708
 20
3948
 10
2708
 20
3940
 10
2684
 20
3940
 10
2684
 20
3932
 10
2660
 20
3932
 10
2660
 20
3924
 10
2636
 20
3924
 10
2636
 20
3916
 10
2612
 20
3916
 10
2612
 20
3908
 10
2588
 20
3908
 10
2588
 20
3900
 10
2572
 20
3900
 10
2572
 20
3892
 10
2556
 20
3892
 10
2556
 20
3884
 10
2540
 20
3884
 10
2540
 20
3876
 10
2524
 20
3876
 10
2524
 20
3868
 10
2508
 20
3868
 10
2508
 20
3860
 10
2492
 20
3860
 10
2492
 20
3852
 10
2476
 20
3852
 10
2476
 20
3844
 10
2468
 20
3844
 10
2468
 20
3836
 10
2436
 20
3836
 10
2436
 20
3828
 10
2404
 20
3828
 10
2404
 20
3820
 10
2388
 20
3820
 10
2388
 20
3812
 10
2380
 20
3812
 10
2380
 20
3804
 10
2356
 20
3804
 10
2356
 20
3796
 10
2332
 20
3796
 10
2332
 20
3788
 10
2316
 20
3788
 10
2316
 20
3780
 10
2284
 20
3780
 10
2284
 20
3772
 10
2268
 20
3772
 10
2268
 20
3764
 10
2252
 20
3764
 10
2252
 20
3756
 10
2228
 20
3756
 10
2228
 20
3748
 10
2212
 20
3748
 10
2212
 20
3740
 10
2196
 20
3740
 10
2196
 20
3732
 10
2180
 20
3732
 10
2180
 20
3724
 10
2172
 20
3724
 10
2172
 20
3716
 10
2156
 20
3716
 10
2156
 20
3708
 10
2140
 20
3708
 10
2140
 20
3700
 10
2124
 20
3700
 10
2124
 20
3692
 10
2116
 20
3692
 10
2116
 20
3684
 10
2100
 20
3684
 10
2100
 20
3676
 10
2092
 20
3676
 10
2092
 20
3668
 10
2084
 20
3668
 10
2084
 20
3660
 10
2068
 20
3660
 10
2068
 20
3652
 10
2060
 20
3652
 10
2060
 20
3644
 10
2044
 20
3644
 10
2044
 20
3628
 10
2028
 20
3628
 10
2028
 20
3620
 10
2020
 20
3620
 10
2020
 20
3612
 10
2012
 20
3612
 10
2012
 20
3604
 10
1996
 20
3604
 10
1996
 20
3588
 10
1988
 20
3588
 10
1988
 20
3580
 10
1972
 20
3580
 10
1972
 20
3564
 10
1956
 20
3564
 10
1956
 20
3556
 10
1948
 20
3556
 10
1948
 20
3540
 10
1932
 20
3540
 10
1932
 20
3532
 10
1924
 20
3532
 10
1924
 20
3524
 10
1916
 20
3524
 10
1916
 20
3516
 10
1900
 20
3516
 10
1900
 20
3508
 10
1892
 20
3508
 10
1892
 20
3500
 10
1884
 20
3500
 10
1884
 20
3492
 10
1868
 20
3492
 10
1868
 20
3484
 10
1860
 20
3484
 10
1860
 20
3476
 10
1844
 20
3476
 10
1844
 20
3468
 10
1836
 20
3468
 10
1836
 20
3460
 10
1820
 20
3460
 10
1820
 20
3444
 10
1812
 20
3444
 10
1812
 20
3436
 10
1796
 20
3436
 10
1796
 20
3420
 10
1788
 20
3420
 10
1788
 20
3412
 10
1772
 20
3412
 10
1772
 20
3396
 10
1764
 20
3396
 10
1764
 20
3388
 10
1756
 20
3388
 10
1756
 20
3372
 10
1748
 20
3372
 10
1748
 20
3364
 10
1740
 20
3364
 10
1740
 20
3356
 10
1732
 20
3356
 10
1732
 20
3340
 10
1724
 20
3340
 10
1724
 20
3332
 10
1716
 20
3332
 10
1716
 20
3324
 10
1708
 20
3324
 10
1708
 20
3308
 10
1692
 20
3308
 10
1692
 20
3292
 10
1684
 20
3292
 10
1684
 20
3284
 10
1676
 20
3284
 10
1676
 20
3276
 10
1668
 20
3276
 10
1668
 20
3268
 10
1660
 20
3268
 10
1660
 20
3252
 10
1652
 20
3252
 10
1652
 20
3244
 10
1644
 20
3244
 10
1644
 20
3236
 10
1636
 20
3236
 10
1636
 20
3228
 10
1628
 20
3228
 10
1628
 20
3220
 10
1620
 20
3220
 10
1620
 20
3204
 10
1612
 20
3204
 10
1612
 20
3196
 10
1604
 20
3196
 10
1604
 20
3180
 10
1596
 20
3180
 10
1596
 20
3172
 10
1588
 20
3172
 10
1588
 20
3164
 10
1580
 20
3164
 10
1580
 20
3148
 10
1572
 20
3148
 10
1572
 20
3132
 10
1564
 20
3132
 10
1564
 20
3124
 10
1556
 20
3124
 10
1556
 20
3108
 10
1548
 20
3108
 10
1548
 20
3092
 10
1540
 20
3092
 10
1540
 20
3076
 10
1532
 20
3076
 10
1532
 20
3060
 10
1524
 20
3060
 10
1524
 20
3044
 10
1516
 20
3044
 10
1516
 20
3028
 10
1508
 20
3028
 10
1508
 20
3012
 10
1500
 20
3012
 10
1500
 20
2988
 10
1492
 20
2988
 10
1492
 20
2972
 10
1484
 20
2972
 10
1484
 20
2956
 10
1476
 20
2956
 10
1476
 20
2932
 10
1468
 20
2932
 10
1468
 20
2908
 10
1460
 20
2908
 10
1460
 20
2884
 10
1452
 20
2884
 10
1452
 20
2844
 10
1444
 20
2844
 10
1444
 20
2780
 10
1436
 20
2780
 10
1436
 20
2764
 10
1428
 20
2764
 10
1428
 20
2748
 10
1420
 20
2748
 10
1420
 20
2740
 10
1412
 20
2740
 10
1412
 20
2724
 10
1404
 20
2724
 10
1404
 20
2716
 10
1396
 20
2716
 10
1396
 20
2708
 10
1388
 20
2708
 10
1388
 20
2700
 10
1372
 20
2700
 10
1372
 20
2692
 10
1364
 20
2692
 10
1364
 20
2684
 10
1356
 20
2684
 10
1356
 20
2676
 10
1332
 20
2676
 10
1332
 20
2668
 10
1316
 20
2668
 10
1316
 20
2660
 10
1276
 20
2660
 10
1276
 20
2652
  0
LWPOLYLINE
  5
5F
100
AcDbEntity
  8
L1D0
  6
ByLayer
 62
  256
370
   -1
100
AcDbPolyline
 90
  502
 70
    1
 43
0
 10
-1276
 20
2652
 10
-1276
 20
2660
 10
-1316
 20
2660
 10
-1316
 20
2668
 10
-1332
 20
2668
 10
-1332
 20
2676
 10
-1356
 20
2676
 10
-1356
 20
2684
 10
-1364
 20
2684
 10
-1364
 20
2692
 10
-1372
 20
2692
 10
-1372
 20
2700
 10
-1388
 20
2700
 10
-1388
 20
2708
 10
-1396
 20
2708
 10
-1396
 20
2716
 10
-1404
 20
2716
 10
-1404
 20
2724
 10
-1412
 20
2724
 10
-1412
 20
2740
 10
-1420
 20
2740
 10
-1420
 20
2748
 10
-1428
 20
2748
 10
-1428
 20
2764
 10
-1436
 20
2764
 10
-1436
 20
2780
 10
-1444
 20
2780
 10
-1444
 20
2844
 10
-1452
 20
2844
 10
-1452
 20
2884
 10
-1460
 20
2884
 10
-1460
 20
2908
 10
-1468
 20
2908
 10
-1468
 20
2932
 10
-1476
 20
2932
 10
-1476
 20
2956
 10
-1484
 20
2956
 10
-1484
 20
2972
 10
-1492
 20
2972
 10
-1492
 20
2988
 10
-1500
 20
2988
 10
-1500
 20
3012
 10
-1508
 20
3012
 10
-1508
 20
3028
 10
-1516
 20
3028
 10
-1516
 20
3044
 10
-1524
 20
3044
 10
-1524
 20
3060
 10
-1532
 20
3060
 10
-1532
 20
3076
 10
-1540
 20
3076
 10
-1540
 20
3092
 10
-1548
 20
3092
 10
-1548
 20
3108
 10
-1556
 20
3108
 10
-1556
 20
3124
 10
-1564
 20
3124
 10
-1564
 20
3132
 10
-1572
 20
3132
 10
-1572
 20
3148
 10
-1580
 20
3148
 10
-1580
 20
3164
 10
-1588
 20
3164
 10
-1588
 20
3172
 10
-1596
 20
3172
 10
-1596
 20
3180
 10
-1604
 20
3180
 10
-1604
 20
3196
 10
-1612
 20
3196
 10
-1612
 20
3204
 10
-1620
 20
3204
 10
-1620
 20
3220
 10
-1628
 20
3220
 10
-1628
 20
3228
 10
-1636
 20
3228
 10
-1636
 20
3236
 10
-1644
 20
3236
 10
-1644
 20
3244
 10
-1652
 20
3244
 10
-1652
 20
3260
 10
-1660
 20
3260
 10
-1660
 20
3268
 10
-1668
 20
3268
 10
-1668
 20
3276
 10
-1676
 20
3276
 10
-1676
 20
3284
 10
-1684
 20
3284
 10
-1684
 20
3292
 10
-1692
 20
3292
 10
-1692
 20
3308
 10
-1708
 20
3308
 10
-1708
 20
3324
 10
-1716
 20
3324
 10
-1716
 20
3332
 10
-1724
 20
3332
 10
-1724
 20
3340
 10
-1732
 20
3340
 10
-1732
 20
3356
 10
-1740
 20
3356
 10
-1740
 20
3364
 10
-1748
 20
3364
 10
-1748
 20
3372
 10
-1756
 20
3372
 10
-1756
 20
3388
 10
-1764
 20
3388
 10
-1764
 20
3396
 10
-1772
 20
3396
 10
-1772
 20
3412
 10
-1788
 20
3412
 10
-1788
 20
3420
 10
-1796
 20
3420
 10
-1796
 20
3436
 10
-1812
 20
3436
 10
-1812
 20
3444
 10
-1820
 20
3444
 10
-1820
 20
3460
 10
-1836
 20
3460
 10
-1836
 20
3468
 10
-1844
 20
3468
 10
-1844
 20
3476
 10
-1860
 20
3476
 10
-1860
 20
3484
 10
-1868
 20
3484
 10
-1868
 20
3492
 10
-1884
 20
3492
 10
-1884
 20
3500
 10
-1892
 20
3500
 10
-1892
 20
3508
 10
-1900
 20
3508
 10
-1900
 20
3516
 10
-1916
 20
3516
 10
-1916
 20
3524
 10
-1924
 20
3524
 10
-1924
 20
3532
 10
-1932
 20
3532
 10
-1932
 20
3540
 10
-1948
 20
3540
 10
-1948
 20
3556
 10
-1956
 20
3556
 10
-1956
 20
3564
 10
-1972
 20
3564
 10
-1972
 20
3580
 10
-1988
 20
3580
 10
-1988
 20
3588
 10
-1996
 20
3588
 10
-1996
 20
3604
 10
-2012
 20
3604
 10
-2012
 20
3612
 10
-2020
 20
3612
 10
-2020
 20
3620
 10
-2028
 20
3620
 10
-2028
 20
3628
 10
-2044
 20
3628
 10
-2044
 20
3644
 10
-2060
 20
3644
 10
-2060
 20
3652
 10
-2068
 20
3652
 10
-2068
 20
3660
 10
-2084
 20
3660
 10
-2084
 20
3668
 10
-2092
 20
3668
 10
-2092
 20
3676
 10
-2100
 20
3676
 10
-2100
 20
3684
 10
-2116
 20
3684
 10
-2116
 20
3692
 10
-2124
 20
3692
 10
-2124
 20
3700
 10
-2140
 20
3700
 10
-2140
 20
3708
 10
-2156
 20
3708
 10
-2156
 20
3716
 10
-2172
 20
3716
 10
-2172
 20
3724
 10
-2180
 20
3724
 10
-2180
 20
3732
 10
-2196
 20
3732
 10
-2196
 20
3740
 10
-2212
 20
3740
 10
-2212
 20
3748
 10
-2228
 20
3748
 10
-2228
 20
3756
 10
-2252
 20
3756
 10
-2252
 20
3764
 10
-2268
 20
3764
 10
-2268
 20
3772
 10
-2284
 20
3772
 10
-2284
 20
3780
 10
-2316
 20
3780
 10
-2316
 20
3788
 10
-2332
 20
3788
 10
-2332
 20
3796
 10
-2356
 20
3796
 10
-2356
 20
3804
 10
-2380
 20
3804
 10
-2380
 20
3812
 10
-2388
 20
3812
 10
-2388
 20
3820
 10
-2404
 20
3820
 10
-2404
 20
3828
 10
-2436
 20
3828
 10
-2436
 20
3836
 10
-2468
 20
3836
 10
-2468
 20
3844
 10
-2476
 20
3844
 10
-2476
 20
3852
 10
-2492
 20
3852
 10
-2492
 20
3860
 10
-2508
 20
3860
 10
-2508
 20
3868
 10
-2524
 20
3868
 10
-2524
 20
3876
 10
-2540
 20
3876
 10
-2540
 20
3884
 10
-2556
 20
3884
 10
-2556
 20
3892
 10
-2572
 20
3892
 10
-2572
 20
3900
 10
-2588
 20
3900
 10
-2588
 20
3908
 10
-2612
 20
3908
 10
-2612
 20
3916
 10
-2636
 20
3916
 10
-2636
 20
3924
 10
-2660
 20
3924
 10
-2660
 20
3932
 10
-2684
 20
3932
 10
-2684
 20
3940
 10
-2708
 20
3940
 10
-2708
 20
3948
 10
-2740
 20
3948
 10
-2740
 20
3956
 10
-2756
 20
3956
 10
-2756
 20
3964
 10
-2812
 20
3964
 10
-2812
 20
3972
 10
-2852
 20
3972
 10
-2852
 20
3980
 10
-2876
 20
3980
 10
-2876
 20
3988
 10
-2908
 20
3988
 10
-2908
 20
3996
 10
-2948
 20
3996
 10
-2948
 20
4004
 10
-2956
 20
4004
 10
-2956
 20
4436
 10
-2076
 20
4436
 10
-2076
 20
4428
 10
-2060
 20
4428
 10
-2060
 20
4420
 10
-2036
 20
4420
 10
-2036
 20
4412
 10
-2020
 20
4412
 10
-2020
 20
4404
 10
-2004
 20
4404
 10
-2004
 20
4396
 10
-1980
 20
4396
 10
-1980
 20
4388
 10
-1956
 20
4388
 10
-1956
 20
4380
 10
-1940
 20
4380
 10
-1940
 20
4372
 10
-1924
 20
4372
 10
-1924
 20
4364
 10
-1900
 20
4364
 10
-1900
 20
4356
 10
-1884
 20
4356
 10
-1884
 20
4348
 10
-1860
 20
4348
 10
-1860
 20
4340
 10
-1844
 20
4340
 10
-1844
 20
4332
 10
-1828
 20
4332
 10
-1828
 20
4324
 10
-1812
 20
4324
 10
-1812
 20
4316
 10
-1796
 20
4316
 10
-1796
 20
4308
 10
-1780
 20
4308
 10
-1780
 20
4300
 10
-1764
 20
4300
 10
-1764
 20
4292
 10
-1748
 20
4292
 10
-1748
 20
4284
 10
-1732
 20
4284
 10
-1732
 20
4276
 10
-1708
 20
4276
 10
-1708
 20
4268
 10
-1692
 20
4268
 10
-1692
 20
4260
 10
-1676
 20
4260
 10
-1676
 20
4252
 10
-1668
 20
4252
 10
-1668
 20
4244
 10
-1652
 20
4244
 10
-1652
 20
4236
 10
-1628
 20
4236
 10
-1628
 20
4228
 10
-1620
 20
4228
 10
-1620
 20
4220
 10
-1604
 20
4220
 10
-1604
 20
4212
 10
-1588
 20
4212
 10
-1588
 20
4204
 10
-1572
 20
4204
 10
-1572
 20
4196
 10
-1556
 20
4196
 10
-1556
 20
4188
 10
-1540
 20
4188
 10
-1540
 20
4180
 10
-1524
 20
4180
 10
-1524
 20
4172
 10
-1516
 20
4172
 10
-1516
 20
4164
 10
-1500
 20
4164
 10
-1500
 20
4156
 10
-1484
 20
4156
 10
-1484
 20
4148
 10
-1468
 20
4148
 10
-1468
 20
4140
 10
-1460
 20
4140
 10
-1460
 20
4132
 10
-1444
 20
4132
 10
-1444
 20
4124
 10
-1428
 20
4124
 10
-1428
 20
4116
 10
-1412
 20
4116
 10
-1412
 20
4108
 10
-1404
 20
4108
 10
-1404
 20
4100
 10
-1388
 20
4100
 10
-1388
 20
4092
 10
-1380
 20
4092
 10
-1380
 20
4084
 10
-1364
 20
4084
 10
-1364
 20
4076
 10
-1348
 20
4076
 10
-1348
 20
4068
 10
-1340
 20
4068
 10
-1340
 20
4060
 10
-1324
 20
4060
 10
-1324
 20
4052
 10
-1316
 20
4052
 10
-1316
 20
4044
 10
-1300
 20
4044
 10
-1300
 20
4036
 10
-1284
 20
4036
 10
-1284
 20
4028
 10
-1276
 20
4028
 10
-1276
 20
4020
 10
-1260
 20
4020
 10
-1260
 20
4012
 10
-1252
 20
4012
 10
-1252
 20
4004
 10
-1236
 20
4004
 10
-1236
 20
3996
 10
-1228
 20
3996
 10
-1228
 20
3988
 10
-1212
 20
3988
 10
-1212
 20
3980
 10
-1204
 20
3980
 10
-1204
 20
3972
 10
-1196
 20
3972
 10
-1196
 20
3964
 10
-1180
 20
3964
 10
-1180
 20
3956
 10
-1172
 20
3956
 10
-1172
 20
3948
 10
-1156
 20
3948
 10
-1156
 20
3940
 10
-1148
 20
3940
 10
-1148
 20
3932
 10
-1140
 20
3932
 10
-1140
 20
3924
 10
-1124
 20
3924
 10
-1124
 20
3916
 10
-1116
 20
3916
 10
-1116
 20
3908
 10
-1100
 20
3908
 10
-1100
 20
3900
 10
-1092
 20
3900
 10
-1092
 20
3892
 10
-1084
 20
3892
 10
-1084
 20
3884
 10
-1068
 20
3884
 10
-1068
 20
3876
 10
-1060
 20
3876
 10
-1060
 20
3868
 10
-1052
 20
3868
 10
-1052
 20
3860
 10
-1044
 20
3860
 10
-1044
 20
3852
 10
-1028
 20
3852
 10
-1028
 20
3844
 10
-1020
 20
3844
 10
-1020
 20
3836
 10
-1012
 20
3836
 10
-1012
 20
3828
 10
-1004
 20
3828
 10
-1004
 20
3820
 10
-996
 20
3820
 10
-996
 20
3812
 10
-980
 20
3812
 10
-980
 20
3804
 10
-972
 20
3804
 10
-972
 20
3796
 10
-964
 20
3796
 10
-964
 20
3788
 10
-956
 20
3788
 10
-956
 20
3780
 10
-948
 20
3780
 10
-948
 20
3772
 10
-932
 20
3772
 10
-932
 20
3764
 10
-924
 20
3764
 10
-924
 20
3756
 10
-916
 20
3756
 10
-916
 20
3748
 10
-908
 20
3748
 10
-908
 20
3740
 10
-900
 20
3740
 10
-900
 20
3732
 10
-892
 20
3732
 10
-892
 20
3724
 10
-884
 20
3724
 10
-884
 20
3716
 10
-876
 20
3716
 10
-876
 20
3708
 10
-868
 20
3708
 10
-868
 20
3700
 10
-860
 20
3700
 10
-860
 20
3692
 10
-852
 20
3692
 10
-852
 20
3684
 10
-844
 20
3684
 10
-844
 20
3676
 10
-836
 20
3676
 10
-836
 20
3668
 10
-828
 20
3668
 10
-828
 20
3660
 10
-820
 20
3660
 10
-820
 20
3652
 10
-812
 20
3652
 10
-812
 20
3644
 10
-804
 20
3644
 10
-804
 20
3636
 10
-796
 20
3636
 10
-796
 20
3620
 10
-788
 20
3620
 10
-788
 20
3612
 10
-780
 20
3612
 10
-780
 20
3604
 10
-772
 20
3604
 10
-772
 20
3596
 10
-764
 20
3596
 10
-764
 20
3580
 10
-756
 20
3580
 10
-756
 20
3572
 10
-748
 20
3572
 10
-748
 20
3564
 10
-740
 20
3564
 10
-740
 20
3556
 10
-732
 20
3556
 10
-732
 20
3540
 10
-724
 20
3540
 10
-724
 20
3532
 10
-716
 20
3532
 10
-716
 20
3524
 10
-708
 20
3524
 10
-708
 20
3516
 10
-700
 20
3516
 10
-700
 20
3500
 10
-692
 20
3500
 10
-692
 20
3492
 10
-684
 20
3492
 10
-684
 20
3476
 10
-676
 20
3476
 10
-676
 20
3452
 10
-668
 20
3452
 10
-668
 20
3420
 10
-660
 20
3420
 10
-660
 20
2820
 10
-668
 20
2820
 10
-668
 20
2756
 10
-676
 20
2756
 10
-676
 20
2732
 10
-684
 20
2732
 10
-684
 20
2708
 10
-692
 20
2708
 10
-692
 20
2700
 10
-700
 20
2700
 10
-700
 20
2692
 10
-708
 20
2692
 10
-708
 20
2684
 10
-716
 20
2684
 10
-716
 20
2676
 10
-724
 20
2676
 10
-724
 20
2668
 10
-748
 20
2668
 10
-748
 20
2660
 10
-836
 20
2660
 10
-836
 20
2652
  0
ENDSEC
  0
SECTION
  2
OBJECTS
  0
DICTIONARY
  5
C
330
0
100
AcDbDictionary
281
    1
  3
ACAD_GROUP
350
D
  0
DICTIONARY
  5
D
330
C
100
AcDbDictionary
281
    1
  0
ENDSEC
  0
EOF
