999
dxfrw 0.6.3
  0
SECTION
  2
HEADER
  9
$ACADVER
  1
AC1021
  9
$DWGCODEPAGE
  3
ANSI_1252
  9
$INSBASE
 10
0
 20
0
 30
0
  9
$EXTMIN
 10
40
 20
-12400
 30
0
  9
$EXTMAX
 10
12850
 20
-900
 30
0
  9
$LIMMIN
 10
0
 20
0
  9
$LIMMAX
 10
420
 20
297
  9
$ORTHOMODE
 70
    0
  9
$REGENMODE
 70
    1
  9
$FILLMODE
 70
    1
  9
$QTEXTMODE
 70
    0
  9
$MIRRTEXT
 70
    0
  9
$LTSCALE
 40
1
  9
$ATTMODE
 70
    0
  9
$TEXTSIZE
 40
2.5
  9
$TRACEWID
 40
15.68
  9
$TEXTSTYLE
  7
STANDARD
  9
$CLAYER
  8
0
  9
$CELTYPE
  6
BYLAYER
  9
$CECOLOR
 62
  256
  9
$CELTSCALE
 40
1
  9
$DISPSILH
 70
    0
  9
$DIMSCALE
 40
0.0001
  9
$DIMASZ
 40
2.5
  9
$DIMEXO
 40
0.625
  9
$DIMDLI
 40
3.75
  9
$DIMRND
 40
0
  9
$DIMDLE
 40
0
  9
$DIMEXE
 40
1.25
  9
$DIMTP
 40
0
  9
$DIMTM
 40
0
  9
$DIMTXT
 40
2.5
  9
$DIMCEN
 40
2.5
  9
$DIMTSZ
 40
0
  9
$DIMTOL
 70
    0
  9
$DIMLIM
 70
    0
  9
$DIMTIH
 70
    0
  9
$DIMTOH
 70
    0
  9
$DIMSE1
 70
    0
  9
$DIMSE2
 70
    0
  9
$DIMTAD
 70
    1
  9
$DIMZIN
 70
    1
  9
$DIMBLK
  1

  9
$DIMASO
 70
    1
  9
$DIMSHO
 70
    1
  9
$DIMPOST
  1

  9
$DIMAPOST
  1

  9
$DIMALT
 70
    0
  9
$DIMALTD
 70
    3
  9
$DIMALTF
 40
0.03937
  9
$DIMLFAC
 40
1
  9
$DIMTOFL
 70
    1
  9
$DIMTVP
 40
0
  9
$DIMTIX
 70
    0
  9
$DIMSOXD
 70
    0
  9
$DIMSAH
 70
    0
  9
$DIMBLK1
  1

  9
$DIMBLK2
  1

  9
$DIMSTYLE
  2
STANDARD
  9
$DIMCLRD
 70
    0
  9
$DIMCLRE
 70
    0
  9
$DIMCLRT
 70
    0
  9
$DIMTFAC
 40
1
  9
$DIMGAP
 40
0.625
  9
$DIMJUST
 70
    0
  9
$DIMSD1
 70
    0
  9
$DIMSD2
 70
    0
  9
$DIMTOLJ
 70
    0
  9
$DIMTZIN
 70
    8
  9
$DIMALTZ
 70
    0
  9
$DIMALTTZ
 70
    0
  9
$DIMUPT
 70
    0
  9
$DIMDEC
 70
    4
  9
$DIMTDEC
 70
    2
  9
$DIMALTU
 70
    2
  9
$DIMALTTD
 70
    3
  9
$DIMTXSTY
  7
STANDARD
  9
$DIMAUNIT
 70
    0
  9
$DIMADEC
 70
    0
  9
$DIMALTRND
 40
0
  9
$DIMAZIN
 70
    0
  9
$DIMDSEP
 70
   44
  9
$DIMATFIT
 70
    3
  9
$DIMFRAC
 70
    0
  9
$DIMLDRBLK
  1
STANDARD
  9
$DIMLUNIT
 70
    2
  9
$DIMLWD
 70
   -2
  9
$DIMLWE
 70
   -2
  9
$DIMTMOVE
 70
    0
  9
$DIMFXL
 40
1
  9
$DIMFXLON
 70
    0
  9
$DIMJOGANG
 40
0.7854
  9
$DIMTFILL
 70
    0
  9
$DIMTFILLCLR
 70
    0
  9
$DIMARCSYM
 70
    0
  9
$DIMLTYPE
  6

  9
$DIMLTEX1
  6

  9
$DIMLTEX2
  6

  9
$LUNITS
 70
    2
  9
$LUPREC
 70
    3
  9
$SKETCHINC
 40
1
  9
$FILLETRAD
 40
0
  9
$AUNITS
 70
    0
  9
$AUPREC
 70
    2
  9
$MENU
  1
.
  9
$ELEVATION
 40
0
  9
$PELEVATION
 40
0
  9
$THICKNESS
 40
0
  9
$LIMCHECK
 70
    0
  9
$CHAMFERA
 40
0
  9
$CHAMFERB
 40
0
  9
$CHAMFERC
 40
0
  9
$CHAMFERD
 40
0
  9
$SKPOLY
 70
    0
  9
$USRTIMER
 70
    1
  9
$ANGBASE
 50
0
  9
$ANGDIR
 70
    0
  9
$PDMODE
 70
   34
  9
$PDSIZE
 40
0
  9
$PLINEWID
 40
0
  9
$SPLFRAME
 70
    0
  9
$SPLINETYPE
 70
    2
  9
$SPLINESEGS
 70
    8
  9
$HANDSEED
  5
20000
  9
$SURFTAB1
 70
    6
  9
$SURFTAB2
 70
    6
  9
$SURFTYPE
 70
    6
  9
$SURFU
 70
    6
  9
$SURFV
 70
    6
  9
$UCSBASE
  2

  9
$UCSNAME
  2

  9
$UCSORG
 10
0
 20
0
 30
0
  9
$UCSXDIR
 10
1
 20
0
 30
0
  9
$UCSYDIR
 10
0
 20
1
 30
0
  9
$UCSORTHOREF
  2

  9
$UCSORTHOVIEW
 70
    0
  9
$UCSORGTOP
 10
0
 20
0
 30
0
  9
$UCSORGBOTTOM
 10
0
 20
0
 30
0
  9
$UCSORGLEFT
 10
0
 20
0
 30
0
  9
$UCSORGRIGHT
 10
0
 20
0
 30
0
  9
$UCSORGFRONT
 10
0
 20
0
 30
0
  9
$UCSORGBACK
 10
0
 20
0
 30
0
  9
$PUCSBASE
  2

  9
$PUCSNAME
  2

  9
$PUCSORG
 10
0
 20
0
 30
0
  9
$PUCSXDIR
 10
1
 20
0
 30
0
  9
$PUCSYDIR
 10
0
 20
1
 30
0
  9
$PUCSORTHOREF
  2

  9
$PUCSORTHOVIEW
 70
    0
  9
$PUCSORGTOP
 10
0
 20
0
 30
0
  9
$PUCSORGBOTTOM
 10
0
 20
0
 30
0
  9
$PUCSORGLEFT
 10
0
 20
0
 30
0
  9
$PUCSORGRIGHT
 10
0
 20
0
 30
0
  9
$PUCSORGFRONT
 10
0
 20
0
 30
0
  9
$PUCSORGBACK
 10
0
 20
0
 30
0
  9
$USERI1
 70
    0
  9
$USERI2
 70
    0
  9
$USERI3
 70
    0
  9
$USERI4
 70
    0
  9
$USERI5
 70
    0
  9
$USERR1
 40
0
  9
$USERR2
 40
0
  9
$USERR3
 40
0
  9
$USERR4
 40
0
  9
$USERR5
 40
0
  9
$WORLDVIEW
 70
    1
  9
$SHADEDGE
 70
    3
  9
$SHADEDIF
 70
   70
  9
$TILEMODE
 70
    1
  9
$MAXACTVP
 70
   64
  9
$PINSBASE
 10
0
 20
0
 30
0
  9
$PLIMCHECK
 70
    0
  9
$PEXTMIN
 10
0
 20
0
 30
0
  9
$PEXTMAX
 10
0
 20
0
 30
0
  9
$GRIDMODE
 70
    1
  9
$SNAPSTYLE
 70
    0
  9
$GRIDUNIT
 10
0
 20
0
  9
$PLIMMIN
 10
0
 20
0
  9
$PLIMMAX
 10
297
 20
210
  9
$UNITMODE
 70
    0
  9
$VISRETAIN
 70
    1
  9
$PLINEGEN
 70
    0
  9
$PSLTSCALE
 70
    1
  9
$TREEDEPTH
 70
 3020
  9
$CMLSTYLE
  2
Standard
  9
$CMLJUST
 70
    0
  9
$CMLSCALE
 40
20
  9
$PROXYGRAPHICS
 70
    1
  9
$MEASUREMENT
 70
    1
  9
$CELWEIGHT
370
   -1
  9
$ENDCAPS
280
    0
  9
$JOINSTYLE
280
    0
  9
$LWDISPLAY
290
    0
  9
$INSUNITS
 70
    4
  9
$HYPERLINKBASE
  1

  9
$STYLESHEET
  1

  9
$XEDIT
290
    1
  9
$CEPSNTYPE
380
    0
  9
$PSTYLEMODE
290
    1
  9
$EXTNAMES
290
    1
  9
$PSVPSCALE
 40
1
  9
$OLESTARTUP
290
    0
  9
$SORTENTS
280
  127
  9
$INDEXCTL
280
    0
  9
$HIDETEXT
280
    1
  9
$XCLIPFRAME
290
    0
  9
$HALOGAP
280
    0
  9
$OBSCOLOR
 70
  257
  9
$OBSLTYPE
280
    0
  9
$INTERSECTIONDISPLAY
280
    0
  9
$INTERSECTIONCOLOR
 70
  257
  9
$DIMASSOC
280
    1
  9
$PROJECTNAME
  1

  9
$CAMERADISPLAY
290
    0
  9
$LENSLENGTH
 40
50
  9
$CAMERAHEIGHT
 40
0
  9
$STEPSPERSEC
 40
2
  9
$STEPSIZE
 40
50
  9
$3DDWFPREC
 40
2
  9
$PSOLWIDTH
 40
5
  9
$PSOLHEIGHT
 40
80
  9
$LOFTANG1
 40
1.570796326794897
  9
$LOFTANG2
 40
1.570796326794897
  9
$LOFTMAG1
 40
0
  9
$LOFTMAG2
 40
0
  9
$LOFTPARAM
 70
    7
  9
$LOFTNORMALS
280
    1
  9
$LATITUDE
 40
1
  9
$LONGITUDE
 40
1
  9
$NORTHDIRECTION
 40
0
  9
$TIMEZONE
 70
-8000
  9
$LIGHTGLYPHDISPLAY
280
    1
  9
$TILEMODELIGHTSYNCH
280
    1
  9
$SOLIDHIST
280
    1
  9
$SHOWHIST
280
    1
  9
$DWFFRAME
280
    2
  9
$DGNFRAME
280
    0
  9
$REALWORLDSCALE
290
    1
  9
$INTERFERECOLOR
 62
    1
  9
$CSHADOW
280
    0
  9
$SHADOWPLANELOCATION
 40
0
  0
ENDSEC
  0
SECTION
  2
CLASSES
  0
ENDSEC
  0
SECTION
  2
TABLES
  0
TABLE
  2
VPORT
  5
8
330
0
100
AcDbSymbolTable
 70
    1
  0
VPORT
  5
31
330
2
100
AcDbSymbolTableRecord
100
AcDbViewportTableRecord
  2
*ACTIVE
 70
    0
 10
0
 20
0
 11
1
 21
1
 12
10118.22901815499
 22
2921.930822074462
 13
0
 23
0
 14
10
 24
10
 15
10
 25
10
 16
0
 26
0
 36
1
 17
0
 27
0
 37
0
 40
25512.63026359873
 41
1.171465968586388
 42
50
 43
0
 44
0
 50
0
 51
0
 71
    0
 72
  100
 73
    1
 74
    3
 75
    0
 76
    1
 77
    0
 78
    0
281
    0
 65
    1
110
0
120
0
130
0
111
1
121
0
131
0
112
0
122
1
132
0
 79
    0
146
0
348
10020
 60
    7
 61
    5
292
1
282
    1
141
0
142
0
 63
  250
421
3358443
  0
ENDTAB
  0
TABLE
  2
LTYPE
  5
5
330
0
100
AcDbSymbolTable
 70
    4
  0
LTYPE
  5
14
330
5
100
AcDbSymbolTableRecord
100
AcDbLinetypeTableRecord
  2
ByBlock
 70
    0
  3

 72
   65
 73
    0
 40
0
  0
LTYPE
  5
15
330
5
100
AcDbSymbolTableRecord
100
AcDbLinetypeTableRecord
  2
ByLayer
 70
    0
  3

 72
   65
 73
    0
 40
0
  0
LTYPE
  5
16
330
5
100
AcDbSymbolTableRecord
100
AcDbLinetypeTableRecord
  2
Continuous
 70
    0
  3
Solid line
 72
   65
 73
    0
 40
0
  0
LTYPE
  5
32
330
5
100
AcDbSymbolTableRecord
100
AcDbLinetypeTableRecord
  2
DOT
 70
    0
  3
Dot . . . . . . . . . . . . . . . . . . . . . .
 72
   65
 73
    2
 40
6.35
 49
0
 74
    0
 49
-6.35
 74
    0
  0
LTYPE
  5
33
330
5
100
AcDbSymbolTableRecord
100
AcDbLinetypeTableRecord
  2
DOTTINY
 70
    0
  3
Dot (.15x) .....................................
 72
   65
 73
    2
 40
0.9525
 49
0
 74
    0
 49
-0.9525
 74
    0
  0
LTYPE
  5
34
330
5
100
AcDbSymbolTableRecord
100
AcDbLinetypeTableRecord
  2
DOT2
 70
    0
  3
Dot (.5x) .....................................
 72
   65
 73
    2
 40
3.175
 49
0
 74
    0
 49
-3.175
 74
    0
  0
LTYPE
  5
35
330
5
100
AcDbSymbolTableRecord
100
AcDbLinetypeTableRecord
  2
DOTX2
 70
    0
  3
Dot (2x) .  .  .  .  .  .  .  .  .  .  .  .  .
 72
   65
 73
    2
 40
12.7
 49
0
 74
    0
 49
-12.7
 74
    0
  0
LTYPE
  5
36
330
5
100
AcDbSymbolTableRecord
100
AcDbLinetypeTableRecord
  2
DASHED
 70
    0
  3
Dashed _ _ _ _ _ _ _ _ _ _ _ _ _ _ _ _ _
 72
   65
 73
    2
 40
19.05
 49
12.7
 74
    0
 49
-6.35
 74
    0
  0
LTYPE
  5
37
330
5
100
AcDbSymbolTableRecord
100
AcDbLinetypeTableRecord
  2
DASHEDTINY
 70
    0
  3
Dashed (.15x) _ _ _ _ _ _ _ _ _ _ _ _ _ _ _ _ _
 72
   65
 73
    2
 40
2.8575
 49
1.905
 74
    0
 49
-0.9525
 74
    0
  0
LTYPE
  5
38
330
5
100
AcDbSymbolTableRecord
100
AcDbLinetypeTableRecord
  2
DASHED2
 70
    0
  3
Dashed (.5x) _ _ _ _ _ _ _ _ _ _ _ _ _ _ _ _ _
 72
   65
 73
    2
 40
9.524999999999999
 49
6.35
 74
    0
 49
-3.175
 74
    0
  0
LTYPE
  5
39
330
5
100
AcDbSymbolTableRecord
100
AcDbLinetypeTableRecord
  2
DASHEDX2
 70
    0
  3
Dashed (2x) ____  ____  ____  ____  ____  ___
 72
   65
 73
    2
 40
38.09999999999999
 49
25.4
 74
    0
 49
-12.7
 74
    0
  0
LTYPE
  5
3A
330
5
100
AcDbSymbolTableRecord
100
AcDbLinetypeTableRecord
  2
DASHDOT
 70
    0
  3
Dash dot __ . __ . __ . __ . __ . __ . __ . __
 72
   65
 73
    4
 40
25.4
 49
12.7
 74
    0
 49
-6.35
 74
    0
 49
0
 74
    0
 49
-6.35
 74
    0
  0
LTYPE
  5
3B
330
5
100
AcDbSymbolTableRecord
100
AcDbLinetypeTableRecord
  2
DASHDOTTINY
 70
    0
  3
Dash dot (.15x) _._._._._._._._._._._._._._._.
 72
   65
 73
    4
 40
3.81
 49
1.905
 74
    0
 49
-0.9525
 74
    0
 49
0
 74
    0
 49
-0.9525
 74
    0
  0
LTYPE
  5
3C
330
5
100
AcDbSymbolTableRecord
100
AcDbLinetypeTableRecord
  2
DASHDOT2
 70
    0
  3
Dash dot (.5x) _._._._._._._._._._._._._._._.
 72
   65
 73
    4
 40
12.7
 49
6.35
 74
    0
 49
-3.175
 74
    0
 49
0
 74
    0
 49
-3.175
 74
    0
  0
LTYPE
  5
3D
330
5
100
AcDbSymbolTableRecord
100
AcDbLinetypeTableRecord
  2
DASHDOTX2
 70
    0
  3
Dash dot (2x) ____  .  ____  .  ____  .  ___
 72
   65
 73
    4
 40
50.8
 49
25.4
 74
    0
 49
-12.7
 74
    0
 49
0
 74
    0
 49
-12.7
 74
    0
  0
LTYPE
  5
3E
330
5
100
AcDbSymbolTableRecord
100
AcDbLinetypeTableRecord
  2
DIVIDE
 70
    0
  3
Divide ____ . . ____ . . ____ . . ____ . . ____
 72
   65
 73
    6
 40
31.75
 49
12.7
 74
    0
 49
-6.35
 74
    0
 49
0
 74
    0
 49
-6.35
 74
    0
 49
0
 74
    0
 49
-6.35
 74
    0
  0
LTYPE
  5
3F
330
5
100
AcDbSymbolTableRecord
100
AcDbLinetypeTableRecord
  2
DIVIDETINY
 70
    0
  3
Divide (.15x) __..__..__..__..__..__..__..__.._
 72
   65
 73
    6
 40
4.7625
 49
1.905
 74
    0
 49
-0.9525
 74
    0
 49
0
 74
    0
 49
-0.9525
 74
    0
 49
0
 74
    0
 49
-0.9525
 74
    0
  0
LTYPE
  5
40
330
5
100
AcDbSymbolTableRecord
100
AcDbLinetypeTableRecord
  2
DIVIDE2
 70
    0
  3
Divide (.5x) __..__..__..__..__..__..__..__.._
 72
   65
 73
    6
 40
15.875
 49
6.35
 74
    0
 49
-3.175
 74
    0
 49
0
 74
    0
 49
-3.175
 74
    0
 49
0
 74
    0
 49
-3.175
 74
    0
  0
LTYPE
  5
41
330
5
100
AcDbSymbolTableRecord
100
AcDbLinetypeTableRecord
  2
DIVIDEX2
 70
    0
  3
Divide (2x) ________  .  .  ________  .  .  _
 72
   65
 73
    6
 40
63.5
 49
25.4
 74
    0
 49
-12.7
 74
    0
 49
0
 74
    0
 49
-12.7
 74
    0
 49
0
 74
    0
 49
-12.7
 74
    0
  0
LTYPE
  5
42
330
5
100
AcDbSymbolTableRecord
100
AcDbLinetypeTableRecord
  2
BORDER
 70
    0
  3
Border __ __ . __ __ . __ __ . __ __ . __ __ .
 72
   65
 73
    6
 40
44.45
 49
12.7
 74
    0
 49
-6.35
 74
    0
 49
12.7
 74
    0
 49
-6.35
 74
    0
 49
0
 74
    0
 49
-6.35
 74
    0
  0
LTYPE
  5
43
330
5
100
AcDbSymbolTableRecord
100
AcDbLinetypeTableRecord
  2
BORDERTINY
 70
    0
  3
Border (.15x) __.__.__.__.__.__.__.__.__.__.__.
 72
   65
 73
    6
 40
6.6675
 49
1.905
 74
    0
 49
-0.9525
 74
    0
 49
1.905
 74
    0
 49
-0.9525
 74
    0
 49
0
 74
    0
 49
-0.9525
 74
    0
  0
LTYPE
  5
44
330
5
100
AcDbSymbolTableRecord
100
AcDbLinetypeTableRecord
  2
BORDER2
 70
    0
  3
Border (.5x) __.__.__.__.__.__.__.__.__.__.__.
 72
   65
 73
    6
 40
22.225
 49
6.35
 74
    0
 49
-3.175
 74
    0
 49
6.35
 74
    0
 49
-3.175
 74
    0
 49
0
 74
    0
 49
-3.175
 74
    0
  0
LTYPE
  5
45
330
5
100
AcDbSymbolTableRecord
100
AcDbLinetypeTableRecord
  2
BORDERX2
 70
    0
  3
Border (2x) ____  ____  .  ____  ____  .  ___
 72
   65
 73
    6
 40
88.89999999999999
 49
25.4
 74
    0
 49
-12.7
 74
    0
 49
25.4
 74
    0
 49
-12.7
 74
    0
 49
0
 74
    0
 49
-12.7
 74
    0
  0
LTYPE
  5
46
330
5
100
AcDbSymbolTableRecord
100
AcDbLinetypeTableRecord
  2
CENTER
 70
    0
  3
Center ____ _ ____ _ ____ _ ____ _ ____ _ ____
 72
   65
 73
    4
 40
50.8
 49
31.75
 74
    0
 49
-6.35
 74
    0
 49
6.35
 74
    0
 49
-6.35
 74
    0
  0
LTYPE
  5
47
330
5
100
AcDbSymbolTableRecord
100
AcDbLinetypeTableRecord
  2
CENTERTINY
 70
    0
  3
Center (.15x) ___ _ ___ _ ___ _ ___ _ ___ _ ___
 72
   65
 73
    4
 40
7.619999999999999
 49
4.7625
 74
    0
 49
-0.9525
 74
    0
 49
0.9525
 74
    0
 49
-0.9525
 74
    0
  0
LTYPE
  5
48
330
5
100
AcDbSymbolTableRecord
100
AcDbLinetypeTableRecord
  2
CENTER2
 70
    0
  3
Center (.5x) ___ _ ___ _ ___ _ ___ _ ___ _ ___
 72
   65
 73
    4
 40
28.575
 49
19.05
 74
    0
 49
-3.175
 74
    0
 49
3.175
 74
    0
 49
-3.175
 74
    0
  0
LTYPE
  5
49
330
5
100
AcDbSymbolTableRecord
100
AcDbLinetypeTableRecord
  2
CENTERX2
 70
    0
  3
Center (2x) ________  __  ________  __  _____
 72
   65
 73
    4
 40
101.6
 49
63.5
 74
    0
 49
-12.7
 74
    0
 49
12.7
 74
    0
 49
-12.7
 74
    0
  0
ENDTAB
  0
TABLE
  2
LAYER
  5
2
330
0
100
AcDbSymbolTable
 70
    1
  0
LAYER
  5
10
330
2
100
AcDbSymbolTableRecord
100
AcDbLayerTableRecord
  2
0
 70
    0
 62
    7
  6
CONTINUOUS
370
   -3
390
F
  0
LAYER
  5
4A
330
2
100
AcDbSymbolTableRecord
100
AcDbLayerTableRecord
  2
L10D0
 70
    0
 62
    1
  6
CONTINUOUS
370
   -3
390
F
  0
ENDTAB
  0
TABLE
  2
STYLE
  5
3
330
0
100
AcDbSymbolTable
 70
    3
  0
STYLE
  5
4B
330
2
100
AcDbSymbolTableRecord
100
AcDbTextStyleTableRecord
  2
Standard
 70
    0
 40
0
 41
1
 50
0
 71
    0
 42
1
  3
txt
  4

  0
ENDTAB
  0
TABLE
  2
VIEW
  5
6
330
0
100
AcDbSymbolTable
 70
    0
  0
ENDTAB
  0
TABLE
  2
UCS
  5
7
330
0
100
AcDbSymbolTable
 70
    0
  0
ENDTAB
  0
TABLE
  2
APPID
  5
9
330
0
100
AcDbSymbolTable
 70
    1
  0
APPID
  5
12
330
9
100
AcDbSymbolTableRecord
100
AcDbRegAppTableRecord
  2
ACAD
 70
    0
  0
APPID
  5
4C
330
9
100
AcDbSymbolTableRecord
100
AcDbRegAppTableRecord
  2
LibreCad
 70
    0
  0
ENDTAB
  0
TABLE
  2
DIMSTYLE
  5
A
330
0
100
AcDbSymbolTable
 70
    1
100
AcDbDimStyleTable
 71
    1
  0
DIMSTYLE
105
4D
330
A
100
AcDbSymbolTableRecord
100
AcDbDimStyleTableRecord
  2
Standard
 70
    0
 40
0.0001
 41
2.5
 42
0.625
 43
0.38
 44
1.25
 45
0
 46
0
 47
0
 48
0
 49
1
140
2.5
141
0.09
142
0
143
25.4
144
1
145
0
146
1
147
0.625
148
0
 71
    0
 72
    0
 73
    0
 74
    1
 75
    0
 76
    0
 77
    0
 78
    1
 79
    0
170
    0
171
    2
172
    0
173
    0
174
    0
175
    0
176
    0
177
    0
178
    0
179
    0
271
    4
272
    4
273
    2
274
    2
275
    0
276
    0
277
    2
278
    0
279
    0
280
    0
281
    0
282
    0
283
    1
284
    0
285
    0
286
    0
288
    0
289
    3
340
standard
341

371
   -2
372
   -2
  0
ENDTAB
  0
TABLE
  2
BLOCK_RECORD
  5
1
330
0
100
AcDbSymbolTable
 70
    2
  0
BLOCK_RECORD
  5
1F
330
1
100
AcDbSymbolTableRecord
100
AcDbBlockTableRecord
  2
*Model_Space
 70
    0
280
    1
281
    0
  0
BLOCK_RECORD
  5
1E
330
1
100
AcDbSymbolTableRecord
100
AcDbBlockTableRecord
  2
*Paper_Space
 70
    0
280
    1
281
    0
  0
ENDTAB
  0
ENDSEC
  0
SECTION
  2
BLOCKS
  0
BLOCK
  5
20
330
1F
100
AcDbEntity
  8
0
100
AcDbBlockBegin
  2
*Model_Space
 70
    0
 10
0
 20
0
 30
0
  3
*Model_Space
  1

  0
ENDBLK
  5
21
330
1F
100
AcDbEntity
  8
0
100
AcDbBlockEnd
  0
BLOCK
  5
1C
330
1B
100
AcDbEntity
  8
0
100
AcDbBlockBegin
  2
*Paper_Space
 70
    0
 10
0
 20
0
 30
0
  3
*Paper_Space
  1

  0
ENDBLK
  5
1D
330
1F
100
AcDbEntity
  8
0
100
AcDbBlockEnd
  0
ENDSEC
  0
SECTION
  2
ENTITIES
  0
LWPOLYLINE
  5
4E
100
AcDbEntity
  8
L10D0
  6
ByLayer
 62
  256
370
   -1
100
AcDbPolyline
 90
  952
 70
    1
 43
0
 10
7300
 20
-3250
 10
7300
 20
-3240
 10
7290
 20
-3240
 10
7290
 20
-3230
 10
7280
 20
-3230
 10
7280
 20
-3220
 10
7250
 20
-3220
 10
7250
 20
-3210
 10
7210
 20
-3210
 10
7210
 20
-3200
 10
7200
 20
-3200
 10
7200
 20
-3190
 10
7190
 20
-3190
 10
7190
 20
-3180
 10
7180
 20
-3180
 10
7180
 20
-3160
 10
7170
 20
-3160
 10
7170
 20
-3110
 10
7160
 20
-3110
 10
7160
 20
-3070
 10
7150
 20
-3070
 10
7150
 20
-3030
 10
7140
 20
-3030
 10
7140
 20
-3020
 10
7130
 20
-3020
 10
7130
 20
-3000
 10
7120
 20
-3000
 10
7120
 20
-2980
 10
7110
 20
-2980
 10
7110
 20
-2970
 10
7100
 20
-2970
 10
7100
 20
-2950
 10
7090
 20
-2950
 10
7090
 20
-2940
 10
7080
 20
-2940
 10
7080
 20
-2920
 10
7070
 20
-2920
 10
7070
 20
-2420
 10
7080
 20
-2420
 10
7080
 20
-2470
 10
7090
 20
-2470
 10
7090
 20
-2500
 10
7100
 20
-2500
 10
7100
 20
-2510
 10
7110
 20
-2510
 10
7110
 20
-2530
 10
7120
 20
-2530
 10
7120
 20
-2540
 10
7130
 20
-2540
 10
7130
 20
-2550
 10
7150
 20
-2550
 10
7150
 20
-2560
 10
7160
 20
-2560
 10
7160
 20
-2570
 10
7180
 20
-2570
 10
7180
 20
-2580
 10
7190
 20
-2580
 10
7190
 20
-2590
 10
7250
 20
-2590
 10
7250
 20
-2600
 10
7270
 20
-2600
 10
7270
 20
-2590
 10
7320
 20
-2590
 10
7320
 20
-2580
 10
7350
 20
-2580
 10
7350
 20
-2570
 10
7370
 20
-2570
 10
7370
 20
-2560
 10
7380
 20
-2560
 10
7380
 20
-2550
 10
7390
 20
-2550
 10
7390
 20
-2540
 10
7400
 20
-2540
 10
7400
 20
-2520
 10
7410
 20
-2520
 10
7410
 20
-2510
 10
7420
 20
-2510
 10
7420
 20
-2490
 10
7430
 20
-2490
 10
7430
 20
-2470
 10
7440
 20
-2470
 10
7440
 20
-2360
 10
7430
 20
-2360
 10
7430
 20
-2340
 10
7420
 20
-2340
 10
7420
 20
-2310
 10
7410
 20
-2310
 10
7410
 20
-2300
 10
7400
 20
-2300
 10
7400
 20
-2290
 10
7390
 20
-2290
 10
7390
 20
-2280
 10
7380
 20
-2280
 10
7380
 20
-2270
 10
7370
 20
-2270
 10
7370
 20
-2260
 10
7350
 20
-2260
 10
7350
 20
-2250
 10
7330
 20
-2250
 10
7330
 20
-2240
 10
7300
 20
-2240
 10
7300
 20
-2230
 10
7280
 20
-2230
 10
7280
 20
-2240
 10
7270
 20
-2240
 10
7270
 20
-2230
 10
7220
 20
-2230
 10
7220
 20
-2240
 10
7180
 20
-2240
 10
7180
 20
-2250
 10
7160
 20
-2250
 10
7160
 20
-2260
 10
7150
 20
-2260
 10
7150
 20
-2270
 10
7140
 20
-2270
 10
7140
 20
-2280
 10
7130
 20
-2280
 10
7130
 20
-2290
 10
7120
 20
-2290
 10
7120
 20
-2300
 10
7110
 20
-2300
 10
7110
 20
-2310
 10
7100
 20
-2310
 10
7100
 20
-2330
 10
7090
 20
-2330
 10
7090
 20
-2360
 10
7080
 20
-2360
 10
7080
 20
-2400
 10
7070
 20
-2400
 10
7070
 20
-2910
 10
7060
 20
-2910
 10
7060
 20
-2900
 10
7050
 20
-2900
 10
7050
 20
-2890
 10
7040
 20
-2890
 10
7040
 20
-2880
 10
7030
 20
-2880
 10
7030
 20
-2870
 10
7020
 20
-2870
 10
7020
 20
-2860
 10
7010
 20
-2860
 10
7010
 20
-2850
 10
7000
 20
-2850
 10
7000
 20
-2840
 10
6990
 20
-2840
 10
6990
 20
-2830
 10
6980
 20
-2830
 10
6980
 20
-2820
 10
6970
 20
-2820
 10
6970
 20
-2810
 10
6960
 20
-2810
 10
6960
 20
-2800
 10
6950
 20
-2800
 10
6950
 20
-2790
 10
6940
 20
-2790
 10
6940
 20
-2780
 10
6930
 20
-2780
 10
6930
 20
-2770
 10
6920
 20
-2770
 10
6920
 20
-2750
 10
6910
 20
-2750
 10
6910
 20
-2740
 10
6890
 20
-2740
 10
6890
 20
-2730
 10
6880
 20
-2730
 10
6880
 20
-2710
 10
6870
 20
-2710
 10
6870
 20
-2700
 10
6860
 20
-2700
 10
6860
 20
-2690
 10
6850
 20
-2690
 10
6850
 20
-2680
 10
6840
 20
-2680
 10
6840
 20
-2670
 10
6830
 20
-2670
 10
6830
 20
-2650
 10
6820
 20
-2650
 10
6820
 20
-2640
 10
6810
 20
-2640
 10
6810
 20
-2620
 10
6800
 20
-2620
 10
6800
 20
-2580
 10
6790
 20
-2580
 10
6790
 20
-2540
 10
6780
 20
-2540
 10
6780
 20
-2300
 10
6790
 20
-2300
 10
6790
 20
-2250
 10
6800
 20
-2250
 10
6800
 20
-2230
 10
6810
 20
-2230
 10
6810
 20
-2200
 10
6820
 20
-2200
 10
6820
 20
-2180
 10
6830
 20
-2180
 10
6830
 20
-2160
 10
6840
 20
-2160
 10
6840
 20
-2150
 10
6850
 20
-2150
 10
6850
 20
-2140
 10
6860
 20
-2140
 10
6860
 20
-2120
 10
6870
 20
-2120
 10
6870
 20
-2110
 10
6880
 20
-2110
 10
6880
 20
-2100
 10
6890
 20
-2100
 10
6890
 20
-2090
 10
6900
 20
-2090
 10
6900
 20
-2080
 10
6910
 20
-2080
 10
6910
 20
-2070
 10
6920
 20
-2070
 10
6920
 20
-2060
 10
6930
 20
-2060
 10
6930
 20
-2050
 10
6940
 20
-2050
 10
6940
 20
-2040
 10
6950
 20
-2040
 10
6950
 20
-2030
 10
6960
 20
-2030
 10
6960
 20
-2020
 10
6970
 20
-2020
 10
6970
 20
-2010
 10
6990
 20
-2010
 10
6990
 20
-2000
 10
7000
 20
-2000
 10
7000
 20
-1990
 10
7010
 20
-1990
 10
7010
 20
-1980
 10
7020
 20
-1980
 10
7020
 20
-1970
 10
7040
 20
-1970
 10
7040
 20
-1960
 10
7060
 20
-1960
 10
7060
 20
-1950
 10
7080
 20
-1950
 10
7080
 20
-1940
 10
7120
 20
-1940
 10
7120
 20
-1930
 10
7140
 20
-1930
 10
7140
 20
-1920
 10
7200
 20
-1920
 10
7200
 20
-1910
 10
7320
 20
-1910
 10
7320
 20
-1900
 10
7430
 20
-1900
 10
7430
 20
-1890
 10
7470
 20
-1890
 10
7470
 20
-1880
 10
7500
 20
-1880
 10
7500
 20
-1870
 10
7520
 20
-1870
 10
7520
 20
-1860
 10
7550
 20
-1860
 10
7550
 20
-1850
 10
7560
 20
-1850
 10
7560
 20
-1840
 10
7580
 20
-1840
 10
7580
 20
-1830
 10
7590
 20
-1830
 10
7590
 20
-1820
 10
7610
 20
-1820
 10
7610
 20
-1810
 10
7620
 20
-1810
 10
7620
 20
-1800
 10
7630
 20
-1800
 10
7630
 20
-1790
 10
7650
 20
-1790
 10
7650
 20
-1780
 10
7660
 20
-1780
 10
7660
 20
-1770
 10
7680
 20
-1770
 10
7680
 20
-1760
 10
7690
 20
-1760
 10
7690
 20
-1750
 10
7700
 20
-1750
 10
7700
 20
-1740
 10
7720
 20
-1740
 10
7720
 20
-1730
 10
7730
 20
-1730
 10
7730
 20
-1720
 10
7750
 20
-1720
 10
7750
 20
-1710
 10
7760
 20
-1710
 10
7760
 20
-1700
 10
7770
 20
-1700
 10
7770
 20
-1690
 10
7780
 20
-1690
 10
7780
 20
-1680
 10
7800
 20
-1680
 10
7800
 20
-1670
 10
7810
 20
-1670
 10
7810
 20
-1660
 10
7830
 20
-1660
 10
7830
 20
-1650
 10
7840
 20
-1650
 10
7840
 20
-1640
 10
7850
 20
-1640
 10
7850
 20
-1630
 10
7860
 20
-1630
 10
7860
 20
-1620
 10
7880
 20
-1620
 10
7880
 20
-1610
 10
7890
 20
-1610
 10
7890
 20
-1600
 10
7900
 20
-1600
 10
7900
 20
-1590
 10
7920
 20
-1590
 10
7920
 20
-1580
 10
7930
 20
-1580
 10
7930
 20
-1570
 10
7940
 20
-1570
 10
7940
 20
-1560
 10
7960
 20
-1560
 10
7960
 20
-1550
 10
7970
 20
-1550
 10
7970
 20
-1540
 10
7990
 20
-1540
 10
7990
 20
-1530
 10
8000
 20
-1530
 10
8000
 20
-1520
 10
8010
 20
-1520
 10
8010
 20
-1510
 10
8030
 20
-1510
 10
8030
 20
-1500
 10
8040
 20
-1500
 10
8040
 20
-1490
 10
8050
 20
-1490
 10
8050
 20
-1480
 10
8060
 20
-1480
 10
8060
 20
-1470
 10
8070
 20
-1470
 10
8070
 20
-1460
 10
8090
 20
-1460
 10
8090
 20
-1450
 10
8100
 20
-1450
 10
8100
 20
-1440
 10
8120
 20
-1440
 10
8120
 20
-1430
 10
8140
 20
-1430
 10
8140
 20
-1420
 10
8150
 20
-1420
 10
8150
 20
-1410
 10
8160
 20
-1410
 10
8160
 20
-1400
 10
8170
 20
-1400
 10
8170
 20
-1390
 10
8180
 20
-1390
 10
8180
 20
-1380
 10
8200
 20
-1380
 10
8200
 20
-1370
 10
8210
 20
-1370
 10
8210
 20
-1360
 10
8220
 20
-1360
 10
8220
 20
-1350
 10
8240
 20
-1350
 10
8240
 20
-1340
 10
8260
 20
-1340
 10
8260
 20
-1330
 10
8270
 20
-1330
 10
8270
 20
-1320
 10
8280
 20
-1320
 10
8280
 20
-1310
 10
8290
 20
-1310
 10
8290
 20
-1300
 10
8300
 20
-1300
 10
8300
 20
-1290
 10
8320
 20
-1290
 10
8320
 20
-1280
 10
8340
 20
-1280
 10
8340
 20
-1270
 10
8350
 20
-1270
 10
8350
 20
-1260
 10
8360
 20
-1260
 10
8360
 20
-1250
 10
8370
 20
-1250
 10
8370
 20
-1240
 10
8390
 20
-1240
 10
8390
 20
-1230
 10
8400
 20
-1230
 10
8400
 20
-1220
 10
8410
 20
-1220
 10
8410
 20
-1210
 10
8430
 20
-1210
 10
8430
 20
-1200
 10
8440
 20
-1200
 10
8440
 20
-1190
 10
8460
 20
-1190
 10
8460
 20
-1180
 10
8470
 20
-1180
 10
8470
 20
-1170
 10
8480
 20
-1170
 10
8480
 20
-1160
 10
8500
 20
-1160
 10
8500
 20
-1150
 10
8510
 20
-1150
 10
8510
 20
-1140
 10
8520
 20
-1140
 10
8520
 20
-1130
 10
8540
 20
-1130
 10
8540
 20
-1120
 10
8550
 20
-1120
 10
8550
 20
-1110
 10
8570
 20
-1110
 10
8570
 20
-1100
 10
8580
 20
-1100
 10
8580
 20
-1090
 10
8590
 20
-1090
 10
8590
 20
-1080
 10
8610
 20
-1080
 10
8610
 20
-1070
 10
8630
 20
-1070
 10
8630
 20
-1060
 10
8660
 20
-1060
 10
8660
 20
-1050
 10
8680
 20
-1050
 10
8680
 20
-1040
 10
8710
 20
-1040
 10
8710
 20
-1030
 10
8740
 20
-1030
 10
8740
 20
-1020
 10
8810
 20
-1020
 10
8810
 20
-1010
 10
10740
 20
-1010
 10
10740
 20
-1020
 10
10750
 20
-1020
 10
10750
 20
-1010
 10
10770
 20
-1010
 10
10770
 20
-1020
 10
10930
 20
-1020
 10
10930
 20
-1030
 10
11280
 20
-1030
 10
11280
 20
-1020
 10
11290
 20
-1020
 10
11290
 20
-1030
 10
11300
 20
-1030
 10
11300
 20
-1020
 10
11430
 20
-1020
 10
11430
 20
-1010
 10
11440
 20
-1010
 10
11440
 20
-1000
 10
11450
 20
-1000
 10
11450
 20
-990
 10
11470
 20
-990
 10
11470
 20
-980
 10
11480
 20
-980
 10
11480
 20
-970
 10
11490
 20
-970
 10
11490
 20
-960
 10
11510
 20
-960
 10
11510
 20
-950
 10
11540
 20
-950
 10
11540
 20
-940
 10
11600
 20
-940
 10
11600
 20
-930
 10
11650
 20
-930
 10
11650
 20
-920
 10
11800
 20
-920
 10
11800
 20
-930
 10
11820
 20
-930
 10
11820
 20
-940
 10
11830
 20
-940
 10
11830
 20
-950
 10
11870
 20
-950
 10
11870
 20
-960
 10
12050
 20
-960
 10
12050
 20
-950
 10
12380
 20
-950
 10
12380
 20
-940
 10
12400
 20
-940
 10
12400
 20
-950
 10
12410
 20
-950
 10
12410
 20
-940
 10
12420
 20
-940
 10
12420
 20
-950
 10
12460
 20
-950
 10
12460
 20
-940
 10
12610
 20
-940
 10
12610
 20
-950
 10
12820
 20
-950
 10
12820
 20
-960
 10
12830
 20
-960
 10
12830
 20
-970
 10
12840
 20
-970
 10
12840
 20
-980
 10
12850
 20
-980
 10
12850
 20
-1030
 10
12840
 20
-1030
 10
12840
 20
-1400
 10
12830
 20
-1400
 10
12830
 20
-1410
 10
12820
 20
-1410
 10
12820
 20
-1420
 10
12650
 20
-1420
 10
12650
 20
-1430
 10
12440
 20
-1430
 10
12440
 20
-1420
 10
12190
 20
-1420
 10
12190
 20
-1410
 10
12140
 20
-1410
 10
12140
 20
-1420
 10
11900
 20
-1420
 10
11900
 20
-1430
 10
11860
 20
-1430
 10
11860
 20
-1440
 10
11840
 20
-1440
 10
11840
 20
-1450
 10
11830
 20
-1450
 10
11830
 20
-1460
 10
11820
 20
-1460
 10
11820
 20
-1470
 10
11810
 20
-1470
 10
11810
 20
-1480
 10
11790
 20
-1480
 10
11790
 20
-1490
 10
11770
 20
-1490
 10
11770
 20
-1500
 10
11720
 20
-1500
 10
11720
 20
-1510
 10
11470
 20
-1510
 10
11470
 20
-1500
 10
11450
 20
-1500
 10
11450
 20
-1490
 10
11430
 20
-1490
 10
11430
 20
-1480
 10
11270
 20
-1480
 10
11270
 20
-1490
 10
10800
 20
-1490
 10
10800
 20
-1500
 10
10670
 20
-1500
 10
10670
 20
-1510
 10
10640
 20
-1510
 10
10640
 20
-1520
 10
10620
 20
-1520
 10
10620
 20
-1530
 10
10600
 20
-1530
 10
10600
 20
-1540
 10
10590
 20
-1540
 10
10590
 20
-1550
 10
10580
 20
-1550
 10
10580
 20
-1560
 10
10570
 20
-1560
 10
10570
 20
-1570
 10
10560
 20
-1570
 10
10560
 20
-1580
 10
10550
 20
-1580
 10
10550
 20
-1590
 10
10540
 20
-1590
 10
10540
 20
-1620
 10
10530
 20
-1620
 10
10530
 20
-1650
 10
10520
 20
-1650
 10
10520
 20
-1690
 10
10510
 20
-1690
 10
10510
 20
-1750
 10
10500
 20
-1750
 10
10500
 20
-1820
 10
10490
 20
-1820
 10
10490
 20
-1840
 10
10480
 20
-1840
 10
10480
 20
-1860
 10
10470
 20
-1860
 10
10470
 20
-1870
 10
10460
 20
-1870
 10
10460
 20
-1880
 10
10440
 20
-1880
 10
10440
 20
-1890
 10
10370
 20
-1890
 10
10370
 20
-1900
 10
10250
 20
-1900
 10
10250
 20
-1910
 10
9700
 20
-1910
 10
9700
 20
-1490
 10
9710
 20
-1490
 10
9710
 20
-1520
 10
9720
 20
-1520
 10
9720
 20
-1550
 10
9730
 20
-1550
 10
9730
 20
-1560
 10
9740
 20
-1560
 10
9740
 20
-1580
 10
9760
 20
-1580
 10
9760
 20
-1590
 10
9770
 20
-1590
 10
9770
 20
-1600
 10
9780
 20
-1600
 10
9780
 20
-1610
 10
9800
 20
-1610
 10
9800
 20
-1620
 10
9820
 20
-1620
 10
9820
 20
-1630
 10
9850
 20
-1630
 10
9850
 20
-1640
 10
9880
 20
-1640
 10
9880
 20
-1650
 10
10110
 20
-1650
 10
10110
 20
-1640
 10
10150
 20
-1640
 10
10150
 20
-1630
 10
10180
 20
-1630
 10
10180
 20
-1620
 10
10200
 20
-1620
 10
10200
 20
-1610
 10
10220
 20
-1610
 10
10220
 20
-1600
 10
10230
 20
-1600
 10
10230
 20
-1590
 10
10240
 20
-1590
 10
10240
 20
-1580
 10
10250
 20
-1580
 10
10250
 20
-1570
 10
10260
 20
-1570
 10
10260
 20
-1560
 10
10270
 20
-1560
 10
10270
 20
-1540
 10
10280
 20
-1540
 10
10280
 20
-1510
 10
10290
 20
-1510
 10
10290
 20
-1470
 10
10300
 20
-1470
 10
10300
 20
-1460
 10
10290
 20
-1460
 10
10290
 20
-1410
 10
10280
 20
-1410
 10
10280
 20
-1380
 10
10270
 20
-1380
 10
10270
 20
-1370
 10
10260
 20
-1370
 10
10260
 20
-1350
 10
10250
 20
-1350
 10
10250
 20
-1340
 10
10240
 20
-1340
 10
10240
 20
-1330
 10
10230
 20
-1330
 10
10230
 20
-1320
 10
10220
 20
-1320
 10
10220
 20
-1310
 10
10200
 20
-1310
 10
10200
 20
-1300
 10
10180
 20
-1300
 10
10180
 20
-1290
 10
10150
 20
-1290
 10
10150
 20
-1280
 10
10110
 20
-1280
 10
10110
 20
-1270
 10
9880
 20
-1270
 10
9880
 20
-1280
 10
9850
 20
-1280
 10
9850
 20
-1290
 10
9820
 20
-1290
 10
9820
 20
-1300
 10
9800
 20
-1300
 10
9800
 20
-1310
 10
9780
 20
-1310
 10
9780
 20
-1320
 10
9770
 20
-1320
 10
9770
 20
-1330
 10
9760
 20
-1330
 10
9760
 20
-1340
 10
9750
 20
-1340
 10
9750
 20
-1350
 10
9740
 20
-1350
 10
9740
 20
-1360
 10
9730
 20
-1360
 10
9730
 20
-1380
 10
9720
 20
-1380
 10
9720
 20
-1400
 10
9710
 20
-1400
 10
9710
 20
-1440
 10
9700
 20
-1440
 10
9700
 20
-1910
 10
8740
 20
-1910
 10
8740
 20
-1900
 10
8590
 20
-1900
 10
8590
 20
-1490
 10
8600
 20
-1490
 10
8600
 20
-1520
 10
8610
 20
-1520
 10
8610
 20
-1540
 10
8620
 20
-1540
 10
8620
 20
-1560
 10
8630
 20
-1560
 10
8630
 20
-1570
 10
8640
 20
-1570
 10
8640
 20
-1580
 10
8650
 20
-1580
 10
8650
 20
-1590
 10
8660
 20
-1590
 10
8660
 20
-1600
 10
8680
 20
-1600
 10
8680
 20
-1610
 10
8690
 20
-1610
 10
8690
 20
-1620
 10
8720
 20
-1620
 10
8720
 20
-1630
 10
8750
 20
-1630
 10
8750
 20
-1640
 10
8820
 20
-1640
 10
8820
 20
-1650
 10
8880
 20
-1650
 10
8880
 20
-1640
 10
8890
 20
-1640
 10
8890
 20
-1650
 10
8960
 20
-1650
 10
8960
 20
-1640
 10
9020
 20
-1640
 10
9020
 20
-1630
 10
9060
 20
-1630
 10
9060
 20
-1620
 10
9080
 20
-1620
 10
9080
 20
-1610
 10
9100
 20
-1610
 10
9100
 20
-1600
 10
9110
 20
-1600
 10
9110
 20
-1590
 10
9130
 20
-1590
 10
9130
 20
-1580
 10
9140
 20
-1580
 10
9140
 20
-1570
 10
9150
 20
-1570
 10
9150
 20
-1550
 10
9160
 20
-1550
 10
9160
 20
-1530
 10
9170
 20
-1530
 10
9170
 20
-1510
 10
9180
 20
-1510
 10
9180
 20
-1410
 10
9170
 20
-1410
 10
9170
 20
-1380
 10
9160
 20
-1380
 10
9160
 20
-1370
 10
9150
 20
-1370
 10
9150
 20
-1350
 10
9140
 20
-1350
 10
9140
 20
-1340
 10
9130
 20
-1340
 10
9130
 20
-1330
 10
9120
 20
-1330
 10
9120
 20
-1320
 10
9110
 20
-1320
 10
9110
 20
-1310
 10
9090
 20
-1310
 10
9090
 20
-1300
 10
9070
 20
-1300
 10
9070
 20
-1290
 10
9050
 20
-1290
 10
9050
 20
-1280
 10
9010
 20
-1280
 10
9010
 20
-1270
 10
8920
 20
-1270
 10
8920
 20
-1260
 10
8890
 20
-1260
 10
8890
 20
-1270
 10
8880
 20
-1270
 10
8880
 20
-1260
 10
8860
 20
-1260
 10
8860
 20
-1270
 10
8760
 20
-1270
 10
8760
 20
-1280
 10
8720
 20
-1280
 10
8720
 20
-1290
 10
8700
 20
-1290
 10
8700
 20
-1300
 10
8680
 20
-1300
 10
8680
 20
-1310
 10
8670
 20
-1310
 10
8670
 20
-1320
 10
8660
 20
-1320
 10
8660
 20
-1330
 10
8650
 20
-1330
 10
8650
 20
-1340
 10
8640
 20
-1340
 10
8640
 20
-1350
 10
8630
 20
-1350
 10
8630
 20
-1360
 10
8620
 20
-1360
 10
8620
 20
-1370
 10
8610
 20
-1370
 10
8610
 20
-1390
 10
8600
 20
-1390
 10
8600
 20
-1420
 10
8590
 20
-1420
 10
8590
 20
-1900
 10
8480
 20
-1900
 10
8480
 20
-1910
 10
8430
 20
-1910
 10
8430
 20
-1920
 10
8390
 20
-1920
 10
8390
 20
-1930
 10
8380
 20
-1930
 10
8380
 20
-1940
 10
8350
 20
-1940
 10
8350
 20
-1950
 10
8340
 20
-1950
 10
8340
 20
-1960
 10
8320
 20
-1960
 10
8320
 20
-1970
 10
8300
 20
-1970
 10
8300
 20
-1980
 10
8290
 20
-1980
 10
8290
 20
-1990
 10
8270
 20
-1990
 10
8270
 20
-2000
 10
8260
 20
-2000
 10
8260
 20
-2010
 10
8250
 20
-2010
 10
8250
 20
-2020
 10
8240
 20
-2020
 10
8240
 20
-2030
 10
8220
 20
-2030
 10
8220
 20
-2040
 10
8210
 20
-2040
 10
8210
 20
-2050
 10
8190
 20
-2050
 10
8190
 20
-2060
 10
8180
 20
-2060
 10
8180
 20
-2070
 10
8170
 20
-2070
 10
8170
 20
-2080
 10
8160
 20
-2080
 10
8160
 20
-2090
 10
8140
 20
-2090
 10
8140
 20
-2100
 10
8130
 20
-2100
 10
8130
 20
-2110
 10
8110
 20
-2110
 10
8110
 20
-2120
 10
8100
 20
-2120
 10
8100
 20
-2130
 10
8090
 20
-2130
 10
8090
 20
-2140
 10
8070
 20
-2140
 10
8070
 20
-2150
 10
8060
 20
-2150
 10
8060
 20
-2160
 10
8050
 20
-2160
 10
8050
 20
-2170
 10
8040
 20
-2170
 10
8040
 20
-2180
 10
8020
 20
-2180
 10
8020
 20
-2190
 10
8010
 20
-2190
 10
8010
 20
-2200
 10
7990
 20
-2200
 10
7990
 20
-2210
 10
7980
 20
-2210
 10
7980
 20
-2220
 10
7970
 20
-2220
 10
7970
 20
-2230
 10
7950
 20
-2230
 10
7950
 20
-2240
 10
7940
 20
-2240
 10
7940
 20
-2250
 10
7930
 20
-2250
 10
7930
 20
-2260
 10
7910
 20
-2260
 10
7910
 20
-2270
 10
7900
 20
-2270
 10
7900
 20
-2280
 10
7890
 20
-2280
 10
7890
 20
-2290
 10
7880
 20
-2290
 10
7880
 20
-2300
 10
7870
 20
-2300
 10
7870
 20
-2310
 10
7860
 20
-2310
 10
7860
 20
-2320
 10
7840
 20
-2320
 10
7840
 20
-2330
 10
7830
 20
-2330
 10
7830
 20
-2340
 10
7820
 20
-2340
 10
7820
 20
-2350
 10
7810
 20
-2350
 10
7810
 20
-2360
 10
7800
 20
-2360
 10
7800
 20
-2370
 10
7790
 20
-2370
 10
7790
 20
-2380
 10
7780
 20
-2380
 10
7780
 20
-2400
 10
7770
 20
-2400
 10
7770
 20
-2420
 10
7760
 20
-2420
 10
7760
 20
-2440
 10
7750
 20
-2440
 10
7750
 20
-2490
 10
7740
 20
-2490
 10
7740
 20
-2530
 10
7730
 20
-2530
 10
7730
 20
-2570
 10
7720
 20
-2570
 10
7720
 20
-2610
 10
7710
 20
-2610
 10
7710
 20
-2630
 10
7700
 20
-2630
 10
7700
 20
-2650
 10
7690
 20
-2650
 10
7690
 20
-2670
 10
7680
 20
-2670
 10
7680
 20
-2690
 10
7670
 20
-2690
 10
7670
 20
-2700
 10
7660
 20
-2700
 10
7660
 20
-2710
 10
7650
 20
-2710
 10
7650
 20
-2720
 10
7640
 20
-2720
 10
7640
 20
-2740
 10
7630
 20
-2740
 10
7630
 20
-2760
 10
7620
 20
-2760
 10
7620
 20
-2790
 10
7610
 20
-2790
 10
7610
 20
-2820
 10
7600
 20
-2820
 10
7600
 20
-2870
 10
7590
 20
-2870
 10
7590
 20
-3040
 10
7580
 20
-3040
 10
7580
 20
-3170
 10
7570
 20
-3170
 10
7570
 20
-3190
 10
7560
 20
-3190
 10
7560
 20
-3200
 10
7550
 20
-3200
 10
7550
 20
-3210
 10
7530
 20
-3210
 10
7530
 20
-3220
 10
7490
 20
-3220
 10
7490
 20
-3230
 10
7480
 20
-3230
 10
7480
 20
-3240
 10
7460
 20
-3240
 10
7460
 20
-3250
 10
7450
 20
-3250
 10
7450
 20
-3240
 10
7430
 20
-3240
 10
7430
 20
-3230
 10
7410
 20
-3230
 10
7410
 20
-3220
 10
7360
 20
-3220
 10
7360
 20
-3230
 10
7340
 20
-3230
 10
7340
 20
-3240
 10
7330
 20
-3240
 10
7330
 20
-3250
 10
7320
 20
-3250
 10
7320
 20
-3240
 10
7310
 20
-3240
 10
7310
 20
-3250
  0
LWPOLYLINE
  5
4F
100
AcDbEntity
  8
L10D0
  6
ByLayer
 62
  256
370
   -1
100
AcDbPolyline
 90
 1594
 70
    1
 43
0
 10
12380
 20
-12400
 10
12380
 20
-12390
 10
12240
 20
-12390
 10
12240
 20
-12380
 10
12050
 20
-12380
 10
12050
 20
-12370
 10
11820
 20
-12370
 10
11820
 20
-12380
 10
11790
 20
-12380
 10
11790
 20
-12390
 10
11670
 20
-12390
 10
11670
 20
-12380
 10
11630
 20
-12380
 10
11630
 20
-12370
 10
11580
 20
-12370
 10
11580
 20
-12360
 10
11530
 20
-12360
 10
11530
 20
-12350
 10
11490
 20
-12350
 10
11490
 20
-12340
 10
11470
 20
-12340
 10
11470
 20
-12330
 10
11460
 20
-12330
 10
11460
 20
-12320
 10
11440
 20
-12320
 10
11440
 20
-12300
 10
11430
 20
-12300
 10
11430
 20
-12290
 10
11410
 20
-12290
 10
11410
 20
-12280
 10
11320
 20
-12280
 10
11320
 20
-12270
 10
11000
 20
-12270
 10
11000
 20
-12260
 10
10940
 20
-12260
 10
10940
 20
-12270
 10
10120
 20
-12270
 10
10120
 20
-12260
 10
9680
 20
-12260
 10
9680
 20
-11830
 10
9690
 20
-11830
 10
9690
 20
-11870
 10
9700
 20
-11870
 10
9700
 20
-11880
 10
9710
 20
-11880
 10
9710
 20
-11900
 10
9720
 20
-11900
 10
9720
 20
-11910
 10
9730
 20
-11910
 10
9730
 20
-11920
 10
9740
 20
-11920
 10
9740
 20
-11930
 10
9750
 20
-11930
 10
9750
 20
-11940
 10
9760
 20
-11940
 10
9760
 20
-11950
 10
9770
 20
-11950
 10
9770
 20
-11960
 10
9790
 20
-11960
 10
9790
 20
-11970
 10
9820
 20
-11970
 10
9820
 20
-11980
 10
9850
 20
-11980
 10
9850
 20
-11990
 10
9980
 20
-11990
 10
9980
 20
-12000
 10
10010
 20
-12000
 10
10010
 20
-11990
 10
10110
 20
-11990
 10
10110
 20
-11980
 10
10140
 20
-11980
 10
10140
 20
-11970
 10
10160
 20
-11970
 10
10160
 20
-11960
 10
10190
 20
-11960
 10
10190
 20
-11950
 10
10200
 20
-11950
 10
10200
 20
-11940
 10
10210
 20
-11940
 10
10210
 20
-11930
 10
10220
 20
-11930
 10
10220
 20
-11920
 10
10230
 20
-11920
 10
10230
 20
-11910
 10
10240
 20
-11910
 10
10240
 20
-11900
 10
10250
 20
-11900
 10
10250
 20
-11880
 10
10260
 20
-11880
 10
10260
 20
-11860
 10
10270
 20
-11860
 10
10270
 20
-11750
 10
10260
 20
-11750
 10
10260
 20
-11720
 10
10250
 20
-11720
 10
10250
 20
-11700
 10
10240
 20
-11700
 10
10240
 20
-11690
 10
10230
 20
-11690
 10
10230
 20
-11680
 10
10220
 20
-11680
 10
10220
 20
-11670
 10
10210
 20
-11670
 10
10210
 20
-11660
 10
10200
 20
-11660
 10
10200
 20
-11650
 10
10190
 20
-11650
 10
10190
 20
-11640
 10
10170
 20
-11640
 10
10170
 20
-11630
 10
10150
 20
-11630
 10
10150
 20
-11620
 10
10110
 20
-11620
 10
10110
 20
-11610
 10
10020
 20
-11610
 10
10020
 20
-11600
 10
9950
 20
-11600
 10
9950
 20
-11610
 10
9830
 20
-11610
 10
9830
 20
-11620
 10
9800
 20
-11620
 10
9800
 20
-11630
 10
9780
 20
-11630
 10
9780
 20
-11640
 10
9760
 20
-11640
 10
9760
 20
-11650
 10
9750
 20
-11650
 10
9750
 20
-11660
 10
9740
 20
-11660
 10
9740
 20
-11670
 10
9730
 20
-11670
 10
9730
 20
-11680
 10
9720
 20
-11680
 10
9720
 20
-11690
 10
9710
 20
-11690
 10
9710
 20
-11710
 10
9700
 20
-11710
 10
9700
 20
-11730
 10
9690
 20
-11730
 10
9690
 20
-11760
 10
9680
 20
-11760
 10
9680
 20
-12260
 10
9300
 20
-12260
 10
9300
 20
-12250
 10
9280
 20
-12250
 10
9280
 20
-12260
 10
9160
 20
-12260
 10
9160
 20
-12250
 10
9140
 20
-12250
 10
9140
 20
-12260
 10
9080
 20
-12260
 10
9080
 20
-12250
 10
9050
 20
-12250
 10
9050
 20
-12260
 10
9020
 20
-12260
 10
9020
 20
-12250
 10
8730
 20
-12250
 10
8730
 20
-12240
 10
8660
 20
-12240
 10
8660
 20
-12230
 10
8630
 20
-12230
 10
8630
 20
-12220
 10
8610
 20
-12220
 10
8610
 20
-12210
 10
8580
 20
-12210
 10
8580
 20
-12200
 10
8570
 20
-12200
 10
8570
 20
-11830
 10
8580
 20
-11830
 10
8580
 20
-11860
 10
8590
 20
-11860
 10
8590
 20
-11880
 10
8600
 20
-11880
 10
8600
 20
-11890
 10
8610
 20
-11890
 10
8610
 20
-11900
 10
8620
 20
-11900
 10
8620
 20
-11910
 10
8630
 20
-11910
 10
8630
 20
-11920
 10
8640
 20
-11920
 10
8640
 20
-11930
 10
8650
 20
-11930
 10
8650
 20
-11940
 10
8660
 20
-11940
 10
8660
 20
-11950
 10
8680
 20
-11950
 10
8680
 20
-11960
 10
8710
 20
-11960
 10
8710
 20
-11970
 10
8730
 20
-11970
 10
8730
 20
-11980
 10
8890
 20
-11980
 10
8890
 20
-11990
 10
8900
 20
-11990
 10
8900
 20
-11980
 10
9000
 20
-11980
 10
9000
 20
-11970
 10
9030
 20
-11970
 10
9030
 20
-11960
 10
9050
 20
-11960
 10
9050
 20
-11950
 10
9070
 20
-11950
 10
9070
 20
-11940
 10
9080
 20
-11940
 10
9080
 20
-11930
 10
9100
 20
-11930
 10
9100
 20
-11920
 10
9110
 20
-11920
 10
9110
 20
-11910
 10
9120
 20
-11910
 10
9120
 20
-11900
 10
9130
 20
-11900
 10
9130
 20
-11880
 10
9140
 20
-11880
 10
9140
 20
-11860
 10
9150
 20
-11860
 10
9150
 20
-11830
 10
9160
 20
-11830
 10
9160
 20
-11750
 10
9150
 20
-11750
 10
9150
 20
-11720
 10
9140
 20
-11720
 10
9140
 20
-11700
 10
9130
 20
-11700
 10
9130
 20
-11680
 10
9120
 20
-11680
 10
9120
 20
-11670
 10
9110
 20
-11670
 10
9110
 20
-11660
 10
9100
 20
-11660
 10
9100
 20
-11650
 10
9090
 20
-11650
 10
9090
 20
-11640
 10
9070
 20
-11640
 10
9070
 20
-11630
 10
9050
 20
-11630
 10
9050
 20
-11620
 10
9020
 20
-11620
 10
9020
 20
-11610
 10
8990
 20
-11610
 10
8990
 20
-11600
 10
8890
 20
-11600
 10
8890
 20
-11590
 10
8840
 20
-11590
 10
8840
 20
-11600
 10
8720
 20
-11600
 10
8720
 20
-11610
 10
8690
 20
-11610
 10
8690
 20
-11620
 10
8670
 20
-11620
 10
8670
 20
-11630
 10
8650
 20
-11630
 10
8650
 20
-11640
 10
8640
 20
-11640
 10
8640
 20
-11650
 10
8630
 20
-11650
 10
8630
 20
-11660
 10
8620
 20
-11660
 10
8620
 20
-11670
 10
8610
 20
-11670
 10
8610
 20
-11680
 10
8600
 20
-11680
 10
8600
 20
-11690
 10
8590
 20
-11690
 10
8590
 20
-11710
 10
8580
 20
-11710
 10
8580
 20
-11750
 10
8570
 20
-11750
 10
8570
 20
-12200
 10
8560
 20
-12200
 10
8560
 20
-12190
 10
8550
 20
-12190
 10
8550
 20
-12180
 10
8540
 20
-12180
 10
8540
 20
-12170
 10
8520
 20
-12170
 10
8520
 20
-12160
 10
8510
 20
-12160
 10
8510
 20
-12150
 10
8500
 20
-12150
 10
8500
 20
-12140
 10
8490
 20
-12140
 10
8490
 20
-12130
 10
8480
 20
-12130
 10
8480
 20
-12120
 10
8460
 20
-12120
 10
8460
 20
-12100
 10
8440
 20
-12100
 10
8440
 20
-12090
 10
8430
 20
-12090
 10
8430
 20
-12080
 10
8420
 20
-12080
 10
8420
 20
-12070
 10
8410
 20
-12070
 10
8410
 20
-12060
 10
8400
 20
-12060
 10
8400
 20
-12050
 10
8390
 20
-12050
 10
8390
 20
-12040
 10
8380
 20
-12040
 10
8380
 20
-12030
 10
8370
 20
-12030
 10
8370
 20
-12020
 10
8360
 20
-12020
 10
8360
 20
-12010
 10
8350
 20
-12010
 10
8350
 20
-12000
 10
8340
 20
-12000
 10
8340
 20
-11990
 10
8330
 20
-11990
 10
8330
 20
-11980
 10
8320
 20
-11980
 10
8320
 20
-11970
 10
8310
 20
-11970
 10
8310
 20
-11960
 10
8300
 20
-11960
 10
8300
 20
-11950
 10
8290
 20
-11950
 10
8290
 20
-11940
 10
8280
 20
-11940
 10
8280
 20
-11930
 10
8270
 20
-11930
 10
8270
 20
-11920
 10
8260
 20
-11920
 10
8260
 20
-11900
 10
8250
 20
-11900
 10
8250
 20
-11890
 10
8240
 20
-11890
 10
8240
 20
-11880
 10
8230
 20
-11880
 10
8230
 20
-11870
 10
8220
 20
-11870
 10
8220
 20
-11860
 10
8210
 20
-11860
 10
8210
 20
-11850
 10
8200
 20
-11850
 10
8200
 20
-11840
 10
8190
 20
-11840
 10
8190
 20
-11830
 10
8180
 20
-11830
 10
8180
 20
-11820
 10
8170
 20
-11820
 10
8170
 20
-11810
 10
8160
 20
-11810
 10
8160
 20
-11800
 10
8150
 20
-11800
 10
8150
 20
-11790
 10
8140
 20
-11790
 10
8140
 20
-11780
 10
8130
 20
-11780
 10
8130
 20
-11770
 10
8120
 20
-11770
 10
8120
 20
-11760
 10
8110
 20
-11760
 10
8110
 20
-11750
 10
8100
 20
-11750
 10
8100
 20
-11740
 10
8090
 20
-11740
 10
8090
 20
-11730
 10
8080
 20
-11730
 10
8080
 20
-11720
 10
8070
 20
-11720
 10
8070
 20
-11710
 10
8060
 20
-11710
 10
8060
 20
-11700
 10
8050
 20
-11700
 10
8050
 20
-11690
 10
8040
 20
-11690
 10
8040
 20
-11680
 10
8030
 20
-11680
 10
8030
 20
-11670
 10
8020
 20
-11670
 10
8020
 20
-11660
 10
8010
 20
-11660
 10
8010
 20
-11650
 10
8000
 20
-11650
 10
8000
 20
-11640
 10
7990
 20
-11640
 10
7990
 20
-11630
 10
7980
 20
-11630
 10
7980
 20
-11610
 10
7960
 20
-11610
 10
7960
 20
-11600
 10
7950
 20
-11600
 10
7950
 20
-11580
 10
7940
 20
-11580
 10
7940
 20
-11570
 10
7930
 20
-11570
 10
7930
 20
-11560
 10
7910
 20
-11560
 10
7910
 20
-11550
 10
7900
 20
-11550
 10
7900
 20
-11540
 10
7890
 20
-11540
 10
7890
 20
-11530
 10
7880
 20
-11530
 10
7880
 20
-11510
 10
7870
 20
-11510
 10
7870
 20
-11500
 10
7860
 20
-11500
 10
7860
 20
-11490
 10
7850
 20
-11490
 10
7850
 20
-11480
 10
7840
 20
-11480
 10
7840
 20
-11470
 10
7830
 20
-11470
 10
7830
 20
-11460
 10
7820
 20
-11460
 10
7820
 20
-11450
 10
7810
 20
-11450
 10
7810
 20
-11440
 10
7800
 20
-11440
 10
7800
 20
-11430
 10
7790
 20
-11430
 10
7790
 20
-11420
 10
7780
 20
-11420
 10
7780
 20
-11410
 10
7770
 20
-11410
 10
7770
 20
-11400
 10
7760
 20
-11400
 10
7760
 20
-11390
 10
7750
 20
-11390
 10
7750
 20
-11380
 10
7740
 20
-11380
 10
7740
 20
-11370
 10
7730
 20
-11370
 10
7730
 20
-11360
 10
7720
 20
-11360
 10
7720
 20
-11350
 10
7710
 20
-11350
 10
7710
 20
-11340
 10
7700
 20
-11340
 10
7700
 20
-11320
 10
7690
 20
-11320
 10
7690
 20
-11310
 10
7680
 20
-11310
 10
7680
 20
-11300
 10
7670
 20
-11300
 10
7670
 20
-11280
 10
7660
 20
-11280
 10
7660
 20
-11270
 10
7650
 20
-11270
 10
7650
 20
-11250
 10
7640
 20
-11250
 10
7640
 20
-11240
 10
7630
 20
-11240
 10
7630
 20
-11220
 10
7620
 20
-11220
 10
7620
 20
-11200
 10
7610
 20
-11200
 10
7610
 20
-11160
 10
7600
 20
-11160
 10
7600
 20
-11100
 10
7590
 20
-11100
 10
7590
 20
-10100
 10
7600
 20
-10100
 10
7600
 20
-10000
 10
7590
 20
-10000
 10
7590
 20
-9990
 10
7600
 20
-9990
 10
7600
 20
-9970
 10
7590
 20
-9970
 10
7590
 20
-9940
 10
7600
 20
-9940
 10
7600
 20
-9900
 10
7590
 20
-9900
 10
7590
 20
-9780
 10
7580
 20
-9780
 10
7580
 20
-9750
 10
7570
 20
-9750
 10
7570
 20
-9720
 10
7560
 20
-9720
 10
7560
 20
-9700
 10
7550
 20
-9700
 10
7550
 20
-9680
 10
7540
 20
-9680
 10
7540
 20
-9670
 10
7520
 20
-9670
 10
7520
 20
-9650
 10
7500
 20
-9650
 10
7500
 20
-9640
 10
7470
 20
-9640
 10
7470
 20
-9630
 10
7450
 20
-9630
 10
7450
 20
-9620
 10
7350
 20
-9620
 10
7350
 20
-9610
 10
7320
 20
-9610
 10
7320
 20
-9620
 10
7020
 20
-9620
 10
7020
 20
-9610
 10
6960
 20
-9610
 10
6960
 20
-9620
 10
6950
 20
-9620
 10
6950
 20
-9610
 10
6840
 20
-9610
 10
6840
 20
-9600
 10
6800
 20
-9600
 10
6800
 20
-9590
 10
6790
 20
-9590
 10
6790
 20
-9580
 10
6780
 20
-9580
 10
6780
 20
-9570
 10
6770
 20
-9570
 10
6770
 20
-9560
 10
6760
 20
-9560
 10
6760
 20
-9520
 10
6750
 20
-9520
 10
6750
 20
-9410
 10
6740
 20
-9410
 10
6740
 20
-7440
 10
6730
 20
-7440
 10
6730
 20
-7420
 10
6720
 20
-7420
 10
6720
 20
-7410
 10
6730
 20
-7410
 10
6730
 20
-7380
 10
6740
 20
-7380
 10
6740
 20
-7120
 10
6730
 20
-7120
 10
6730
 20
-7100
 10
6720
 20
-7100
 10
6720
 20
-7090
 10
6730
 20
-7090
 10
6730
 20
-7060
 10
6740
 20
-7060
 10
6740
 20
-6850
 10
6750
 20
-6850
 10
6750
 20
-6830
 10
6740
 20
-6830
 10
6740
 20
-6800
 10
6730
 20
-6800
 10
6730
 20
-6750
 10
6740
 20
-6750
 10
6740
 20
-6490
 10
6730
 20
-6490
 10
6730
 20
-6440
 10
6740
 20
-6440
 10
6740
 20
-6250
 10
6750
 20
-6250
 10
6750
 20
-6210
 10
6740
 20
-6210
 10
6740
 20
-6170
 10
6730
 20
-6170
 10
6730
 20
-6160
 10
6740
 20
-6160
 10
6740
 20
-6120
 10
6750
 20
-6120
 10
6750
 20
-5900
 10
6740
 20
-5900
 10
6740
 20
-5870
 10
6730
 20
-5870
 10
6730
 20
-5840
 10
6740
 20
-5840
 10
6740
 20
-5810
 10
6750
 20
-5810
 10
6750
 20
-3840
 10
6760
 20
-3840
 10
6760
 20
-3720
 10
6770
 20
-3720
 10
6770
 20
-3650
 10
6780
 20
-3650
 10
6780
 20
-3630
 10
6790
 20
-3630
 10
6790
 20
-3620
 10
6800
 20
-3620
 10
6800
 20
-3610
 10
6810
 20
-3610
 10
6810
 20
-3600
 10
6820
 20
-3600
 10
6820
 20
-3590
 10
6860
 20
-3590
 10
6860
 20
-3580
 10
7100
 20
-3580
 10
7100
 20
-3570
 10
7230
 20
-3570
 10
7230
 20
-3580
 10
7240
 20
-3580
 10
7240
 20
-3570
 10
7280
 20
-3570
 10
7280
 20
-3560
 10
7290
 20
-3560
 10
7290
 20
-3550
 10
7300
 20
-3550
 10
7300
 20
-3390
 10
7310
 20
-3390
 10
7310
 20
-3380
 10
7320
 20
-3380
 10
7320
 20
-3360
 10
7330
 20
-3360
 10
7330
 20
-3550
 10
7340
 20
-3550
 10
7340
 20
-3560
 10
7350
 20
-3560
 10
7350
 20
-3570
 10
7420
 20
-3570
 10
7420
 20
-3560
 10
7430
 20
-3560
 10
7430
 20
-3550
 10
7440
 20
-3550
 10
7440
 20
-3530
 10
7450
 20
-3530
 10
7450
 20
-3520
 10
7440
 20
-3520
 10
7440
 20
-3500
 10
7450
 20
-3500
 10
7450
 20
-3300
 10
7460
 20
-3300
 10
7460
 20
-3350
 10
7470
 20
-3350
 10
7470
 20
-3540
 10
7480
 20
-3540
 10
7480
 20
-3560
 10
7490
 20
-3560
 10
7490
 20
-3570
 10
7660
 20
-3570
 10
7660
 20
-3580
 10
7850
 20
-3580
 10
7850
 20
-3570
 10
7930
 20
-3570
 10
7930
 20
-3560
 10
7960
 20
-3560
 10
7960
 20
-3550
 10
7980
 20
-3550
 10
7980
 20
-3540
 10
7990
 20
-3540
 10
7990
 20
-3530
 10
8010
 20
-3530
 10
8010
 20
-3520
 10
8020
 20
-3520
 10
8020
 20
-3500
 10
8030
 20
-3500
 10
8030
 20
-3490
 10
8040
 20
-3490
 10
8040
 20
-3470
 10
8050
 20
-3470
 10
8050
 20
-3430
 10
8060
 20
-3430
 10
8060
 20
-3320
 10
8070
 20
-3320
 10
8070
 20
-2830
 10
8080
 20
-2830
 10
8080
 20
-2770
 10
8090
 20
-2770
 10
8090
 20
-2740
 10
8100
 20
-2740
 10
8100
 20
-2730
 10
8110
 20
-2730
 10
8110
 20
-2710
 10
8120
 20
-2710
 10
8120
 20
-2700
 10
8130
 20
-2700
 10
8130
 20
-2680
 10
8140
 20
-2680
 10
8140
 20
-2670
 10
8150
 20
-2670
 10
8150
 20
-2660
 10
8160
 20
-2660
 10
8160
 20
-2650
 10
8170
 20
-2650
 10
8170
 20
-2640
 10
8180
 20
-2640
 10
8180
 20
-2630
 10
8190
 20
-2630
 10
8190
 20
-2620
 10
8200
 20
-2620
 10
8200
 20
-2610
 10
8210
 20
-2610
 10
8210
 20
-2600
 10
8220
 20
-2600
 10
8220
 20
-2580
 10
8240
 20
-2580
 10
8240
 20
-2570
 10
8250
 20
-2570
 10
8250
 20
-2560
 10
8260
 20
-2560
 10
8260
 20
-2550
 10
8270
 20
-2550
 10
8270
 20
-2540
 10
8280
 20
-2540
 10
8280
 20
-2530
 10
8290
 20
-2530
 10
8290
 20
-2520
 10
8300
 20
-2520
 10
8300
 20
-2510
 10
8310
 20
-2510
 10
8310
 20
-2500
 10
8320
 20
-2500
 10
8320
 20
-2490
 10
8330
 20
-2490
 10
8330
 20
-2480
 10
8340
 20
-2480
 10
8340
 20
-2470
 10
8350
 20
-2470
 10
8350
 20
-2460
 10
8360
 20
-2460
 10
8360
 20
-2450
 10
8370
 20
-2450
 10
8370
 20
-2430
 10
8380
 20
-2430
 10
8380
 20
-2420
 10
8400
 20
-2420
 10
8400
 20
-2410
 10
8410
 20
-2410
 10
8410
 20
-2400
 10
8420
 20
-2400
 10
8420
 20
-2390
 10
8430
 20
-2390
 10
8430
 20
-2380
 10
8440
 20
-2380
 10
8440
 20
-2370
 10
8450
 20
-2370
 10
8450
 20
-2360
 10
8460
 20
-2360
 10
8460
 20
-2350
 10
8470
 20
-2350
 10
8470
 20
-2340
 10
8480
 20
-2340
 10
8480
 20
-2330
 10
8490
 20
-2330
 10
8490
 20
-2320
 10
8500
 20
-2320
 10
8500
 20
-2310
 10
8510
 20
-2310
 10
8510
 20
-2300
 10
8520
 20
-2300
 10
8520
 20
-2290
 10
8530
 20
-2290
 10
8530
 20
-2280
 10
8550
 20
-2280
 10
8550
 20
-2270
 10
8560
 20
-2270
 10
8560
 20
-2260
 10
8580
 20
-2260
 10
8580
 20
-2250
 10
8590
 20
-2250
 10
8590
 20
-2240
 10
8680
 20
-2240
 10
8680
 20
-2230
 10
10070
 20
-2230
 10
10070
 20
-2240
 10
10080
 20
-2240
 10
10080
 20
-2230
 10
10100
 20
-2230
 10
10100
 20
-2240
 10
10120
 20
-2240
 10
10120
 20
-2230
 10
10190
 20
-2230
 10
10190
 20
-2240
 10
10200
 20
-2240
 10
10200
 20
-2230
 10
10240
 20
-2230
 10
10240
 20
-2240
 10
10410
 20
-2240
 10
10410
 20
-2250
 10
10450
 20
-2250
 10
10450
 20
-2260
 10
10470
 20
-2260
 10
10470
 20
-2270
 10
10480
 20
-2270
 10
10480
 20
-2290
 10
10490
 20
-2290
 10
10490
 20
-2310
 10
10500
 20
-2310
 10
10500
 20
-2360
 10
10510
 20
-2360
 10
10510
 20
-2390
 10
10520
 20
-2390
 10
10520
 20
-2420
 10
10530
 20
-2420
 10
10530
 20
-2440
 10
10540
 20
-2440
 10
10540
 20
-2460
 10
10550
 20
-2460
 10
10550
 20
-2470
 10
10570
 20
-2470
 10
10570
 20
-2480
 10
10580
 20
-2480
 10
10580
 20
-2490
 10
10590
 20
-2490
 10
10590
 20
-2500
 10
10600
 20
-2500
 10
10600
 20
-2510
 10
10620
 20
-2510
 10
10620
 20
-2520
 10
10640
 20
-2520
 10
10640
 20
-2530
 10
10680
 20
-2530
 10
10680
 20
-2540
 10
10770
 20
-2540
 10
10770
 20
-2550
 10
10920
 20
-2550
 10
10920
 20
-2560
 10
11200
 20
-2560
 10
11200
 20
-2550
 10
11220
 20
-2550
 10
11220
 20
-2560
 10
11270
 20
-2560
 10
11270
 20
-2550
 10
11430
 20
-2550
 10
11430
 20
-2540
 10
11440
 20
-2540
 10
11440
 20
-2530
 10
11450
 20
-2530
 10
11450
 20
-2520
 10
11460
 20
-2520
 10
11460
 20
-2510
 10
11470
 20
-2510
 10
11470
 20
-2500
 10
11480
 20
-2500
 10
11480
 20
-2490
 10
11520
 20
-2490
 10
11520
 20
-2480
 10
11620
 20
-2480
 10
11620
 20
-2470
 10
11660
 20
-2470
 10
11660
 20
-2460
 10
11780
 20
-2460
 10
11780
 20
-2470
 10
11800
 20
-2470
 10
11800
 20
-2480
 10
11810
 20
-2480
 10
11810
 20
-2490
 10
11830
 20
-2490
 10
11830
 20
-2500
 10
11850
 20
-2500
 10
11850
 20
-2510
 10
12330
 20
-2510
 10
12330
 20
-2500
 10
12520
 20
-2500
 10
12520
 20
-2510
 10
12800
 20
-2510
 10
12800
 20
-2520
 10
12810
 20
-2520
 10
12810
 20
-2530
 10
12820
 20
-2530
 10
12820
 20
-2540
 10
12830
 20
-2540
 10
12830
 20
-2950
 10
12820
 20
-2950
 10
12820
 20
-2970
 10
12810
 20
-2970
 10
12810
 20
-2980
 10
12610
 20
-2980
 10
12610
 20
-2990
 10
12420
 20
-2990
 10
12420
 20
-2980
 10
12200
 20
-2980
 10
12200
 20
-2970
 10
11960
 20
-2970
 10
11960
 20
-2980
 10
11860
 20
-2980
 10
11860
 20
-2990
 10
11830
 20
-2990
 10
11830
 20
-3000
 10
11810
 20
-3000
 10
11810
 20
-3010
 10
11800
 20
-3010
 10
11800
 20
-3020
 10
11790
 20
-3020
 10
11790
 20
-3030
 10
11780
 20
-3030
 10
11780
 20
-3040
 10
11740
 20
-3040
 10
11740
 20
-3050
 10
11470
 20
-3050
 10
11470
 20
-3040
 10
11450
 20
-3040
 10
11450
 20
-3030
 10
11430
 20
-3030
 10
11430
 20
-3020
 10
11400
 20
-3020
 10
11400
 20
-3010
 10
11350
 20
-3010
 10
11350
 20
-3020
 10
11280
 20
-3020
 10
11280
 20
-3010
 10
11260
 20
-3010
 10
11260
 20
-3020
 10
10780
 20
-3020
 10
10780
 20
-3030
 10
10680
 20
-3030
 10
10680
 20
-3040
 10
10630
 20
-3040
 10
10630
 20
-3050
 10
10620
 20
-3050
 10
10620
 20
-3060
 10
10600
 20
-3060
 10
10600
 20
-3070
 10
10580
 20
-3070
 10
10580
 20
-3080
 10
10570
 20
-3080
 10
10570
 20
-3090
 10
10560
 20
-3090
 10
10560
 20
-3100
 10
10550
 20
-3100
 10
10550
 20
-3110
 10
10540
 20
-3110
 10
10540
 20
-3130
 10
10530
 20
-3130
 10
10530
 20
-3150
 10
10520
 20
-3150
 10
10520
 20
-3170
 10
10510
 20
-3170
 10
10510
 20
-3210
 10
10500
 20
-3210
 10
10500
 20
-3270
 10
10490
 20
-3270
 10
10490
 20
-3320
 10
10480
 20
-3320
 10
10480
 20
-3370
 10
10470
 20
-3370
 10
10470
 20
-3390
 10
10460
 20
-3390
 10
10460
 20
-3400
 10
10450
 20
-3400
 10
10450
 20
-3410
 10
10440
 20
-3410
 10
10440
 20
-3420
 10
10400
 20
-3420
 10
10400
 20
-3430
 10
10290
 20
-3430
 10
10290
 20
-3440
 10
10270
 20
-3440
 10
10270
 20
-3430
 10
10080
 20
-3430
 10
10080
 20
-3440
 10
10060
 20
-3440
 10
10060
 20
-3430
 10
9930
 20
-3430
 10
9930
 20
-2970
 10
9940
 20
-2970
 10
9940
 20
-2990
 10
9950
 20
-2990
 10
9950
 20
-3030
 10
9960
 20
-3030
 10
9960
 20
-3040
 10
9970
 20
-3040
 10
9970
 20
-3050
 10
9980
 20
-3050
 10
9980
 20
-3060
 10
9990
 20
-3060
 10
9990
 20
-3070
 10
10000
 20
-3070
 10
10000
 20
-3080
 10
10010
 20
-3080
 10
10010
 20
-3090
 10
10020
 20
-3090
 10
10020
 20
-3100
 10
10040
 20
-3100
 10
10040
 20
-3110
 10
10060
 20
-3110
 10
10060
 20
-3120
 10
10090
 20
-3120
 10
10090
 20
-3130
 10
10150
 20
-3130
 10
10150
 20
-3120
 10
10180
 20
-3120
 10
10180
 20
-3110
 10
10210
 20
-3110
 10
10210
 20
-3100
 10
10220
 20
-3100
 10
10220
 20
-3090
 10
10230
 20
-3090
 10
10230
 20
-3080
 10
10250
 20
-3080
 10
10250
 20
-3070
 10
10260
 20
-3070
 10
10260
 20
-3060
 10
10270
 20
-3060
 10
10270
 20
-3040
 10
10280
 20
-3040
 10
10280
 20
-3020
 10
10290
 20
-3020
 10
10290
 20
-2990
 10
10300
 20
-2990
 10
10300
 20
-2960
 10
10310
 20
-2960
 10
10310
 20
-2730
 10
10300
 20
-2730
 10
10300
 20
-2680
 10
10290
 20
-2680
 10
10290
 20
-2660
 10
10280
 20
-2660
 10
10280
 20
-2640
 10
10270
 20
-2640
 10
10270
 20
-2620
 10
10260
 20
-2620
 10
10260
 20
-2610
 10
10250
 20
-2610
 10
10250
 20
-2590
 10
10230
 20
-2590
 10
10230
 20
-2580
 10
10220
 20
-2580
 10
10220
 20
-2570
 10
10200
 20
-2570
 10
10200
 20
-2560
 10
10170
 20
-2560
 10
10170
 20
-2550
 10
10070
 20
-2550
 10
10070
 20
-2560
 10
10040
 20
-2560
 10
10040
 20
-2570
 10
10020
 20
-2570
 10
10020
 20
-2580
 10
10010
 20
-2580
 10
10010
 20
-2590
 10
10000
 20
-2590
 10
10000
 20
-2600
 10
9990
 20
-2600
 10
9990
 20
-2610
 10
9980
 20
-2610
 10
9980
 20
-2620
 10
9970
 20
-2620
 10
9970
 20
-2640
 10
9960
 20
-2640
 10
9960
 20
-2660
 10
9950
 20
-2660
 10
9950
 20
-2680
 10
9940
 20
-2680
 10
9940
 20
-2740
 10
9930
 20
-2740
 10
9930
 20
-3430
 10
9830
 20
-3430
 10
9830
 20
-3420
 10
9780
 20
-3420
 10
9780
 20
-3410
 10
9760
 20
-3410
 10
9760
 20
-3400
 10
9740
 20
-3400
 10
9740
 20
-3390
 10
9720
 20
-3390
 10
9720
 20
-3380
 10
9700
 20
-3380
 10
9700
 20
-3370
 10
9690
 20
-3370
 10
9690
 20
-3360
 10
9680
 20
-3360
 10
9680
 20
-3350
 10
9660
 20
-3350
 10
9660
 20
-3330
 10
9640
 20
-3330
 10
9640
 20
-3320
 10
9630
 20
-3320
 10
9630
 20
-3300
 10
9610
 20
-3300
 10
9610
 20
-3290
 10
9600
 20
-3290
 10
9600
 20
-3280
 10
9590
 20
-3280
 10
9590
 20
-3270
 10
9580
 20
-3270
 10
9580
 20
-3260
 10
9570
 20
-3260
 10
9570
 20
-3250
 10
9560
 20
-3250
 10
9560
 20
-3240
 10
9550
 20
-3240
 10
9550
 20
-3230
 10
9540
 20
-3230
 10
9540
 20
-3220
 10
9530
 20
-3220
 10
9530
 20
-3210
 10
9520
 20
-3210
 10
9520
 20
-3200
 10
9510
 20
-3200
 10
9510
 20
-3190
 10
9500
 20
-3190
 10
9500
 20
-3180
 10
9490
 20
-3180
 10
9490
 20
-3170
 10
9480
 20
-3170
 10
9480
 20
-3160
 10
9470
 20
-3160
 10
9470
 20
-3150
 10
9460
 20
-3150
 10
9460
 20
-3140
 10
9450
 20
-3140
 10
9450
 20
-3130
 10
9440
 20
-3130
 10
9440
 20
-3120
 10
9430
 20
-3120
 10
9430
 20
-3110
 10
9420
 20
-3110
 10
9420
 20
-3100
 10
9400
 20
-3100
 10
9400
 20
-3090
 10
9390
 20
-3090
 10
9390
 20
-3080
 10
9370
 20
-3080
 10
9370
 20
-3070
 10
9360
 20
-3070
 10
9360
 20
-3060
 10
9340
 20
-3060
 10
9340
 20
-3050
 10
9310
 20
-3050
 10
9310
 20
-3040
 10
9280
 20
-3040
 10
9280
 20
-3030
 10
9220
 20
-3030
 10
9220
 20
-3020
 10
8880
 20
-3020
 10
8880
 20
-3030
 10
8840
 20
-3030
 10
8840
 20
-3040
 10
8810
 20
-3040
 10
8810
 20
-3050
 10
8780
 20
-3050
 10
8780
 20
-3060
 10
8760
 20
-3060
 10
8760
 20
-3070
 10
8750
 20
-3070
 10
8750
 20
-3080
 10
8730
 20
-3080
 10
8730
 20
-3090
 10
8720
 20
-3090
 10
8720
 20
-3100
 10
8710
 20
-3100
 10
8710
 20
-3110
 10
8690
 20
-3110
 10
8690
 20
-3120
 10
8680
 20
-3120
 10
8680
 20
-3130
 10
8670
 20
-3130
 10
8670
 20
-3140
 10
8660
 20
-3140
 10
8660
 20
-3150
 10
8650
 20
-3150
 10
8650
 20
-3160
 10
8640
 20
-3160
 10
8640
 20
-2680
 10
8650
 20
-2680
 10
8650
 20
-2710
 10
8660
 20
-2710
 10
8660
 20
-2720
 10
8670
 20
-2720
 10
8670
 20
-2740
 10
8680
 20
-2740
 10
8680
 20
-2750
 10
8700
 20
-2750
 10
8700
 20
-2760
 10
8710
 20
-2760
 10
8710
 20
-2770
 10
8730
 20
-2770
 10
8730
 20
-2780
 10
8740
 20
-2780
 10
8740
 20
-2790
 10
8780
 20
-2790
 10
8780
 20
-2800
 10
8810
 20
-2800
 10
8810
 20
-2810
 10
8950
 20
-2810
 10
8950
 20
-2820
 10
8980
 20
-2820
 10
8980
 20
-2810
 10
9010
 20
-2810
 10
9010
 20
-2820
 10
9270
 20
-2820
 10
9270
 20
-2810
 10
9280
 20
-2810
 10
9280
 20
-2820
 10
9300
 20
-2820
 10
9300
 20
-2810
 10
9350
 20
-2810
 10
9350
 20
-2800
 10
9400
 20
-2800
 10
9400
 20
-2790
 10
9420
 20
-2790
 10
9420
 20
-2780
 10
9440
 20
-2780
 10
9440
 20
-2770
 10
9450
 20
-2770
 10
9450
 20
-2760
 10
9460
 20
-2760
 10
9460
 20
-2750
 10
9470
 20
-2750
 10
9470
 20
-2740
 10
9480
 20
-2740
 10
9480
 20
-2730
 10
9490
 20
-2730
 10
9490
 20
-2720
 10
9500
 20
-2720
 10
9500
 20
-2700
 10
9510
 20
-2700
 10
9510
 20
-2680
 10
9520
 20
-2680
 10
9520
 20
-2590
 10
9510
 20
-2590
 10
9510
 20
-2560
 10
9500
 20
-2560
 10
9500
 20
-2540
 10
9490
 20
-2540
 10
9490
 20
-2520
 10
9480
 20
-2520
 10
9480
 20
-2510
 10
9470
 20
-2510
 10
9470
 20
-2500
 10
9460
 20
-2500
 10
9460
 20
-2490
 10
9450
 20
-2490
 10
9450
 20
-2480
 10
9430
 20
-2480
 10
9430
 20
-2470
 10
9410
 20
-2470
 10
9410
 20
-2460
 10
9380
 20
-2460
 10
9380
 20
-2450
 10
9360
 20
-2450
 10
9360
 20
-2440
 10
9170
 20
-2440
 10
9170
 20
-2430
 10
9140
 20
-2430
 10
9140
 20
-2440
 10
9070
 20
-2440
 10
9070
 20
-2430
 10
9050
 20
-2430
 10
9050
 20
-2440
 10
8890
 20
-2440
 10
8890
 20
-2430
 10
8870
 20
-2430
 10
8870
 20
-2440
 10
8810
 20
-2440
 10
8810
 20
-2450
 10
8770
 20
-2450
 10
8770
 20
-2460
 10
8740
 20
-2460
 10
8740
 20
-2470
 10
8720
 20
-2470
 10
8720
 20
-2480
 10
8700
 20
-2480
 10
8700
 20
-2490
 10
8690
 20
-2490
 10
8690
 20
-2510
 10
8680
 20
-2510
 10
8680
 20
-2520
 10
8670
 20
-2520
 10
8670
 20
-2530
 10
8660
 20
-2530
 10
8660
 20
-2560
 10
8650
 20
-2560
 10
8650
 20
-2580
 10
8640
 20
-2580
 10
8640
 20
-3170
 10
8630
 20
-3170
 10
8630
 20
-3180
 10
8620
 20
-3180
 10
8620
 20
-3190
 10
8610
 20
-3190
 10
8610
 20
-3200
 10
8600
 20
-3200
 10
8600
 20
-3220
 10
8590
 20
-3220
 10
8590
 20
-3230
 10
8580
 20
-3230
 10
8580
 20
-3250
 10
8570
 20
-3250
 10
8570
 20
-3260
 10
8560
 20
-3260
 10
8560
 20
-3280
 10
8550
 20
-3280
 10
8550
 20
-3300
 10
8540
 20
-3300
 10
8540
 20
-3320
 10
8530
 20
-3320
 10
8530
 20
-3340
 10
8520
 20
-3340
 10
8520
 20
-3470
 10
8530
 20
-3470
 10
8530
 20
-3490
 10
8540
 20
-3490
 10
8540
 20
-3510
 10
8550
 20
-3510
 10
8550
 20
-3520
 10
8560
 20
-3520
 10
8560
 20
-3530
 10
8570
 20
-3530
 10
8570
 20
-3540
 10
8580
 20
-3540
 10
8580
 20
-3550
 10
8600
 20
-3550
 10
8600
 20
-3560
 10
8630
 20
-3560
 10
8630
 20
-3570
 10
8660
 20
-3570
 10
8660
 20
-3580
 10
8710
 20
-3580
 10
8710
 20
-3590
 10
8780
 20
-3590
 10
8780
 20
-3600
 10
8800
 20
-3600
 10
8800
 20
-3610
 10
8820
 20
-3610
 10
8820
 20
-3620
 10
8830
 20
-3620
 10
8830
 20
-3630
 10
8840
 20
-3630
 10
8840
 20
-3640
 10
8850
 20
-3640
 10
8850
 20
-3680
 10
8860
 20
-3680
 10
8860
 20
-3750
 10
8870
 20
-3750
 10
8870
 20
-3950
 10
8880
 20
-3950
 10
8880
 20
-5140
 10
8870
 20
-5140
 10
8870
 20
-5160
 10
8880
 20
-5160
 10
8880
 20
-5190
 10
8890
 20
-5190
 10
8890
 20
-5200
 10
8900
 20
-5200
 10
8900
 20
-5210
 10
8890
 20
-5210
 10
8890
 20
-5230
 10
8880
 20
-5230
 10
8880
 20
-6160
 10
8890
 20
-6160
 10
8890
 20
-6170
 10
8880
 20
-6170
 10
8880
 20
-6430
 10
8870
 20
-6430
 10
8870
 20
-6450
 10
8880
 20
-6450
 10
8880
 20
-6470
 10
8870
 20
-6470
 10
8870
 20
-6480
 10
8880
 20
-6480
 10
8880
 20
-6490
 10
8870
 20
-6490
 10
8870
 20
-6990
 10
8880
 20
-6990
 10
8880
 20
-7010
 10
8870
 20
-7010
 10
8870
 20
-7020
 10
8880
 20
-7020
 10
8880
 20
-7070
 10
8870
 20
-7070
 10
8870
 20
-7140
 10
8880
 20
-7140
 10
8880
 20
-7200
 10
8870
 20
-7200
 10
8870
 20
-7210
 10
8880
 20
-7210
 10
8880
 20
-7260
 10
8890
 20
-7260
 10
8890
 20
-7280
 10
8880
 20
-7280
 10
8880
 20
-7320
 10
8870
 20
-7320
 10
8870
 20
-8880
 10
8880
 20
-8880
 10
8880
 20
-8930
 10
8890
 20
-8930
 10
8890
 20
-8960
 10
8880
 20
-8960
 10
8880
 20
-8980
 10
8870
 20
-8980
 10
8870
 20
-9200
 10
8860
 20
-9200
 10
8860
 20
-9440
 10
8850
 20
-9440
 10
8850
 20
-9450
 10
8860
 20
-9450
 10
8860
 20
-9460
 10
8850
 20
-9460
 10
8850
 20
-9530
 10
8840
 20
-9530
 10
8840
 20
-9570
 10
8830
 20
-9570
 10
8830
 20
-9590
 10
8820
 20
-9590
 10
8820
 20
-9600
 10
8800
 20
-9600
 10
8800
 20
-9610
 10
8780
 20
-9610
 10
8780
 20
-9620
 10
8200
 20
-9620
 10
8200
 20
-9630
 10
8170
 20
-9630
 10
8170
 20
-9640
 10
8140
 20
-9640
 10
8140
 20
-9650
 10
8130
 20
-9650
 10
8130
 20
-9660
 10
8110
 20
-9660
 10
8110
 20
-9670
 10
8100
 20
-9670
 10
8100
 20
-9680
 10
8090
 20
-9680
 10
8090
 20
-9690
 10
8080
 20
-9690
 10
8080
 20
-9710
 10
8070
 20
-9710
 10
8070
 20
-9730
 10
8060
 20
-9730
 10
8060
 20
-9760
 10
8050
 20
-9760
 10
8050
 20
-9800
 10
8040
 20
-9800
 10
8040
 20
-10040
 10
8030
 20
-10040
 10
8030
 20
-10060
 10
8040
 20
-10060
 10
8040
 20
-10900
 10
8050
 20
-10900
 10
8050
 20
-10950
 10
8060
 20
-10950
 10
8060
 20
-10970
 10
8070
 20
-10970
 10
8070
 20
-11000
 10
8080
 20
-11000
 10
8080
 20
-11020
 10
8090
 20
-11020
 10
8090
 20
-11040
 10
8100
 20
-11040
 10
8100
 20
-11050
 10
8110
 20
-11050
 10
8110
 20
-11060
 10
8120
 20
-11060
 10
8120
 20
-11080
 10
8130
 20
-11080
 10
8130
 20
-11090
 10
8140
 20
-11090
 10
8140
 20
-11100
 10
8150
 20
-11100
 10
8150
 20
-11110
 10
8160
 20
-11110
 10
8160
 20
-11120
 10
8170
 20
-11120
 10
8170
 20
-11130
 10
8180
 20
-11130
 10
8180
 20
-11140
 10
8190
 20
-11140
 10
8190
 20
-11160
 10
8200
 20
-11160
 10
8200
 20
-11170
 10
8210
 20
-11170
 10
8210
 20
-11180
 10
8220
 20
-11180
 10
8220
 20
-11190
 10
8230
 20
-11190
 10
8230
 20
-11200
 10
8250
 20
-11200
 10
8250
 20
-11220
 10
8270
 20
-11220
 10
8270
 20
-11230
 10
8280
 20
-11230
 10
8280
 20
-11240
 10
8290
 20
-11240
 10
8290
 20
-11250
 10
8300
 20
-11250
 10
8300
 20
-11260
 10
8310
 20
-11260
 10
8310
 20
-11270
 10
8330
 20
-11270
 10
8330
 20
-11280
 10
8340
 20
-11280
 10
8340
 20
-11290
 10
8370
 20
-11290
 10
8370
 20
-11300
 10
8390
 20
-11300
 10
8390
 20
-11310
 10
8430
 20
-11310
 10
8430
 20
-11320
 10
8500
 20
-11320
 10
8500
 20
-11330
 10
9450
 20
-11330
 10
9450
 20
-11340
 10
9520
 20
-11340
 10
9520
 20
-11330
 10
9550
 20
-11330
 10
9550
 20
-11340
 10
10070
 20
-11340
 10
10070
 20
-11350
 10
10120
 20
-11350
 10
10120
 20
-11340
 10
10150
 20
-11340
 10
10150
 20
-11350
 10
10340
 20
-11350
 10
10340
 20
-11360
 10
10400
 20
-11360
 10
10400
 20
-11370
 10
10430
 20
-11370
 10
10430
 20
-11380
 10
10440
 20
-11380
 10
10440
 20
-11390
 10
10450
 20
-11390
 10
10450
 20
-11400
 10
10460
 20
-11400
 10
10460
 20
-11420
 10
10470
 20
-11420
 10
10470
 20
-11480
 10
10480
 20
-11480
 10
10480
 20
-11550
 10
10490
 20
-11550
 10
10490
 20
-11600
 10
10500
 20
-11600
 10
10500
 20
-11630
 10
10510
 20
-11630
 10
10510
 20
-11650
 10
10520
 20
-11650
 10
10520
 20
-11670
 10
10530
 20
-11670
 10
10530
 20
-11690
 10
10540
 20
-11690
 10
10540
 20
-11700
 10
10550
 20
-11700
 10
10550
 20
-11710
 10
10560
 20
-11710
 10
10560
 20
-11720
 10
10570
 20
-11720
 10
10570
 20
-11730
 10
10580
 20
-11730
 10
10580
 20
-11740
 10
10610
 20
-11740
 10
10610
 20
-11750
 10
10630
 20
-11750
 10
10630
 20
-11760
 10
10670
 20
-11760
 10
10670
 20
-11770
 10
10720
 20
-11770
 10
10720
 20
-11780
 10
10900
 20
-11780
 10
10900
 20
-11790
 10
11170
 20
-11790
 10
11170
 20
-11800
 10
11420
 20
-11800
 10
11420
 20
-11790
 10
11440
 20
-11790
 10
11440
 20
-11780
 10
11460
 20
-11780
 10
11460
 20
-11770
 10
11710
 20
-11770
 10
11710
 20
-11780
 10
11750
 20
-11780
 10
11750
 20
-11790
 10
11770
 20
-11790
 10
11770
 20
-11800
 10
11780
 20
-11800
 10
11780
 20
-11810
 10
11790
 20
-11810
 10
11790
 20
-11820
 10
11800
 20
-11820
 10
11800
 20
-11830
 10
11810
 20
-11830
 10
11810
 20
-11840
 10
11820
 20
-11840
 10
11820
 20
-11850
 10
11830
 20
-11850
 10
11830
 20
-11860
 10
11840
 20
-11860
 10
11840
 20
-11870
 10
11860
 20
-11870
 10
11860
 20
-11880
 10
11900
 20
-11880
 10
11900
 20
-11890
 10
11970
 20
-11890
 10
11970
 20
-11900
 10
12240
 20
-11900
 10
12240
 20
-11910
 10
12250
 20
-11910
 10
12250
 20
-11900
 10
12330
 20
-11900
 10
12330
 20
-11910
 10
12360
 20
-11910
 10
12360
 20
-11900
 10
12390
 20
-11900
 10
12390
 20
-11910
 10
12400
 20
-11910
 10
12400
 20
-11900
 10
12420
 20
-11900
 10
12420
 20
-11910
 10
12680
 20
-11910
 10
12680
 20
-11920
 10
12820
 20
-11920
 10
12820
 20
-11930
 10
12830
 20
-11930
 10
12830
 20
-11950
 10
12840
 20
-11950
 10
12840
 20
-12220
 10
12830
 20
-12220
 10
12830
 20
-12230
 10
12840
 20
-12230
 10
12840
 20
-12370
 10
12830
 20
-12370
 10
12830
 20
-12390
 10
12820
 20
-12390
 10
12820
 20
-12400
 10
12400
 20
-12400
 10
12400
 20
-12390
 10
12390
 20
-12390
 10
12390
 20
-12400
  0
LWPOLYLINE
  5
50
100
AcDbEntity
  8
L10D0
  6
ByLayer
 62
  256
370
   -1
100
AcDbPolyline
 90
  300
 70
    1
 43
0
 10
9590
 20
-4960
 10
9590
 20
-4950
 10
9500
 20
-4950
 10
9500
 20
-4940
 10
9470
 20
-4940
 10
9470
 20
-4930
 10
9460
 20
-4930
 10
9460
 20
-4920
 10
9450
 20
-4920
 10
9450
 20
-4910
 10
9440
 20
-4910
 10
9440
 20
-4870
 10
9430
 20
-4870
 10
9430
 20
-4810
 10
9420
 20
-4810
 10
9420
 20
-4800
 10
9410
 20
-4800
 10
9410
 20
-4790
 10
9400
 20
-4790
 10
9400
 20
-4770
 10
9410
 20
-4770
 10
9410
 20
-4760
 10
9420
 20
-4760
 10
9420
 20
-4700
 10
9430
 20
-4700
 10
9430
 20
-4460
 10
9440
 20
-4460
 10
9440
 20
-4410
 10
9450
 20
-4410
 10
9450
 20
-4390
 10
9460
 20
-4390
 10
9460
 20
-4380
 10
9470
 20
-4380
 10
9470
 20
-4360
 10
9480
 20
-4360
 10
9480
 20
-4340
 10
9500
 20
-4340
 10
9500
 20
-4320
 10
9510
 20
-4320
 10
9510
 20
-4310
 10
9520
 20
-4310
 10
9520
 20
-4300
 10
9530
 20
-4300
 10
9530
 20
-4290
 10
9540
 20
-4290
 10
9540
 20
-4280
 10
9550
 20
-4280
 10
9550
 20
-4270
 10
9560
 20
-4270
 10
9560
 20
-4260
 10
9580
 20
-4260
 10
9580
 20
-4240
 10
9590
 20
-4240
 10
9590
 20
-4230
 10
9600
 20
-4230
 10
9600
 20
-4220
 10
9620
 20
-4220
 10
9620
 20
-4200
 10
9630
 20
-4200
 10
9630
 20
-4190
 10
9650
 20
-4190
 10
9650
 20
-4180
 10
9660
 20
-4180
 10
9660
 20
-4160
 10
9680
 20
-4160
 10
9680
 20
-4150
 10
9690
 20
-4150
 10
9690
 20
-4140
 10
9700
 20
-4140
 10
9700
 20
-4130
 10
9710
 20
-4130
 10
9710
 20
-4120
 10
9720
 20
-4120
 10
9720
 20
-4110
 10
9740
 20
-4110
 10
9740
 20
-4100
 10
9760
 20
-4100
 10
9760
 20
-4090
 10
9780
 20
-4090
 10
9780
 20
-4080
 10
9800
 20
-4080
 10
9800
 20
-4070
 10
9880
 20
-4070
 10
9880
 20
-4060
 10
10660
 20
-4060
 10
10660
 20
-4070
 10
10670
 20
-4070
 10
10670
 20
-4060
 10
10740
 20
-4060
 10
10740
 20
-4070
 10
10910
 20
-4070
 10
10910
 20
-4080
 10
11400
 20
-4080
 10
11400
 20
-4070
 10
11420
 20
-4070
 10
11420
 20
-4060
 10
11430
 20
-4060
 10
11430
 20
-4050
 10
11450
 20
-4050
 10
11450
 20
-4040
 10
11460
 20
-4040
 10
11460
 20
-4030
 10
11480
 20
-4030
 10
11480
 20
-4020
 10
11580
 20
-4020
 10
11580
 20
-4010
 10
11650
 20
-4010
 10
11650
 20
-4000
 10
11760
 20
-4000
 10
11760
 20
-4010
 10
11790
 20
-4010
 10
11790
 20
-4020
 10
11800
 20
-4020
 10
11800
 20
-4030
 10
11820
 20
-4030
 10
11820
 20
-4040
 10
11840
 20
-4040
 10
11840
 20
-4050
 10
11940
 20
-4050
 10
11940
 20
-4060
 10
11950
 20
-4060
 10
11950
 20
-4050
 10
12100
 20
-4050
 10
12100
 20
-4060
 10
12150
 20
-4060
 10
12150
 20
-4050
 10
12640
 20
-4050
 10
12640
 20
-4060
 10
12790
 20
-4060
 10
12790
 20
-4070
 10
12810
 20
-4070
 10
12810
 20
-4090
 10
12820
 20
-4090
 10
12820
 20
-4220
 10
12810
 20
-4220
 10
12810
 20
-4520
 10
12790
 20
-4520
 10
12790
 20
-4530
 10
12270
 20
-4530
 10
12270
 20
-4520
 10
11880
 20
-4520
 10
11880
 20
-4530
 10
11840
 20
-4530
 10
11840
 20
-4540
 10
11810
 20
-4540
 10
11810
 20
-4550
 10
11800
 20
-4550
 10
11800
 20
-4560
 10
11780
 20
-4560
 10
11780
 20
-4570
 10
11760
 20
-4570
 10
11760
 20
-4580
 10
11460
 20
-4580
 10
11460
 20
-4570
 10
11440
 20
-4570
 10
11440
 20
-4560
 10
11420
 20
-4560
 10
11420
 20
-4550
 10
11390
 20
-4550
 10
11390
 20
-4540
 10
10910
 20
-4540
 10
10910
 20
-4550
 10
10700
 20
-4550
 10
10700
 20
-4560
 10
10640
 20
-4560
 10
10640
 20
-4570
 10
10620
 20
-4570
 10
10620
 20
-4580
 10
10600
 20
-4580
 10
10600
 20
-4590
 10
10580
 20
-4590
 10
10580
 20
-4600
 10
10570
 20
-4600
 10
10570
 20
-4610
 10
10560
 20
-4610
 10
10560
 20
-4620
 10
10550
 20
-4620
 10
10550
 20
-4630
 10
10540
 20
-4630
 10
10540
 20
-4650
 10
10530
 20
-4650
 10
10530
 20
-4670
 10
10520
 20
-4670
 10
10520
 20
-4690
 10
10510
 20
-4690
 10
10510
 20
-4720
 10
10500
 20
-4720
 10
10500
 20
-4770
 10
10490
 20
-4770
 10
10490
 20
-4840
 10
10480
 20
-4840
 10
10480
 20
-4900
 10
10470
 20
-4900
 10
10470
 20
-4920
 10
10450
 20
-4920
 10
10450
 20
-4930
 10
10440
 20
-4930
 10
10440
 20
-4940
 10
10410
 20
-4940
 10
10410
 20
-4950
 10
10350
 20
-4950
 10
10350
 20
-4960
 10
9930
 20
-4960
 10
9930
 20
-4540
 10
9940
 20
-4540
 10
9940
 20
-4580
 10
9950
 20
-4580
 10
9950
 20
-4610
 10
9960
 20
-4610
 10
9960
 20
-4620
 10
9970
 20
-4620
 10
9970
 20
-4640
 10
9980
 20
-4640
 10
9980
 20
-4650
 10
10000
 20
-4650
 10
10000
 20
-4660
 10
10010
 20
-4660
 10
10010
 20
-4670
 10
10020
 20
-4670
 10
10020
 20
-4680
 10
10030
 20
-4680
 10
10030
 20
-4690
 10
10050
 20
-4690
 10
10050
 20
-4700
 10
10080
 20
-4700
 10
10080
 20
-4710
 10
10190
 20
-4710
 10
10190
 20
-4700
 10
10220
 20
-4700
 10
10220
 20
-4690
 10
10240
 20
-4690
 10
10240
 20
-4680
 10
10260
 20
-4680
 10
10260
 20
-4670
 10
10270
 20
-4670
 10
10270
 20
-4660
 10
10280
 20
-4660
 10
10280
 20
-4650
 10
10290
 20
-4650
 10
10290
 20
-4640
 10
10300
 20
-4640
 10
10300
 20
-4620
 10
10310
 20
-4620
 10
10310
 20
-4610
 10
10320
 20
-4610
 10
10320
 20
-4580
 10
10330
 20
-4580
 10
10330
 20
-4520
 10
10340
 20
-4520
 10
10340
 20
-4510
 10
10330
 20
-4510
 10
10330
 20
-4460
 10
10320
 20
-4460
 10
10320
 20
-4430
 10
10310
 20
-4430
 10
10310
 20
-4410
 10
10300
 20
-4410
 10
10300
 20
-4400
 10
10290
 20
-4400
 10
10290
 20
-4380
 10
10280
 20
-4380
 10
10280
 20
-4370
 10
10270
 20
-4370
 10
10270
 20
-4360
 10
10250
 20
-4360
 10
10250
 20
-4350
 10
10240
 20
-4350
 10
10240
 20
-4340
 10
10220
 20
-4340
 10
10220
 20
-4330
 10
10190
 20
-4330
 10
10190
 20
-4320
 10
10060
 20
-4320
 10
10060
 20
-4330
 10
10050
 20
-4330
 10
10050
 20
-4340
 10
10030
 20
-4340
 10
10030
 20
-4350
 10
10010
 20
-4350
 10
10010
 20
-4360
 10
10000
 20
-4360
 10
10000
 20
-4370
 10
9990
 20
-4370
 10
9990
 20
-4380
 10
9980
 20
-4380
 10
9980
 20
-4390
 10
9970
 20
-4390
 10
9970
 20
-4410
 10
9960
 20
-4410
 10
9960
 20
-4420
 10
9950
 20
-4420
 10
9950
 20
-4440
 10
9940
 20
-4440
 10
9940
 20
-4490
 10
9930
 20
-4490
 10
9930
 20
-4960
 10
9610
 20
-4960
 10
9610
 20
-4950
 10
9600
 20
-4950
 10
9600
 20
-4960
  0
LWPOLYLINE
  5
51
100
AcDbEntity
  8
L10D0
  6
ByLayer
 62
  256
370
   -1
100
AcDbPolyline
 90
  320
 70
    1
 43
0
 10
11640
 20
-10800
 10
11640
 20
-10790
 10
11590
 20
-10790
 10
11590
 20
-10780
 10
11530
 20
-10780
 10
11530
 20
-10770
 10
11470
 20
-10770
 10
11470
 20
-10760
 10
11450
 20
-10760
 10
11450
 20
-10750
 10
11440
 20
-10750
 10
11440
 20
-10740
 10
11430
 20
-10740
 10
11430
 20
-10730
 10
11420
 20
-10730
 10
11420
 20
-10720
 10
11390
 20
-10720
 10
11390
 20
-10710
 10
11170
 20
-10710
 10
11170
 20
-10700
 10
10900
 20
-10700
 10
10900
 20
-10710
 10
10330
 20
-10710
 10
10330
 20
-10700
 10
10300
 20
-10700
 10
10300
 20
-10710
 10
10280
 20
-10710
 10
10280
 20
-10700
 10
9940
 20
-10700
 10
9940
 20
-10280
 10
9950
 20
-10280
 10
9950
 20
-10290
 10
9960
 20
-10290
 10
9960
 20
-10310
 10
9970
 20
-10310
 10
9970
 20
-10320
 10
9980
 20
-10320
 10
9980
 20
-10330
 10
9990
 20
-10330
 10
9990
 20
-10340
 10
10000
 20
-10340
 10
10000
 20
-10350
 10
10020
 20
-10350
 10
10020
 20
-10360
 10
10030
 20
-10360
 10
10030
 20
-10370
 10
10050
 20
-10370
 10
10050
 20
-10380
 10
10100
 20
-10380
 10
10100
 20
-10390
 10
10170
 20
-10390
 10
10170
 20
-10380
 10
10200
 20
-10380
 10
10200
 20
-10370
 10
10220
 20
-10370
 10
10220
 20
-10360
 10
10240
 20
-10360
 10
10240
 20
-10350
 10
10250
 20
-10350
 10
10250
 20
-10340
 10
10260
 20
-10340
 10
10260
 20
-10330
 10
10270
 20
-10330
 10
10270
 20
-10320
 10
10280
 20
-10320
 10
10280
 20
-10310
 10
10290
 20
-10310
 10
10290
 20
-10300
 10
10300
 20
-10300
 10
10300
 20
-10280
 10
10310
 20
-10280
 10
10310
 20
-10260
 10
10320
 20
-10260
 10
10320
 20
-10220
 10
10330
 20
-10220
 10
10330
 20
-10170
 10
10320
 20
-10170
 10
10320
 20
-10120
 10
10310
 20
-10120
 10
10310
 20
-10100
 10
10300
 20
-10100
 10
10300
 20
-10080
 10
10290
 20
-10080
 10
10290
 20
-10070
 10
10280
 20
-10070
 10
10280
 20
-10060
 10
10270
 20
-10060
 10
10270
 20
-10040
 10
10260
 20
-10040
 10
10260
 20
-10030
 10
10250
 20
-10030
 10
10250
 20
-10020
 10
10230
 20
-10020
 10
10230
 20
-10010
 10
10210
 20
-10010
 10
10210
 20
-10000
 10
10180
 20
-10000
 10
10180
 20
-9990
 10
10150
 20
-9990
 10
10150
 20
-9980
 10
10100
 20
-9980
 10
10100
 20
-9990
 10
10060
 20
-9990
 10
10060
 20
-10000
 10
10030
 20
-10000
 10
10030
 20
-10010
 10
10020
 20
-10010
 10
10020
 20
-10020
 10
10000
 20
-10020
 10
10000
 20
-10030
 10
9990
 20
-10030
 10
9990
 20
-10040
 10
9980
 20
-10040
 10
9980
 20
-10050
 10
9970
 20
-10050
 10
9970
 20
-10060
 10
9960
 20
-10060
 10
9960
 20
-10080
 10
9950
 20
-10080
 10
9950
 20
-10100
 10
9940
 20
-10100
 10
9940
 20
-10120
 10
9930
 20
-10120
 10
9930
 20
-10170
 10
9920
 20
-10170
 10
9920
 20
-10220
 10
9930
 20
-10220
 10
9930
 20
-10250
 10
9940
 20
-10250
 10
9940
 20
-10700
 10
9880
 20
-10700
 10
9880
 20
-10690
 10
9800
 20
-10690
 10
9800
 20
-10680
 10
9760
 20
-10680
 10
9760
 20
-10670
 10
9740
 20
-10670
 10
9740
 20
-10660
 10
9730
 20
-10660
 10
9730
 20
-10650
 10
9710
 20
-10650
 10
9710
 20
-10640
 10
9700
 20
-10640
 10
9700
 20
-10630
 10
9680
 20
-10630
 10
9680
 20
-10620
 10
9670
 20
-10620
 10
9670
 20
-10610
 10
9660
 20
-10610
 10
9660
 20
-10600
 10
9650
 20
-10600
 10
9650
 20
-10590
 10
9640
 20
-10590
 10
9640
 20
-10580
 10
9630
 20
-10580
 10
9630
 20
-10570
 10
9620
 20
-10570
 10
9620
 20
-10560
 10
9610
 20
-10560
 10
9610
 20
-10550
 10
9600
 20
-10550
 10
9600
 20
-10540
 10
9590
 20
-10540
 10
9590
 20
-10530
 10
9580
 20
-10530
 10
9580
 20
-10520
 10
9570
 20
-10520
 10
9570
 20
-10510
 10
9560
 20
-10510
 10
9560
 20
-10500
 10
9550
 20
-10500
 10
9550
 20
-10490
 10
9540
 20
-10490
 10
9540
 20
-10480
 10
9530
 20
-10480
 10
9530
 20
-10470
 10
9520
 20
-10470
 10
9520
 20
-10450
 10
9510
 20
-10450
 10
9510
 20
-10440
 10
9500
 20
-10440
 10
9500
 20
-10430
 10
9490
 20
-10430
 10
9490
 20
-10420
 10
9480
 20
-10420
 10
9480
 20
-10410
 10
9470
 20
-10410
 10
9470
 20
-10390
 10
9460
 20
-10390
 10
9460
 20
-10380
 10
9450
 20
-10380
 10
9450
 20
-10360
 10
9440
 20
-10360
 10
9440
 20
-10330
 10
9430
 20
-10330
 10
9430
 20
-10280
 10
9420
 20
-10280
 10
9420
 20
-9810
 10
9430
 20
-9810
 10
9430
 20
-9760
 10
9440
 20
-9760
 10
9440
 20
-9740
 10
9450
 20
-9740
 10
9450
 20
-9710
 10
9460
 20
-9710
 10
9460
 20
-9680
 10
10240
 20
-9680
 10
10240
 20
-9690
 10
10250
 20
-9690
 10
10250
 20
-9680
 10
10260
 20
-9680
 10
10260
 20
-9690
 10
10400
 20
-9690
 10
10400
 20
-9700
 10
10420
 20
-9700
 10
10420
 20
-9710
 10
10440
 20
-9710
 10
10440
 20
-9720
 10
10450
 20
-9720
 10
10450
 20
-9730
 10
10460
 20
-9730
 10
10460
 20
-9750
 10
10470
 20
-9750
 10
10470
 20
-9770
 10
10480
 20
-9770
 10
10480
 20
-9960
 10
10490
 20
-9960
 10
10490
 20
-10020
 10
10500
 20
-10020
 10
10500
 20
-10060
 10
10510
 20
-10060
 10
10510
 20
-10090
 10
10520
 20
-10090
 10
10520
 20
-10110
 10
10530
 20
-10110
 10
10530
 20
-10120
 10
10540
 20
-10120
 10
10540
 20
-10140
 10
10550
 20
-10140
 10
10550
 20
-10150
 10
10560
 20
-10150
 10
10560
 20
-10160
 10
10580
 20
-10160
 10
10580
 20
-10170
 10
10590
 20
-10170
 10
10590
 20
-10180
 10
10610
 20
-10180
 10
10610
 20
-10190
 10
10630
 20
-10190
 10
10630
 20
-10200
 10
10660
 20
-10200
 10
10660
 20
-10210
 10
10730
 20
-10210
 10
10730
 20
-10220
 10
10880
 20
-10220
 10
10880
 20
-10230
 10
11240
 20
-10230
 10
11240
 20
-10240
 10
11400
 20
-10240
 10
11400
 20
-10230
 10
11420
 20
-10230
 10
11420
 20
-10220
 10
11440
 20
-10220
 10
11440
 20
-10210
 10
11450
 20
-10210
 10
11450
 20
-10200
 10
11740
 20
-10200
 10
11740
 20
-10210
 10
11760
 20
-10210
 10
11760
 20
-10220
 10
11770
 20
-10220
 10
11770
 20
-10230
 10
11790
 20
-10230
 10
11790
 20
-10250
 10
11800
 20
-10250
 10
11800
 20
-10260
 10
11810
 20
-10260
 10
11810
 20
-10270
 10
11820
 20
-10270
 10
11820
 20
-10280
 10
11840
 20
-10280
 10
11840
 20
-10290
 10
11880
 20
-10290
 10
11880
 20
-10300
 10
11990
 20
-10300
 10
11990
 20
-10310
 10
12000
 20
-10310
 10
12000
 20
-10300
 10
12070
 20
-10300
 10
12070
 20
-10310
 10
12090
 20
-10310
 10
12090
 20
-10300
 10
12130
 20
-10300
 10
12130
 20
-10310
 10
12640
 20
-10310
 10
12640
 20
-10320
 10
12790
 20
-10320
 10
12790
 20
-10330
 10
12800
 20
-10330
 10
12800
 20
-10340
 10
12810
 20
-10340
 10
12810
 20
-10700
 10
12800
 20
-10700
 10
12800
 20
-10780
 10
12790
 20
-10780
 10
12790
 20
-10790
 10
12780
 20
-10790
 10
12780
 20
-10800
 10
12440
 20
-10800
 10
12440
 20
-10790
 10
12250
 20
-10790
 10
12250
 20
-10780
 10
11970
 20
-10780
 10
11970
 20
-10770
 10
11900
 20
-10770
 10
11900
 20
-10780
 10
11800
 20
-10780
 10
11800
 20
-10790
 10
11770
 20
-10790
 10
11770
 20
-10800
  0
LWPOLYLINE
  5
52
100
AcDbEntity
  8
L10D0
  6
ByLayer
 62
  256
370
   -1
100
AcDbPolyline
 90
  316
 70
    1
 43
0
 10
9580
 20
-6410
 10
9580
 20
-6400
 10
9490
 20
-6400
 10
9490
 20
-6390
 10
9460
 20
-6390
 10
9460
 20
-6380
 10
9450
 20
-6380
 10
9450
 20
-6360
 10
9440
 20
-6360
 10
9440
 20
-6340
 10
9430
 20
-6340
 10
9430
 20
-6240
 10
9420
 20
-6240
 10
9420
 20
-5970
 10
9410
 20
-5970
 10
9410
 20
-5930
 10
9400
 20
-5930
 10
9400
 20
-5920
 10
9410
 20
-5920
 10
9410
 20
-5880
 10
9420
 20
-5880
 10
9420
 20
-5460
 10
9430
 20
-5460
 10
9430
 20
-5350
 10
9440
 20
-5350
 10
9440
 20
-5330
 10
9450
 20
-5330
 10
9450
 20
-5320
 10
9460
 20
-5320
 10
9460
 20
-5310
 10
9480
 20
-5310
 10
9480
 20
-5300
 10
9500
 20
-5300
 10
9500
 20
-5290
 10
9600
 20
-5290
 10
9600
 20
-5280
 10
10080
 20
-5280
 10
10080
 20
-5290
 10
10090
 20
-5290
 10
10090
 20
-5280
 10
10150
 20
-5280
 10
10150
 20
-5290
 10
10210
 20
-5290
 10
10210
 20
-5280
 10
10220
 20
-5280
 10
10220
 20
-5290
 10
10360
 20
-5290
 10
10360
 20
-5300
 10
10420
 20
-5300
 10
10420
 20
-5310
 10
10450
 20
-5310
 10
10450
 20
-5320
 10
10460
 20
-5320
 10
10460
 20
-5330
 10
10470
 20
-5330
 10
10470
 20
-5350
 10
10480
 20
-5350
 10
10480
 20
-5390
 10
10490
 20
-5390
 10
10490
 20
-5420
 10
10500
 20
-5420
 10
10500
 20
-5460
 10
10510
 20
-5460
 10
10510
 20
-5480
 10
10520
 20
-5480
 10
10520
 20
-5500
 10
10530
 20
-5500
 10
10530
 20
-5510
 10
10540
 20
-5510
 10
10540
 20
-5520
 10
10550
 20
-5520
 10
10550
 20
-5530
 10
10560
 20
-5530
 10
10560
 20
-5540
 10
10580
 20
-5540
 10
10580
 20
-5550
 10
10590
 20
-5550
 10
10590
 20
-5560
 10
10610
 20
-5560
 10
10610
 20
-5570
 10
10630
 20
-5570
 10
10630
 20
-5580
 10
10670
 20
-5580
 10
10670
 20
-5590
 10
10750
 20
-5590
 10
10750
 20
-5600
 10
10860
 20
-5600
 10
10860
 20
-5610
 10
11400
 20
-5610
 10
11400
 20
-5600
 10
11420
 20
-5600
 10
11420
 20
-5590
 10
11430
 20
-5590
 10
11430
 20
-5580
 10
11440
 20
-5580
 10
11440
 20
-5570
 10
11450
 20
-5570
 10
11450
 20
-5560
 10
11480
 20
-5560
 10
11480
 20
-5550
 10
11650
 20
-5550
 10
11650
 20
-5540
 10
11750
 20
-5540
 10
11750
 20
-5550
 10
11770
 20
-5550
 10
11770
 20
-5560
 10
11790
 20
-5560
 10
11790
 20
-5570
 10
11800
 20
-5570
 10
11800
 20
-5580
 10
11810
 20
-5580
 10
11810
 20
-5590
 10
11830
 20
-5590
 10
11830
 20
-5600
 10
11880
 20
-5600
 10
11880
 20
-5610
 10
12310
 20
-5610
 10
12310
 20
-5600
 10
12330
 20
-5600
 10
12330
 20
-5610
 10
12360
 20
-5610
 10
12360
 20
-5600
 10
12420
 20
-5600
 10
12420
 20
-5610
 10
12770
 20
-5610
 10
12770
 20
-5620
 10
12790
 20
-5620
 10
12790
 20
-5630
 10
12800
 20
-5630
 10
12800
 20
-5650
 10
12810
 20
-5650
 10
12810
 20
-5750
 10
12800
 20
-5750
 10
12800
 20
-5820
 10
12810
 20
-5820
 10
12810
 20
-5830
 10
12800
 20
-5830
 10
12800
 20
-5840
 10
12810
 20
-5840
 10
12810
 20
-6060
 10
12800
 20
-6060
 10
12800
 20
-6070
 10
12790
 20
-6070
 10
12790
 20
-6080
 10
12620
 20
-6080
 10
12620
 20
-6090
 10
12420
 20
-6090
 10
12420
 20
-6080
 10
11980
 20
-6080
 10
11980
 20
-6070
 10
11930
 20
-6070
 10
11930
 20
-6080
 10
11830
 20
-6080
 10
11830
 20
-6090
 10
11800
 20
-6090
 10
11800
 20
-6100
 10
11780
 20
-6100
 10
11780
 20
-6110
 10
11760
 20
-6110
 10
11760
 20
-6120
 10
11730
 20
-6120
 10
11730
 20
-6130
 10
11630
 20
-6130
 10
11630
 20
-6120
 10
11460
 20
-6120
 10
11460
 20
-6110
 10
11450
 20
-6110
 10
11450
 20
-6100
 10
11430
 20
-6100
 10
11430
 20
-6090
 10
11410
 20
-6090
 10
11410
 20
-6080
 10
11330
 20
-6080
 10
11330
 20
-6070
 10
11310
 20
-6070
 10
11310
 20
-6080
 10
11260
 20
-6080
 10
11260
 20
-6070
 10
10900
 20
-6070
 10
10900
 20
-6080
 10
10700
 20
-6080
 10
10700
 20
-6090
 10
10630
 20
-6090
 10
10630
 20
-6100
 10
10610
 20
-6100
 10
10610
 20
-6110
 10
10590
 20
-6110
 10
10590
 20
-6120
 10
10580
 20
-6120
 10
10580
 20
-6130
 10
10560
 20
-6130
 10
10560
 20
-6140
 10
10550
 20
-6140
 10
10550
 20
-6150
 10
10540
 20
-6150
 10
10540
 20
-6170
 10
10530
 20
-6170
 10
10530
 20
-6180
 10
10520
 20
-6180
 10
10520
 20
-6200
 10
10510
 20
-6200
 10
10510
 20
-6220
 10
10500
 20
-6220
 10
10500
 20
-6260
 10
10490
 20
-6260
 10
10490
 20
-6290
 10
10480
 20
-6290
 10
10480
 20
-6340
 10
10470
 20
-6340
 10
10470
 20
-6360
 10
10460
 20
-6360
 10
10460
 20
-6370
 10
10450
 20
-6370
 10
10450
 20
-6380
 10
10440
 20
-6380
 10
10440
 20
-6390
 10
10420
 20
-6390
 10
10420
 20
-6400
 10
10380
 20
-6400
 10
10380
 20
-6410
 10
9980
 20
-6410
 10
9980
 20
-5990
 10
10000
 20
-5990
 10
10000
 20
-6000
 10
10010
 20
-6000
 10
10010
 20
-6010
 10
10020
 20
-6010
 10
10020
 20
-6020
 10
10040
 20
-6020
 10
10040
 20
-6030
 10
10060
 20
-6030
 10
10060
 20
-6040
 10
10100
 20
-6040
 10
10100
 20
-6050
 10
10170
 20
-6050
 10
10170
 20
-6040
 10
10200
 20
-6040
 10
10200
 20
-6030
 10
10220
 20
-6030
 10
10220
 20
-6020
 10
10240
 20
-6020
 10
10240
 20
-6010
 10
10250
 20
-6010
 10
10250
 20
-6000
 10
10270
 20
-6000
 10
10270
 20
-5990
 10
10280
 20
-5990
 10
10280
 20
-5980
 10
10290
 20
-5980
 10
10290
 20
-5960
 10
10300
 20
-5960
 10
10300
 20
-5950
 10
10310
 20
-5950
 10
10310
 20
-5930
 10
10320
 20
-5930
 10
10320
 20
-5900
 10
10330
 20
-5900
 10
10330
 20
-5820
 10
10320
 20
-5820
 10
10320
 20
-5770
 10
10310
 20
-5770
 10
10310
 20
-5760
 10
10300
 20
-5760
 10
10300
 20
-5740
 10
10290
 20
-5740
 10
10290
 20
-5730
 10
10280
 20
-5730
 10
10280
 20
-5720
 10
10270
 20
-5720
 10
10270
 20
-5710
 10
10260
 20
-5710
 10
10260
 20
-5700
 10
10250
 20
-5700
 10
10250
 20
-5690
 10
10230
 20
-5690
 10
10230
 20
-5680
 10
10220
 20
-5680
 10
10220
 20
-5670
 10
10190
 20
-5670
 10
10190
 20
-5660
 10
10150
 20
-5660
 10
10150
 20
-5650
 10
10100
 20
-5650
 10
10100
 20
-5660
 10
10060
 20
-5660
 10
10060
 20
-5670
 10
10040
 20
-5670
 10
10040
 20
-5680
 10
10020
 20
-5680
 10
10020
 20
-5690
 10
10000
 20
-5690
 10
10000
 20
-5700
 10
9990
 20
-5700
 10
9990
 20
-5710
 10
9980
 20
-5710
 10
9980
 20
-5730
 10
9970
 20
-5730
 10
9970
 20
-5740
 10
9960
 20
-5740
 10
9960
 20
-5750
 10
9950
 20
-5750
 10
9950
 20
-5770
 10
9940
 20
-5770
 10
9940
 20
-5800
 10
9930
 20
-5800
 10
9930
 20
-5890
 10
9940
 20
-5890
 10
9940
 20
-5920
 10
9950
 20
-5920
 10
9950
 20
-5950
 10
9960
 20
-5950
 10
9960
 20
-5960
 10
9970
 20
-5960
 10
9970
 20
-5980
 10
9980
 20
-5980
 10
9980
 20
-6410
  0
LWPOLYLINE
  5
53
100
AcDbEntity
  8
L10D0
  6
ByLayer
 62
  256
370
   -1
100
AcDbPolyline
 90
  344
 70
    1
 43
0
 10
11620
 20
-9230
 10
11620
 20
-9220
 10
11570
 20
-9220
 10
11570
 20
-9210
 10
11460
 20
-9210
 10
11460
 20
-9200
 10
11440
 20
-9200
 10
11440
 20
-9190
 10
11430
 20
-9190
 10
11430
 20
-9180
 10
11420
 20
-9180
 10
11420
 20
-9170
 10
11400
 20
-9170
 10
11400
 20
-9160
 10
11280
 20
-9160
 10
11280
 20
-9150
 10
10840
 20
-9150
 10
10840
 20
-9160
 10
10680
 20
-9160
 10
10680
 20
-9150
 10
10660
 20
-9150
 10
10660
 20
-9160
 10
10580
 20
-9160
 10
10580
 20
-9150
 10
10150
 20
-9150
 10
10150
 20
-9160
 10
10120
 20
-9160
 10
10120
 20
-9150
 10
9930
 20
-9150
 10
9930
 20
-8760
 10
9940
 20
-8760
 10
9940
 20
-8780
 10
9950
 20
-8780
 10
9950
 20
-8800
 10
9960
 20
-8800
 10
9960
 20
-8810
 10
9970
 20
-8810
 10
9970
 20
-8830
 10
9980
 20
-8830
 10
9980
 20
-8840
 10
9990
 20
-8840
 10
9990
 20
-8850
 10
10000
 20
-8850
 10
10000
 20
-8860
 10
10020
 20
-8860
 10
10020
 20
-8870
 10
10030
 20
-8870
 10
10030
 20
-8880
 10
10060
 20
-8880
 10
10060
 20
-8890
 10
10100
 20
-8890
 10
10100
 20
-8900
 10
10170
 20
-8900
 10
10170
 20
-8890
 10
10190
 20
-8890
 10
10190
 20
-8880
 10
10220
 20
-8880
 10
10220
 20
-8870
 10
10240
 20
-8870
 10
10240
 20
-8860
 10
10250
 20
-8860
 10
10250
 20
-8850
 10
10260
 20
-8850
 10
10260
 20
-8840
 10
10270
 20
-8840
 10
10270
 20
-8830
 10
10280
 20
-8830
 10
10280
 20
-8820
 10
10290
 20
-8820
 10
10290
 20
-8810
 10
10300
 20
-8810
 10
10300
 20
-8790
 10
10310
 20
-8790
 10
10310
 20
-8770
 10
10320
 20
-8770
 10
10320
 20
-8730
 10
10330
 20
-8730
 10
10330
 20
-8690
 10
10320
 20
-8690
 10
10320
 20
-8630
 10
10310
 20
-8630
 10
10310
 20
-8610
 10
10300
 20
-8610
 10
10300
 20
-8590
 10
10290
 20
-8590
 10
10290
 20
-8580
 10
10280
 20
-8580
 10
10280
 20
-8570
 10
10270
 20
-8570
 10
10270
 20
-8560
 10
10260
 20
-8560
 10
10260
 20
-8550
 10
10250
 20
-8550
 10
10250
 20
-8540
 10
10240
 20
-8540
 10
10240
 20
-8530
 10
10220
 20
-8530
 10
10220
 20
-8520
 10
10210
 20
-8520
 10
10210
 20
-8510
 10
10180
 20
-8510
 10
10180
 20
-8500
 10
10060
 20
-8500
 10
10060
 20
-8510
 10
10040
 20
-8510
 10
10040
 20
-8520
 10
10020
 20
-8520
 10
10020
 20
-8530
 10
10010
 20
-8530
 10
10010
 20
-8540
 10
10000
 20
-8540
 10
10000
 20
-8550
 10
9980
 20
-8550
 10
9980
 20
-8560
 10
9970
 20
-8560
 10
9970
 20
-8570
 10
9960
 20
-8570
 10
9960
 20
-8590
 10
9950
 20
-8590
 10
9950
 20
-8600
 10
9940
 20
-8600
 10
9940
 20
-8630
 10
9930
 20
-8630
 10
9930
 20
-8690
 10
9920
 20
-8690
 10
9920
 20
-8720
 10
9930
 20
-8720
 10
9930
 20
-9150
 10
9860
 20
-9150
 10
9860
 20
-9140
 10
9800
 20
-9140
 10
9800
 20
-9130
 10
9760
 20
-9130
 10
9760
 20
-9120
 10
9740
 20
-9120
 10
9740
 20
-9110
 10
9730
 20
-9110
 10
9730
 20
-9100
 10
9710
 20
-9100
 10
9710
 20
-9090
 10
9700
 20
-9090
 10
9700
 20
-9080
 10
9690
 20
-9080
 10
9690
 20
-9070
 10
9680
 20
-9070
 10
9680
 20
-9060
 10
9670
 20
-9060
 10
9670
 20
-9050
 10
9660
 20
-9050
 10
9660
 20
-9040
 10
9650
 20
-9040
 10
9650
 20
-9030
 10
9640
 20
-9030
 10
9640
 20
-9020
 10
9620
 20
-9020
 10
9620
 20
-9000
 10
9610
 20
-9000
 10
9610
 20
-8990
 10
9600
 20
-8990
 10
9600
 20
-8980
 10
9590
 20
-8980
 10
9590
 20
-8970
 10
9580
 20
-8970
 10
9580
 20
-8960
 10
9570
 20
-8960
 10
9570
 20
-8950
 10
9560
 20
-8950
 10
9560
 20
-8940
 10
9550
 20
-8940
 10
9550
 20
-8930
 10
9540
 20
-8930
 10
9540
 20
-8920
 10
9530
 20
-8920
 10
9530
 20
-8910
 10
9520
 20
-8910
 10
9520
 20
-8900
 10
9500
 20
-8900
 10
9500
 20
-8880
 10
9480
 20
-8880
 10
9480
 20
-8860
 10
9470
 20
-8860
 10
9470
 20
-8850
 10
9460
 20
-8850
 10
9460
 20
-8830
 10
9450
 20
-8830
 10
9450
 20
-8810
 10
9440
 20
-8810
 10
9440
 20
-8790
 10
9430
 20
-8790
 10
9430
 20
-8740
 10
9420
 20
-8740
 10
9420
 20
-8350
 10
9430
 20
-8350
 10
9430
 20
-8300
 10
9440
 20
-8300
 10
9440
 20
-8280
 10
9450
 20
-8280
 10
9450
 20
-8270
 10
9460
 20
-8270
 10
9460
 20
-8260
 10
9480
 20
-8260
 10
9480
 20
-8250
 10
9530
 20
-8250
 10
9530
 20
-8240
 10
9660
 20
-8240
 10
9660
 20
-8230
 10
9690
 20
-8230
 10
9690
 20
-8240
 10
9780
 20
-8240
 10
9780
 20
-8230
 10
9880
 20
-8230
 10
9880
 20
-8240
 10
9940
 20
-8240
 10
9940
 20
-8230
 10
9970
 20
-8230
 10
9970
 20
-8240
 10
10260
 20
-8240
 10
10260
 20
-8250
 10
10360
 20
-8250
 10
10360
 20
-8260
 10
10430
 20
-8260
 10
10430
 20
-8270
 10
10450
 20
-8270
 10
10450
 20
-8280
 10
10460
 20
-8280
 10
10460
 20
-8300
 10
10470
 20
-8300
 10
10470
 20
-8320
 10
10480
 20
-8320
 10
10480
 20
-8410
 10
10490
 20
-8410
 10
10490
 20
-8440
 10
10480
 20
-8440
 10
10480
 20
-8450
 10
10490
 20
-8450
 10
10490
 20
-8500
 10
10500
 20
-8500
 10
10500
 20
-8520
 10
10510
 20
-8520
 10
10510
 20
-8550
 10
10520
 20
-8550
 10
10520
 20
-8570
 10
10530
 20
-8570
 10
10530
 20
-8580
 10
10540
 20
-8580
 10
10540
 20
-8600
 10
10550
 20
-8600
 10
10550
 20
-8610
 10
10560
 20
-8610
 10
10560
 20
-8620
 10
10580
 20
-8620
 10
10580
 20
-8630
 10
10600
 20
-8630
 10
10600
 20
-8640
 10
10620
 20
-8640
 10
10620
 20
-8650
 10
10650
 20
-8650
 10
10650
 20
-8660
 10
10700
 20
-8660
 10
10700
 20
-8670
 10
10810
 20
-8670
 10
10810
 20
-8680
 10
10930
 20
-8680
 10
10930
 20
-8690
 10
11090
 20
-8690
 10
11090
 20
-8680
 10
11260
 20
-8680
 10
11260
 20
-8690
 10
11390
 20
-8690
 10
11390
 20
-8680
 10
11410
 20
-8680
 10
11410
 20
-8670
 10
11430
 20
-8670
 10
11430
 20
-8660
 10
11440
 20
-8660
 10
11440
 20
-8650
 10
11450
 20
-8650
 10
11450
 20
-8640
 10
11690
 20
-8640
 10
11690
 20
-8630
 10
11700
 20
-8630
 10
11700
 20
-8640
 10
11750
 20
-8640
 10
11750
 20
-8650
 10
11760
 20
-8650
 10
11760
 20
-8660
 10
11770
 20
-8660
 10
11770
 20
-8670
 10
11780
 20
-8670
 10
11780
 20
-8680
 10
11790
 20
-8680
 10
11790
 20
-8690
 10
11800
 20
-8690
 10
11800
 20
-8700
 10
11820
 20
-8700
 10
11820
 20
-8710
 10
11830
 20
-8710
 10
11830
 20
-8720
 10
11900
 20
-8720
 10
11900
 20
-8730
 10
12590
 20
-8730
 10
12590
 20
-8740
 10
12770
 20
-8740
 10
12770
 20
-8750
 10
12790
 20
-8750
 10
12790
 20
-8760
 10
12800
 20
-8760
 10
12800
 20
-9180
 10
12790
 20
-9180
 10
12790
 20
-9200
 10
12780
 20
-9200
 10
12780
 20
-9210
 10
12660
 20
-9210
 10
12660
 20
-9220
 10
12590
 20
-9220
 10
12590
 20
-9210
 10
12550
 20
-9210
 10
12550
 20
-9220
 10
12530
 20
-9220
 10
12530
 20
-9210
 10
12520
 20
-9210
 10
12520
 20
-9220
 10
12490
 20
-9220
 10
12490
 20
-9210
 10
12450
 20
-9210
 10
12450
 20
-9220
 10
12420
 20
-9220
 10
12420
 20
-9210
 10
12290
 20
-9210
 10
12290
 20
-9200
 10
12010
 20
-9200
 10
12010
 20
-9190
 10
12000
 20
-9190
 10
12000
 20
-9200
 10
11990
 20
-9200
 10
11990
 20
-9190
 10
11960
 20
-9190
 10
11960
 20
-9200
 10
11800
 20
-9200
 10
11800
 20
-9210
 10
11780
 20
-9210
 10
11780
 20
-9220
 10
11750
 20
-9220
 10
11750
 20
-9230
  0
LWPOLYLINE
  5
54
100
AcDbEntity
  8
L10D0
  6
ByLayer
 62
  256
370
   -1
100
AcDbPolyline
 90
  296
 70
    1
 43
0
 10
10030
 20
-7920
 10
10030
 20
-7910
 10
9980
 20
-7910
 10
9980
 20
-7490
 10
9990
 20
-7490
 10
9990
 20
-7500
 10
10000
 20
-7500
 10
10000
 20
-7510
 10
10010
 20
-7510
 10
10010
 20
-7520
 10
10030
 20
-7520
 10
10030
 20
-7530
 10
10060
 20
-7530
 10
10060
 20
-7540
 10
10080
 20
-7540
 10
10080
 20
-7550
 10
10170
 20
-7550
 10
10170
 20
-7540
 10
10200
 20
-7540
 10
10200
 20
-7530
 10
10220
 20
-7530
 10
10220
 20
-7520
 10
10240
 20
-7520
 10
10240
 20
-7510
 10
10260
 20
-7510
 10
10260
 20
-7500
 10
10270
 20
-7500
 10
10270
 20
-7490
 10
10280
 20
-7490
 10
10280
 20
-7480
 10
10290
 20
-7480
 10
10290
 20
-7460
 10
10300
 20
-7460
 10
10300
 20
-7440
 10
10310
 20
-7440
 10
10310
 20
-7420
 10
10320
 20
-7420
 10
10320
 20
-7370
 10
10330
 20
-7370
 10
10330
 20
-7340
 10
10320
 20
-7340
 10
10320
 20
-7290
 10
10310
 20
-7290
 10
10310
 20
-7260
 10
10300
 20
-7260
 10
10300
 20
-7240
 10
10290
 20
-7240
 10
10290
 20
-7230
 10
10280
 20
-7230
 10
10280
 20
-7220
 10
10270
 20
-7220
 10
10270
 20
-7210
 10
10260
 20
-7210
 10
10260
 20
-7200
 10
10250
 20
-7200
 10
10250
 20
-7190
 10
10240
 20
-7190
 10
10240
 20
-7180
 10
10220
 20
-7180
 10
10220
 20
-7170
 10
10200
 20
-7170
 10
10200
 20
-7160
 10
10170
 20
-7160
 10
10170
 20
-7150
 10
10090
 20
-7150
 10
10090
 20
-7160
 10
10050
 20
-7160
 10
10050
 20
-7170
 10
10030
 20
-7170
 10
10030
 20
-7180
 10
10010
 20
-7180
 10
10010
 20
-7190
 10
10000
 20
-7190
 10
10000
 20
-7200
 10
9980
 20
-7200
 10
9980
 20
-7210
 10
9970
 20
-7210
 10
9970
 20
-7230
 10
9960
 20
-7230
 10
9960
 20
-7240
 10
9950
 20
-7240
 10
9950
 20
-7260
 10
9940
 20
-7260
 10
9940
 20
-7290
 10
9930
 20
-7290
 10
9930
 20
-7400
 10
9940
 20
-7400
 10
9940
 20
-7430
 10
9950
 20
-7430
 10
9950
 20
-7450
 10
9960
 20
-7450
 10
9960
 20
-7470
 10
9970
 20
-7470
 10
9970
 20
-7480
 10
9980
 20
-7480
 10
9980
 20
-7910
 10
9580
 20
-7910
 10
9580
 20
-7900
 10
9470
 20
-7900
 10
9470
 20
-7890
 10
9460
 20
-7890
 10
9460
 20
-7880
 10
9450
 20
-7880
 10
9450
 20
-7870
 10
9440
 20
-7870
 10
9440
 20
-7850
 10
9430
 20
-7850
 10
9430
 20
-7810
 10
9420
 20
-7810
 10
9420
 20
-7590
 10
9410
 20
-7590
 10
9410
 20
-7390
 10
9420
 20
-7390
 10
9420
 20
-7340
 10
9410
 20
-7340
 10
9410
 20
-7310
 10
9400
 20
-7310
 10
9400
 20
-7260
 10
9410
 20
-7260
 10
9410
 20
-7190
 10
9420
 20
-7190
 10
9420
 20
-6940
 10
9430
 20
-6940
 10
9430
 20
-6850
 10
9440
 20
-6850
 10
9440
 20
-6830
 10
9450
 20
-6830
 10
9450
 20
-6820
 10
9460
 20
-6820
 10
9460
 20
-6810
 10
9480
 20
-6810
 10
9480
 20
-6800
 10
9500
 20
-6800
 10
9500
 20
-6790
 10
9590
 20
-6790
 10
9590
 20
-6780
 10
10180
 20
-6780
 10
10180
 20
-6790
 10
10380
 20
-6790
 10
10380
 20
-6800
 10
10420
 20
-6800
 10
10420
 20
-6810
 10
10440
 20
-6810
 10
10440
 20
-6820
 10
10450
 20
-6820
 10
10450
 20
-6830
 10
10460
 20
-6830
 10
10460
 20
-6840
 10
10470
 20
-6840
 10
10470
 20
-6880
 10
10480
 20
-6880
 10
10480
 20
-6910
 10
10490
 20
-6910
 10
10490
 20
-6950
 10
10500
 20
-6950
 10
10500
 20
-6990
 10
10510
 20
-6990
 10
10510
 20
-7010
 10
10520
 20
-7010
 10
10520
 20
-7020
 10
10530
 20
-7020
 10
10530
 20
-7040
 10
10540
 20
-7040
 10
10540
 20
-7060
 10
10560
 20
-7060
 10
10560
 20
-7070
 10
10570
 20
-7070
 10
10570
 20
-7080
 10
10580
 20
-7080
 10
10580
 20
-7090
 10
10600
 20
-7090
 10
10600
 20
-7100
 10
10610
 20
-7100
 10
10610
 20
-7110
 10
10650
 20
-7110
 10
10650
 20
-7120
 10
10700
 20
-7120
 10
10700
 20
-7130
 10
10830
 20
-7130
 10
10830
 20
-7140
 10
11370
 20
-7140
 10
11370
 20
-7150
 10
11380
 20
-7150
 10
11380
 20
-7140
 10
11410
 20
-7140
 10
11410
 20
-7130
 10
11430
 20
-7130
 10
11430
 20
-7110
 10
11450
 20
-7110
 10
11450
 20
-7100
 10
11470
 20
-7100
 10
11470
 20
-7090
 10
11700
 20
-7090
 10
11700
 20
-7080
 10
11710
 20
-7080
 10
11710
 20
-7090
 10
11750
 20
-7090
 10
11750
 20
-7100
 10
11770
 20
-7100
 10
11770
 20
-7110
 10
11780
 20
-7110
 10
11780
 20
-7120
 10
11790
 20
-7120
 10
11790
 20
-7130
 10
11800
 20
-7130
 10
11800
 20
-7140
 10
11810
 20
-7140
 10
11810
 20
-7150
 10
11840
 20
-7150
 10
11840
 20
-7160
 10
11910
 20
-7160
 10
11910
 20
-7170
 10
12620
 20
-7170
 10
12620
 20
-7180
 10
12770
 20
-7180
 10
12770
 20
-7190
 10
12790
 20
-7190
 10
12790
 20
-7200
 10
12800
 20
-7200
 10
12800
 20
-7620
 10
12790
 20
-7620
 10
12790
 20
-7640
 10
12770
 20
-7640
 10
12770
 20
-7650
 10
12310
 20
-7650
 10
12310
 20
-7640
 10
12000
 20
-7640
 10
12000
 20
-7630
 10
11860
 20
-7630
 10
11860
 20
-7640
 10
11810
 20
-7640
 10
11810
 20
-7650
 10
11780
 20
-7650
 10
11780
 20
-7660
 10
11770
 20
-7660
 10
11770
 20
-7670
 10
11720
 20
-7670
 10
11720
 20
-7680
 10
11640
 20
-7680
 10
11640
 20
-7670
 10
11580
 20
-7670
 10
11580
 20
-7660
 10
11460
 20
-7660
 10
11460
 20
-7650
 10
11440
 20
-7650
 10
11440
 20
-7640
 10
11430
 20
-7640
 10
11430
 20
-7630
 10
11410
 20
-7630
 10
11410
 20
-7620
 10
11380
 20
-7620
 10
11380
 20
-7610
 10
11060
 20
-7610
 10
11060
 20
-7600
 10
10940
 20
-7600
 10
10940
 20
-7610
 10
10730
 20
-7610
 10
10730
 20
-7620
 10
10640
 20
-7620
 10
10640
 20
-7630
 10
10620
 20
-7630
 10
10620
 20
-7640
 10
10590
 20
-7640
 10
10590
 20
-7650
 10
10570
 20
-7650
 10
10570
 20
-7660
 10
10560
 20
-7660
 10
10560
 20
-7670
 10
10550
 20
-7670
 10
10550
 20
-7680
 10
10540
 20
-7680
 10
10540
 20
-7700
 10
10530
 20
-7700
 10
10530
 20
-7710
 10
10520
 20
-7710
 10
10520
 20
-7720
 10
10510
 20
-7720
 10
10510
 20
-7750
 10
10500
 20
-7750
 10
10500
 20
-7780
 10
10490
 20
-7780
 10
10490
 20
-7810
 10
10480
 20
-7810
 10
10480
 20
-7840
 10
10470
 20
-7840
 10
10470
 20
-7860
 10
10460
 20
-7860
 10
10460
 20
-7880
 10
10440
 20
-7880
 10
10440
 20
-7890
 10
10430
 20
-7890
 10
10430
 20
-7900
 10
10370
 20
-7900
 10
10370
 20
-7910
 10
10190
 20
-7910
 10
10190
 20
-7920
  0
LWPOLYLINE
  5
55
100
AcDbEntity
  8
L10D0
  6
ByLayer
 62
  256
370
   -1
100
AcDbPolyline
 90
    8
 70
    1
 43
0
 10
9190
 20
-6030
 10
9190
 20
-6020
 10
9210
 20
-6020
 10
9210
 20
-6010
 10
9230
 20
-6010
 10
9230
 20
-6020
 10
9220
 20
-6020
 10
9220
 20
-6030
  0
LWPOLYLINE
  5
56
100
AcDbEntity
  8
L10D0
  6
ByLayer
 62
  256
370
   -1
100
AcDbPolyline
 90
   22
 70
    1
 43
0
 10
9040
 20
-5100
 10
9040
 20
-5080
 10
9050
 20
-5080
 10
9050
 20
-5070
 10
9060
 20
-5070
 10
9060
 20
-5060
 10
9080
 20
-5060
 10
9080
 20
-5050
 10
9090
 20
-5050
 10
9090
 20
-5040
 10
9110
 20
-5040
 10
9110
 20
-5050
 10
9100
 20
-5050
 10
9100
 20
-5060
 10
9090
 20
-5060
 10
9090
 20
-5070
 10
9080
 20
-5070
 10
9080
 20
-5080
 10
9060
 20
-5080
 10
9060
 20
-5090
 10
9050
 20
-5090
 10
9050
 20
-5100
  0
LWPOLYLINE
  5
57
100
AcDbEntity
  8
L10D0
  6
ByLayer
 62
  256
370
   -1
100
AcDbPolyline
 90
   14
 70
    1
 43
0
 10
8960
 20
-6140
 10
8960
 20
-6130
 10
8970
 20
-6130
 10
8970
 20
-6120
 10
8980
 20
-6120
 10
8980
 20
-6110
 10
9010
 20
-6110
 10
9010
 20
-6100
 10
9020
 20
-6100
 10
9020
 20
-6120
 10
9010
 20
-6120
 10
9010
 20
-6130
 10
8990
 20
-6130
 10
8990
 20
-6140
  0
LWPOLYLINE
  5
58
100
AcDbEntity
  8
L10D0
  6
ByLayer
 62
  256
370
   -1
100
AcDbPolyline
 90
    6
 70
    1
 43
0
 10
8970
 20
-9070
 10
8970
 20
-9060
 10
8960
 20
-9060
 10
8960
 20
-9040
 10
8980
 20
-9040
 10
8980
 20
-9070
  0
LWPOLYLINE
  5
59
100
AcDbEntity
  8
L10D0
  6
ByLayer
 62
  256
370
   -1
100
AcDbPolyline
 90
   10
 70
    1
 43
0
 10
8940
 20
-7280
 10
8940
 20
-7260
 10
8950
 20
-7260
 10
8950
 20
-7270
 10
8960
 20
-7270
 10
8960
 20
-7260
 10
8970
 20
-7260
 10
8970
 20
-7270
 10
8980
 20
-7270
 10
8980
 20
-7280
  0
LWPOLYLINE
  5
5A
100
AcDbEntity
  8
L10D0
  6
ByLayer
 62
  256
370
   -1
100
AcDbPolyline
 90
    8
 70
    1
 43
0
 10
8940
 20
-5190
 10
8940
 20
-5150
 10
8970
 20
-5150
 10
8970
 20
-5170
 10
8960
 20
-5170
 10
8960
 20
-5180
 10
8950
 20
-5180
 10
8950
 20
-5190
  0
LWPOLYLINE
  5
5B
100
AcDbEntity
  8
L10D0
  6
ByLayer
 62
  256
370
   -1
100
AcDbPolyline
 90
    8
 70
    1
 43
0
 10
7320
 20
-3340
 10
7320
 20
-3330
 10
7310
 20
-3330
 10
7310
 20
-3320
 10
7320
 20
-3320
 10
7320
 20
-3300
 10
7330
 20
-3300
 10
7330
 20
-3340
  0
LWPOLYLINE
  5
5C
100
AcDbEntity
  8
L10D0
  6
ByLayer
 62
  256
370
   -1
100
AcDbPolyline
 90
    8
 70
    1
 43
0
 10
6620
 20
-7420
 10
6620
 20
-7410
 10
6630
 20
-7410
 10
6630
 20
-7400
 10
6650
 20
-7400
 10
6650
 20
-7410
 10
6680
 20
-7410
 10
6680
 20
-7420
  0
LWPOLYLINE
  5
5D
100
AcDbEntity
  8
L10D0
  6
ByLayer
 62
  256
370
   -1
100
AcDbPolyline
 90
   16
 70
    1
 43
0
 10
6560
 20
-6800
 10
6560
 20
-6790
 10
6470
 20
-6790
 10
6470
 20
-6780
 10
6480
 20
-6780
 10
6480
 20
-6770
 10
6500
 20
-6770
 10
6500
 20
-6780
 10
6520
 20
-6780
 10
6520
 20
-6770
 10
6620
 20
-6770
 10
6620
 20
-6780
 10
6640
 20
-6780
 10
6640
 20
-6790
 10
6580
 20
-6790
 10
6580
 20
-6800
  0
LWPOLYLINE
  5
5E
100
AcDbEntity
  8
L10D0
  6
ByLayer
 62
  256
370
   -1
100
AcDbPolyline
 90
   16
 70
    1
 43
0
 10
6310
 20
-7430
 10
6310
 20
-7420
 10
6290
 20
-7420
 10
6290
 20
-7410
 10
6320
 20
-7410
 10
6320
 20
-7400
 10
6330
 20
-7400
 10
6330
 20
-7410
 10
6550
 20
-7410
 10
6550
 20
-7420
 10
6540
 20
-7420
 10
6540
 20
-7430
 10
6490
 20
-7430
 10
6490
 20
-7420
 10
6450
 20
-7420
 10
6450
 20
-7430
  0
LWPOLYLINE
  5
5F
100
AcDbEntity
  8
L10D0
  6
ByLayer
 62
  256
370
   -1
100
AcDbPolyline
 90
   10
 70
    1
 43
0
 10
6370
 20
-7110
 10
6370
 20
-7090
 10
6430
 20
-7090
 10
6430
 20
-7100
 10
6450
 20
-7100
 10
6450
 20
-7090
 10
6550
 20
-7090
 10
6550
 20
-7100
 10
6530
 20
-7100
 10
6530
 20
-7110
  0
LWPOLYLINE
  5
60
100
AcDbEntity
  8
L10D0
  6
ByLayer
 62
  256
370
   -1
100
AcDbPolyline
 90
    6
 70
    1
 43
0
 10
6410
 20
-6790
 10
6410
 20
-6780
 10
6420
 20
-6780
 10
6420
 20
-6770
 10
6460
 20
-6770
 10
6460
 20
-6790
  0
LWPOLYLINE
  5
61
100
AcDbEntity
  8
L10D0
  6
ByLayer
 62
  256
370
   -1
100
AcDbPolyline
 90
   12
 70
    1
 43
0
 10
6310
 20
-7120
 10
6310
 20
-7110
 10
6280
 20
-7110
 10
6280
 20
-7100
 10
6290
 20
-7100
 10
6290
 20
-7090
 10
6340
 20
-7090
 10
6340
 20
-7100
 10
6350
 20
-7100
 10
6350
 20
-7110
 10
6320
 20
-7110
 10
6320
 20
-7120
  0
LWPOLYLINE
  5
62
100
AcDbEntity
  8
L10D0
  6
ByLayer
 62
  256
370
   -1
100
AcDbPolyline
 90
    8
 70
    1
 43
0
 10
6240
 20
-6790
 10
6240
 20
-6780
 10
6260
 20
-6780
 10
6260
 20
-6770
 10
6310
 20
-6770
 10
6310
 20
-6780
 10
6320
 20
-6780
 10
6320
 20
-6790
  0
LWPOLYLINE
  5
63
100
AcDbEntity
  8
L10D0
  6
ByLayer
 62
  256
370
   -1
100
AcDbPolyline
 90
 1602
 70
    1
 43
0
 10
60
 20
-12360
 10
60
 20
-12350
 10
50
 20
-12350
 10
50
 20
-12330
 10
40
 20
-12330
 10
40
 20
-12190
 10
50
 20
-12190
 10
50
 20
-11900
 10
60
 20
-11900
 10
60
 20
-11890
 10
80
 20
-11890
 10
80
 20
-11880
 10
220
 20
-11880
 10
220
 20
-11870
 10
490
 20
-11870
 10
490
 20
-11860
 10
500
 20
-11860
 10
500
 20
-11870
 10
620
 20
-11870
 10
620
 20
-11860
 10
670
 20
-11860
 10
670
 20
-11870
 10
750
 20
-11870
 10
750
 20
-11860
 10
930
 20
-11860
 10
930
 20
-11850
 10
1010
 20
-11850
 10
1010
 20
-11840
 10
1040
 20
-11840
 10
1040
 20
-11830
 10
1060
 20
-11830
 10
1060
 20
-11820
 10
1070
 20
-11820
 10
1070
 20
-11800
 10
1080
 20
-11800
 10
1080
 20
-11790
 10
1090
 20
-11790
 10
1090
 20
-11770
 10
1110
 20
-11770
 10
1110
 20
-11760
 10
1130
 20
-11760
 10
1130
 20
-11750
 10
1150
 20
-11750
 10
1150
 20
-11740
 10
1410
 20
-11740
 10
1410
 20
-11750
 10
1430
 20
-11750
 10
1430
 20
-11760
 10
1450
 20
-11760
 10
1450
 20
-11770
 10
1470
 20
-11770
 10
1470
 20
-11780
 10
1510
 20
-11780
 10
1510
 20
-11770
 10
1980
 20
-11770
 10
1980
 20
-11760
 10
2130
 20
-11760
 10
2130
 20
-11750
 10
2190
 20
-11750
 10
2190
 20
-11740
 10
2220
 20
-11740
 10
2220
 20
-11730
 10
2240
 20
-11730
 10
2240
 20
-11720
 10
2260
 20
-11720
 10
2260
 20
-11710
 10
2270
 20
-11710
 10
2270
 20
-11700
 10
2290
 20
-11700
 10
2290
 20
-11690
 10
2300
 20
-11690
 10
2300
 20
-11670
 10
2310
 20
-11670
 10
2310
 20
-11660
 10
2320
 20
-11660
 10
2320
 20
-11650
 10
2330
 20
-11650
 10
2330
 20
-11630
 10
2340
 20
-11630
 10
2340
 20
-11600
 10
2350
 20
-11600
 10
2350
 20
-11560
 10
2360
 20
-11560
 10
2360
 20
-11500
 10
2370
 20
-11500
 10
2370
 20
-11440
 10
2380
 20
-11440
 10
2380
 20
-11400
 10
2390
 20
-11400
 10
2390
 20
-11380
 10
2400
 20
-11380
 10
2400
 20
-11370
 10
2410
 20
-11370
 10
2410
 20
-11360
 10
2430
 20
-11360
 10
2430
 20
-11350
 10
2460
 20
-11350
 10
2460
 20
-11340
 10
2540
 20
-11340
 10
2540
 20
-11330
 10
2960
 20
-11330
 10
2960
 20
-11320
 10
2970
 20
-11320
 10
2970
 20
-11330
 10
2990
 20
-11330
 10
2990
 20
-11320
 10
3140
 20
-11320
 10
3140
 20
-11330
 10
3180
 20
-11330
 10
3180
 20
-11320
 10
3280
 20
-11320
 10
3280
 20
-11330
 10
3300
 20
-11330
 10
3300
 20
-11320
 10
3320
 20
-11320
 10
3320
 20
-11330
 10
3340
 20
-11330
 10
3340
 20
-11320
 10
4370
 20
-11320
 10
4370
 20
-11310
 10
4440
 20
-11310
 10
4440
 20
-11300
 10
4470
 20
-11300
 10
4470
 20
-11290
 10
4490
 20
-11290
 10
4490
 20
-11280
 10
4510
 20
-11280
 10
4510
 20
-11270
 10
4520
 20
-11270
 10
4520
 20
-11260
 10
4540
 20
-11260
 10
4540
 20
-11250
 10
4560
 20
-11250
 10
4560
 20
-11240
 10
4570
 20
-11240
 10
4570
 20
-11230
 10
4580
 20
-11230
 10
4580
 20
-11220
 10
4590
 20
-11220
 10
4590
 20
-11210
 10
4600
 20
-11210
 10
4600
 20
-11200
 10
4610
 20
-11200
 10
4610
 20
-11190
 10
4620
 20
-11190
 10
4620
 20
-11180
 10
4630
 20
-11180
 10
4630
 20
-11170
 10
4640
 20
-11170
 10
4640
 20
-11160
 10
4650
 20
-11160
 10
4650
 20
-11150
 10
4660
 20
-11150
 10
4660
 20
-11140
 10
4670
 20
-11140
 10
4670
 20
-11130
 10
4680
 20
-11130
 10
4680
 20
-11120
 10
4690
 20
-11120
 10
4690
 20
-11110
 10
4700
 20
-11110
 10
4700
 20
-11100
 10
4710
 20
-11100
 10
4710
 20
-11090
 10
4720
 20
-11090
 10
4720
 20
-11080
 10
4730
 20
-11080
 10
4730
 20
-11060
 10
4740
 20
-11060
 10
4740
 20
-11050
 10
4750
 20
-11050
 10
4750
 20
-11040
 10
4760
 20
-11040
 10
4760
 20
-11020
 10
4770
 20
-11020
 10
4770
 20
-11000
 10
4780
 20
-11000
 10
4780
 20
-10980
 10
4790
 20
-10980
 10
4790
 20
-10950
 10
4800
 20
-10950
 10
4800
 20
-10930
 10
4810
 20
-10930
 10
4810
 20
-10830
 10
4820
 20
-10830
 10
4820
 20
-10090
 10
4830
 20
-10090
 10
4830
 20
-10000
 10
4820
 20
-10000
 10
4820
 20
-9990
 10
4830
 20
-9990
 10
4830
 20
-9920
 10
4820
 20
-9920
 10
4820
 20
-9800
 10
4810
 20
-9800
 10
4810
 20
-9760
 10
4800
 20
-9760
 10
4800
 20
-9730
 10
4790
 20
-9730
 10
4790
 20
-9700
 10
4780
 20
-9700
 10
4780
 20
-9690
 10
4770
 20
-9690
 10
4770
 20
-9670
 10
4750
 20
-9670
 10
4750
 20
-9660
 10
4740
 20
-9660
 10
4740
 20
-9650
 10
4730
 20
-9650
 10
4730
 20
-9640
 10
4700
 20
-9640
 10
4700
 20
-9630
 10
4660
 20
-9630
 10
4660
 20
-9620
 10
4100
 20
-9620
 10
4100
 20
-9610
 10
4070
 20
-9610
 10
4070
 20
-9600
 10
4050
 20
-9600
 10
4050
 20
-9590
 10
4040
 20
-9590
 10
4040
 20
-9580
 10
4030
 20
-9580
 10
4030
 20
-9550
 10
4020
 20
-9550
 10
4020
 20
-9500
 10
4010
 20
-9500
 10
4010
 20
-9360
 10
4000
 20
-9360
 10
4000
 20
-9010
 10
3990
 20
-9010
 10
3990
 20
-9000
 10
3980
 20
-9000
 10
3980
 20
-8950
 10
3990
 20
-8950
 10
3990
 20
-8890
 10
4000
 20
-8890
 10
4000
 20
-7600
 10
4010
 20
-7600
 10
4010
 20
-7590
 10
4000
 20
-7590
 10
4000
 20
-7380
 10
3990
 20
-7380
 10
3990
 20
-7370
 10
3980
 20
-7370
 10
3980
 20
-7360
 10
3990
 20
-7360
 10
3990
 20
-7330
 10
4000
 20
-7330
 10
4000
 20
-6820
 10
4010
 20
-6820
 10
4010
 20
-6230
 10
4000
 20
-6230
 10
4000
 20
-6170
 10
3990
 20
-6170
 10
3990
 20
-6160
 10
4000
 20
-6160
 10
4000
 20
-6110
 10
4010
 20
-6110
 10
4010
 20
-5310
 10
4000
 20
-5310
 10
4000
 20
-5250
 10
3990
 20
-5250
 10
3990
 20
-5220
 10
4000
 20
-5220
 10
4000
 20
-5180
 10
4010
 20
-5180
 10
4010
 20
-3920
 10
4020
 20
-3920
 10
4020
 20
-3720
 10
4030
 20
-3720
 10
4030
 20
-3670
 10
4040
 20
-3670
 10
4040
 20
-3640
 10
4050
 20
-3640
 10
4050
 20
-3630
 10
4060
 20
-3630
 10
4060
 20
-3610
 10
4080
 20
-3610
 10
4080
 20
-3600
 10
4100
 20
-3600
 10
4100
 20
-3590
 10
4160
 20
-3590
 10
4160
 20
-3580
 10
4230
 20
-3580
 10
4230
 20
-3570
 10
4260
 20
-3570
 10
4260
 20
-3560
 10
4290
 20
-3560
 10
4290
 20
-3550
 10
4310
 20
-3550
 10
4310
 20
-3540
 10
4320
 20
-3540
 10
4320
 20
-3530
 10
4330
 20
-3530
 10
4330
 20
-3520
 10
4340
 20
-3520
 10
4340
 20
-3510
 10
4350
 20
-3510
 10
4350
 20
-3490
 10
4360
 20
-3490
 10
4360
 20
-3470
 10
4370
 20
-3470
 10
4370
 20
-3340
 10
4360
 20
-3340
 10
4360
 20
-3310
 10
4350
 20
-3310
 10
4350
 20
-3300
 10
4340
 20
-3300
 10
4340
 20
-3280
 10
4330
 20
-3280
 10
4330
 20
-3260
 10
4320
 20
-3260
 10
4320
 20
-3240
 10
4310
 20
-3240
 10
4310
 20
-3230
 10
4300
 20
-3230
 10
4300
 20
-3220
 10
4290
 20
-3220
 10
4290
 20
-3210
 10
4280
 20
-3210
 10
4280
 20
-3190
 10
4270
 20
-3190
 10
4270
 20
-3180
 10
4260
 20
-3180
 10
4260
 20
-3170
 10
4250
 20
-3170
 10
4250
 20
-3160
 10
4240
 20
-3160
 10
4240
 20
-3150
 10
4230
 20
-3150
 10
4230
 20
-3140
 10
4220
 20
-3140
 10
4220
 20
-3130
 10
4210
 20
-3130
 10
4210
 20
-3120
 10
4190
 20
-3120
 10
4190
 20
-3110
 10
4180
 20
-3110
 10
4180
 20
-3100
 10
4170
 20
-3100
 10
4170
 20
-3090
 10
4160
 20
-3090
 10
4160
 20
-3080
 10
4150
 20
-3080
 10
4150
 20
-3070
 10
4120
 20
-3070
 10
4120
 20
-3060
 10
4100
 20
-3060
 10
4100
 20
-3050
 10
4090
 20
-3050
 10
4090
 20
-3040
 10
4060
 20
-3040
 10
4060
 20
-3030
 10
4010
 20
-3030
 10
4010
 20
-3020
 10
3850
 20
-3020
 10
3850
 20
-3010
 10
3820
 20
-3010
 10
3820
 20
-3020
 10
3640
 20
-3020
 10
3640
 20
-3030
 10
3610
 20
-3030
 10
3610
 20
-3040
 10
3580
 20
-3040
 10
3580
 20
-3050
 10
3560
 20
-3050
 10
3560
 20
-3060
 10
3530
 20
-3060
 10
3530
 20
-3070
 10
3520
 20
-3070
 10
3520
 20
-3080
 10
3500
 20
-3080
 10
3500
 20
-3090
 10
3490
 20
-3090
 10
3490
 20
-3100
 10
3480
 20
-3100
 10
3480
 20
-3110
 10
3470
 20
-3110
 10
3470
 20
-3120
 10
3460
 20
-3120
 10
3460
 20
-3130
 10
3440
 20
-3130
 10
3440
 20
-3140
 10
3430
 20
-3140
 10
3430
 20
-3150
 10
3420
 20
-3150
 10
3420
 20
-3160
 10
3410
 20
-3160
 10
3410
 20
-3170
 10
3400
 20
-3170
 10
3400
 20
-3180
 10
3390
 20
-3180
 10
3390
 20
-3190
 10
3380
 20
-3190
 10
3380
 20
-3200
 10
3370
 20
-3200
 10
3370
 20
-2660
 10
3380
 20
-2660
 10
3380
 20
-2690
 10
3390
 20
-2690
 10
3390
 20
-2710
 10
3400
 20
-2710
 10
3400
 20
-2730
 10
3410
 20
-2730
 10
3410
 20
-2740
 10
3420
 20
-2740
 10
3420
 20
-2750
 10
3430
 20
-2750
 10
3430
 20
-2760
 10
3440
 20
-2760
 10
3440
 20
-2770
 10
3460
 20
-2770
 10
3460
 20
-2780
 10
3470
 20
-2780
 10
3470
 20
-2790
 10
3500
 20
-2790
 10
3500
 20
-2800
 10
3520
 20
-2800
 10
3520
 20
-2810
 10
3610
 20
-2810
 10
3610
 20
-2820
 10
3940
 20
-2820
 10
3940
 20
-2810
 10
3990
 20
-2810
 10
3990
 20
-2820
 10
4000
 20
-2820
 10
4000
 20
-2810
 10
4080
 20
-2810
 10
4080
 20
-2800
 10
4120
 20
-2800
 10
4120
 20
-2790
 10
4150
 20
-2790
 10
4150
 20
-2780
 10
4170
 20
-2780
 10
4170
 20
-2770
 10
4180
 20
-2770
 10
4180
 20
-2760
 10
4200
 20
-2760
 10
4200
 20
-2750
 10
4210
 20
-2750
 10
4210
 20
-2740
 10
4220
 20
-2740
 10
4220
 20
-2730
 10
4230
 20
-2730
 10
4230
 20
-2710
 10
4240
 20
-2710
 10
4240
 20
-2690
 10
4250
 20
-2690
 10
4250
 20
-2660
 10
4260
 20
-2660
 10
4260
 20
-2600
 10
4250
 20
-2600
 10
4250
 20
-2560
 10
4240
 20
-2560
 10
4240
 20
-2540
 10
4230
 20
-2540
 10
4230
 20
-2530
 10
4220
 20
-2530
 10
4220
 20
-2510
 10
4210
 20
-2510
 10
4210
 20
-2500
 10
4200
 20
-2500
 10
4200
 20
-2490
 10
4190
 20
-2490
 10
4190
 20
-2480
 10
4170
 20
-2480
 10
4170
 20
-2470
 10
4160
 20
-2470
 10
4160
 20
-2460
 10
4140
 20
-2460
 10
4140
 20
-2450
 10
4100
 20
-2450
 10
4100
 20
-2440
 10
3980
 20
-2440
 10
3980
 20
-2430
 10
3690
 20
-2430
 10
3690
 20
-2440
 10
3680
 20
-2440
 10
3680
 20
-2430
 10
3670
 20
-2430
 10
3670
 20
-2440
 10
3550
 20
-2440
 10
3550
 20
-2450
 10
3510
 20
-2450
 10
3510
 20
-2460
 10
3480
 20
-2460
 10
3480
 20
-2470
 10
3470
 20
-2470
 10
3470
 20
-2480
 10
3450
 20
-2480
 10
3450
 20
-2490
 10
3440
 20
-2490
 10
3440
 20
-2500
 10
3430
 20
-2500
 10
3430
 20
-2510
 10
3420
 20
-2510
 10
3420
 20
-2520
 10
3410
 20
-2520
 10
3410
 20
-2530
 10
3400
 20
-2530
 10
3400
 20
-2550
 10
3390
 20
-2550
 10
3390
 20
-2570
 10
3380
 20
-2570
 10
3380
 20
-2600
 10
3370
 20
-2600
 10
3370
 20
-3210
 10
3360
 20
-3210
 10
3360
 20
-3220
 10
3350
 20
-3220
 10
3350
 20
-3230
 10
3340
 20
-3230
 10
3340
 20
-3240
 10
3330
 20
-3240
 10
3330
 20
-3250
 10
3320
 20
-3250
 10
3320
 20
-3260
 10
3310
 20
-3260
 10
3310
 20
-3270
 10
3300
 20
-3270
 10
3300
 20
-3280
 10
3290
 20
-3280
 10
3290
 20
-3290
 10
3280
 20
-3290
 10
3280
 20
-3300
 10
3270
 20
-3300
 10
3270
 20
-3310
 10
3260
 20
-3310
 10
3260
 20
-3320
 10
3250
 20
-3320
 10
3250
 20
-3330
 10
3240
 20
-3330
 10
3240
 20
-3340
 10
3220
 20
-3340
 10
3220
 20
-3350
 10
3210
 20
-3350
 10
3210
 20
-3360
 10
3200
 20
-3360
 10
3200
 20
-3370
 10
3180
 20
-3370
 10
3180
 20
-3380
 10
3170
 20
-3380
 10
3170
 20
-3390
 10
3150
 20
-3390
 10
3150
 20
-3400
 10
3120
 20
-3400
 10
3120
 20
-3410
 10
3100
 20
-3410
 10
3100
 20
-3420
 10
3030
 20
-3420
 10
3030
 20
-3430
 10
2580
 20
-3430
 10
2580
 20
-2950
 10
2590
 20
-2950
 10
2590
 20
-2980
 10
2600
 20
-2980
 10
2600
 20
-3010
 10
2610
 20
-3010
 10
2610
 20
-3030
 10
2620
 20
-3030
 10
2620
 20
-3050
 10
2630
 20
-3050
 10
2630
 20
-3070
 10
2650
 20
-3070
 10
2650
 20
-3080
 10
2660
 20
-3080
 10
2660
 20
-3090
 10
2670
 20
-3090
 10
2670
 20
-3100
 10
2690
 20
-3100
 10
2690
 20
-3110
 10
2710
 20
-3110
 10
2710
 20
-3120
 10
2750
 20
-3120
 10
2750
 20
-3130
 10
2790
 20
-3130
 10
2790
 20
-3120
 10
2830
 20
-3120
 10
2830
 20
-3110
 10
2860
 20
-3110
 10
2860
 20
-3100
 10
2870
 20
-3100
 10
2870
 20
-3090
 10
2890
 20
-3090
 10
2890
 20
-3080
 10
2900
 20
-3080
 10
2900
 20
-3070
 10
2910
 20
-3070
 10
2910
 20
-3060
 10
2920
 20
-3060
 10
2920
 20
-3040
 10
2930
 20
-3040
 10
2930
 20
-3020
 10
2940
 20
-3020
 10
2940
 20
-3000
 10
2950
 20
-3000
 10
2950
 20
-2980
 10
2960
 20
-2980
 10
2960
 20
-2900
 10
2970
 20
-2900
 10
2970
 20
-2760
 10
2960
 20
-2760
 10
2960
 20
-2700
 10
2950
 20
-2700
 10
2950
 20
-2670
 10
2940
 20
-2670
 10
2940
 20
-2650
 10
2930
 20
-2650
 10
2930
 20
-2630
 10
2920
 20
-2630
 10
2920
 20
-2620
 10
2910
 20
-2620
 10
2910
 20
-2600
 10
2900
 20
-2600
 10
2900
 20
-2590
 10
2890
 20
-2590
 10
2890
 20
-2580
 10
2880
 20
-2580
 10
2880
 20
-2570
 10
2860
 20
-2570
 10
2860
 20
-2560
 10
2840
 20
-2560
 10
2840
 20
-2550
 10
2780
 20
-2550
 10
2780
 20
-2540
 10
2770
 20
-2540
 10
2770
 20
-2550
 10
2720
 20
-2550
 10
2720
 20
-2560
 10
2690
 20
-2560
 10
2690
 20
-2570
 10
2670
 20
-2570
 10
2670
 20
-2580
 10
2660
 20
-2580
 10
2660
 20
-2590
 10
2650
 20
-2590
 10
2650
 20
-2600
 10
2640
 20
-2600
 10
2640
 20
-2610
 10
2630
 20
-2610
 10
2630
 20
-2630
 10
2620
 20
-2630
 10
2620
 20
-2640
 10
2610
 20
-2640
 10
2610
 20
-2670
 10
2600
 20
-2670
 10
2600
 20
-2700
 10
2590
 20
-2700
 10
2590
 20
-2740
 10
2580
 20
-2740
 10
2580
 20
-3430
 10
2560
 20
-3430
 10
2560
 20
-3420
 10
2480
 20
-3420
 10
2480
 20
-3410
 10
2460
 20
-3410
 10
2460
 20
-3400
 10
2440
 20
-3400
 10
2440
 20
-3390
 10
2430
 20
-3390
 10
2430
 20
-3380
 10
2420
 20
-3380
 10
2420
 20
-3360
 10
2410
 20
-3360
 10
2410
 20
-3310
 10
2400
 20
-3310
 10
2400
 20
-3230
 10
2390
 20
-3230
 10
2390
 20
-3190
 10
2380
 20
-3190
 10
2380
 20
-3160
 10
2370
 20
-3160
 10
2370
 20
-3140
 10
2360
 20
-3140
 10
2360
 20
-3120
 10
2350
 20
-3120
 10
2350
 20
-3100
 10
2340
 20
-3100
 10
2340
 20
-3090
 10
2330
 20
-3090
 10
2330
 20
-3080
 10
2320
 20
-3080
 10
2320
 20
-3070
 10
2310
 20
-3070
 10
2310
 20
-3060
 10
2300
 20
-3060
 10
2300
 20
-3050
 10
2280
 20
-3050
 10
2280
 20
-3040
 10
2250
 20
-3040
 10
2250
 20
-3030
 10
2220
 20
-3030
 10
2220
 20
-3020
 10
2120
 20
-3020
 10
2120
 20
-3010
 10
1510
 20
-3010
 10
1510
 20
-3020
 10
1490
 20
-3020
 10
1490
 20
-3030
 10
1440
 20
-3030
 10
1440
 20
-3040
 10
1360
 20
-3040
 10
1360
 20
-3030
 10
1170
 20
-3030
 10
1170
 20
-3020
 10
1150
 20
-3020
 10
1150
 20
-3010
 10
1140
 20
-3010
 10
1140
 20
-3000
 10
1120
 20
-3000
 10
1120
 20
-2990
 10
1110
 20
-2990
 10
1110
 20
-2980
 10
1070
 20
-2980
 10
1070
 20
-2970
 10
1000
 20
-2970
 10
1000
 20
-2960
 10
680
 20
-2960
 10
680
 20
-2970
 10
110
 20
-2970
 10
110
 20
-2960
 10
100
 20
-2960
 10
100
 20
-2950
 10
90
 20
-2950
 10
90
 20
-2510
 10
120
 20
-2510
 10
120
 20
-2500
 10
300
 20
-2500
 10
300
 20
-2490
 10
650
 20
-2490
 10
650
 20
-2500
 10
680
 20
-2500
 10
680
 20
-2490
 10
690
 20
-2490
 10
690
 20
-2500
 10
1070
 20
-2500
 10
1070
 20
-2490
 10
1100
 20
-2490
 10
1100
 20
-2480
 10
1120
 20
-2480
 10
1120
 20
-2470
 10
1140
 20
-2470
 10
1140
 20
-2460
 10
1150
 20
-2460
 10
1150
 20
-2450
 10
1180
 20
-2450
 10
1180
 20
-2440
 10
1250
 20
-2440
 10
1250
 20
-2450
 10
1300
 20
-2450
 10
1300
 20
-2460
 10
1340
 20
-2460
 10
1340
 20
-2470
 10
1430
 20
-2470
 10
1430
 20
-2480
 10
1460
 20
-2480
 10
1460
 20
-2490
 10
1470
 20
-2490
 10
1470
 20
-2500
 10
1480
 20
-2500
 10
1480
 20
-2510
 10
1490
 20
-2510
 10
1490
 20
-2520
 10
1500
 20
-2520
 10
1500
 20
-2530
 10
1510
 20
-2530
 10
1510
 20
-2540
 10
1590
 20
-2540
 10
1590
 20
-2550
 10
1970
 20
-2550
 10
1970
 20
-2560
 10
1990
 20
-2560
 10
1990
 20
-2550
 10
2130
 20
-2550
 10
2130
 20
-2540
 10
2220
 20
-2540
 10
2220
 20
-2530
 10
2250
 20
-2530
 10
2250
 20
-2520
 10
2280
 20
-2520
 10
2280
 20
-2510
 10
2300
 20
-2510
 10
2300
 20
-2500
 10
2310
 20
-2500
 10
2310
 20
-2490
 10
2330
 20
-2490
 10
2330
 20
-2480
 10
2340
 20
-2480
 10
2340
 20
-2460
 10
2350
 20
-2460
 10
2350
 20
-2450
 10
2360
 20
-2450
 10
2360
 20
-2430
 10
2370
 20
-2430
 10
2370
 20
-2410
 10
2380
 20
-2410
 10
2380
 20
-2390
 10
2390
 20
-2390
 10
2390
 20
-2360
 10
2400
 20
-2360
 10
2400
 20
-2310
 10
2410
 20
-2310
 10
2410
 20
-2280
 10
2420
 20
-2280
 10
2420
 20
-2270
 10
2430
 20
-2270
 10
2430
 20
-2260
 10
2450
 20
-2260
 10
2450
 20
-2250
 10
2480
 20
-2250
 10
2480
 20
-2240
 10
2570
 20
-2240
 10
2570
 20
-2230
 10
4060
 20
-2230
 10
4060
 20
-2240
 10
4080
 20
-2240
 10
4080
 20
-2230
 10
4180
 20
-2230
 10
4180
 20
-2240
 10
4290
 20
-2240
 10
4290
 20
-2250
 10
4320
 20
-2250
 10
4320
 20
-2260
 10
4330
 20
-2260
 10
4330
 20
-2270
 10
4350
 20
-2270
 10
4350
 20
-2280
 10
4360
 20
-2280
 10
4360
 20
-2290
 10
4370
 20
-2290
 10
4370
 20
-2300
 10
4380
 20
-2300
 10
4380
 20
-2310
 10
4390
 20
-2310
 10
4390
 20
-2320
 10
4400
 20
-2320
 10
4400
 20
-2330
 10
4410
 20
-2330
 10
4410
 20
-2340
 10
4420
 20
-2340
 10
4420
 20
-2350
 10
4440
 20
-2350
 10
4440
 20
-2370
 10
4450
 20
-2370
 10
4450
 20
-2380
 10
4470
 20
-2380
 10
4470
 20
-2390
 10
4480
 20
-2390
 10
4480
 20
-2400
 10
4490
 20
-2400
 10
4490
 20
-2410
 10
4500
 20
-2410
 10
4500
 20
-2420
 10
4510
 20
-2420
 10
4510
 20
-2430
 10
4520
 20
-2430
 10
4520
 20
-2440
 10
4530
 20
-2440
 10
4530
 20
-2460
 10
4540
 20
-2460
 10
4540
 20
-2470
 10
4550
 20
-2470
 10
4550
 20
-2480
 10
4560
 20
-2480
 10
4560
 20
-2490
 10
4570
 20
-2490
 10
4570
 20
-2500
 10
4590
 20
-2500
 10
4590
 20
-2520
 10
4600
 20
-2520
 10
4600
 20
-2530
 10
4610
 20
-2530
 10
4610
 20
-2540
 10
4630
 20
-2540
 10
4630
 20
-2550
 10
4640
 20
-2550
 10
4640
 20
-2570
 10
4650
 20
-2570
 10
4650
 20
-2580
 10
4660
 20
-2580
 10
4660
 20
-2590
 10
4670
 20
-2590
 10
4670
 20
-2600
 10
4680
 20
-2600
 10
4680
 20
-2610
 10
4690
 20
-2610
 10
4690
 20
-2620
 10
4700
 20
-2620
 10
4700
 20
-2630
 10
4710
 20
-2630
 10
4710
 20
-2640
 10
4720
 20
-2640
 10
4720
 20
-2650
 10
4730
 20
-2650
 10
4730
 20
-2660
 10
4740
 20
-2660
 10
4740
 20
-2670
 10
4750
 20
-2670
 10
4750
 20
-2680
 10
4760
 20
-2680
 10
4760
 20
-2690
 10
4770
 20
-2690
 10
4770
 20
-2710
 10
4780
 20
-2710
 10
4780
 20
-2720
 10
4790
 20
-2720
 10
4790
 20
-2740
 10
4800
 20
-2740
 10
4800
 20
-2760
 10
4810
 20
-2760
 10
4810
 20
-2790
 10
4820
 20
-2790
 10
4820
 20
-2980
 10
4830
 20
-2980
 10
4830
 20
-3070
 10
4820
 20
-3070
 10
4820
 20
-3120
 10
4830
 20
-3120
 10
4830
 20
-3180
 10
4820
 20
-3180
 10
4820
 20
-3200
 10
4830
 20
-3200
 10
4830
 20
-3430
 10
4840
 20
-3430
 10
4840
 20
-3470
 10
4850
 20
-3470
 10
4850
 20
-3490
 10
4860
 20
-3490
 10
4860
 20
-3510
 10
4870
 20
-3510
 10
4870
 20
-3520
 10
4880
 20
-3520
 10
4880
 20
-3530
 10
4890
 20
-3530
 10
4890
 20
-3540
 10
4910
 20
-3540
 10
4910
 20
-3550
 10
4930
 20
-3550
 10
4930
 20
-3560
 10
4950
 20
-3560
 10
4950
 20
-3570
 10
5020
 20
-3570
 10
5020
 20
-3580
 10
5320
 20
-3580
 10
5320
 20
-3570
 10
5450
 20
-3570
 10
5450
 20
-3560
 10
5460
 20
-3560
 10
5460
 20
-3550
 10
5470
 20
-3550
 10
5470
 20
-3470
 10
5480
 20
-3470
 10
5480
 20
-3410
 10
5490
 20
-3410
 10
5490
 20
-3450
 10
5500
 20
-3450
 10
5500
 20
-3460
 10
5490
 20
-3460
 10
5490
 20
-3470
 10
5500
 20
-3470
 10
5500
 20
-3550
 10
5510
 20
-3550
 10
5510
 20
-3570
 10
5570
 20
-3570
 10
5570
 20
-3580
 10
5580
 20
-3580
 10
5580
 20
-3570
 10
5600
 20
-3570
 10
5600
 20
-3580
 10
5620
 20
-3580
 10
5620
 20
-3570
 10
5630
 20
-3570
 10
5630
 20
-3560
 10
5650
 20
-3560
 10
5650
 20
-3540
 10
5660
 20
-3540
 10
5660
 20
-3520
 10
5650
 20
-3520
 10
5650
 20
-3510
 10
5660
 20
-3510
 10
5660
 20
-3490
 10
5650
 20
-3490
 10
5650
 20
-3470
 10
5660
 20
-3470
 10
5660
 20
-3310
 10
5670
 20
-3310
 10
5670
 20
-3330
 10
5680
 20
-3330
 10
5680
 20
-3550
 10
5690
 20
-3550
 10
5690
 20
-3570
 10
5720
 20
-3570
 10
5720
 20
-3580
 10
5970
 20
-3580
 10
5970
 20
-3590
 10
6060
 20
-3590
 10
6060
 20
-3600
 10
6080
 20
-3600
 10
6080
 20
-3610
 10
6100
 20
-3610
 10
6100
 20
-3630
 10
6110
 20
-3630
 10
6110
 20
-3650
 10
6120
 20
-3650
 10
6120
 20
-3690
 10
6130
 20
-3690
 10
6130
 20
-3830
 10
6140
 20
-3830
 10
6140
 20
-5680
 10
6130
 20
-5680
 10
6130
 20
-5700
 10
6140
 20
-5700
 10
6140
 20
-5860
 10
6150
 20
-5860
 10
6150
 20
-5870
 10
6160
 20
-5870
 10
6160
 20
-5890
 10
6150
 20
-5890
 10
6150
 20
-5910
 10
6140
 20
-5910
 10
6140
 20
-5940
 10
6130
 20
-5940
 10
6130
 20
-6010
 10
6140
 20
-6010
 10
6140
 20
-6150
 10
6150
 20
-6150
 10
6150
 20
-6160
 10
6160
 20
-6160
 10
6160
 20
-6180
 10
6150
 20
-6180
 10
6150
 20
-6200
 10
6140
 20
-6200
 10
6140
 20
-6450
 10
6150
 20
-6450
 10
6150
 20
-6470
 10
6160
 20
-6470
 10
6160
 20
-6490
 10
6150
 20
-6490
 10
6150
 20
-6500
 10
6140
 20
-6500
 10
6140
 20
-6540
 10
6130
 20
-6540
 10
6130
 20
-6590
 10
6140
 20
-6590
 10
6140
 20
-6640
 10
6130
 20
-6640
 10
6130
 20
-6680
 10
6140
 20
-6680
 10
6140
 20
-6690
 10
6130
 20
-6690
 10
6130
 20
-6730
 10
6140
 20
-6730
 10
6140
 20
-6760
 10
6150
 20
-6760
 10
6150
 20
-6810
 10
6140
 20
-6810
 10
6140
 20
-6850
 10
6130
 20
-6850
 10
6130
 20
-6910
 10
6140
 20
-6910
 10
6140
 20
-6920
 10
6130
 20
-6920
 10
6130
 20
-6940
 10
6140
 20
-6940
 10
6140
 20
-6980
 10
6130
 20
-6980
 10
6130
 20
-7010
 10
6140
 20
-7010
 10
6140
 20
-7090
 10
6150
 20
-7090
 10
6150
 20
-7130
 10
6140
 20
-7130
 10
6140
 20
-7150
 10
6130
 20
-7150
 10
6130
 20
-7380
 10
6140
 20
-7380
 10
6140
 20
-7400
 10
6150
 20
-7400
 10
6150
 20
-7410
 10
6160
 20
-7410
 10
6160
 20
-7420
 10
6150
 20
-7420
 10
6150
 20
-7440
 10
6140
 20
-7440
 10
6140
 20
-7460
 10
6130
 20
-7460
 10
6130
 20
-9340
 10
6120
 20
-9340
 10
6120
 20
-9460
 10
6110
 20
-9460
 10
6110
 20
-9530
 10
6100
 20
-9530
 10
6100
 20
-9560
 10
6090
 20
-9560
 10
6090
 20
-9570
 10
6080
 20
-9570
 10
6080
 20
-9590
 10
6070
 20
-9590
 10
6070
 20
-9600
 10
6050
 20
-9600
 10
6050
 20
-9610
 10
6000
 20
-9610
 10
6000
 20
-9620
 10
5990
 20
-9620
 10
5990
 20
-9610
 10
5920
 20
-9610
 10
5920
 20
-9620
 10
5600
 20
-9620
 10
5600
 20
-9610
 10
5590
 20
-9610
 10
5590
 20
-9620
 10
5430
 20
-9620
 10
5430
 20
-9630
 10
5380
 20
-9630
 10
5380
 20
-9640
 10
5360
 20
-9640
 10
5360
 20
-9650
 10
5350
 20
-9650
 10
5350
 20
-9660
 10
5340
 20
-9660
 10
5340
 20
-9670
 10
5320
 20
-9670
 10
5320
 20
-9680
 10
5310
 20
-9680
 10
5310
 20
-9700
 10
5300
 20
-9700
 10
5300
 20
-9710
 10
5290
 20
-9710
 10
5290
 20
-9740
 10
5280
 20
-9740
 10
5280
 20
-9790
 10
5270
 20
-9790
 10
5270
 20
-9910
 10
5260
 20
-9910
 10
5260
 20
-10190
 10
5270
 20
-10190
 10
5270
 20
-10210
 10
5260
 20
-10210
 10
5260
 20
-10230
 10
5270
 20
-10230
 10
5270
 20
-10760
 10
5260
 20
-10760
 10
5260
 20
-10790
 10
5270
 20
-10790
 10
5270
 20
-10880
 10
5260
 20
-10880
 10
5260
 20
-10890
 10
5270
 20
-10890
 10
5270
 20
-10910
 10
5260
 20
-10910
 10
5260
 20
-11090
 10
5250
 20
-11090
 10
5250
 20
-11160
 10
5240
 20
-11160
 10
5240
 20
-11190
 10
5230
 20
-11190
 10
5230
 20
-11210
 10
5220
 20
-11210
 10
5220
 20
-11240
 10
5210
 20
-11240
 10
5210
 20
-11250
 10
5200
 20
-11250
 10
5200
 20
-11270
 10
5190
 20
-11270
 10
5190
 20
-11280
 10
5180
 20
-11280
 10
5180
 20
-11300
 10
5160
 20
-11300
 10
5160
 20
-11320
 10
5150
 20
-11320
 10
5150
 20
-11330
 10
5140
 20
-11330
 10
5140
 20
-11340
 10
5130
 20
-11340
 10
5130
 20
-11350
 10
5120
 20
-11350
 10
5120
 20
-11370
 10
5100
 20
-11370
 10
5100
 20
-11380
 10
5090
 20
-11380
 10
5090
 20
-11390
 10
5080
 20
-11390
 10
5080
 20
-11410
 10
5070
 20
-11410
 10
5070
 20
-11420
 10
5060
 20
-11420
 10
5060
 20
-11430
 10
5050
 20
-11430
 10
5050
 20
-11440
 10
5040
 20
-11440
 10
5040
 20
-11450
 10
5030
 20
-11450
 10
5030
 20
-11460
 10
5020
 20
-11460
 10
5020
 20
-11470
 10
5010
 20
-11470
 10
5010
 20
-11480
 10
5000
 20
-11480
 10
5000
 20
-11490
 10
4990
 20
-11490
 10
4990
 20
-11500
 10
4980
 20
-11500
 10
4980
 20
-11510
 10
4970
 20
-11510
 10
4970
 20
-11520
 10
4960
 20
-11520
 10
4960
 20
-11530
 10
4950
 20
-11530
 10
4950
 20
-11540
 10
4940
 20
-11540
 10
4940
 20
-11550
 10
4930
 20
-11550
 10
4930
 20
-11560
 10
4920
 20
-11560
 10
4920
 20
-11570
 10
4910
 20
-11570
 10
4910
 20
-11580
 10
4900
 20
-11580
 10
4900
 20
-11590
 10
4890
 20
-11590
 10
4890
 20
-11600
 10
4880
 20
-11600
 10
4880
 20
-11610
 10
4870
 20
-11610
 10
4870
 20
-11620
 10
4860
 20
-11620
 10
4860
 20
-11630
 10
4850
 20
-11630
 10
4850
 20
-11640
 10
4840
 20
-11640
 10
4840
 20
-11650
 10
4830
 20
-11650
 10
4830
 20
-11660
 10
4820
 20
-11660
 10
4820
 20
-11670
 10
4810
 20
-11670
 10
4810
 20
-11680
 10
4800
 20
-11680
 10
4800
 20
-11690
 10
4790
 20
-11690
 10
4790
 20
-11700
 10
4780
 20
-11700
 10
4780
 20
-11710
 10
4770
 20
-11710
 10
4770
 20
-11720
 10
4760
 20
-11720
 10
4760
 20
-11730
 10
4750
 20
-11730
 10
4750
 20
-11740
 10
4740
 20
-11740
 10
4740
 20
-11750
 10
4730
 20
-11750
 10
4730
 20
-11760
 10
4720
 20
-11760
 10
4720
 20
-11770
 10
4710
 20
-11770
 10
4710
 20
-11780
 10
4700
 20
-11780
 10
4700
 20
-11790
 10
4690
 20
-11790
 10
4690
 20
-11800
 10
4680
 20
-11800
 10
4680
 20
-11810
 10
4670
 20
-11810
 10
4670
 20
-11820
 10
4660
 20
-11820
 10
4660
 20
-11830
 10
4650
 20
-11830
 10
4650
 20
-11840
 10
4640
 20
-11840
 10
4640
 20
-11850
 10
4630
 20
-11850
 10
4630
 20
-11860
 10
4620
 20
-11860
 10
4620
 20
-11870
 10
4610
 20
-11870
 10
4610
 20
-11880
 10
4600
 20
-11880
 10
4600
 20
-11890
 10
4590
 20
-11890
 10
4590
 20
-11900
 10
4580
 20
-11900
 10
4580
 20
-11910
 10
4570
 20
-11910
 10
4570
 20
-11920
 10
4560
 20
-11920
 10
4560
 20
-11930
 10
4550
 20
-11930
 10
4550
 20
-11940
 10
4540
 20
-11940
 10
4540
 20
-11950
 10
4530
 20
-11950
 10
4530
 20
-11960
 10
4520
 20
-11960
 10
4520
 20
-11970
 10
4510
 20
-11970
 10
4510
 20
-11980
 10
4500
 20
-11980
 10
4500
 20
-11990
 10
4490
 20
-11990
 10
4490
 20
-12000
 10
4480
 20
-12000
 10
4480
 20
-12010
 10
4470
 20
-12010
 10
4470
 20
-12020
 10
4460
 20
-12020
 10
4460
 20
-12030
 10
4450
 20
-12030
 10
4450
 20
-12040
 10
4440
 20
-12040
 10
4440
 20
-12050
 10
4430
 20
-12050
 10
4430
 20
-12060
 10
4420
 20
-12060
 10
4420
 20
-12070
 10
4410
 20
-12070
 10
4410
 20
-12080
 10
4400
 20
-12080
 10
4400
 20
-12090
 10
4390
 20
-12090
 10
4390
 20
-12100
 10
4380
 20
-12100
 10
4380
 20
-12110
 10
4370
 20
-12110
 10
4370
 20
-12120
 10
4360
 20
-12120
 10
4360
 20
-12130
 10
4350
 20
-12130
 10
4350
 20
-12140
 10
4340
 20
-12140
 10
4340
 20
-12150
 10
4320
 20
-12150
 10
4320
 20
-12160
 10
4310
 20
-12160
 10
4310
 20
-12170
 10
4290
 20
-12170
 10
4290
 20
-12180
 10
4280
 20
-12180
 10
4280
 20
-12190
 10
4260
 20
-12190
 10
4260
 20
-12200
 10
4250
 20
-12200
 10
4250
 20
-12210
 10
4220
 20
-12210
 10
4220
 20
-12220
 10
4180
 20
-12220
 10
4180
 20
-12230
 10
4120
 20
-12230
 10
4120
 20
-12240
 10
4080
 20
-12240
 10
4080
 20
-12230
 10
4070
 20
-12230
 10
4070
 20
-12240
 10
3680
 20
-12240
 10
3680
 20
-11810
 10
3690
 20
-11810
 10
3690
 20
-11850
 10
3700
 20
-11850
 10
3700
 20
-11860
 10
3710
 20
-11860
 10
3710
 20
-11890
 10
3720
 20
-11890
 10
3720
 20
-11900
 10
3730
 20
-11900
 10
3730
 20
-11910
 10
3750
 20
-11910
 10
3750
 20
-11920
 10
3760
 20
-11920
 10
3760
 20
-11930
 10
3780
 20
-11930
 10
3780
 20
-11940
 10
3800
 20
-11940
 10
3800
 20
-11950
 10
3820
 20
-11950
 10
3820
 20
-11960
 10
3850
 20
-11960
 10
3850
 20
-11970
 10
3980
 20
-11970
 10
3980
 20
-11980
 10
4030
 20
-11980
 10
4030
 20
-11970
 10
4100
 20
-11970
 10
4100
 20
-11960
 10
4140
 20
-11960
 10
4140
 20
-11950
 10
4160
 20
-11950
 10
4160
 20
-11940
 10
4180
 20
-11940
 10
4180
 20
-11930
 10
4190
 20
-11930
 10
4190
 20
-11920
 10
4210
 20
-11920
 10
4210
 20
-11910
 10
4220
 20
-11910
 10
4220
 20
-11900
 10
4230
 20
-11900
 10
4230
 20
-11890
 10
4240
 20
-11890
 10
4240
 20
-11870
 10
4250
 20
-11870
 10
4250
 20
-11850
 10
4260
 20
-11850
 10
4260
 20
-11830
 10
4270
 20
-11830
 10
4270
 20
-11790
 10
4280
 20
-11790
 10
4280
 20
-11770
 10
4270
 20
-11770
 10
4270
 20
-11720
 10
4260
 20
-11720
 10
4260
 20
-11700
 10
4250
 20
-11700
 10
4250
 20
-11680
 10
4240
 20
-11680
 10
4240
 20
-11660
 10
4230
 20
-11660
 10
4230
 20
-11650
 10
4220
 20
-11650
 10
4220
 20
-11640
 10
4210
 20
-11640
 10
4210
 20
-11630
 10
4190
 20
-11630
 10
4190
 20
-11620
 10
4180
 20
-11620
 10
4180
 20
-11610
 10
4160
 20
-11610
 10
4160
 20
-11600
 10
4100
 20
-11600
 10
4100
 20
-11590
 10
4030
 20
-11590
 10
4030
 20
-11580
 10
4010
 20
-11580
 10
4010
 20
-11590
 10
3970
 20
-11590
 10
3970
 20
-11580
 10
3920
 20
-11580
 10
3920
 20
-11590
 10
3840
 20
-11590
 10
3840
 20
-11600
 10
3800
 20
-11600
 10
3800
 20
-11610
 10
3790
 20
-11610
 10
3790
 20
-11620
 10
3770
 20
-11620
 10
3770
 20
-11630
 10
3750
 20
-11630
 10
3750
 20
-11640
 10
3740
 20
-11640
 10
3740
 20
-11650
 10
3730
 20
-11650
 10
3730
 20
-11670
 10
3720
 20
-11670
 10
3720
 20
-11680
 10
3710
 20
-11680
 10
3710
 20
-11690
 10
3700
 20
-11690
 10
3700
 20
-11710
 10
3690
 20
-11710
 10
3690
 20
-11750
 10
3680
 20
-11750
 10
3680
 20
-12240
 10
2820
 20
-12240
 10
2820
 20
-12250
 10
2790
 20
-12250
 10
2790
 20
-12240
 10
2570
 20
-12240
 10
2570
 20
-11840
 10
2580
 20
-11840
 10
2580
 20
-11870
 10
2590
 20
-11870
 10
2590
 20
-11880
 10
2600
 20
-11880
 10
2600
 20
-11900
 10
2610
 20
-11900
 10
2610
 20
-11910
 10
2620
 20
-11910
 10
2620
 20
-11920
 10
2630
 20
-11920
 10
2630
 20
-11930
 10
2640
 20
-11930
 10
2640
 20
-11940
 10
2660
 20
-11940
 10
2660
 20
-11950
 10
2690
 20
-11950
 10
2690
 20
-11960
 10
2710
 20
-11960
 10
2710
 20
-11970
 10
2770
 20
-11970
 10
2770
 20
-11980
 10
2950
 20
-11980
 10
2950
 20
-11970
 10
3000
 20
-11970
 10
3000
 20
-11960
 10
3040
 20
-11960
 10
3040
 20
-11950
 10
3060
 20
-11950
 10
3060
 20
-11940
 10
3070
 20
-11940
 10
3070
 20
-11930
 10
3090
 20
-11930
 10
3090
 20
-11920
 10
3100
 20
-11920
 10
3100
 20
-11910
 10
3110
 20
-11910
 10
3110
 20
-11900
 10
3120
 20
-11900
 10
3120
 20
-11890
 10
3130
 20
-11890
 10
3130
 20
-11870
 10
3140
 20
-11870
 10
3140
 20
-11850
 10
3150
 20
-11850
 10
3150
 20
-11830
 10
3160
 20
-11830
 10
3160
 20
-11730
 10
3150
 20
-11730
 10
3150
 20
-11700
 10
3140
 20
-11700
 10
3140
 20
-11680
 10
3130
 20
-11680
 10
3130
 20
-11670
 10
3120
 20
-11670
 10
3120
 20
-11660
 10
3110
 20
-11660
 10
3110
 20
-11650
 10
3100
 20
-11650
 10
3100
 20
-11640
 10
3090
 20
-11640
 10
3090
 20
-11630
 10
3080
 20
-11630
 10
3080
 20
-11620
 10
3050
 20
-11620
 10
3050
 20
-11610
 10
3020
 20
-11610
 10
3020
 20
-11600
 10
3000
 20
-11600
 10
3000
 20
-11590
 10
2740
 20
-11590
 10
2740
 20
-11600
 10
2710
 20
-11600
 10
2710
 20
-11610
 10
2690
 20
-11610
 10
2690
 20
-11620
 10
2660
 20
-11620
 10
2660
 20
-11630
 10
2640
 20
-11630
 10
2640
 20
-11640
 10
2630
 20
-11640
 10
2630
 20
-11650
 10
2620
 20
-11650
 10
2620
 20
-11660
 10
2610
 20
-11660
 10
2610
 20
-11670
 10
2600
 20
-11670
 10
2600
 20
-11690
 10
2590
 20
-11690
 10
2590
 20
-11710
 10
2580
 20
-11710
 10
2580
 20
-11730
 10
2570
 20
-11730
 10
2570
 20
-12240
 10
2560
 20
-12240
 10
2560
 20
-12250
 10
2520
 20
-12250
 10
2520
 20
-12240
 10
2450
 20
-12240
 10
2450
 20
-12250
 10
2420
 20
-12250
 10
2420
 20
-12240
 10
1560
 20
-12240
 10
1560
 20
-12250
 10
1480
 20
-12250
 10
1480
 20
-12260
 10
1450
 20
-12260
 10
1450
 20
-12270
 10
1440
 20
-12270
 10
1440
 20
-12280
 10
1430
 20
-12280
 10
1430
 20
-12290
 10
1420
 20
-12290
 10
1420
 20
-12300
 10
1400
 20
-12300
 10
1400
 20
-12310
 10
1370
 20
-12310
 10
1370
 20
-12320
 10
1340
 20
-12320
 10
1340
 20
-12330
 10
1280
 20
-12330
 10
1280
 20
-12340
 10
1230
 20
-12340
 10
1230
 20
-12350
 10
1080
 20
-12350
 10
1080
 20
-12340
 10
1040
 20
-12340
 10
1040
 20
-12330
 10
880
 20
-12330
 10
880
 20
-12340
 10
580
 20
-12340
 10
580
 20
-12350
 10
280
 20
-12350
 10
280
 20
-12360
  0
LWPOLYLINE
  5
64
100
AcDbEntity
  8
L10D0
  6
ByLayer
 62
  256
370
   -1
100
AcDbPolyline
 90
  956
 70
    1
 43
0
 10
5480
 20
-3260
 10
5480
 20
-3250
 10
5470
 20
-3250
 10
5470
 20
-3240
 10
5460
 20
-3240
 10
5460
 20
-3230
 10
5430
 20
-3230
 10
5430
 20
-3220
 10
5410
 20
-3220
 10
5410
 20
-3230
 10
5400
 20
-3230
 10
5400
 20
-3220
 10
5350
 20
-3220
 10
5350
 20
-3210
 10
5330
 20
-3210
 10
5330
 20
-3190
 10
5320
 20
-3190
 10
5320
 20
-3160
 10
5310
 20
-3160
 10
5310
 20
-3010
 10
5300
 20
-3010
 10
5300
 20
-2860
 10
5290
 20
-2860
 10
5290
 20
-2810
 10
5280
 20
-2810
 10
5280
 20
-2780
 10
5270
 20
-2780
 10
5270
 20
-2760
 10
5260
 20
-2760
 10
5260
 20
-2740
 10
5250
 20
-2740
 10
5250
 20
-2720
 10
5240
 20
-2720
 10
5240
 20
-2710
 10
5230
 20
-2710
 10
5230
 20
-2700
 10
5220
 20
-2700
 10
5220
 20
-2680
 10
5210
 20
-2680
 10
5210
 20
-2670
 10
5200
 20
-2670
 10
5200
 20
-2650
 10
5190
 20
-2650
 10
5190
 20
-2630
 10
5180
 20
-2630
 10
5180
 20
-2600
 10
5170
 20
-2600
 10
5170
 20
-2560
 10
5160
 20
-2560
 10
5160
 20
-2500
 10
5150
 20
-2500
 10
5150
 20
-2470
 10
5140
 20
-2470
 10
5140
 20
-2430
 10
5130
 20
-2430
 10
5130
 20
-2410
 10
5120
 20
-2410
 10
5120
 20
-2390
 10
5110
 20
-2390
 10
5110
 20
-2380
 10
5100
 20
-2380
 10
5100
 20
-2370
 10
5090
 20
-2370
 10
5090
 20
-2360
 10
5080
 20
-2360
 10
5080
 20
-2350
 10
5070
 20
-2350
 10
5070
 20
-2340
 10
5060
 20
-2340
 10
5060
 20
-2330
 10
5050
 20
-2330
 10
5050
 20
-2320
 10
5040
 20
-2320
 10
5040
 20
-2310
 10
5030
 20
-2310
 10
5030
 20
-2300
 10
5020
 20
-2300
 10
5020
 20
-2290
 10
5000
 20
-2290
 10
5000
 20
-2280
 10
4990
 20
-2280
 10
4990
 20
-2270
 10
4980
 20
-2270
 10
4980
 20
-2260
 10
4970
 20
-2260
 10
4970
 20
-2250
 10
4950
 20
-2250
 10
4950
 20
-2240
 10
4940
 20
-2240
 10
4940
 20
-2230
 10
4930
 20
-2230
 10
4930
 20
-2220
 10
4910
 20
-2220
 10
4910
 20
-2210
 10
4900
 20
-2210
 10
4900
 20
-2200
 10
4890
 20
-2200
 10
4890
 20
-2190
 10
4870
 20
-2190
 10
4870
 20
-2180
 10
4860
 20
-2180
 10
4860
 20
-2170
 10
4850
 20
-2170
 10
4850
 20
-2160
 10
4830
 20
-2160
 10
4830
 20
-2150
 10
4820
 20
-2150
 10
4820
 20
-2140
 10
4810
 20
-2140
 10
4810
 20
-2130
 10
4800
 20
-2130
 10
4800
 20
-2120
 10
4780
 20
-2120
 10
4780
 20
-2110
 10
4760
 20
-2110
 10
4760
 20
-2100
 10
4750
 20
-2100
 10
4750
 20
-2090
 10
4740
 20
-2090
 10
4740
 20
-2080
 10
4730
 20
-2080
 10
4730
 20
-2070
 10
4720
 20
-2070
 10
4720
 20
-2060
 10
4700
 20
-2060
 10
4700
 20
-2050
 10
4690
 20
-2050
 10
4690
 20
-2040
 10
4680
 20
-2040
 10
4680
 20
-2030
 10
4660
 20
-2030
 10
4660
 20
-2020
 10
4650
 20
-2020
 10
4650
 20
-2010
 10
4640
 20
-2010
 10
4640
 20
-2000
 10
4620
 20
-2000
 10
4620
 20
-1990
 10
4600
 20
-1990
 10
4600
 20
-1980
 10
4590
 20
-1980
 10
4590
 20
-1970
 10
4580
 20
-1970
 10
4580
 20
-1960
 10
4560
 20
-1960
 10
4560
 20
-1950
 10
4540
 20
-1950
 10
4540
 20
-1940
 10
4520
 20
-1940
 10
4520
 20
-1930
 10
4500
 20
-1930
 10
4500
 20
-1920
 10
4460
 20
-1920
 10
4460
 20
-1910
 10
4390
 20
-1910
 10
4390
 20
-1900
 10
4170
 20
-1900
 10
4170
 20
-1910
 10
4060
 20
-1910
 10
4060
 20
-1900
 10
3980
 20
-1900
 10
3980
 20
-1910
 10
3950
 20
-1910
 10
3950
 20
-1900
 10
3940
 20
-1900
 10
3940
 20
-1910
 10
3900
 20
-1910
 10
3900
 20
-1900
 10
3880
 20
-1900
 10
3880
 20
-1910
 10
3820
 20
-1910
 10
3820
 20
-1900
 10
3790
 20
-1900
 10
3790
 20
-1910
 10
3760
 20
-1910
 10
3760
 20
-1900
 10
3710
 20
-1900
 10
3710
 20
-1500
 10
3720
 20
-1500
 10
3720
 20
-1530
 10
3730
 20
-1530
 10
3730
 20
-1550
 10
3740
 20
-1550
 10
3740
 20
-1560
 10
3750
 20
-1560
 10
3750
 20
-1570
 10
3760
 20
-1570
 10
3760
 20
-1590
 10
3780
 20
-1590
 10
3780
 20
-1600
 10
3790
 20
-1600
 10
3790
 20
-1610
 10
3800
 20
-1610
 10
3800
 20
-1620
 10
3820
 20
-1620
 10
3820
 20
-1630
 10
3860
 20
-1630
 10
3860
 20
-1640
 10
3910
 20
-1640
 10
3910
 20
-1650
 10
3990
 20
-1650
 10
3990
 20
-1660
 10
4000
 20
-1660
 10
4000
 20
-1650
 10
4120
 20
-1650
 10
4120
 20
-1640
 10
4160
 20
-1640
 10
4160
 20
-1630
 10
4190
 20
-1630
 10
4190
 20
-1620
 10
4220
 20
-1620
 10
4220
 20
-1610
 10
4230
 20
-1610
 10
4230
 20
-1600
 10
4240
 20
-1600
 10
4240
 20
-1590
 10
4250
 20
-1590
 10
4250
 20
-1580
 10
4260
 20
-1580
 10
4260
 20
-1570
 10
4270
 20
-1570
 10
4270
 20
-1560
 10
4280
 20
-1560
 10
4280
 20
-1540
 10
4290
 20
-1540
 10
4290
 20
-1520
 10
4300
 20
-1520
 10
4300
 20
-1400
 10
4290
 20
-1400
 10
4290
 20
-1390
 10
4280
 20
-1390
 10
4280
 20
-1360
 10
4270
 20
-1360
 10
4270
 20
-1350
 10
4260
 20
-1350
 10
4260
 20
-1340
 10
4250
 20
-1340
 10
4250
 20
-1330
 10
4240
 20
-1330
 10
4240
 20
-1320
 10
4230
 20
-1320
 10
4230
 20
-1310
 10
4210
 20
-1310
 10
4210
 20
-1300
 10
4190
 20
-1300
 10
4190
 20
-1290
 10
4170
 20
-1290
 10
4170
 20
-1280
 10
4140
 20
-1280
 10
4140
 20
-1270
 10
3890
 20
-1270
 10
3890
 20
-1280
 10
3850
 20
-1280
 10
3850
 20
-1290
 10
3820
 20
-1290
 10
3820
 20
-1300
 10
3800
 20
-1300
 10
3800
 20
-1310
 10
3790
 20
-1310
 10
3790
 20
-1320
 10
3780
 20
-1320
 10
3780
 20
-1330
 10
3770
 20
-1330
 10
3770
 20
-1340
 10
3750
 20
-1340
 10
3750
 20
-1360
 10
3740
 20
-1360
 10
3740
 20
-1370
 10
3730
 20
-1370
 10
3730
 20
-1390
 10
3720
 20
-1390
 10
3720
 20
-1440
 10
3710
 20
-1440
 10
3710
 20
-1900
 10
3700
 20
-1900
 10
3700
 20
-1910
 10
3660
 20
-1910
 10
3660
 20
-1900
 10
3630
 20
-1900
 10
3630
 20
-1910
 10
3590
 20
-1910
 10
3590
 20
-1900
 10
3490
 20
-1900
 10
3490
 20
-1910
 10
3480
 20
-1910
 10
3480
 20
-1900
 10
3440
 20
-1900
 10
3440
 20
-1910
 10
3060
 20
-1910
 10
3060
 20
-1900
 10
3020
 20
-1900
 10
3020
 20
-1910
 10
2730
 20
-1910
 10
2730
 20
-1900
 10
2600
 20
-1900
 10
2600
 20
-1500
 10
2610
 20
-1500
 10
2610
 20
-1530
 10
2620
 20
-1530
 10
2620
 20
-1560
 10
2630
 20
-1560
 10
2630
 20
-1570
 10
2640
 20
-1570
 10
2640
 20
-1580
 10
2650
 20
-1580
 10
2650
 20
-1590
 10
2660
 20
-1590
 10
2660
 20
-1600
 10
2680
 20
-1600
 10
2680
 20
-1610
 10
2690
 20
-1610
 10
2690
 20
-1620
 10
2710
 20
-1620
 10
2710
 20
-1630
 10
2740
 20
-1630
 10
2740
 20
-1640
 10
2790
 20
-1640
 10
2790
 20
-1650
 10
2990
 20
-1650
 10
2990
 20
-1640
 10
3060
 20
-1640
 10
3060
 20
-1630
 10
3070
 20
-1630
 10
3070
 20
-1620
 10
3100
 20
-1620
 10
3100
 20
-1610
 10
3110
 20
-1610
 10
3110
 20
-1600
 10
3130
 20
-1600
 10
3130
 20
-1590
 10
3140
 20
-1590
 10
3140
 20
-1580
 10
3150
 20
-1580
 10
3150
 20
-1570
 10
3160
 20
-1570
 10
3160
 20
-1560
 10
3170
 20
-1560
 10
3170
 20
-1540
 10
3180
 20
-1540
 10
3180
 20
-1510
 10
3190
 20
-1510
 10
3190
 20
-1400
 10
3180
 20
-1400
 10
3180
 20
-1380
 10
3170
 20
-1380
 10
3170
 20
-1360
 10
3160
 20
-1360
 10
3160
 20
-1350
 10
3150
 20
-1350
 10
3150
 20
-1340
 10
3140
 20
-1340
 10
3140
 20
-1330
 10
3130
 20
-1330
 10
3130
 20
-1320
 10
3120
 20
-1320
 10
3120
 20
-1310
 10
3100
 20
-1310
 10
3100
 20
-1300
 10
3090
 20
-1300
 10
3090
 20
-1290
 10
3060
 20
-1290
 10
3060
 20
-1280
 10
3020
 20
-1280
 10
3020
 20
-1270
 10
2780
 20
-1270
 10
2780
 20
-1280
 10
2740
 20
-1280
 10
2740
 20
-1290
 10
2710
 20
-1290
 10
2710
 20
-1300
 10
2690
 20
-1300
 10
2690
 20
-1310
 10
2680
 20
-1310
 10
2680
 20
-1320
 10
2660
 20
-1320
 10
2660
 20
-1330
 10
2650
 20
-1330
 10
2650
 20
-1340
 10
2640
 20
-1340
 10
2640
 20
-1350
 10
2630
 20
-1350
 10
2630
 20
-1370
 10
2620
 20
-1370
 10
2620
 20
-1390
 10
2610
 20
-1390
 10
2610
 20
-1410
 10
2600
 20
-1410
 10
2600
 20
-1900
 10
2570
 20
-1900
 10
2570
 20
-1890
 10
2470
 20
-1890
 10
2470
 20
-1880
 10
2440
 20
-1880
 10
2440
 20
-1870
 10
2420
 20
-1870
 10
2420
 20
-1850
 10
2410
 20
-1850
 10
2410
 20
-1830
 10
2400
 20
-1830
 10
2400
 20
-1760
 10
2390
 20
-1760
 10
2390
 20
-1700
 10
2380
 20
-1700
 10
2380
 20
-1650
 10
2370
 20
-1650
 10
2370
 20
-1620
 10
2360
 20
-1620
 10
2360
 20
-1600
 10
2350
 20
-1600
 10
2350
 20
-1580
 10
2340
 20
-1580
 10
2340
 20
-1570
 10
2330
 20
-1570
 10
2330
 20
-1560
 10
2320
 20
-1560
 10
2320
 20
-1550
 10
2310
 20
-1550
 10
2310
 20
-1540
 10
2300
 20
-1540
 10
2300
 20
-1530
 10
2290
 20
-1530
 10
2290
 20
-1520
 10
2270
 20
-1520
 10
2270
 20
-1510
 10
2240
 20
-1510
 10
2240
 20
-1500
 10
2200
 20
-1500
 10
2200
 20
-1490
 10
2120
 20
-1490
 10
2120
 20
-1480
 10
1480
 20
-1480
 10
1480
 20
-1490
 10
1450
 20
-1490
 10
1450
 20
-1500
 10
1260
 20
-1500
 10
1260
 20
-1490
 10
1240
 20
-1490
 10
1240
 20
-1500
 10
1230
 20
-1500
 10
1230
 20
-1490
 10
1170
 20
-1490
 10
1170
 20
-1480
 10
1140
 20
-1480
 10
1140
 20
-1470
 10
1130
 20
-1470
 10
1130
 20
-1460
 10
1120
 20
-1460
 10
1120
 20
-1450
 10
1110
 20
-1450
 10
1110
 20
-1440
 10
1090
 20
-1440
 10
1090
 20
-1430
 10
1070
 20
-1430
 10
1070
 20
-1420
 10
1040
 20
-1420
 10
1040
 20
-1410
 10
860
 20
-1410
 10
860
 20
-1400
 10
780
 20
-1400
 10
780
 20
-1410
 10
690
 20
-1410
 10
690
 20
-1400
 10
680
 20
-1400
 10
680
 20
-1410
 10
100
 20
-1410
 10
100
 20
-1400
 10
90
 20
-1400
 10
90
 20
-1390
 10
80
 20
-1390
 10
80
 20
-1170
 10
70
 20
-1170
 10
70
 20
-1140
 10
80
 20
-1140
 10
80
 20
-1060
 10
70
 20
-1060
 10
70
 20
-1050
 10
80
 20
-1050
 10
80
 20
-1020
 10
70
 20
-1020
 10
70
 20
-990
 10
80
 20
-990
 10
80
 20
-950
 10
100
 20
-950
 10
100
 20
-940
 10
260
 20
-940
 10
260
 20
-930
 10
580
 20
-930
 10
580
 20
-940
 10
770
 20
-940
 10
770
 20
-950
 10
1070
 20
-950
 10
1070
 20
-940
 10
1100
 20
-940
 10
1100
 20
-930
 10
1120
 20
-930
 10
1120
 20
-920
 10
1140
 20
-920
 10
1140
 20
-910
 10
1160
 20
-910
 10
1160
 20
-900
 10
1250
 20
-900
 10
1250
 20
-910
 10
1300
 20
-910
 10
1300
 20
-920
 10
1340
 20
-920
 10
1340
 20
-930
 10
1400
 20
-930
 10
1400
 20
-940
 10
1430
 20
-940
 10
1430
 20
-950
 10
1460
 20
-950
 10
1460
 20
-970
 10
1470
 20
-970
 10
1470
 20
-980
 10
1480
 20
-980
 10
1480
 20
-990
 10
1490
 20
-990
 10
1490
 20
-1000
 10
1500
 20
-1000
 10
1500
 20
-1010
 10
1540
 20
-1010
 10
1540
 20
-1020
 10
2180
 20
-1020
 10
2180
 20
-1010
 10
2200
 20
-1010
 10
2200
 20
-1020
 10
2240
 20
-1020
 10
2240
 20
-1010
 10
3990
 20
-1010
 10
3990
 20
-1020
 10
4160
 20
-1020
 10
4160
 20
-1030
 10
4190
 20
-1030
 10
4190
 20
-1040
 10
4220
 20
-1040
 10
4220
 20
-1050
 10
4240
 20
-1050
 10
4240
 20
-1060
 10
4260
 20
-1060
 10
4260
 20
-1070
 10
4280
 20
-1070
 10
4280
 20
-1080
 10
4300
 20
-1080
 10
4300
 20
-1090
 10
4310
 20
-1090
 10
4310
 20
-1100
 10
4330
 20
-1100
 10
4330
 20
-1110
 10
4340
 20
-1110
 10
4340
 20
-1120
 10
4350
 20
-1120
 10
4350
 20
-1130
 10
4370
 20
-1130
 10
4370
 20
-1140
 10
4390
 20
-1140
 10
4390
 20
-1150
 10
4400
 20
-1150
 10
4400
 20
-1160
 10
4410
 20
-1160
 10
4410
 20
-1170
 10
4430
 20
-1170
 10
4430
 20
-1180
 10
4440
 20
-1180
 10
4440
 20
-1190
 10
4460
 20
-1190
 10
4460
 20
-1200
 10
4470
 20
-1200
 10
4470
 20
-1210
 10
4480
 20
-1210
 10
4480
 20
-1220
 10
4500
 20
-1220
 10
4500
 20
-1230
 10
4510
 20
-1230
 10
4510
 20
-1240
 10
4520
 20
-1240
 10
4520
 20
-1250
 10
4530
 20
-1250
 10
4530
 20
-1260
 10
4540
 20
-1260
 10
4540
 20
-1270
 10
4560
 20
-1270
 10
4560
 20
-1280
 10
4580
 20
-1280
 10
4580
 20
-1290
 10
4590
 20
-1290
 10
4590
 20
-1300
 10
4600
 20
-1300
 10
4600
 20
-1310
 10
4620
 20
-1310
 10
4620
 20
-1320
 10
4630
 20
-1320
 10
4630
 20
-1330
 10
4640
 20
-1330
 10
4640
 20
-1340
 10
4650
 20
-1340
 10
4650
 20
-1350
 10
4660
 20
-1350
 10
4660
 20
-1360
 10
4680
 20
-1360
 10
4680
 20
-1370
 10
4700
 20
-1370
 10
4700
 20
-1380
 10
4710
 20
-1380
 10
4710
 20
-1390
 10
4720
 20
-1390
 10
4720
 20
-1400
 10
4740
 20
-1400
 10
4740
 20
-1410
 10
4750
 20
-1410
 10
4750
 20
-1420
 10
4760
 20
-1420
 10
4760
 20
-1430
 10
4770
 20
-1430
 10
4770
 20
-1440
 10
4790
 20
-1440
 10
4790
 20
-1450
 10
4800
 20
-1450
 10
4800
 20
-1460
 10
4810
 20
-1460
 10
4810
 20
-1470
 10
4830
 20
-1470
 10
4830
 20
-1480
 10
4840
 20
-1480
 10
4840
 20
-1490
 10
4850
 20
-1490
 10
4850
 20
-1500
 10
4870
 20
-1500
 10
4870
 20
-1510
 10
4880
 20
-1510
 10
4880
 20
-1520
 10
4890
 20
-1520
 10
4890
 20
-1530
 10
4910
 20
-1530
 10
4910
 20
-1540
 10
4920
 20
-1540
 10
4920
 20
-1550
 10
4930
 20
-1550
 10
4930
 20
-1560
 10
4940
 20
-1560
 10
4940
 20
-1570
 10
4960
 20
-1570
 10
4960
 20
-1580
 10
4970
 20
-1580
 10
4970
 20
-1590
 10
4990
 20
-1590
 10
4990
 20
-1600
 10
5000
 20
-1600
 10
5000
 20
-1610
 10
5010
 20
-1610
 10
5010
 20
-1620
 10
5030
 20
-1620
 10
5030
 20
-1630
 10
5040
 20
-1630
 10
5040
 20
-1640
 10
5050
 20
-1640
 10
5050
 20
-1650
 10
5060
 20
-1650
 10
5060
 20
-1660
 10
5080
 20
-1660
 10
5080
 20
-1670
 10
5090
 20
-1670
 10
5090
 20
-1680
 10
5110
 20
-1680
 10
5110
 20
-1690
 10
5120
 20
-1690
 10
5120
 20
-1700
 10
5140
 20
-1700
 10
5140
 20
-1710
 10
5150
 20
-1710
 10
5150
 20
-1720
 10
5160
 20
-1720
 10
5160
 20
-1730
 10
5180
 20
-1730
 10
5180
 20
-1740
 10
5190
 20
-1740
 10
5190
 20
-1750
 10
5200
 20
-1750
 10
5200
 20
-1760
 10
5210
 20
-1760
 10
5210
 20
-1770
 10
5220
 20
-1770
 10
5220
 20
-1780
 10
5240
 20
-1780
 10
5240
 20
-1790
 10
5250
 20
-1790
 10
5250
 20
-1800
 10
5270
 20
-1800
 10
5270
 20
-1810
 10
5290
 20
-1810
 10
5290
 20
-1820
 10
5300
 20
-1820
 10
5300
 20
-1830
 10
5320
 20
-1830
 10
5320
 20
-1840
 10
5330
 20
-1840
 10
5330
 20
-1850
 10
5350
 20
-1850
 10
5350
 20
-1860
 10
5370
 20
-1860
 10
5370
 20
-1870
 10
5390
 20
-1870
 10
5390
 20
-1880
 10
5410
 20
-1880
 10
5410
 20
-1890
 10
5450
 20
-1890
 10
5450
 20
-2450
 10
5460
 20
-2450
 10
5460
 20
-2490
 10
5470
 20
-2490
 10
5470
 20
-2500
 10
5480
 20
-2500
 10
5480
 20
-2520
 10
5490
 20
-2520
 10
5490
 20
-2540
 10
5500
 20
-2540
 10
5500
 20
-2550
 10
5510
 20
-2550
 10
5510
 20
-2560
 10
5530
 20
-2560
 10
5530
 20
-2570
 10
5550
 20
-2570
 10
5550
 20
-2580
 10
5570
 20
-2580
 10
5570
 20
-2590
 10
5600
 20
-2590
 10
5600
 20
-2600
 10
5680
 20
-2600
 10
5680
 20
-2590
 10
5710
 20
-2590
 10
5710
 20
-2580
 10
5730
 20
-2580
 10
5730
 20
-2570
 10
5740
 20
-2570
 10
5740
 20
-2560
 10
5760
 20
-2560
 10
5760
 20
-2550
 10
5770
 20
-2550
 10
5770
 20
-2540
 10
5780
 20
-2540
 10
5780
 20
-2530
 10
5790
 20
-2530
 10
5790
 20
-2510
 10
5800
 20
-2510
 10
5800
 20
-2490
 10
5810
 20
-2490
 10
5810
 20
-2440
 10
5820
 20
-2440
 10
5820
 20
-2380
 10
5810
 20
-2380
 10
5810
 20
-2350
 10
5800
 20
-2350
 10
5800
 20
-2330
 10
5790
 20
-2330
 10
5790
 20
-2310
 10
5780
 20
-2310
 10
5780
 20
-2300
 10
5770
 20
-2300
 10
5770
 20
-2290
 10
5760
 20
-2290
 10
5760
 20
-2280
 10
5750
 20
-2280
 10
5750
 20
-2270
 10
5740
 20
-2270
 10
5740
 20
-2260
 10
5720
 20
-2260
 10
5720
 20
-2250
 10
5690
 20
-2250
 10
5690
 20
-2240
 10
5580
 20
-2240
 10
5580
 20
-2250
 10
5560
 20
-2250
 10
5560
 20
-2260
 10
5540
 20
-2260
 10
5540
 20
-2270
 10
5520
 20
-2270
 10
5520
 20
-2280
 10
5510
 20
-2280
 10
5510
 20
-2290
 10
5500
 20
-2290
 10
5500
 20
-2300
 10
5490
 20
-2300
 10
5490
 20
-2320
 10
5480
 20
-2320
 10
5480
 20
-2330
 10
5470
 20
-2330
 10
5470
 20
-2360
 10
5460
 20
-2360
 10
5460
 20
-2400
 10
5450
 20
-2400
 10
5450
 20
-1900
 10
5500
 20
-1900
 10
5500
 20
-1910
 10
5620
 20
-1910
 10
5620
 20
-1920
 10
5730
 20
-1920
 10
5730
 20
-1930
 10
5770
 20
-1930
 10
5770
 20
-1940
 10
5800
 20
-1940
 10
5800
 20
-1950
 10
5830
 20
-1950
 10
5830
 20
-1960
 10
5850
 20
-1960
 10
5850
 20
-1970
 10
5870
 20
-1970
 10
5870
 20
-1980
 10
5880
 20
-1980
 10
5880
 20
-1990
 10
5890
 20
-1990
 10
5890
 20
-2000
 10
5910
 20
-2000
 10
5910
 20
-2010
 10
5920
 20
-2010
 10
5920
 20
-2020
 10
5930
 20
-2020
 10
5930
 20
-2030
 10
5940
 20
-2030
 10
5940
 20
-2040
 10
5950
 20
-2040
 10
5950
 20
-2050
 10
5960
 20
-2050
 10
5960
 20
-2060
 10
5970
 20
-2060
 10
5970
 20
-2070
 10
5980
 20
-2070
 10
5980
 20
-2080
 10
5990
 20
-2080
 10
5990
 20
-2090
 10
6000
 20
-2090
 10
6000
 20
-2100
 10
6010
 20
-2100
 10
6010
 20
-2110
 10
6020
 20
-2110
 10
6020
 20
-2120
 10
6030
 20
-2120
 10
6030
 20
-2140
 10
6040
 20
-2140
 10
6040
 20
-2150
 10
6050
 20
-2150
 10
6050
 20
-2160
 10
6060
 20
-2160
 10
6060
 20
-2170
 10
6070
 20
-2170
 10
6070
 20
-2190
 10
6080
 20
-2190
 10
6080
 20
-2210
 10
6090
 20
-2210
 10
6090
 20
-2230
 10
6100
 20
-2230
 10
6100
 20
-2260
 10
6110
 20
-2260
 10
6110
 20
-2340
 10
6120
 20
-2340
 10
6120
 20
-2510
 10
6110
 20
-2510
 10
6110
 20
-2560
 10
6100
 20
-2560
 10
6100
 20
-2600
 10
6090
 20
-2600
 10
6090
 20
-2630
 10
6080
 20
-2630
 10
6080
 20
-2650
 10
6070
 20
-2650
 10
6070
 20
-2660
 10
6060
 20
-2660
 10
6060
 20
-2670
 10
6050
 20
-2670
 10
6050
 20
-2690
 10
6040
 20
-2690
 10
6040
 20
-2700
 10
6030
 20
-2700
 10
6030
 20
-2710
 10
6020
 20
-2710
 10
6020
 20
-2720
 10
6010
 20
-2720
 10
6010
 20
-2730
 10
6000
 20
-2730
 10
6000
 20
-2740
 10
5990
 20
-2740
 10
5990
 20
-2760
 10
5980
 20
-2760
 10
5980
 20
-2770
 10
5970
 20
-2770
 10
5970
 20
-2780
 10
5960
 20
-2780
 10
5960
 20
-2790
 10
5940
 20
-2790
 10
5940
 20
-2800
 10
5930
 20
-2800
 10
5930
 20
-2820
 10
5920
 20
-2820
 10
5920
 20
-2830
 10
5910
 20
-2830
 10
5910
 20
-2840
 10
5900
 20
-2840
 10
5900
 20
-2850
 10
5890
 20
-2850
 10
5890
 20
-2860
 10
5880
 20
-2860
 10
5880
 20
-2870
 10
5870
 20
-2870
 10
5870
 20
-2880
 10
5860
 20
-2880
 10
5860
 20
-2890
 10
5850
 20
-2890
 10
5850
 20
-2900
 10
5840
 20
-2900
 10
5840
 20
-2910
 10
5830
 20
-2910
 10
5830
 20
-2920
 10
5820
 20
-2920
 10
5820
 20
-2930
 10
5810
 20
-2930
 10
5810
 20
-2940
 10
5800
 20
-2940
 10
5800
 20
-2950
 10
5790
 20
-2950
 10
5790
 20
-2970
 10
5780
 20
-2970
 10
5780
 20
-2990
 10
5770
 20
-2990
 10
5770
 20
-3010
 10
5760
 20
-3010
 10
5760
 20
-3030
 10
5750
 20
-3030
 10
5750
 20
-3050
 10
5740
 20
-3050
 10
5740
 20
-3080
 10
5730
 20
-3080
 10
5730
 20
-3130
 10
5720
 20
-3130
 10
5720
 20
-3170
 10
5710
 20
-3170
 10
5710
 20
-3190
 10
5700
 20
-3190
 10
5700
 20
-3210
 10
5690
 20
-3210
 10
5690
 20
-3230
 10
5680
 20
-3230
 10
5680
 20
-3240
 10
5670
 20
-3240
 10
5670
 20
-3250
 10
5660
 20
-3250
 10
5660
 20
-3240
 10
5640
 20
-3240
 10
5640
 20
-3230
 10
5610
 20
-3230
 10
5610
 20
-3220
 10
5580
 20
-3220
 10
5580
 20
-3230
 10
5510
 20
-3230
 10
5510
 20
-3240
 10
5500
 20
-3240
 10
5500
 20
-3250
 10
5490
 20
-3250
 10
5490
 20
-3260
  0
LWPOLYLINE
  5
65
100
AcDbEntity
  8
L10D0
  6
ByLayer
 62
  256
370
   -1
100
AcDbPolyline
 90
    6
 70
    1
 43
0
 10
3900
 20
-9080
 10
3900
 20
-9070
 10
3910
 20
-9070
 10
3910
 20
-9060
 10
3920
 20
-9060
 10
3920
 20
-9080
  0
LWPOLYLINE
  5
66
100
AcDbEntity
  8
L10D0
  6
ByLayer
 62
  256
370
   -1
100
AcDbPolyline
 90
  330
 70
    1
 43
0
 10
2650
 20
-7910
 10
2650
 20
-7900
 10
2600
 20
-7900
 10
2600
 20
-7480
 10
2610
 20
-7480
 10
2610
 20
-7490
 10
2620
 20
-7490
 10
2620
 20
-7500
 10
2630
 20
-7500
 10
2630
 20
-7510
 10
2640
 20
-7510
 10
2640
 20
-7520
 10
2660
 20
-7520
 10
2660
 20
-7530
 10
2690
 20
-7530
 10
2690
 20
-7540
 10
2810
 20
-7540
 10
2810
 20
-7530
 10
2830
 20
-7530
 10
2830
 20
-7520
 10
2850
 20
-7520
 10
2850
 20
-7510
 10
2860
 20
-7510
 10
2860
 20
-7500
 10
2870
 20
-7500
 10
2870
 20
-7490
 10
2890
 20
-7490
 10
2890
 20
-7480
 10
2900
 20
-7480
 10
2900
 20
-7470
 10
2910
 20
-7470
 10
2910
 20
-7450
 10
2920
 20
-7450
 10
2920
 20
-7430
 10
2930
 20
-7430
 10
2930
 20
-7420
 10
2940
 20
-7420
 10
2940
 20
-7370
 10
2950
 20
-7370
 10
2950
 20
-7300
 10
2940
 20
-7300
 10
2940
 20
-7260
 10
2930
 20
-7260
 10
2930
 20
-7240
 10
2920
 20
-7240
 10
2920
 20
-7220
 10
2910
 20
-7220
 10
2910
 20
-7210
 10
2900
 20
-7210
 10
2900
 20
-7200
 10
2890
 20
-7200
 10
2890
 20
-7190
 10
2870
 20
-7190
 10
2870
 20
-7180
 10
2860
 20
-7180
 10
2860
 20
-7170
 10
2850
 20
-7170
 10
2850
 20
-7160
 10
2830
 20
-7160
 10
2830
 20
-7150
 10
2800
 20
-7150
 10
2800
 20
-7140
 10
2700
 20
-7140
 10
2700
 20
-7150
 10
2680
 20
-7150
 10
2680
 20
-7160
 10
2650
 20
-7160
 10
2650
 20
-7170
 10
2640
 20
-7170
 10
2640
 20
-7180
 10
2620
 20
-7180
 10
2620
 20
-7190
 10
2610
 20
-7190
 10
2610
 20
-7210
 10
2590
 20
-7210
 10
2590
 20
-7220
 10
2580
 20
-7220
 10
2580
 20
-7240
 10
2570
 20
-7240
 10
2570
 20
-7260
 10
2560
 20
-7260
 10
2560
 20
-7280
 10
2550
 20
-7280
 10
2550
 20
-7320
 10
2540
 20
-7320
 10
2540
 20
-7370
 10
2550
 20
-7370
 10
2550
 20
-7400
 10
2560
 20
-7400
 10
2560
 20
-7430
 10
2570
 20
-7430
 10
2570
 20
-7450
 10
2580
 20
-7450
 10
2580
 20
-7460
 10
2590
 20
-7460
 10
2590
 20
-7470
 10
2600
 20
-7470
 10
2600
 20
-7900
 10
2530
 20
-7900
 10
2530
 20
-7890
 10
2520
 20
-7890
 10
2520
 20
-7900
 10
2500
 20
-7900
 10
2500
 20
-7890
 10
2460
 20
-7890
 10
2460
 20
-7880
 10
2430
 20
-7880
 10
2430
 20
-7870
 10
2420
 20
-7870
 10
2420
 20
-7860
 10
2410
 20
-7860
 10
2410
 20
-7840
 10
2400
 20
-7840
 10
2400
 20
-7810
 10
2390
 20
-7810
 10
2390
 20
-7780
 10
2380
 20
-7780
 10
2380
 20
-7750
 10
2370
 20
-7750
 10
2370
 20
-7730
 10
2360
 20
-7730
 10
2360
 20
-7710
 10
2350
 20
-7710
 10
2350
 20
-7690
 10
2340
 20
-7690
 10
2340
 20
-7680
 10
2330
 20
-7680
 10
2330
 20
-7670
 10
2320
 20
-7670
 10
2320
 20
-7660
 10
2310
 20
-7660
 10
2310
 20
-7650
 10
2300
 20
-7650
 10
2300
 20
-7640
 10
2290
 20
-7640
 10
2290
 20
-7630
 10
2270
 20
-7630
 10
2270
 20
-7620
 10
2250
 20
-7620
 10
2250
 20
-7610
 10
2200
 20
-7610
 10
2200
 20
-7600
 10
2120
 20
-7600
 10
2120
 20
-7590
 10
2090
 20
-7590
 10
2090
 20
-7600
 10
2080
 20
-7600
 10
2080
 20
-7590
 10
1670
 20
-7590
 10
1670
 20
-7600
 10
1610
 20
-7600
 10
1610
 20
-7590
 10
1600
 20
-7590
 10
1600
 20
-7600
 10
1510
 20
-7600
 10
1510
 20
-7610
 10
1490
 20
-7610
 10
1490
 20
-7620
 10
1470
 20
-7620
 10
1470
 20
-7630
 10
1450
 20
-7630
 10
1450
 20
-7640
 10
1360
 20
-7640
 10
1360
 20
-7650
 10
1270
 20
-7650
 10
1270
 20
-7660
 10
1150
 20
-7660
 10
1150
 20
-7650
 10
1130
 20
-7650
 10
1130
 20
-7640
 10
1110
 20
-7640
 10
1110
 20
-7630
 10
1080
 20
-7630
 10
1080
 20
-7620
 10
670
 20
-7620
 10
670
 20
-7630
 10
110
 20
-7630
 10
110
 20
-7620
 10
100
 20
-7620
 10
100
 20
-7610
 10
90
 20
-7610
 10
90
 20
-7360
 10
100
 20
-7360
 10
100
 20
-7280
 10
90
 20
-7280
 10
90
 20
-7200
 10
100
 20
-7200
 10
100
 20
-7180
 10
110
 20
-7180
 10
110
 20
-7170
 10
140
 20
-7170
 10
140
 20
-7160
 10
370
 20
-7160
 10
370
 20
-7150
 10
670
 20
-7150
 10
670
 20
-7160
 10
970
 20
-7160
 10
970
 20
-7150
 10
1060
 20
-7150
 10
1060
 20
-7140
 10
1090
 20
-7140
 10
1090
 20
-7130
 10
1110
 20
-7130
 10
1110
 20
-7120
 10
1120
 20
-7120
 10
1120
 20
-7110
 10
1130
 20
-7110
 10
1130
 20
-7100
 10
1140
 20
-7100
 10
1140
 20
-7090
 10
1150
 20
-7090
 10
1150
 20
-7080
 10
1170
 20
-7080
 10
1170
 20
-7070
 10
1330
 20
-7070
 10
1330
 20
-7080
 10
1460
 20
-7080
 10
1460
 20
-7090
 10
1470
 20
-7090
 10
1470
 20
-7100
 10
1480
 20
-7100
 10
1480
 20
-7110
 10
1490
 20
-7110
 10
1490
 20
-7120
 10
1510
 20
-7120
 10
1510
 20
-7130
 10
2150
 20
-7130
 10
2150
 20
-7120
 10
2190
 20
-7120
 10
2190
 20
-7110
 10
2240
 20
-7110
 10
2240
 20
-7100
 10
2270
 20
-7100
 10
2270
 20
-7090
 10
2290
 20
-7090
 10
2290
 20
-7080
 10
2300
 20
-7080
 10
2300
 20
-7070
 10
2310
 20
-7070
 10
2310
 20
-7060
 10
2320
 20
-7060
 10
2320
 20
-7050
 10
2330
 20
-7050
 10
2330
 20
-7040
 10
2340
 20
-7040
 10
2340
 20
-7030
 10
2350
 20
-7030
 10
2350
 20
-7020
 10
2360
 20
-7020
 10
2360
 20
-7000
 10
2370
 20
-7000
 10
2370
 20
-6970
 10
2380
 20
-6970
 10
2380
 20
-6950
 10
2390
 20
-6950
 10
2390
 20
-6910
 10
2400
 20
-6910
 10
2400
 20
-6860
 10
2410
 20
-6860
 10
2410
 20
-6830
 10
2420
 20
-6830
 10
2420
 20
-6820
 10
2430
 20
-6820
 10
2430
 20
-6810
 10
2450
 20
-6810
 10
2450
 20
-6800
 10
2480
 20
-6800
 10
2480
 20
-6790
 10
2550
 20
-6790
 10
2550
 20
-6780
 10
2960
 20
-6780
 10
2960
 20
-6770
 10
2990
 20
-6770
 10
2990
 20
-6780
 10
3030
 20
-6780
 10
3030
 20
-6770
 10
3040
 20
-6770
 10
3040
 20
-6780
 10
3340
 20
-6780
 10
3340
 20
-6790
 10
3390
 20
-6790
 10
3390
 20
-6800
 10
3420
 20
-6800
 10
3420
 20
-6810
 10
3430
 20
-6810
 10
3430
 20
-6830
 10
3440
 20
-6830
 10
3440
 20
-6860
 10
3450
 20
-6860
 10
3450
 20
-7040
 10
3460
 20
-7040
 10
3460
 20
-7370
 10
3470
 20
-7370
 10
3470
 20
-7380
 10
3480
 20
-7380
 10
3480
 20
-7410
 10
3470
 20
-7410
 10
3470
 20
-7420
 10
3460
 20
-7420
 10
3460
 20
-7690
 10
3450
 20
-7690
 10
3450
 20
-7810
 10
3440
 20
-7810
 10
3440
 20
-7850
 10
3430
 20
-7850
 10
3430
 20
-7870
 10
3420
 20
-7870
 10
3420
 20
-7880
 10
3400
 20
-7880
 10
3400
 20
-7890
 10
3360
 20
-7890
 10
3360
 20
-7900
 10
3120
 20
-7900
 10
3120
 20
-7910
 10
3090
 20
-7910
 10
3090
 20
-7900
 10
3060
 20
-7900
 10
3060
 20
-7910
 10
3040
 20
-7910
 10
3040
 20
-7900
 10
3010
 20
-7900
 10
3010
 20
-7910
 10
2990
 20
-7910
 10
2990
 20
-7900
 10
2980
 20
-7900
 10
2980
 20
-7910
 10
2700
 20
-7910
 10
2700
 20
-7900
 10
2680
 20
-7900
 10
2680
 20
-7910
  0
LWPOLYLINE
  5
67
100
AcDbEntity
  8
L10D0
  6
ByLayer
 62
  256
370
   -1
100
AcDbPolyline
 90
  318
 70
    1
 43
0
 10
2710
 20
-6410
 10
2710
 20
-6400
 10
2600
 20
-6400
 10
2600
 20
-5980
 10
2610
 20
-5980
 10
2610
 20
-5990
 10
2620
 20
-5990
 10
2620
 20
-6000
 10
2640
 20
-6000
 10
2640
 20
-6010
 10
2650
 20
-6010
 10
2650
 20
-6020
 10
2660
 20
-6020
 10
2660
 20
-6030
 10
2700
 20
-6030
 10
2700
 20
-6040
 10
2800
 20
-6040
 10
2800
 20
-6030
 10
2830
 20
-6030
 10
2830
 20
-6020
 10
2850
 20
-6020
 10
2850
 20
-6010
 10
2860
 20
-6010
 10
2860
 20
-6000
 10
2880
 20
-6000
 10
2880
 20
-5990
 10
2890
 20
-5990
 10
2890
 20
-5980
 10
2900
 20
-5980
 10
2900
 20
-5970
 10
2910
 20
-5970
 10
2910
 20
-5960
 10
2920
 20
-5960
 10
2920
 20
-5940
 10
2930
 20
-5940
 10
2930
 20
-5930
 10
2940
 20
-5930
 10
2940
 20
-5900
 10
2950
 20
-5900
 10
2950
 20
-5790
 10
2940
 20
-5790
 10
2940
 20
-5760
 10
2930
 20
-5760
 10
2930
 20
-5740
 10
2920
 20
-5740
 10
2920
 20
-5720
 10
2910
 20
-5720
 10
2910
 20
-5710
 10
2900
 20
-5710
 10
2900
 20
-5700
 10
2880
 20
-5700
 10
2880
 20
-5690
 10
2870
 20
-5690
 10
2870
 20
-5680
 10
2860
 20
-5680
 10
2860
 20
-5670
 10
2840
 20
-5670
 10
2840
 20
-5660
 10
2820
 20
-5660
 10
2820
 20
-5650
 10
2770
 20
-5650
 10
2770
 20
-5640
 10
2720
 20
-5640
 10
2720
 20
-5650
 10
2690
 20
-5650
 10
2690
 20
-5660
 10
2660
 20
-5660
 10
2660
 20
-5670
 10
2650
 20
-5670
 10
2650
 20
-5680
 10
2630
 20
-5680
 10
2630
 20
-5690
 10
2620
 20
-5690
 10
2620
 20
-5700
 10
2610
 20
-5700
 10
2610
 20
-5710
 10
2600
 20
-5710
 10
2600
 20
-5720
 10
2590
 20
-5720
 10
2590
 20
-5730
 10
2580
 20
-5730
 10
2580
 20
-5750
 10
2570
 20
-5750
 10
2570
 20
-5770
 10
2560
 20
-5770
 10
2560
 20
-5800
 10
2550
 20
-5800
 10
2550
 20
-5890
 10
2560
 20
-5890
 10
2560
 20
-5920
 10
2570
 20
-5920
 10
2570
 20
-5940
 10
2580
 20
-5940
 10
2580
 20
-5960
 10
2590
 20
-5960
 10
2590
 20
-5970
 10
2600
 20
-5970
 10
2600
 20
-6400
 10
2500
 20
-6400
 10
2500
 20
-6390
 10
2460
 20
-6390
 10
2460
 20
-6380
 10
2440
 20
-6380
 10
2440
 20
-6370
 10
2420
 20
-6370
 10
2420
 20
-6350
 10
2410
 20
-6350
 10
2410
 20
-6320
 10
2400
 20
-6320
 10
2400
 20
-6280
 10
2390
 20
-6280
 10
2390
 20
-6230
 10
2380
 20
-6230
 10
2380
 20
-6210
 10
2370
 20
-6210
 10
2370
 20
-6180
 10
2360
 20
-6180
 10
2360
 20
-6170
 10
2350
 20
-6170
 10
2350
 20
-6150
 10
2340
 20
-6150
 10
2340
 20
-6140
 10
2330
 20
-6140
 10
2330
 20
-6130
 10
2320
 20
-6130
 10
2320
 20
-6120
 10
2310
 20
-6120
 10
2310
 20
-6110
 10
2300
 20
-6110
 10
2300
 20
-6100
 10
2270
 20
-6100
 10
2270
 20
-6090
 10
2260
 20
-6090
 10
2260
 20
-6080
 10
2210
 20
-6080
 10
2210
 20
-6070
 10
2140
 20
-6070
 10
2140
 20
-6060
 10
1600
 20
-6060
 10
1600
 20
-6070
 10
1550
 20
-6070
 10
1550
 20
-6060
 10
1540
 20
-6060
 10
1540
 20
-6070
 10
1510
 20
-6070
 10
1510
 20
-6080
 10
1490
 20
-6080
 10
1490
 20
-6090
 10
1470
 20
-6090
 10
1470
 20
-6100
 10
1430
 20
-6100
 10
1430
 20
-6110
 10
1380
 20
-6110
 10
1380
 20
-6100
 10
1310
 20
-6100
 10
1310
 20
-6110
 10
1160
 20
-6110
 10
1160
 20
-6100
 10
1130
 20
-6100
 10
1130
 20
-6090
 10
1110
 20
-6090
 10
1110
 20
-6080
 10
1090
 20
-6080
 10
1090
 20
-6070
 10
1020
 20
-6070
 10
1020
 20
-6060
 10
720
 20
-6060
 10
720
 20
-6070
 10
470
 20
-6070
 10
470
 20
-6080
 10
320
 20
-6080
 10
320
 20
-6070
 10
100
 20
-6070
 10
100
 20
-6060
 10
90
 20
-6060
 10
90
 20
-5880
 10
80
 20
-5880
 10
80
 20
-5820
 10
90
 20
-5820
 10
90
 20
-5630
 10
100
 20
-5630
 10
100
 20
-5610
 10
130
 20
-5610
 10
130
 20
-5600
 10
350
 20
-5600
 10
350
 20
-5590
 10
620
 20
-5590
 10
620
 20
-5600
 10
1030
 20
-5600
 10
1030
 20
-5590
 10
1090
 20
-5590
 10
1090
 20
-5580
 10
1110
 20
-5580
 10
1110
 20
-5570
 10
1120
 20
-5570
 10
1120
 20
-5560
 10
1130
 20
-5560
 10
1130
 20
-5550
 10
1140
 20
-5550
 10
1140
 20
-5540
 10
1160
 20
-5540
 10
1160
 20
-5530
 10
1190
 20
-5530
 10
1190
 20
-5520
 10
1250
 20
-5520
 10
1250
 20
-5530
 10
1320
 20
-5530
 10
1320
 20
-5540
 10
1410
 20
-5540
 10
1410
 20
-5550
 10
1450
 20
-5550
 10
1450
 20
-5560
 10
1460
 20
-5560
 10
1460
 20
-5570
 10
1490
 20
-5570
 10
1490
 20
-5580
 10
1500
 20
-5580
 10
1500
 20
-5590
 10
1520
 20
-5590
 10
1520
 20
-5600
 10
2100
 20
-5600
 10
2100
 20
-5590
 10
2210
 20
-5590
 10
2210
 20
-5580
 10
2250
 20
-5580
 10
2250
 20
-5570
 10
2270
 20
-5570
 10
2270
 20
-5560
 10
2290
 20
-5560
 10
2290
 20
-5550
 10
2310
 20
-5550
 10
2310
 20
-5540
 10
2320
 20
-5540
 10
2320
 20
-5530
 10
2330
 20
-5530
 10
2330
 20
-5520
 10
2340
 20
-5520
 10
2340
 20
-5510
 10
2350
 20
-5510
 10
2350
 20
-5500
 10
2360
 20
-5500
 10
2360
 20
-5480
 10
2370
 20
-5480
 10
2370
 20
-5460
 10
2380
 20
-5460
 10
2380
 20
-5430
 10
2390
 20
-5430
 10
2390
 20
-5410
 10
2400
 20
-5410
 10
2400
 20
-5360
 10
2410
 20
-5360
 10
2410
 20
-5330
 10
2420
 20
-5330
 10
2420
 20
-5320
 10
2440
 20
-5320
 10
2440
 20
-5310
 10
2450
 20
-5310
 10
2450
 20
-5300
 10
2480
 20
-5300
 10
2480
 20
-5290
 10
2550
 20
-5290
 10
2550
 20
-5280
 10
2720
 20
-5280
 10
2720
 20
-5270
 10
2730
 20
-5270
 10
2730
 20
-5280
 10
2890
 20
-5280
 10
2890
 20
-5270
 10
2920
 20
-5270
 10
2920
 20
-5280
 10
2960
 20
-5280
 10
2960
 20
-5270
 10
2970
 20
-5270
 10
2970
 20
-5280
 10
3330
 20
-5280
 10
3330
 20
-5290
 10
3400
 20
-5290
 10
3400
 20
-5300
 10
3420
 20
-5300
 10
3420
 20
-5310
 10
3430
 20
-5310
 10
3430
 20
-5320
 10
3440
 20
-5320
 10
3440
 20
-5340
 10
3450
 20
-5340
 10
3450
 20
-5390
 10
3460
 20
-5390
 10
3460
 20
-5830
 10
3470
 20
-5830
 10
3470
 20
-5870
 10
3480
 20
-5870
 10
3480
 20
-5920
 10
3470
 20
-5920
 10
3470
 20
-5940
 10
3460
 20
-5940
 10
3460
 20
-6250
 10
3450
 20
-6250
 10
3450
 20
-6330
 10
3440
 20
-6330
 10
3440
 20
-6360
 10
3430
 20
-6360
 10
3430
 20
-6370
 10
3420
 20
-6370
 10
3420
 20
-6380
 10
3410
 20
-6380
 10
3410
 20
-6390
 10
3340
 20
-6390
 10
3340
 20
-6400
 10
2860
 20
-6400
 10
2860
 20
-6410
 10
2830
 20
-6410
 10
2830
 20
-6400
 10
2800
 20
-6400
 10
2800
 20
-6410
 10
2780
 20
-6410
 10
2780
 20
-6400
 10
2760
 20
-6400
 10
2760
 20
-6410
  0
LWPOLYLINE
  5
68
100
AcDbEntity
  8
L10D0
  6
ByLayer
 62
  256
370
   -1
100
AcDbPolyline
 90
  308
 70
    1
 43
0
 10
2640
 20
-4960
 10
2640
 20
-4950
 10
2550
 20
-4950
 10
2550
 20
-4540
 10
2560
 20
-4540
 10
2560
 20
-4580
 10
2570
 20
-4580
 10
2570
 20
-4600
 10
2580
 20
-4600
 10
2580
 20
-4620
 10
2590
 20
-4620
 10
2590
 20
-4630
 10
2600
 20
-4630
 10
2600
 20
-4640
 10
2610
 20
-4640
 10
2610
 20
-4650
 10
2620
 20
-4650
 10
2620
 20
-4660
 10
2630
 20
-4660
 10
2630
 20
-4670
 10
2640
 20
-4670
 10
2640
 20
-4680
 10
2660
 20
-4680
 10
2660
 20
-4690
 10
2690
 20
-4690
 10
2690
 20
-4700
 10
2710
 20
-4700
 10
2710
 20
-4710
 10
2790
 20
-4710
 10
2790
 20
-4700
 10
2820
 20
-4700
 10
2820
 20
-4690
 10
2850
 20
-4690
 10
2850
 20
-4680
 10
2860
 20
-4680
 10
2860
 20
-4670
 10
2880
 20
-4670
 10
2880
 20
-4660
 10
2890
 20
-4660
 10
2890
 20
-4650
 10
2900
 20
-4650
 10
2900
 20
-4640
 10
2910
 20
-4640
 10
2910
 20
-4630
 10
2920
 20
-4630
 10
2920
 20
-4620
 10
2930
 20
-4620
 10
2930
 20
-4590
 10
2940
 20
-4590
 10
2940
 20
-4570
 10
2950
 20
-4570
 10
2950
 20
-4540
 10
2960
 20
-4540
 10
2960
 20
-4480
 10
2950
 20
-4480
 10
2950
 20
-4440
 10
2940
 20
-4440
 10
2940
 20
-4420
 10
2930
 20
-4420
 10
2930
 20
-4400
 10
2920
 20
-4400
 10
2920
 20
-4390
 10
2910
 20
-4390
 10
2910
 20
-4370
 10
2900
 20
-4370
 10
2900
 20
-4360
 10
2880
 20
-4360
 10
2880
 20
-4350
 10
2870
 20
-4350
 10
2870
 20
-4340
 10
2850
 20
-4340
 10
2850
 20
-4330
 10
2830
 20
-4330
 10
2830
 20
-4320
 10
2790
 20
-4320
 10
2790
 20
-4310
 10
2710
 20
-4310
 10
2710
 20
-4320
 10
2670
 20
-4320
 10
2670
 20
-4330
 10
2660
 20
-4330
 10
2660
 20
-4340
 10
2640
 20
-4340
 10
2640
 20
-4350
 10
2630
 20
-4350
 10
2630
 20
-4360
 10
2620
 20
-4360
 10
2620
 20
-4370
 10
2610
 20
-4370
 10
2610
 20
-4380
 10
2600
 20
-4380
 10
2600
 20
-4390
 10
2590
 20
-4390
 10
2590
 20
-4400
 10
2580
 20
-4400
 10
2580
 20
-4420
 10
2570
 20
-4420
 10
2570
 20
-4440
 10
2560
 20
-4440
 10
2560
 20
-4490
 10
2550
 20
-4490
 10
2550
 20
-4950
 10
2510
 20
-4950
 10
2510
 20
-4940
 10
2460
 20
-4940
 10
2460
 20
-4930
 10
2440
 20
-4930
 10
2440
 20
-4920
 10
2420
 20
-4920
 10
2420
 20
-4910
 10
2410
 20
-4910
 10
2410
 20
-4870
 10
2400
 20
-4870
 10
2400
 20
-4790
 10
2390
 20
-4790
 10
2390
 20
-4730
 10
2380
 20
-4730
 10
2380
 20
-4690
 10
2370
 20
-4690
 10
2370
 20
-4670
 10
2360
 20
-4670
 10
2360
 20
-4650
 10
2350
 20
-4650
 10
2350
 20
-4630
 10
2340
 20
-4630
 10
2340
 20
-4620
 10
2330
 20
-4620
 10
2330
 20
-4610
 10
2320
 20
-4610
 10
2320
 20
-4600
 10
2310
 20
-4600
 10
2310
 20
-4590
 10
2300
 20
-4590
 10
2300
 20
-4580
 10
2280
 20
-4580
 10
2280
 20
-4570
 10
2260
 20
-4570
 10
2260
 20
-4560
 10
2240
 20
-4560
 10
2240
 20
-4550
 10
2180
 20
-4550
 10
2180
 20
-4540
 10
2020
 20
-4540
 10
2020
 20
-4530
 10
1840
 20
-4530
 10
1840
 20
-4540
 10
1820
 20
-4540
 10
1820
 20
-4530
 10
1740
 20
-4530
 10
1740
 20
-4540
 10
1510
 20
-4540
 10
1510
 20
-4550
 10
1480
 20
-4550
 10
1480
 20
-4560
 10
1460
 20
-4560
 10
1460
 20
-4570
 10
1160
 20
-4570
 10
1160
 20
-4560
 10
1140
 20
-4560
 10
1140
 20
-4550
 10
1130
 20
-4550
 10
1130
 20
-4540
 10
1110
 20
-4540
 10
1110
 20
-4530
 10
1080
 20
-4530
 10
1080
 20
-4520
 10
590
 20
-4520
 10
590
 20
-4530
 10
130
 20
-4530
 10
130
 20
-4520
 10
110
 20
-4520
 10
110
 20
-4500
 10
100
 20
-4500
 10
100
 20
-4080
 10
110
 20
-4080
 10
110
 20
-4070
 10
120
 20
-4070
 10
120
 20
-4060
 10
240
 20
-4060
 10
240
 20
-4050
 10
1080
 20
-4050
 10
1080
 20
-4040
 10
1100
 20
-4040
 10
1100
 20
-4030
 10
1120
 20
-4030
 10
1120
 20
-4020
 10
1130
 20
-4020
 10
1130
 20
-4010
 10
1150
 20
-4010
 10
1150
 20
-4000
 10
1160
 20
-4000
 10
1160
 20
-3990
 10
1190
 20
-3990
 10
1190
 20
-3980
 10
1230
 20
-3980
 10
1230
 20
-3990
 10
1300
 20
-3990
 10
1300
 20
-4000
 10
1380
 20
-4000
 10
1380
 20
-4010
 10
1460
 20
-4010
 10
1460
 20
-4020
 10
1480
 20
-4020
 10
1480
 20
-4040
 10
1490
 20
-4040
 10
1490
 20
-4050
 10
1500
 20
-4050
 10
1500
 20
-4060
 10
1520
 20
-4060
 10
1520
 20
-4070
 10
2130
 20
-4070
 10
2130
 20
-4060
 10
3060
 20
-4060
 10
3060
 20
-4070
 10
3090
 20
-4070
 10
3090
 20
-4080
 10
3120
 20
-4080
 10
3120
 20
-4090
 10
3140
 20
-4090
 10
3140
 20
-4100
 10
3160
 20
-4100
 10
3160
 20
-4110
 10
3180
 20
-4110
 10
3180
 20
-4120
 10
3190
 20
-4120
 10
3190
 20
-4130
 10
3200
 20
-4130
 10
3200
 20
-4140
 10
3210
 20
-4140
 10
3210
 20
-4150
 10
3220
 20
-4150
 10
3220
 20
-4160
 10
3230
 20
-4160
 10
3230
 20
-4170
 10
3240
 20
-4170
 10
3240
 20
-4180
 10
3250
 20
-4180
 10
3250
 20
-4190
 10
3260
 20
-4190
 10
3260
 20
-4200
 10
3270
 20
-4200
 10
3270
 20
-4210
 10
3280
 20
-4210
 10
3280
 20
-4220
 10
3290
 20
-4220
 10
3290
 20
-4230
 10
3300
 20
-4230
 10
3300
 20
-4240
 10
3310
 20
-4240
 10
3310
 20
-4250
 10
3320
 20
-4250
 10
3320
 20
-4260
 10
3330
 20
-4260
 10
3330
 20
-4270
 10
3340
 20
-4270
 10
3340
 20
-4280
 10
3360
 20
-4280
 10
3360
 20
-4300
 10
3370
 20
-4300
 10
3370
 20
-4310
 10
3380
 20
-4310
 10
3380
 20
-4320
 10
3390
 20
-4320
 10
3390
 20
-4330
 10
3400
 20
-4330
 10
3400
 20
-4340
 10
3410
 20
-4340
 10
3410
 20
-4350
 10
3420
 20
-4350
 10
3420
 20
-4360
 10
3430
 20
-4360
 10
3430
 20
-4380
 10
3440
 20
-4380
 10
3440
 20
-4410
 10
3450
 20
-4410
 10
3450
 20
-4470
 10
3460
 20
-4470
 10
3460
 20
-4770
 10
3470
 20
-4770
 10
3470
 20
-4800
 10
3480
 20
-4800
 10
3480
 20
-4810
 10
3470
 20
-4810
 10
3470
 20
-4830
 10
3460
 20
-4830
 10
3460
 20
-4850
 10
3450
 20
-4850
 10
3450
 20
-4890
 10
3440
 20
-4890
 10
3440
 20
-4910
 10
3430
 20
-4910
 10
3430
 20
-4920
 10
3420
 20
-4920
 10
3420
 20
-4930
 10
3410
 20
-4930
 10
3410
 20
-4940
 10
3350
 20
-4940
 10
3350
 20
-4950
 10
3230
 20
-4950
 10
3230
 20
-4960
 10
3200
 20
-4960
 10
3200
 20
-4950
 10
3160
 20
-4950
 10
3160
 20
-4960
 10
2700
 20
-4960
 10
2700
 20
-4950
 10
2660
 20
-4950
 10
2660
 20
-4960
  0
LWPOLYLINE
  5
69
100
AcDbEntity
  8
L10D0
  6
ByLayer
 62
  256
370
   -1
100
AcDbPolyline
 90
  302
 70
    1
 43
0
 10
1130
 20
-9210
 10
1130
 20
-9200
 10
1100
 20
-9200
 10
1100
 20
-9190
 10
1070
 20
-9190
 10
1070
 20
-9180
 10
770
 20
-9180
 10
770
 20
-9190
 10
710
 20
-9190
 10
710
 20
-9180
 10
690
 20
-9180
 10
690
 20
-9190
 10
510
 20
-9190
 10
510
 20
-9200
 10
220
 20
-9200
 10
220
 20
-9190
 10
210
 20
-9190
 10
210
 20
-9200
 10
110
 20
-9200
 10
110
 20
-9190
 10
90
 20
-9190
 10
90
 20
-9180
 10
80
 20
-9180
 10
80
 20
-9010
 10
90
 20
-9010
 10
90
 20
-8810
 10
80
 20
-8810
 10
80
 20
-8760
 10
90
 20
-8760
 10
90
 20
-8740
 10
110
 20
-8740
 10
110
 20
-8730
 10
220
 20
-8730
 10
220
 20
-8720
 10
950
 20
-8720
 10
950
 20
-8710
 10
960
 20
-8710
 10
960
 20
-8720
 10
980
 20
-8720
 10
980
 20
-8710
 10
1050
 20
-8710
 10
1050
 20
-8700
 10
1080
 20
-8700
 10
1080
 20
-8690
 10
1090
 20
-8690
 10
1090
 20
-8680
 10
1110
 20
-8680
 10
1110
 20
-8660
 10
1120
 20
-8660
 10
1120
 20
-8650
 10
1130
 20
-8650
 10
1130
 20
-8640
 10
1140
 20
-8640
 10
1140
 20
-8630
 10
1160
 20
-8630
 10
1160
 20
-8620
 10
1410
 20
-8620
 10
1410
 20
-8630
 10
1450
 20
-8630
 10
1450
 20
-8640
 10
1470
 20
-8640
 10
1470
 20
-8650
 10
1480
 20
-8650
 10
1480
 20
-8660
 10
1500
 20
-8660
 10
1500
 20
-8670
 10
2060
 20
-8670
 10
2060
 20
-8660
 10
2180
 20
-8660
 10
2180
 20
-8650
 10
2220
 20
-8650
 10
2220
 20
-8640
 10
2250
 20
-8640
 10
2250
 20
-8630
 10
2270
 20
-8630
 10
2270
 20
-8620
 10
2290
 20
-8620
 10
2290
 20
-8610
 10
2300
 20
-8610
 10
2300
 20
-8600
 10
2310
 20
-8600
 10
2310
 20
-8590
 10
2320
 20
-8590
 10
2320
 20
-8580
 10
2330
 20
-8580
 10
2330
 20
-8570
 10
2340
 20
-8570
 10
2340
 20
-8550
 10
2350
 20
-8550
 10
2350
 20
-8530
 10
2360
 20
-8530
 10
2360
 20
-8510
 10
2370
 20
-8510
 10
2370
 20
-8490
 10
2380
 20
-8490
 10
2380
 20
-8420
 10
2390
 20
-8420
 10
2390
 20
-8340
 10
2400
 20
-8340
 10
2400
 20
-8300
 10
2410
 20
-8300
 10
2410
 20
-8280
 10
2420
 20
-8280
 10
2420
 20
-8270
 10
2430
 20
-8270
 10
2430
 20
-8260
 10
2450
 20
-8260
 10
2450
 20
-8250
 10
2500
 20
-8250
 10
2500
 20
-8240
 10
2620
 20
-8240
 10
2620
 20
-8230
 10
3290
 20
-8230
 10
3290
 20
-8240
 10
3380
 20
-8240
 10
3380
 20
-8250
 10
3400
 20
-8250
 10
3400
 20
-8260
 10
3410
 20
-8260
 10
3410
 20
-8270
 10
3420
 20
-8270
 10
3420
 20
-8280
 10
3430
 20
-8280
 10
3430
 20
-8300
 10
3440
 20
-8300
 10
3440
 20
-8400
 10
3450
 20
-8400
 10
3450
 20
-8690
 10
3440
 20
-8690
 10
3440
 20
-8760
 10
3430
 20
-8760
 10
3430
 20
-8800
 10
3420
 20
-8800
 10
3420
 20
-8820
 10
3410
 20
-8820
 10
3410
 20
-8830
 10
3400
 20
-8830
 10
3400
 20
-8850
 10
3380
 20
-8850
 10
3380
 20
-8870
 10
3360
 20
-8870
 10
3360
 20
-8890
 10
3350
 20
-8890
 10
3350
 20
-8900
 10
3340
 20
-8900
 10
3340
 20
-8910
 10
3330
 20
-8910
 10
3330
 20
-8920
 10
3310
 20
-8920
 10
3310
 20
-8930
 10
3300
 20
-8930
 10
3300
 20
-8940
 10
3290
 20
-8940
 10
3290
 20
-8950
 10
3280
 20
-8950
 10
3280
 20
-8960
 10
3270
 20
-8960
 10
3270
 20
-8980
 10
3250
 20
-8980
 10
3250
 20
-8990
 10
3240
 20
-8990
 10
3240
 20
-9000
 10
3230
 20
-9000
 10
3230
 20
-9010
 10
3220
 20
-9010
 10
3220
 20
-9020
 10
3210
 20
-9020
 10
3210
 20
-9030
 10
3200
 20
-9030
 10
3200
 20
-9050
 10
3180
 20
-9050
 10
3180
 20
-9060
 10
3170
 20
-9060
 10
3170
 20
-9070
 10
3160
 20
-9070
 10
3160
 20
-9080
 10
3150
 20
-9080
 10
3150
 20
-9090
 10
3140
 20
-9090
 10
3140
 20
-9100
 10
3120
 20
-9100
 10
3120
 20
-9110
 10
3100
 20
-9110
 10
3100
 20
-9120
 10
3060
 20
-9120
 10
3060
 20
-9130
 10
2980
 20
-9130
 10
2980
 20
-9140
 10
2540
 20
-9140
 10
2540
 20
-8750
 10
2550
 20
-8750
 10
2550
 20
-8770
 10
2560
 20
-8770
 10
2560
 20
-8790
 10
2570
 20
-8790
 10
2570
 20
-8810
 10
2580
 20
-8810
 10
2580
 20
-8820
 10
2590
 20
-8820
 10
2590
 20
-8830
 10
2600
 20
-8830
 10
2600
 20
-8840
 10
2610
 20
-8840
 10
2610
 20
-8850
 10
2630
 20
-8850
 10
2630
 20
-8860
 10
2640
 20
-8860
 10
2640
 20
-8870
 10
2660
 20
-8870
 10
2660
 20
-8880
 10
2700
 20
-8880
 10
2700
 20
-8890
 10
2760
 20
-8890
 10
2760
 20
-8880
 10
2820
 20
-8880
 10
2820
 20
-8870
 10
2830
 20
-8870
 10
2830
 20
-8860
 10
2850
 20
-8860
 10
2850
 20
-8850
 10
2870
 20
-8850
 10
2870
 20
-8840
 10
2880
 20
-8840
 10
2880
 20
-8830
 10
2890
 20
-8830
 10
2890
 20
-8820
 10
2900
 20
-8820
 10
2900
 20
-8800
 10
2910
 20
-8800
 10
2910
 20
-8790
 10
2920
 20
-8790
 10
2920
 20
-8770
 10
2930
 20
-8770
 10
2930
 20
-8740
 10
2940
 20
-8740
 10
2940
 20
-8630
 10
2930
 20
-8630
 10
2930
 20
-8590
 10
2920
 20
-8590
 10
2920
 20
-8580
 10
2910
 20
-8580
 10
2910
 20
-8570
 10
2900
 20
-8570
 10
2900
 20
-8550
 10
2890
 20
-8550
 10
2890
 20
-8540
 10
2880
 20
-8540
 10
2880
 20
-8530
 10
2870
 20
-8530
 10
2870
 20
-8520
 10
2850
 20
-8520
 10
2850
 20
-8510
 10
2830
 20
-8510
 10
2830
 20
-8500
 10
2810
 20
-8500
 10
2810
 20
-8490
 10
2760
 20
-8490
 10
2760
 20
-8480
 10
2710
 20
-8480
 10
2710
 20
-8490
 10
2680
 20
-8490
 10
2680
 20
-8500
 10
2650
 20
-8500
 10
2650
 20
-8510
 10
2640
 20
-8510
 10
2640
 20
-8520
 10
2620
 20
-8520
 10
2620
 20
-8530
 10
2610
 20
-8530
 10
2610
 20
-8540
 10
2600
 20
-8540
 10
2600
 20
-8550
 10
2590
 20
-8550
 10
2590
 20
-8560
 10
2580
 20
-8560
 10
2580
 20
-8570
 10
2570
 20
-8570
 10
2570
 20
-8580
 10
2560
 20
-8580
 10
2560
 20
-8610
 10
2550
 20
-8610
 10
2550
 20
-8640
 10
2540
 20
-8640
 10
2540
 20
-9140
 10
2020
 20
-9140
 10
2020
 20
-9130
 10
1630
 20
-9130
 10
1630
 20
-9140
 10
1500
 20
-9140
 10
1500
 20
-9150
 10
1480
 20
-9150
 10
1480
 20
-9160
 10
1470
 20
-9160
 10
1470
 20
-9170
 10
1450
 20
-9170
 10
1450
 20
-9180
 10
1430
 20
-9180
 10
1430
 20
-9190
 10
1320
 20
-9190
 10
1320
 20
-9200
 10
1270
 20
-9200
 10
1270
 20
-9210
  0
LWPOLYLINE
  5
6A
100
AcDbEntity
  8
L10D0
  6
ByLayer
 62
  256
370
   -1
100
AcDbPolyline
 90
  342
 70
    1
 43
0
 10
1140
 20
-10780
 10
1140
 20
-10770
 10
1100
 20
-10770
 10
1100
 20
-10760
 10
1060
 20
-10760
 10
1060
 20
-10750
 10
740
 20
-10750
 10
740
 20
-10760
 10
490
 20
-10760
 10
490
 20
-10770
 10
80
 20
-10770
 10
80
 20
-10760
 10
70
 20
-10760
 10
70
 20
-10720
 10
60
 20
-10720
 10
60
 20
-10550
 10
70
 20
-10550
 10
70
 20
-10310
 10
80
 20
-10310
 10
80
 20
-10300
 10
180
 20
-10300
 10
180
 20
-10290
 10
390
 20
-10290
 10
390
 20
-10280
 10
400
 20
-10280
 10
400
 20
-10290
 10
410
 20
-10290
 10
410
 20
-10280
 10
670
 20
-10280
 10
670
 20
-10290
 10
780
 20
-10290
 10
780
 20
-10280
 10
1000
 20
-10280
 10
1000
 20
-10270
 10
1040
 20
-10270
 10
1040
 20
-10260
 10
1070
 20
-10260
 10
1070
 20
-10250
 10
1080
 20
-10250
 10
1080
 20
-10240
 10
1090
 20
-10240
 10
1090
 20
-10230
 10
1100
 20
-10230
 10
1100
 20
-10220
 10
1110
 20
-10220
 10
1110
 20
-10210
 10
1120
 20
-10210
 10
1120
 20
-10200
 10
1130
 20
-10200
 10
1130
 20
-10190
 10
1150
 20
-10190
 10
1150
 20
-10180
 10
1170
 20
-10180
 10
1170
 20
-10170
 10
1370
 20
-10170
 10
1370
 20
-10180
 10
1440
 20
-10180
 10
1440
 20
-10190
 10
1460
 20
-10190
 10
1460
 20
-10200
 10
1470
 20
-10200
 10
1470
 20
-10210
 10
1490
 20
-10210
 10
1490
 20
-10220
 10
1670
 20
-10220
 10
1670
 20
-10210
 10
1820
 20
-10210
 10
1820
 20
-10220
 10
1840
 20
-10220
 10
1840
 20
-10210
 10
1910
 20
-10210
 10
1910
 20
-10220
 10
1920
 20
-10220
 10
1920
 20
-10210
 10
1950
 20
-10210
 10
1950
 20
-10220
 10
1990
 20
-10220
 10
1990
 20
-10210
 10
2120
 20
-10210
 10
2120
 20
-10200
 10
2180
 20
-10200
 10
2180
 20
-10190
 10
2220
 20
-10190
 10
2220
 20
-10180
 10
2250
 20
-10180
 10
2250
 20
-10170
 10
2270
 20
-10170
 10
2270
 20
-10160
 10
2280
 20
-10160
 10
2280
 20
-10150
 10
2290
 20
-10150
 10
2290
 20
-10140
 10
2300
 20
-10140
 10
2300
 20
-10130
 10
2310
 20
-10130
 10
2310
 20
-10120
 10
2320
 20
-10120
 10
2320
 20
-10110
 10
2330
 20
-10110
 10
2330
 20
-10100
 10
2340
 20
-10100
 10
2340
 20
-10070
 10
2350
 20
-10070
 10
2350
 20
-10050
 10
2360
 20
-10050
 10
2360
 20
-10010
 10
2370
 20
-10010
 10
2370
 20
-9910
 10
2380
 20
-9910
 10
2380
 20
-9770
 10
2390
 20
-9770
 10
2390
 20
-9740
 10
2400
 20
-9740
 10
2400
 20
-9720
 10
2410
 20
-9720
 10
2410
 20
-9710
 10
2420
 20
-9710
 10
2420
 20
-9700
 10
2430
 20
-9700
 10
2430
 20
-9690
 10
2470
 20
-9690
 10
2470
 20
-9680
 10
2540
 20
-9680
 10
2540
 20
-10110
 10
2530
 20
-10110
 10
2530
 20
-10240
 10
2540
 20
-10240
 10
2540
 20
-10260
 10
2550
 20
-10260
 10
2550
 20
-10280
 10
2560
 20
-10280
 10
2560
 20
-10300
 10
2570
 20
-10300
 10
2570
 20
-10310
 10
2580
 20
-10310
 10
2580
 20
-10320
 10
2590
 20
-10320
 10
2590
 20
-10330
 10
2600
 20
-10330
 10
2600
 20
-10340
 10
2610
 20
-10340
 10
2610
 20
-10350
 10
2630
 20
-10350
 10
2630
 20
-10360
 10
2660
 20
-10360
 10
2660
 20
-10370
 10
2710
 20
-10370
 10
2710
 20
-10380
 10
2770
 20
-10380
 10
2770
 20
-10370
 10
2800
 20
-10370
 10
2800
 20
-10360
 10
2820
 20
-10360
 10
2820
 20
-10350
 10
2840
 20
-10350
 10
2840
 20
-10340
 10
2850
 20
-10340
 10
2850
 20
-10330
 10
2860
 20
-10330
 10
2860
 20
-10320
 10
2870
 20
-10320
 10
2870
 20
-10310
 10
2890
 20
-10310
 10
2890
 20
-10290
 10
2900
 20
-10290
 10
2900
 20
-10280
 10
2910
 20
-10280
 10
2910
 20
-10260
 10
2920
 20
-10260
 10
2920
 20
-10230
 10
2930
 20
-10230
 10
2930
 20
-10160
 10
2940
 20
-10160
 10
2940
 20
-10150
 10
2930
 20
-10150
 10
2930
 20
-10110
 10
2920
 20
-10110
 10
2920
 20
-10080
 10
2910
 20
-10080
 10
2910
 20
-10060
 10
2900
 20
-10060
 10
2900
 20
-10050
 10
2890
 20
-10050
 10
2890
 20
-10040
 10
2880
 20
-10040
 10
2880
 20
-10030
 10
2870
 20
-10030
 10
2870
 20
-10020
 10
2860
 20
-10020
 10
2860
 20
-10010
 10
2840
 20
-10010
 10
2840
 20
-10000
 10
2830
 20
-10000
 10
2830
 20
-9990
 10
2810
 20
-9990
 10
2810
 20
-9980
 10
2760
 20
-9980
 10
2760
 20
-9970
 10
2680
 20
-9970
 10
2680
 20
-9980
 10
2660
 20
-9980
 10
2660
 20
-9990
 10
2630
 20
-9990
 10
2630
 20
-10000
 10
2620
 20
-10000
 10
2620
 20
-10010
 10
2600
 20
-10010
 10
2600
 20
-10030
 10
2580
 20
-10030
 10
2580
 20
-10040
 10
2570
 20
-10040
 10
2570
 20
-10060
 10
2560
 20
-10060
 10
2560
 20
-10070
 10
2550
 20
-10070
 10
2550
 20
-10090
 10
2540
 20
-10090
 10
2540
 20
-9680
 10
2550
 20
-9680
 10
2550
 20
-9670
 10
2910
 20
-9670
 10
2910
 20
-9660
 10
2930
 20
-9660
 10
2930
 20
-9670
 10
2940
 20
-9670
 10
2940
 20
-9660
 10
2960
 20
-9660
 10
2960
 20
-9670
 10
3290
 20
-9670
 10
3290
 20
-9680
 10
3360
 20
-9680
 10
3360
 20
-9690
 10
3400
 20
-9690
 10
3400
 20
-9700
 10
3430
 20
-9700
 10
3430
 20
-9830
 10
3440
 20
-9830
 10
3440
 20
-10230
 10
3430
 20
-10230
 10
3430
 20
-10300
 10
3420
 20
-10300
 10
3420
 20
-10340
 10
3410
 20
-10340
 10
3410
 20
-10360
 10
3400
 20
-10360
 10
3400
 20
-10370
 10
3390
 20
-10370
 10
3390
 20
-10390
 10
3380
 20
-10390
 10
3380
 20
-10400
 10
3370
 20
-10400
 10
3370
 20
-10410
 10
3360
 20
-10410
 10
3360
 20
-10430
 10
3350
 20
-10430
 10
3350
 20
-10440
 10
3340
 20
-10440
 10
3340
 20
-10450
 10
3330
 20
-10450
 10
3330
 20
-10460
 10
3320
 20
-10460
 10
3320
 20
-10470
 10
3310
 20
-10470
 10
3310
 20
-10480
 10
3300
 20
-10480
 10
3300
 20
-10490
 10
3290
 20
-10490
 10
3290
 20
-10500
 10
3280
 20
-10500
 10
3280
 20
-10510
 10
3260
 20
-10510
 10
3260
 20
-10520
 10
3250
 20
-10520
 10
3250
 20
-10540
 10
3240
 20
-10540
 10
3240
 20
-10550
 10
3230
 20
-10550
 10
3230
 20
-10560
 10
3220
 20
-10560
 10
3220
 20
-10570
 10
3210
 20
-10570
 10
3210
 20
-10580
 10
3200
 20
-10580
 10
3200
 20
-10590
 10
3180
 20
-10590
 10
3180
 20
-10600
 10
3170
 20
-10600
 10
3170
 20
-10610
 10
3160
 20
-10610
 10
3160
 20
-10620
 10
3150
 20
-10620
 10
3150
 20
-10630
 10
3130
 20
-10630
 10
3130
 20
-10640
 10
3120
 20
-10640
 10
3120
 20
-10650
 10
3100
 20
-10650
 10
3100
 20
-10660
 10
3080
 20
-10660
 10
3080
 20
-10670
 10
3040
 20
-10670
 10
3040
 20
-10680
 10
2790
 20
-10680
 10
2790
 20
-10690
 10
2500
 20
-10690
 10
2500
 20
-10680
 10
2480
 20
-10680
 10
2480
 20
-10690
 10
2310
 20
-10690
 10
2310
 20
-10680
 10
2300
 20
-10680
 10
2300
 20
-10690
 10
2260
 20
-10690
 10
2260
 20
-10680
 10
2190
 20
-10680
 10
2190
 20
-10690
 10
2170
 20
-10690
 10
2170
 20
-10680
 10
1660
 20
-10680
 10
1660
 20
-10690
 10
1630
 20
-10690
 10
1630
 20
-10680
 10
1590
 20
-10680
 10
1590
 20
-10690
 10
1490
 20
-10690
 10
1490
 20
-10700
 10
1470
 20
-10700
 10
1470
 20
-10710
 10
1460
 20
-10710
 10
1460
 20
-10720
 10
1440
 20
-10720
 10
1440
 20
-10730
 10
1430
 20
-10730
 10
1430
 20
-10740
 10
1410
 20
-10740
 10
1410
 20
-10750
 10
1330
 20
-10750
 10
1330
 20
-10760
 10
1280
 20
-10760
 10
1280
 20
-10770
 10
1220
 20
-10770
 10
1220
 20
-10780
  0
LWPOLYLINE
  5
6B
100
AcDbEntity
  8
L10D0
  6
ByLayer
 62
  256
370
   -1
100
AcDbPolyline
 90
    4
 70
    1
 43
0
 10
9280
 20
-5990
 10
9280
 20
-5980
 10
9300
 20
-5980
 10
9300
 20
-5990
  0
LWPOLYLINE
  5
6C
100
AcDbEntity
  8
L10D0
  6
ByLayer
 62
  256
370
   -1
100
AcDbPolyline
 90
    4
 70
    1
 43
0
 10
9250
 20
-6000
 10
9250
 20
-5990
 10
9260
 20
-5990
 10
9260
 20
-6000
  0
LWPOLYLINE
  5
6D
100
AcDbEntity
  8
L10D0
  6
ByLayer
 62
  256
370
   -1
100
AcDbPolyline
 90
    4
 70
    1
 43
0
 10
9130
 20
-5020
 10
9130
 20
-5010
 10
9140
 20
-5010
 10
9140
 20
-5020
  0
LWPOLYLINE
  5
6E
100
AcDbEntity
  8
L10D0
  6
ByLayer
 62
  256
370
   -1
100
AcDbPolyline
 90
    4
 70
    1
 43
0
 10
9010
 20
-5120
 10
9010
 20
-5110
 10
9020
 20
-5110
 10
9020
 20
-5120
  0
LWPOLYLINE
  5
6F
100
AcDbEntity
  8
L10D0
  6
ByLayer
 62
  256
370
   -1
100
AcDbPolyline
 90
    4
 70
    1
 43
0
 10
8970
 20
-5150
 10
8970
 20
-5140
 10
8980
 20
-5140
 10
8980
 20
-5150
  0
LWPOLYLINE
  5
70
100
AcDbEntity
  8
L10D0
  6
ByLayer
 62
  256
370
   -1
100
AcDbPolyline
 90
    4
 70
    1
 43
0
 10
8940
 20
-6150
 10
8940
 20
-6140
 10
8950
 20
-6140
 10
8950
 20
-6150
  0
LWPOLYLINE
  5
71
100
AcDbEntity
  8
L10D0
  6
ByLayer
 62
  256
370
   -1
100
AcDbPolyline
 90
    4
 70
    1
 43
0
 10
6640
 20
-6780
 10
6640
 20
-6770
 10
6680
 20
-6770
 10
6680
 20
-6780
  0
LWPOLYLINE
  5
72
100
AcDbEntity
  8
L10D0
  6
ByLayer
 62
  256
370
   -1
100
AcDbPolyline
 90
    4
 70
    1
 43
0
 10
6560
 20
-7100
 10
6560
 20
-7090
 10
6650
 20
-7090
 10
6650
 20
-7100
  0
LWPOLYLINE
  5
73
100
AcDbEntity
  8
L10D0
  6
ByLayer
 62
  256
370
   -1
100
AcDbPolyline
 90
    4
 70
    1
 43
0
 10
6560
 20
-7420
 10
6560
 20
-7410
 10
6580
 20
-7410
 10
6580
 20
-7420
  0
LWPOLYLINE
  5
74
100
AcDbEntity
  8
L10D0
  6
ByLayer
 62
  256
370
   -1
100
AcDbPolyline
 90
    4
 70
    1
 43
0
 10
6340
 20
-6790
 10
6340
 20
-6780
 10
6390
 20
-6780
 10
6390
 20
-6790
  0
LWPOLYLINE
  5
75
100
AcDbEntity
  8
L10D0
  6
ByLayer
 62
  256
370
   -1
100
AcDbPolyline
 90
    4
 70
    1
 43
0
 10
6230
 20
-7420
 10
6230
 20
-7410
 10
6280
 20
-7410
 10
6280
 20
-7420
  0
LWPOLYLINE
  5
76
100
AcDbEntity
  8
L10D0
  6
ByLayer
 62
  256
370
   -1
100
AcDbPolyline
 90
    4
 70
    1
 43
0
 10
3920
 20
-9060
 10
3920
 20
-9040
 10
3930
 20
-9040
 10
3930
 20
-9060
  0
LWPOLYLINE
  5
77
100
AcDbEntity
  8
L10D0
  6
ByLayer
 62
  256
370
   -1
100
AcDbPolyline
 90
    4
 70
    1
 43
0
 10
3840
 20
-9160
 10
3840
 20
-9150
 10
3850
 20
-9150
 10
3850
 20
-9160
  0
LWPOLYLINE
  5
78
100
AcDbEntity
  8
L10D0
  6
ByLayer
 62
  256
370
   -1
100
AcDbPolyline
 90
    4
 70
    1
 43
0
 10
3680
 20
-9370
 10
3680
 20
-9360
 10
3690
 20
-9360
 10
3690
 20
-9370
  0
ENDSEC
  0
SECTION
  2
OBJECTS
  0
DICTIONARY
  5
C
330
0
100
AcDbDictionary
281
    1
  3
ACAD_GROUP
350
D
  0
DICTIONARY
  5
D
330
C
100
AcDbDictionary
281
    1
  0
ENDSEC
  0
EOF
